<?xml version="1.0" standalone="no"?>
<!DOCTYPE svg PUBLIC "-//W3C//DTD SVG 1.1//EN" "http://www.w3.org/Graphics/SVG/1.1/DTD/svg11.dtd" >
<svg xmlns="http://www.w3.org/2000/svg" xmlns:xlink="http://www.w3.org/1999/xlink" version="1.1">
<metadata>
Created by FontForge 20190801 at Fri Nov 18 14:26:36 2022
 By www-data
Copyright (c) 2022 by Eugene Tantsurin. All rights reserved.
</metadata>
<defs>
<font id="JUSTSansMedium" horiz-adv-x="506" >
  <font-face 
    font-family="JUSTSansMedium"
    font-weight="500"
    font-stretch="normal"
    units-per-em="1000"
    panose-1="0 0 6 0 0 0 0 0 0 0"
    ascent="800"
    descent="-200"
    x-height="510"
    cap-height="700"
    bbox="-578 -236 1225 972"
    underline-thickness="59"
    underline-position="-99"
    unicode-range="U+0020-FB02"
  />
<missing-glyph horiz-adv-x="600" 
d="M520 40h-440v620h440v-620zM177 604l116 -200h14l116 200h-246zM141 564v-428l123 214zM336 350l123 -214v428zM293 296l-116 -200h246l-116 200h-14z" />
    <glyph glyph-name="fl" unicode="fl" horiz-adv-x="662" 
d="M240 0h-113v413h-99v91h99v45q0 77 43 119t118 42q72 0 124 -33l-31 -77q-34 19 -71 19q-31 0 -50.5 -18.5t-19.5 -56.5v-40h141v-91h-141v-413zM596 0h-113v700h113v-700z" />
    <glyph glyph-name="f_f" unicode="ff" horiz-adv-x="781" 
d="M240 0h-113v413h-99v91h99v44q0 76 45.5 119t122.5 43q72 0 129 -35l-32 -78q-36 22 -77 22q-32 0 -53.5 -19.5t-21.5 -57.5v-38h252v45q0 77 43 119t118 42q72 0 124 -33l-31 -77q-34 19 -71 19q-31 0 -50.5 -18.5t-19.5 -56.5v-40h140v-91h-140v-413h-113v413h-252
v-413z" />
    <glyph glyph-name="f_f_i" unicode="ffi" horiz-adv-x="1037" 
d="M913 576q-32 0 -54.5 21t-22.5 52q0 32 22 53t55 21t55.5 -21t22.5 -53q0 -31 -22.5 -52t-55.5 -21zM240 0h-113v413h-99v91h99v44q0 76 45.5 119t122.5 43q72 0 129 -35l-32 -78q-36 22 -77 22q-32 0 -53.5 -19.5t-21.5 -57.5v-38h252v45q0 77 43 119t118 42
q72 0 124 -33l-31 -77q-34 19 -71 19q-31 0 -50.5 -18.5t-19.5 -56.5v-40h365v-504h-113v413h-252v-413h-113v413h-252v-413z" />
    <glyph glyph-name="f_i" unicode="fi" horiz-adv-x="672" 
d="M548 576q-32 0 -54.5 21t-22.5 52q0 32 22 53t55 21t55.5 -21t22.5 -53q0 -31 -22.5 -52t-55.5 -21zM240 0h-113v413h-99v91h99v45q0 77 43 119t118 42q72 0 124 -33l-31 -77q-34 19 -71 19q-31 0 -50.5 -18.5t-19.5 -56.5v-40h365v-504h-113v413h-252v-413z" />
    <glyph glyph-name=".notdef" horiz-adv-x="600" 
d="M520 40h-440v620h440v-620zM177 604l116 -200h14l116 200h-246zM141 564v-428l123 214zM336 350l123 -214v428zM293 296l-116 -200h246l-116 200h-14z" />
    <glyph glyph-name=".null" horiz-adv-x="0" 
 />
    <glyph glyph-name="nonmarkingreturn" horiz-adv-x="333" 
 />
    <glyph glyph-name="space" unicode=" " horiz-adv-x="243" 
 />
    <glyph glyph-name="exclam" unicode="!" horiz-adv-x="295" 
d="M197 216h-98l-13 484h124zM148 -10q-31 0 -53.5 20.5t-22.5 52.5q0 31 22.5 52t53.5 21q32 0 54 -21t22 -52q0 -32 -22 -52.5t-54 -20.5z" />
    <glyph glyph-name="quotedbl" unicode="&#x22;" horiz-adv-x="301" 
d="M122 478h-90l-8 232h106zM268 478h-89l-8 232h106z" />
    <glyph glyph-name="numbersign" unicode="#" horiz-adv-x="732" 
d="M213 0h-85l47 194h-132l19 77h132l39 158h-133l19 77h133l48 194h85l-47 -194h133l48 194h86l-48 -194h132l-19 -77h-132l-38 -158h132l-19 -77h-133l-47 -194h-86l48 194h-134zM319 429l-39 -158h134l38 158h-133z" />
    <glyph glyph-name="dollar" unicode="$" horiz-adv-x="625" 
d="M373 -106h-112v102q-77 13 -134 54.5t-80 110.5l105 31q21 -55 69 -82.5t107 -27.5q68 0 104 28t36 74q0 44 -42 70.5t-101.5 41.5t-119 35.5t-101.5 68.5t-42 124q0 73 53 123t146 60v99h112v-102q70 -11 120.5 -50t73.5 -105l-106 -31q-37 100 -152 100
q-62 0 -97.5 -26.5t-35.5 -67.5q0 -33 22.5 -55t58.5 -35t79.5 -24.5t86.5 -27t79 -38t58.5 -64t22.5 -97.5q0 -79 -55.5 -130t-154.5 -61v-98z" />
    <glyph glyph-name="percent" unicode="%" horiz-adv-x="851" 
d="M202 349q-79 0 -128.5 52t-49.5 129t49.5 128.5t128.5 51.5t128 -51.5t49 -128.5t-49 -129t-128 -52zM720 660l-524 -670l-64 50l523 670zM202 432q39 0 64 28t25 70q0 41 -25 69t-64 28t-64 -28t-25 -69q0 -42 25 -70t64 -28zM650 -10q-79 0 -128.5 51.5t-49.5 128.5
t49.5 129t128.5 52t128 -52t49 -129t-49 -128.5t-128 -51.5zM650 73q39 0 64 27.5t25 69.5t-25 70t-64 28t-64 -28t-25 -70t25 -69.5t64 -27.5z" />
    <glyph glyph-name="ampersand" unicode="&#x26;" horiz-adv-x="713" 
d="M635 89h34v-89h-56q-68 0 -115 52l-20 21q-86 -83 -205 -83q-93 0 -149 47t-56 128q0 68 35.5 116.5t98.5 94.5q-78 96 -78 176q0 70 47.5 114t128.5 44q79 0 125.5 -42.5t46.5 -110.5q0 -55 -34.5 -98.5t-98.5 -92.5l137 -148l9 14l86 133l81 -51l-91 -138
q-2 -3 -20 -29l22 -23q33 -35 72 -35zM224 549q0 -51 57 -118q44 32 67.5 61t23.5 63q0 30 -21 49.5t-52 19.5q-35 0 -55 -21t-20 -54zM278 81q76 0 138 60l-153 166q-85 -69 -85 -133q0 -42 27.5 -67.5t72.5 -25.5z" />
    <glyph glyph-name="quotesingle" unicode="'" horiz-adv-x="154" 
d="M122 478h-90l-8 232h106z" />
    <glyph glyph-name="parenleft" unicode="(" horiz-adv-x="314" 
d="M288 -165l-69 -38q-187 195 -187 468q0 274 187 468l69 -38q-148 -194 -148 -430t148 -430z" />
    <glyph glyph-name="parenright" unicode=")" horiz-adv-x="314" 
d="M96 -203l-69 38q147 194 147 430t-147 430l69 38q187 -196 187 -468q0 -273 -187 -468z" />
    <glyph glyph-name="asterisk" unicode="*" horiz-adv-x="406" 
d="M202 503l-63 -109l-58 42l85 94l-124 28l21 66l116 -50l-12 126h71l-12 -126l117 50l21 -66l-125 -28l84 -94l-56 -42z" />
    <glyph glyph-name="plus" unicode="+" 
d="M302 80h-97v170h-171v101h171v170h97v-170h170v-101h-170v-170z" />
    <glyph glyph-name="comma" unicode="," horiz-adv-x="231" 
d="M199 91l-112 -227l-78 25l75 240z" />
    <glyph glyph-name="hyphen" unicode="-" horiz-adv-x="409" 
d="M372 233h-335v94h335v-94z" />
    <glyph glyph-name="period" unicode="." horiz-adv-x="227" 
d="M114 -10q-32 0 -54 20.5t-22 52.5q0 31 22 52t54 21t53.5 -21t21.5 -52q0 -32 -21.5 -52.5t-53.5 -20.5z" />
    <glyph glyph-name="slash" unicode="/" horiz-adv-x="429" 
d="M114 -200h-114l314 930h115z" />
    <glyph glyph-name="zero" unicode="0" horiz-adv-x="686" 
d="M343 -10q-133 0 -214.5 99t-81.5 261t81.5 261t214.5 99t214.5 -99t81.5 -261t-81.5 -261t-214.5 -99zM343 93q84 0 133 68t49 189t-49 189t-133 68q-83 0 -132.5 -68t-49.5 -189t49.5 -189t132.5 -68z" />
    <glyph glyph-name="one" unicode="1" horiz-adv-x="384" 
d="M305 0h-114v565h-7l-151 -88v120l186 103h86v-700z" />
    <glyph glyph-name="two" unicode="2" horiz-adv-x="586" 
d="M539 0h-490v94l206 180q49 43 71.5 65t48.5 52t35.5 55.5t9.5 55.5q0 52 -37 82t-92 30q-52 0 -93 -29t-61 -82l-105 31q24 83 93.5 129.5t165.5 46.5q107 0 175 -56t68 -152q0 -76 -46.5 -139t-158.5 -158l-108 -94v-6h318v-105z" />
    <glyph glyph-name="three" unicode="3" horiz-adv-x="589" 
d="M519 606l-186 -186q98 -5 156 -63t58 -150q0 -99 -67.5 -158t-183.5 -59q-101 0 -172.5 45.5t-95.5 125.5l108 32q17 -50 59.5 -78t99.5 -28q63 0 100 33.5t37 89.5q0 58 -38 90.5t-105 32.5h-105v72l186 189v6h-317v100h466v-94z" />
    <glyph glyph-name="four" unicode="4" horiz-adv-x="607" 
d="M488 0h-115v137h-340v113l329 450h126v-460h96v-103h-96v-137zM373 552l-227 -312h227v312z" />
    <glyph glyph-name="five" unicode="5" horiz-adv-x="608" 
d="M308 -10q-100 0 -173 43.5t-97 121.5l109 31q19 -47 62.5 -72t99.5 -25q65 0 106 37.5t41 98.5q0 62 -40 99t-103 37q-84 0 -149 -58l-97 17l25 380h417v-100h-318l-13 -186h7q64 42 145 42q107 0 173.5 -63t66.5 -168t-71.5 -170t-190.5 -65z" />
    <glyph glyph-name="six" unicode="6" horiz-adv-x="599" 
d="M311 471q111 0 183.5 -66t72.5 -171q0 -108 -75 -176t-193 -68q-117 0 -191.5 68t-74.5 176q0 54 19 99.5t62 105.5l188 261h139v-8l-168 -223q24 2 38 2zM299 89q66 0 109.5 40.5t43.5 104.5t-43.5 104.5t-109.5 40.5t-109 -40.5t-43 -104.5t42.5 -104.5t109.5 -40.5z
" />
    <glyph glyph-name="seven" unicode="7" horiz-adv-x="546" 
d="M229 0h-130l280 587v6h-346v107h480v-101z" />
    <glyph glyph-name="eight" unicode="8" horiz-adv-x="603" 
d="M302 -10q-112 0 -185.5 56.5t-73.5 147.5q0 58 32.5 104t87.5 68q-100 52 -100 153q0 85 66 138t173 53t173 -53t66 -138q0 -50 -27 -89.5t-74 -63.5q55 -22 88 -68.5t33 -103.5q0 -91 -73.5 -147.5t-185.5 -56.5zM302 408q54 0 89.5 28t35.5 74q0 47 -35.5 75t-89.5 28
q-55 0 -90 -28t-35 -75q0 -46 35 -74t90 -28zM302 87q64 0 104 31t40 85q0 53 -40 84.5t-104 31.5t-104.5 -31.5t-40.5 -84.5q0 -54 40.5 -85t104.5 -31z" />
    <glyph glyph-name="nine" unicode="9" horiz-adv-x="599" 
d="M300 710q117 0 192 -68t75 -176q0 -54 -19 -99t-63 -106l-187 -261h-139v8l168 223q-24 -2 -39 -2q-110 0 -182.5 66t-72.5 171q0 108 75 176t192 68zM300 321q67 0 109.5 40.5t42.5 104.5t-42.5 104.5t-109.5 40.5q-66 0 -109.5 -40.5t-43.5 -104.5t43.5 -104.5
t109.5 -40.5z" />
    <glyph glyph-name="colon" unicode=":" horiz-adv-x="227" 
d="M114 374q-32 0 -54 21t-22 52q0 32 22 52.5t54 20.5t53.5 -20.5t21.5 -52.5q0 -31 -21.5 -52t-53.5 -21zM114 -10q-32 0 -54 20.5t-22 52.5q0 31 22 52t54 21t53.5 -21t21.5 -52q0 -32 -21.5 -52.5t-53.5 -20.5z" />
    <glyph glyph-name="semicolon" unicode=";" horiz-adv-x="231" 
d="M117 374q-31 0 -53.5 21t-22.5 52q0 32 22.5 52.5t53.5 20.5q32 0 54 -20.5t22 -52.5q0 -31 -22 -52t-54 -21zM199 91l-112 -227l-78 25l75 240z" />
    <glyph glyph-name="less" unicode="&#x3c;" 
d="M472 188v-104l-438 166v100l438 166v-103l-323 -113z" />
    <glyph glyph-name="equal" unicode="=" 
d="M472 356h-438v96h438v-96zM472 148h-438v96h438v-96z" />
    <glyph glyph-name="greater" unicode="&#x3e;" 
d="M472 250l-438 -166v104l323 112l-323 113v103l438 -166v-100z" />
    <glyph glyph-name="question" unicode="?" horiz-adv-x="560" 
d="M335 216h-102v10q0 44 17.5 79.5t43 60t51 46.5t43 49t17.5 58q0 46 -35 72.5t-89 26.5q-117 0 -154 -113l-103 31q22 82 90 128t166 46q107 0 173 -50.5t66 -136.5q0 -45 -19 -81.5t-46 -60.5t-54 -46.5t-46 -49.5t-19 -59v-10zM284 -10q-31 0 -53.5 20.5t-22.5 52.5
q0 31 22.5 52t53.5 21q32 0 54 -21t22 -52q0 -32 -22 -52.5t-54 -20.5z" />
    <glyph glyph-name="at" unicode="@" horiz-adv-x="895" 
d="M550 -160h-107q-170 0 -283 118.5t-113 291.5t114 291.5t282 118.5q177 0 291 -111.5t114 -277.5q0 -98 -41 -156.5t-112 -58.5q-90 0 -122 76h-6q-46 -76 -141 -76q-74 0 -123 54t-49 140q0 87 49 141t123 54q80 0 125 -58h6l6 51h72v-214q0 -93 60 -93q35 0 53.5 38
t18.5 102q0 135 -91 224.5t-233 89.5q-134 0 -224.5 -97t-90.5 -238q0 -140 89.5 -237.5t225.5 -97.5h107v-75zM445 131q45 0 73.5 32.5t28.5 86.5t-28.5 87t-73.5 33q-46 0 -74.5 -33t-28.5 -87q0 -55 28 -87t75 -32z" />
    <glyph glyph-name="A" unicode="A" horiz-adv-x="680" 
d="M664 0h-122l-50 151h-308l-51 -151h-117l246 700h154zM335 603l-120 -359h246l-120 359h-6z" />
    <glyph glyph-name="B" unicode="B" horiz-adv-x="661" 
d="M378 0h-304v700h282q105 0 165.5 -46t60.5 -139q0 -114 -92 -154v-6q122 -38 122 -166q0 -90 -59 -139.5t-175 -49.5zM188 607v-208h160q59 0 90 26.5t31 76.5q0 51 -31 78t-90 27h-160zM188 311v-218h181q62 0 95 28.5t33 80.5t-33 80.5t-95 28.5h-181z" />
    <glyph glyph-name="C" unicode="C" horiz-adv-x="703" 
d="M367 -10q-143 0 -231.5 99.5t-88.5 260.5t88.5 260.5t231.5 99.5q106 0 182 -53t107 -159l-110 -33q-47 147 -179 147q-94 0 -150 -70t-56 -192t56 -192t150 -70q135 0 184 147l111 -33q-33 -107 -109.5 -159.5t-185.5 -52.5z" />
    <glyph glyph-name="D" unicode="D" horiz-adv-x="696" 
d="M310 0h-236v700h236q154 0 246.5 -96t92.5 -254t-92.5 -254t-246.5 -96zM188 601v-502h122q103 0 163.5 67t60.5 184t-60.5 184t-163.5 67h-122z" />
    <glyph glyph-name="E" unicode="E" horiz-adv-x="608" 
d="M555 0h-481v700h481v-98h-367v-193h327v-98h-327v-213h367v-98z" />
    <glyph glyph-name="F" unicode="F" horiz-adv-x="593" 
d="M188 0h-114v700h476v-98h-362v-210h329v-97h-329v-295z" />
    <glyph glyph-name="G" unicode="G" horiz-adv-x="722" 
d="M381 -10q-153 0 -243.5 99t-90.5 261q0 161 89 260.5t234 99.5q106 0 180.5 -48.5t109.5 -144.5l-109 -33q-50 131 -181 131q-94 0 -151.5 -71.5t-57.5 -193.5q0 -124 58.5 -194.5t163.5 -70.5q96 0 159 65v134l-158 7v81h270v-260q-96 -122 -273 -122z" />
    <glyph glyph-name="H" unicode="H" horiz-adv-x="715" 
d="M188 0h-114v700h114v-295h339v295h114v-700h-114v305h-339v-305z" />
    <glyph glyph-name="I" unicode="I" horiz-adv-x="262" 
d="M188 0h-114v700h114v-700z" />
    <glyph glyph-name="J" unicode="J" horiz-adv-x="590" 
d="M271 -10q-90 0 -157 42t-93 122l106 32q35 -98 144 -98q62 0 96.5 36t34.5 105v471h114v-476q0 -109 -64.5 -171.5t-180.5 -62.5z" />
    <glyph glyph-name="K" unicode="K" horiz-adv-x="640" 
d="M188 0h-114v700h114v-341l286 341h137l-297 -342l307 -358h-144l-289 347v-347z" />
    <glyph glyph-name="L" unicode="L" horiz-adv-x="561" 
d="M533 0h-459v700h114v-599h345v-101z" />
    <glyph glyph-name="M" unicode="M" horiz-adv-x="889" 
d="M181 0h-107v700h170l199 -576l200 576h172v-700h-114v566h-6l-196 -566h-115l-197 566h-6v-566z" />
    <glyph glyph-name="N" unicode="N" horiz-adv-x="729" 
d="M187 0h-113v700h124l341 -527h7q-4 96 -4 200v327h113v-700h-124l-342 527h-6q4 -97 4 -200v-327z" />
    <glyph glyph-name="O" unicode="O" horiz-adv-x="735" 
d="M368 -10q-143 0 -232 99.5t-89 260.5t89 260.5t232 99.5t231.5 -99t88.5 -261t-88.5 -261t-231.5 -99zM368 89q94 0 150 70t56 191t-56 191t-150 70q-95 0 -151 -70t-56 -191t56 -191t151 -70z" />
    <glyph glyph-name="P" unicode="P" horiz-adv-x="622" 
d="M188 0h-114v700h266q120 0 186.5 -59t66.5 -165q0 -105 -66.5 -163.5t-186.5 -58.5h-152v-254zM188 602v-251h145q69 0 107 32.5t38 92.5t-38 93t-107 33h-145z" />
    <glyph glyph-name="Q" unicode="Q" horiz-adv-x="735" 
d="M661 -58l-20 -96l-339 62l15 85q-122 17 -196 114t-74 243q0 161 89 260.5t232 99.5t231.5 -99t88.5 -261q0 -142 -70 -237.5t-186 -116.5l-4 -21zM368 89q94 0 150 70t56 191t-56 191t-150 70q-95 0 -151 -70t-56 -191t56 -191t151 -70z" />
    <glyph glyph-name="R" unicode="R" horiz-adv-x="646" 
d="M188 0h-114v700h280q111 0 175 -58t64 -161q0 -74 -37 -125.5t-104 -71.5l154 -284h-129l-135 269h-154v-269zM188 603v-242h158q61 0 96.5 31.5t35.5 88.5t-35.5 89.5t-96.5 32.5h-158z" />
    <glyph glyph-name="S" unicode="S" horiz-adv-x="625" 
d="M328 -10q-102 0 -177.5 43.5t-103.5 127.5l105 31q21 -55 69.5 -82.5t106.5 -27.5q68 0 104 28t36 74q0 44 -42 70.5t-101.5 41.5t-119 35.5t-101.5 68.5t-42 124q0 83 66.5 134.5t179.5 51.5q96 0 164.5 -40.5t94.5 -120.5l-106 -31q-37 100 -152 100q-62 0 -97.5 -26.5
t-35.5 -67.5q0 -33 22.5 -55t58.5 -35t79.5 -24.5t86.5 -27t79 -38t58.5 -64t22.5 -97.5q0 -88 -68.5 -140.5t-186.5 -52.5z" />
    <glyph glyph-name="T" unicode="T" horiz-adv-x="611" 
d="M363 0h-115v599h-226v101h567v-101h-226v-599z" />
    <glyph glyph-name="U" unicode="U" horiz-adv-x="713" 
d="M357 -10q-124 0 -203.5 75t-79.5 218v417h114v-417q0 -98 47.5 -145t121.5 -47t120.5 47t46.5 145v417h115v-417q0 -143 -79 -218t-203 -75z" />
    <glyph glyph-name="V" unicode="V" horiz-adv-x="685" 
d="M417 0h-150l-248 700h121l201 -594h6l202 594h117z" />
    <glyph glyph-name="W" unicode="W" horiz-adv-x="969" 
d="M347 0h-147l-181 700h117l139 -587h6l135 587h143l134 -587h6l139 587h112l-182 -700h-147l-133 584h-6z" />
    <glyph glyph-name="X" unicode="X" horiz-adv-x="682" 
d="M149 0h-127l232 355l-217 345h131l172 -281h6l172 281h126l-215 -345l230 -355h-131l-186 290h-6z" />
    <glyph glyph-name="Y" unicode="Y" horiz-adv-x="650" 
d="M383 0h-114v266l-250 434h130l175 -323h6l173 323h128l-248 -433v-267z" />
    <glyph glyph-name="Z" unicode="Z" horiz-adv-x="619" 
d="M575 0h-531v102l375 490v6h-364v102h509v-102l-375 -490v-6h386v-102z" />
    <glyph glyph-name="bracketleft" unicode="[" horiz-adv-x="323" 
d="M287 -194h-211v918h211v-91h-103v-736h103v-91z" />
    <glyph glyph-name="backslash" unicode="\" horiz-adv-x="429" 
d="M429 -200h-114l-315 930h115z" />
    <glyph glyph-name="bracketright" unicode="]" horiz-adv-x="323" 
d="M248 724v-918h-211v91h102v736h-102v91h211z" />
    <glyph glyph-name="asciicircum" unicode="^" horiz-adv-x="477" 
d="M135 385h-103l159 315h92l162 -315h-103l-102 208h-6z" />
    <glyph glyph-name="underscore" unicode="_" horiz-adv-x="392" 
d="M402 -156h-412v90h412v-90z" />
    <glyph glyph-name="grave" unicode="`" horiz-adv-x="268" 
d="M238 578h-97l-111 139h145z" />
    <glyph glyph-name="a" unicode="a" horiz-adv-x="561" 
d="M496 339v-69q0 -179 5 -270h-98l-10 89h-8q-49 -99 -170 -99q-75 0 -120.5 41.5t-45.5 109.5q0 74 53.5 116t158.5 48l126 7v23q0 48 -31 72.5t-79 24.5q-96 0 -124 -89l-98 29q15 71 75 109.5t147 38.5q104 0 161.5 -47.5t57.5 -133.5zM243 79q60 0 101 44t43 112
l-103 -7q-63 -4 -94.5 -22.5t-31.5 -57.5q0 -32 22.5 -50.5t62.5 -18.5z" />
    <glyph glyph-name="b" unicode="b" horiz-adv-x="605" 
d="M352 -10q-111 0 -164 94h-8l-11 -84h-107q5 91 5 272v428h113v-274h8q53 94 164 94q97 0 154 -72.5t57 -193.5q0 -120 -57 -192t-154 -72zM315 87q62 0 98.5 45.5t36.5 121.5q0 77 -37 123t-98 46t-98 -46t-37 -123q0 -76 36.5 -121.5t98.5 -45.5z" />
    <glyph glyph-name="c" unicode="c" horiz-adv-x="559" 
d="M293 -10q-116 0 -183.5 75t-67.5 190t67.5 190t183.5 75q83 0 142 -40.5t82 -119.5l-108 -33q-32 97 -117 97q-62 0 -99.5 -46.5t-37.5 -122.5t37.5 -122.5t99.5 -46.5q87 0 122 97l108 -33q-25 -78 -86 -119t-143 -41z" />
    <glyph glyph-name="d" unicode="d" horiz-adv-x="605" 
d="M253 -10q-97 0 -154 72t-57 192q0 121 57 193.5t154 72.5q111 0 164 -94h8v274h113v-428q0 -181 5 -272h-107l-11 84h-8q-53 -94 -164 -94zM290 87q62 0 98.5 45.5t36.5 121.5q0 77 -37 123t-98 46t-98 -46t-37 -123q0 -76 36.5 -121.5t98.5 -45.5z" />
    <glyph glyph-name="e" unicode="e" horiz-adv-x="567" 
d="M526 269q0 -28 -3 -49h-369q7 -68 44 -105.5t96 -37.5q82 0 119 79l101 -30q-56 -136 -221 -136q-116 0 -183.5 75t-67.5 190t67 190t183 75q107 0 170.5 -68t63.5 -183zM292 433q-55 0 -91 -35t-46 -98h264q-7 64 -40.5 98.5t-86.5 34.5z" />
    <glyph glyph-name="f" unicode="f" horiz-adv-x="416" 
d="M240 0h-113v413h-99v91h99v45q0 77 43 119t118 42q72 0 124 -33l-31 -77q-34 19 -71 19q-31 0 -50.5 -18.5t-19.5 -56.5v-40h141v-91h-141v-413z" />
    <glyph glyph-name="g" unicode="g" horiz-adv-x="605" 
d="M301 -210q-92 0 -155 36.5t-85 104.5l103 31q28 -84 137 -84q59 0 91.5 31.5t32.5 91.5v105h-8q-55 -94 -165 -94q-95 0 -152.5 69t-57.5 184q0 116 57.5 185.5t152.5 69.5q110 0 165 -94h8l11 84h107q-5 -91 -5 -264v-248q0 -96 -61.5 -152t-175.5 -56zM290 107
q62 0 98.5 44t36.5 115q0 70 -36.5 113.5t-98.5 43.5t-98.5 -43.5t-36.5 -114.5t36.5 -114.5t98.5 -43.5z" />
    <glyph glyph-name="h" unicode="h" horiz-adv-x="604" 
d="M357 520q88 0 137 -54.5t49 -161.5v-304h-114v288q0 133 -111 133q-61 0 -99.5 -42.5t-38.5 -106.5v-272h-113v700h113v-156l-4 -118h12q58 94 169 94z" />
    <glyph glyph-name="i" unicode="i" horiz-adv-x="247" 
d="M124 576q-33 0 -55.5 21t-22.5 52q0 32 22.5 53t55.5 21t55 -21t22 -53q0 -31 -22.5 -52t-54.5 -21zM180 0h-113v510h113v-510z" />
    <glyph glyph-name="j" unicode="j" horiz-adv-x="291" 
d="M168 576q-33 0 -55.5 21t-22.5 52q0 32 22.5 53t55.5 21t55 -21t22 -53q0 -31 -22.5 -52t-54.5 -21zM70 -210q-70 0 -117 31l32 81q28 -18 64 -18q62 0 62 70v556h113v-562q0 -77 -41 -117.5t-113 -40.5z" />
    <glyph glyph-name="k" unicode="k" horiz-adv-x="551" 
d="M180 0h-113v700h113v-432l208 242h138l-221 -242l227 -268h-143l-209 255v-255z" />
    <glyph glyph-name="l" unicode="l" horiz-adv-x="247" 
d="M180 0h-113v700h113v-700z" />
    <glyph glyph-name="m" unicode="m" horiz-adv-x="902" 
d="M180 0h-113v238q0 181 -5 272h107l10 -79h7q51 89 156 89q112 0 154 -100h8q52 100 168 100q168 0 168 -201v-319h-113v298q0 60 -25.5 91.5t-71.5 31.5q-53 0 -86.5 -38t-33.5 -98v-285h-113v298q0 60 -25.5 91.5t-71.5 31.5q-53 0 -86.5 -38t-33.5 -98v-285z" />
    <glyph glyph-name="n" unicode="n" horiz-adv-x="604" 
d="M180 0h-113v238q0 181 -5 272h107l11 -84h7q59 94 170 94q88 0 137 -54.5t49 -161.5v-304h-114v288q0 133 -111 133q-61 0 -99.5 -42.5t-38.5 -106.5v-272z" />
    <glyph glyph-name="o" unicode="o" horiz-adv-x="586" 
d="M293 -10q-116 0 -183.5 75t-67.5 190t67.5 190t183.5 75t184 -75t68 -190t-68 -190t-184 -75zM293 87q62 0 100 46t38 122t-38 122t-100 46t-100 -46t-38 -122t38 -122t100 -46z" />
    <glyph glyph-name="p" unicode="p" horiz-adv-x="605" 
d="M180 -200h-113v438q0 181 -5 272h107l11 -84h8q53 94 164 94q97 0 154 -72t57 -193t-57 -193t-154 -72q-111 0 -164 94h-8v-284zM315 87q62 0 98.5 45.5t36.5 121.5q0 77 -37 123t-98 46t-98 -46t-37 -123q0 -76 36.5 -121.5t98.5 -45.5z" />
    <glyph glyph-name="q" unicode="q" horiz-adv-x="605" 
d="M538 -200h-113v284h-8q-53 -94 -164 -94q-97 0 -154 72t-57 193t57 193t154 72q111 0 164 -94h8l11 84h107q-5 -91 -5 -272v-438zM290 87q62 0 98.5 45.5t36.5 121.5q0 77 -37 123t-98 46t-98 -46t-37 -123q0 -76 36.5 -121.5t98.5 -45.5z" />
    <glyph glyph-name="r" unicode="r" horiz-adv-x="402" 
d="M342 520q22 0 37 -1v-110q-16 2 -38 2q-68 0 -114.5 -45.5t-46.5 -145.5v-220h-113v238q0 181 -5 272h107l14 -102h7q44 112 152 112z" />
    <glyph glyph-name="s" unicode="s" horiz-adv-x="504" 
d="M264 -10q-82 0 -142 32.5t-80 99.5l96 29q13 -40 47.5 -60.5t77.5 -20.5t67 18t24 48t-31 46.5t-75 26t-88 24t-75 51t-31 95.5q0 62 52 101.5t141 39.5q76 0 130.5 -31t72.5 -92l-97 -28q-24 71 -105 71q-41 0 -63.5 -17t-22.5 -44q0 -26 22 -42.5t55.5 -23.5t72.5 -19
t72.5 -26.5t55.5 -48.5t22 -83q0 -66 -53.5 -106t-144.5 -40z" />
    <glyph glyph-name="t" unicode="t" horiz-adv-x="433" 
d="M280 -10q-70 0 -111.5 40t-41.5 117v271h-99v92h106l22 142h84v-142h142v-92h-142v-266q0 -34 17 -51.5t45 -17.5q35 0 66 19l31 -78q-53 -34 -119 -34z" />
    <glyph glyph-name="u" unicode="u" horiz-adv-x="604" 
d="M247 -10q-88 0 -136.5 54.5t-48.5 161.5v304h113v-288q0 -66 29 -99.5t83 -33.5q61 0 99 42.5t38 106.5v272h114v-238q0 -181 5 -272h-108l-10 84h-8q-59 -94 -170 -94z" />
    <glyph glyph-name="v" unicode="v" horiz-adv-x="532" 
d="M335 0h-138l-181 510h119l130 -405h6l129 405h116z" />
    <glyph glyph-name="w" unicode="w" horiz-adv-x="764" 
d="M290 0h-137l-137 510h114l94 -392h7l86 392h136l85 -392h7l93 392h110l-137 -510h-136l-89 402h-7z" />
    <glyph glyph-name="x" unicode="x" horiz-adv-x="536" 
d="M146 0h-124l164 260l-154 250h126l109 -191h6l108 191h123l-154 -251l164 -259h-127l-116 197h-6z" />
    <glyph glyph-name="y" unicode="y" horiz-adv-x="542" 
d="M259 -200h-119l73 186l-197 524h119l135 -396h6l134 396h116z" />
    <glyph glyph-name="z" unicode="z" horiz-adv-x="501" 
d="M457 0h-413v93l262 312v7h-254v98h397v-93l-262 -312v-7h270v-98z" />
    <glyph glyph-name="braceleft" unicode="{" horiz-adv-x="357" 
d="M320 -194h-49q-80 0 -119 42.5t-39 115.5v177q0 76 -67 76h-27v96h27q67 0 67 76v177q0 73 39 115.5t119 42.5h49v-91h-30q-69 0 -69 -77v-178q0 -90 -58 -110v-6q58 -20 58 -110v-178q0 -77 69 -77h30v-91z" />
    <glyph glyph-name="bar" unicode="|" horiz-adv-x="294" 
d="M204 -200h-114v900h114v-900z" />
    <glyph glyph-name="braceright" unicode="}" horiz-adv-x="357" 
d="M86 -194h-49v91h29q70 0 70 77v178q0 90 58 110v6q-58 20 -58 110v178q0 77 -70 77h-29v91h49q80 0 119 -42.5t39 -115.5v-177q0 -76 66 -76h28v-96h-28q-66 0 -66 -76v-177q0 -73 -39 -115.5t-119 -42.5z" />
    <glyph glyph-name="asciitilde" unicode="~" 
d="M126 208h-92v43q0 71 36 106t85 35q33 0 69.5 -20.5t66 -41t46.5 -20.5q43 0 43 52v30h92v-43q0 -72 -35 -106.5t-86 -34.5q-36 0 -71.5 20.5t-64 41t-46.5 20.5q-43 0 -43 -52v-30z" />
    <glyph glyph-name="uni00A0" unicode="&#xa0;" horiz-adv-x="243" 
 />
    <glyph glyph-name="exclamdown" unicode="&#xa1;" horiz-adv-x="295" 
d="M148 520q32 0 54 -20.5t22 -52.5q0 -31 -22 -52t-54 -21q-31 0 -53.5 21t-22.5 52q0 32 22.5 52.5t53.5 20.5zM86 -190l13 484h98l13 -484h-124z" />
    <glyph glyph-name="cent" unicode="&#xa2;" horiz-adv-x="558" 
d="M349 -106h-112v102q-91 17 -143 88t-52 171t52 171t143 88v102h112v-101q128 -24 168 -155l-108 -33q-32 97 -117 97q-62 0 -99.5 -46.5t-37.5 -122.5t37.5 -122.5t99.5 -46.5q86 0 121 97l108 -33q-41 -129 -172 -154v-102z" />
    <glyph glyph-name="sterling" unicode="&#xa3;" horiz-adv-x="622" 
d="M519 129l66 -64q-36 -40 -68 -57.5t-76 -17.5q-36 0 -93.5 17.5t-94.5 17.5q-60 0 -162 -40l-49 80q64 52 88.5 100t24.5 105q0 4 -0.5 11.5t-0.5 10.5h-111v79h84q-1 2 -7.5 15.5t-8 16.5t-7 15.5t-7 18t-5 17t-5 19.5t-2.5 18.5t-1 21.5q0 90 64.5 143.5t175.5 53.5
q194 0 248 -156l-102 -30q-39 94 -145 94q-58 0 -92 -30t-34 -77q0 -19 5 -39.5t10.5 -33t16.5 -35.5t15 -32h174v-79h-151q1 -6 1 -17q0 -87 -82 -168l4 -7q54 24 95 24q31 0 79 -17.5t70 -17.5q46 0 83 40z" />
    <glyph glyph-name="currency" unicode="&#xa4;" horiz-adv-x="570" 
d="M165 168l-61 -61l-61 62l60 61q-35 54 -35 120t35 120l-60 61l61 62l61 -61q53 34 120 34t120 -34l60 61l62 -63l-60 -60q34 -53 34 -120q0 -68 -35 -120l61 -60l-62 -63l-60 61q-53 -34 -120 -34t-120 34zM285 222q55 0 90.5 36.5t35.5 91.5q0 56 -35.5 92t-90.5 36
t-91 -36.5t-36 -91.5t36 -91.5t91 -36.5z" />
    <glyph glyph-name="yen" unicode="&#xa5;" horiz-adv-x="650" 
d="M383 0h-114v106h-177v76h177v71h-177v76h140l-213 371h130l175 -323h6l173 323h128l-213 -371h142v-76h-177v-71h177v-76h-177v-106z" />
    <glyph glyph-name="brokenbar" unicode="&#xa6;" horiz-adv-x="294" 
d="M204 336h-114v364h114v-364zM204 -200h-114v364h114v-364z" />
    <glyph glyph-name="section" unicode="&#xa7;" horiz-adv-x="508" 
d="M265 -100q-84 0 -143 33t-80 102l101 31q11 -42 45 -61.5t77 -19.5q44 0 67 16.5t23 44.5q0 33 -31 54.5t-74.5 35t-87.5 30t-75 50.5t-31 85q0 76 94 114v6q-94 42 -94 143q0 64 54 105t142 41q164 0 202 -122l-99 -30q-22 67 -103 67q-42 0 -63.5 -16.5t-21.5 -42.5
q0 -33 31 -54.5t75 -35t88 -30t75 -50.5t31 -85q0 -75 -95 -114v-6q95 -44 95 -143q0 -67 -55.5 -107.5t-146.5 -40.5zM276 226q43 9 65.5 28t22.5 43q0 19 -8 32.5t-26.5 24t-34 16.5t-44.5 15q-44 -7 -67 -27t-23 -43q0 -25 17.5 -43t37.5 -26t60 -20z" />
    <glyph glyph-name="dieresis" unicode="&#xa8;" horiz-adv-x="395" 
d="M102 581q-30 0 -51 19.5t-21 47.5q0 29 21 48.5t51 19.5q29 0 49.5 -19.5t20.5 -48.5q0 -28 -20.5 -47.5t-49.5 -19.5zM295 581q-30 0 -51 19.5t-21 47.5q0 29 21 48.5t51 19.5q29 0 49.5 -19.5t20.5 -48.5q0 -28 -20.5 -47.5t-49.5 -19.5z" />
    <glyph glyph-name="copyright" unicode="&#xa9;" horiz-adv-x="735" 
d="M367 -10q-151 0 -247 104t-96 257q0 151 96.5 255t246.5 104q151 0 247.5 -104t96.5 -255q0 -153 -96.5 -257t-247.5 -104zM367 50q123 0 201 86.5t78 214.5q0 126 -78 212.5t-201 86.5q-122 0 -200 -86.5t-78 -212.5q0 -128 78 -214.5t200 -86.5zM371 170
q-75 0 -120.5 49.5t-45.5 130.5t45.5 130.5t120.5 49.5q121 0 151 -111l-73 -17q-18 66 -78 66q-41 0 -65.5 -31.5t-24.5 -86.5t24.5 -86.5t65.5 -31.5q60 0 81 66l72 -17q-31 -111 -153 -111z" />
    <glyph glyph-name="ordfeminine" unicode="&#xaa;" horiz-adv-x="340" 
d="M128 392q-44 0 -71 24t-27 63q0 91 125 99l76 5v16q0 28 -18 42t-45 14q-54 0 -68 -49l-67 17q9 41 45.5 64t89.5 23q64 0 99.5 -28t35.5 -80v-43q0 -107 3 -161h-65l-8 56h-4q-27 -62 -101 -62zM153 449q35 0 56.5 23.5t21.5 67.5l-60 -4q-68 -3 -68 -47q0 -18 13 -29
t37 -11z" />
    <glyph glyph-name="guillemotleft" unicode="&#xab;" horiz-adv-x="557" 
d="M307 88h-128l-158 172l158 172h128l-161 -172zM524 88h-127l-158 172l158 172h127l-161 -172z" />
    <glyph glyph-name="logicalnot" unicode="&#xac;" 
d="M472 189h-104v123h-334v99h438v-222z" />
    <glyph glyph-name="uni00AD" unicode="&#xad;" horiz-adv-x="409" 
d="M372 233h-335v94h335v-94z" />
    <glyph glyph-name="registered" unicode="&#xae;" horiz-adv-x="735" 
d="M367 -10q-151 0 -247 104t-96 257q0 151 96.5 255t246.5 104q151 0 247.5 -104t96.5 -255q0 -153 -96.5 -257t-247.5 -104zM367 50q123 0 201 86.5t78 214.5q0 126 -78 212.5t-201 86.5q-122 0 -200 -86.5t-78 -212.5q0 -128 78 -214.5t200 -86.5zM315 175h-74v350h148
q58 0 91 -29t33 -82q0 -72 -63 -97v-7l74 -135h-84l-66 132h-59v-132zM315 466v-104h68q25 0 40.5 14t15.5 38t-15 38t-41 14h-68z" />
    <glyph glyph-name="macron" unicode="&#xaf;" horiz-adv-x="343" 
d="M313 605h-283v90h283v-90z" />
    <glyph glyph-name="degree" unicode="&#xb0;" horiz-adv-x="356" 
d="M178 393q-69 0 -112 46t-43 113t43.5 112.5t111.5 45.5q69 0 112.5 -45.5t43.5 -112.5t-43.5 -113t-112.5 -46zM178 466q33 0 54 25t21 61q0 37 -21 61t-54 24t-53.5 -24.5t-20.5 -60.5t21 -61t53 -25z" />
    <glyph glyph-name="plusminus" unicode="&#xb1;" 
d="M301 183h-96v137h-171v99h171v139h96v-139h171v-99h-171v-137zM472 42h-438v100h438v-100z" />
    <glyph glyph-name="uni00B2" unicode="&#xb2;" horiz-adv-x="319" 
d="M291 450h-258v62l103 86q39 32 57 54.5t18 46.5q0 20 -14.5 31.5t-35.5 11.5q-45 0 -62 -45l-76 18q11 42 47 66t90 24q59 0 95 -28t36 -78q0 -38 -23 -69.5t-77 -74.5l-38 -32v-4h138v-69z" />
    <glyph glyph-name="uni00B3" unicode="&#xb3;" horiz-adv-x="331" 
d="M286 736l-84 -77q46 -5 73 -32.5t27 -70.5q0 -51 -36 -81t-100 -30q-56 0 -94 23.5t-48 67.5l78 18q13 -45 64 -45q25 0 40.5 13.5t15.5 35.5t-16 35t-43 13h-55v46l80 75v4h-149v69h247v-64z" />
    <glyph glyph-name="acute" unicode="&#xb4;" horiz-adv-x="268" 
d="M127 578h-97l63 139h145z" />
    <glyph glyph-name="uni00B5" unicode="&#xb5;" horiz-adv-x="636" 
d="M174 -200h-112v710h113v-288q0 -66 29 -99.5t83 -33.5q61 0 99 42.5t38 106.5v272h114v-360q0 -53 47 -53h28v-97h-56q-100 0 -116 89h-7q-48 -99 -146 -99q-78 0 -115 59h-6l7 -137v-112z" />
    <glyph glyph-name="paragraph" unicode="&#xb6;" horiz-adv-x="745" 
d="M407 -200h-109v411h-54q-94 0 -155 57.5t-61 187.5q0 129 61 186.5t155 57.5h459v-106h-77v-794h-112v794h-107v-794z" />
    <glyph glyph-name="periodcentered" unicode="&#xb7;" horiz-adv-x="227" 
d="M114 192q-32 0 -54 20.5t-22 52.5t22 52.5t54 20.5t53.5 -20.5t21.5 -52.5t-21.5 -52.5t-53.5 -20.5z" />
    <glyph glyph-name="cedilla" unicode="&#xb8;" horiz-adv-x="308" 
d="M170 -43h4q45 0 74.5 -24.5t29.5 -67.5q0 -45 -34 -73t-95 -28q-69 0 -119 37l37 58q38 -28 80 -28q23 0 37 10t14 26q0 35 -45 35q-20 0 -40 -7l-16 25l29 85h60z" />
    <glyph glyph-name="uni00B9" unicode="&#xb9;" horiz-adv-x="229" 
d="M181 450h-80v260h-4l-73 -40v79l95 51h62v-350z" />
    <glyph glyph-name="ordmasculine" unicode="&#xba;" horiz-adv-x="354" 
d="M177 392q-70 0 -111 44.5t-41 114.5t41 114.5t111 44.5t111 -44.5t41 -114.5t-41 -114.5t-111 -44.5zM177 454q35 0 56 26.5t21 70.5t-21 70.5t-56 26.5t-56 -26.5t-21 -70.5t21 -70.5t56 -26.5z" />
    <glyph glyph-name="guillemotright" unicode="&#xbb;" horiz-adv-x="557" 
d="M319 260l-158 -172h-128l161 172l-161 172h128zM536 260l-158 -172h-128l161 172l-161 172h128z" />
    <glyph glyph-name="onequarter" unicode="&#xbc;" horiz-adv-x="711" 
d="M181 350h-80v260h-4l-73 -40v79l95 51h62v-350zM153 0h-86l445 700h87zM642 0h-80v62h-166v72l159 216h87v-221h45v-67h-45v-62zM562 253l-91 -124h91v124z" />
    <glyph glyph-name="onehalf" unicode="&#xbd;" horiz-adv-x="736" 
d="M181 350h-80v260h-4l-73 -40v79l95 51h62v-350zM153 0h-86l445 700h87zM708 0h-258v62l103 86q39 32 57 54.5t18 46.5q0 20 -14.5 31.5t-35.5 11.5q-46 0 -62 -45l-76 18q11 42 47 66t90 24q59 0 95 -28t36 -78q0 -38 -23 -69.5t-77 -74.5l-38 -32v-4h138v-69z" />
    <glyph glyph-name="threequarters" unicode="&#xbe;" horiz-adv-x="803" 
d="M302 456q0 -51 -36 -81t-100 -30q-56 0 -94 23.5t-48 67.5l78 18q13 -45 64 -45q25 0 40.5 13.5t15.5 35.5t-16 35t-43 13h-55v46l80 75v4h-149v69h247v-64l-84 -77q46 -5 73 -32.5t27 -70.5zM159 0l445 700h87l-446 -700h-86zM734 350v-221h45v-67h-45v-62h-80v62h-166
v72l159 216h87zM563 129h91v124z" />
    <glyph glyph-name="questiondown" unicode="&#xbf;" horiz-adv-x="560" 
d="M275 520q32 0 54.5 -20.5t22.5 -52.5q0 -31 -22.5 -52t-54.5 -21q-31 0 -53 21t-22 52q0 32 22 52.5t53 20.5zM224 294h102v-10q0 -44 -17.5 -79.5t-43 -60t-50.5 -46.5t-42.5 -49t-17.5 -58q0 -46 35 -72.5t89 -26.5q117 0 154 113l103 -31q-22 -83 -90 -128.5
t-166 -45.5q-107 0 -173 50.5t-66 136.5q0 45 19 81.5t45.5 60.5t53.5 46.5t46 49.5t19 59v10z" />
    <glyph glyph-name="Agrave" unicode="&#xc0;" horiz-adv-x="680" 
d="M324 907l63 -139h-97l-111 139h145zM664 0h-122l-50 151h-308l-51 -151h-117l246 700h154zM335 603l-120 -359h246l-120 359h-6z" />
    <glyph glyph-name="Aacute" unicode="&#xc1;" horiz-adv-x="680" 
d="M355 907h145l-111 -139h-97zM664 0h-122l-50 151h-308l-51 -151h-117l246 700h154zM335 603l-120 -359h246l-120 359h-6z" />
    <glyph glyph-name="Acircumflex" unicode="&#xc2;" horiz-adv-x="680" 
d="M392 768l-55 77l-55 -77h-113l117 139h106l117 -139h-117zM664 0h-122l-50 151h-308l-51 -151h-117l246 700h154zM335 603l-120 -359h246l-120 359h-6z" />
    <glyph glyph-name="Atilde" unicode="&#xc3;" horiz-adv-x="680" 
d="M282 826q-30 0 -30 -63h-70v37q0 57 24.5 84.5t59.5 27.5q34 0 75 -31.5t55 -31.5q30 0 30 63h70v-39q0 -58 -23.5 -84t-60.5 -26q-35 0 -75 31.5t-55 31.5zM664 0h-122l-50 151h-308l-51 -151h-117l246 700h154zM335 603l-120 -359h246l-120 359h-6z" />
    <glyph glyph-name="Adieresis" unicode="&#xc4;" horiz-adv-x="680" 
d="M244 771q-30 0 -51 19.5t-21 47.5q0 29 21 48.5t51 19.5q29 0 49.5 -19.5t20.5 -48.5q0 -28 -20.5 -47.5t-49.5 -19.5zM437 771q-30 0 -51 19.5t-21 47.5q0 29 21 48.5t51 19.5q29 0 49.5 -19.5t20.5 -48.5q0 -28 -20.5 -47.5t-49.5 -19.5zM664 0h-122l-50 151h-308
l-51 -151h-117l246 700h154zM335 603l-120 -359h246l-120 359h-6z" />
    <glyph glyph-name="Aring" unicode="&#xc5;" horiz-adv-x="680" 
d="M339 751q-50 0 -83.5 29.5t-33.5 75.5t33.5 76t83.5 30q51 0 84.5 -30t33.5 -76t-33.5 -75.5t-84.5 -29.5zM339 901q-20 0 -32.5 -12.5t-12.5 -32.5t12.5 -32.5t32.5 -12.5q21 0 33.5 12.5t12.5 32.5t-12.5 32.5t-33.5 12.5zM664 0h-122l-50 151h-308l-51 -151h-117
l246 700h154zM335 603l-120 -359h246l-120 359h-6z" />
    <glyph glyph-name="AE" unicode="&#xc6;" horiz-adv-x="981" 
d="M140 0h-124l373 700h539v-98h-320v-194h280v-96h-280v-214h320v-98h-433v151h-277zM450 602l-185 -358h230v358h-45z" />
    <glyph glyph-name="Ccedilla" unicode="&#xc7;" horiz-adv-x="703" 
d="M551 235l111 -33q-60 -196 -266 -211l-11 -34h4q45 0 74.5 -24.5t29.5 -67.5q0 -45 -34 -73t-95 -28q-69 0 -119 37l37 58q38 -28 80 -28q23 0 37 10t14 26q0 35 -45 35q-20 0 -40 -7l-16 25l24 71q-131 11 -210 109t-79 250q0 161 88.5 260.5t231.5 99.5q106 0 182 -53
t107 -159l-110 -33q-47 147 -179 147q-94 0 -150 -70t-56 -192t56 -192t150 -70q135 0 184 147z" />
    <glyph glyph-name="Egrave" unicode="&#xc8;" horiz-adv-x="608" 
d="M367 768h-97l-111 139h145zM555 0h-481v700h481v-98h-367v-193h327v-98h-327v-213h367v-98z" />
    <glyph glyph-name="Eacute" unicode="&#xc9;" horiz-adv-x="608" 
d="M370 768h-97l63 139h145zM555 0h-481v700h481v-98h-367v-193h327v-98h-327v-213h367v-98z" />
    <glyph glyph-name="Ecircumflex" unicode="&#xca;" horiz-adv-x="608" 
d="M263 768h-113l117 139h106l117 -139h-117l-55 77zM555 0h-481v700h481v-98h-367v-193h327v-98h-327v-213h367v-98z" />
    <glyph glyph-name="Edieresis" unicode="&#xcb;" horiz-adv-x="608" 
d="M225 771q-30 0 -51 19.5t-21 47.5q0 29 21 48.5t51 19.5q29 0 49.5 -19.5t20.5 -48.5q0 -28 -20.5 -47.5t-49.5 -19.5zM418 771q-30 0 -51 19.5t-21 47.5q0 29 21 48.5t51 19.5q29 0 49.5 -19.5t20.5 -48.5q0 -28 -20.5 -47.5t-49.5 -19.5zM555 0h-481v700h481v-98h-367
v-193h327v-98h-327v-213h367v-98z" />
    <glyph glyph-name="Igrave" unicode="&#xcc;" horiz-adv-x="262" 
d="M178 768h-97l-111 139h145zM188 0h-114v700h114v-700z" />
    <glyph glyph-name="Iacute" unicode="&#xcd;" horiz-adv-x="262" 
d="M181 768h-97l63 139h145zM188 0h-114v700h114v-700z" />
    <glyph glyph-name="Icircumflex" unicode="&#xce;" horiz-adv-x="262" 
d="M74 768h-113l117 139h106l117 -139h-117l-55 77zM188 0h-114v700h114v-700z" />
    <glyph glyph-name="Idieresis" unicode="&#xcf;" horiz-adv-x="262" 
d="M49 771q-28 0 -46 19t-18 48q0 30 18 49t46 19q29 0 47 -19t18 -49q0 -29 -18.5 -48t-46.5 -19zM213 771q-28 0 -46.5 19t-18.5 48q0 30 18 49t47 19q28 0 46 -19t18 -49q0 -29 -18 -48t-46 -19zM188 0h-114v700h114v-700z" />
    <glyph glyph-name="Eth" unicode="&#xd0;" horiz-adv-x="746" 
d="M124 700h237q154 0 246 -96t92 -254t-92 -254t-246 -96h-237v308h-115v84h115v308zM239 99h122q103 0 163.5 67t60.5 184t-60.5 184t-163.5 67h-122v-209h184v-84h-184v-209z" />
    <glyph glyph-name="Ntilde" unicode="&#xd1;" horiz-adv-x="729" 
d="M277 763h-70v37q0 57 24.5 84.5t59.5 27.5q34 0 75 -31.5t55 -31.5q30 0 30 63h70v-39q0 -58 -23.5 -84t-60.5 -26q-35 0 -75 31.5t-55 31.5q-30 0 -30 -63zM187 0h-113v700h124l341 -527h7q-4 96 -4 200v327h113v-700h-124l-342 527h-6q4 -97 4 -200v-327z" />
    <glyph glyph-name="Ograve" unicode="&#xd2;" horiz-adv-x="735" 
d="M415 768h-97l-111 139h145zM368 -10q-143 0 -232 99.5t-89 260.5t89 260.5t232 99.5t231.5 -99t88.5 -261t-88.5 -261t-231.5 -99zM368 89q94 0 150 70t56 191t-56 191t-150 70q-95 0 -151 -70t-56 -191t56 -191t151 -70z" />
    <glyph glyph-name="Oacute" unicode="&#xd3;" horiz-adv-x="735" 
d="M418 768h-97l63 139h145zM368 -10q-143 0 -232 99.5t-89 260.5t89 260.5t232 99.5t231.5 -99t88.5 -261t-88.5 -261t-231.5 -99zM368 89q94 0 150 70t56 191t-56 191t-150 70q-95 0 -151 -70t-56 -191t56 -191t151 -70z" />
    <glyph glyph-name="Ocircumflex" unicode="&#xd4;" horiz-adv-x="735" 
d="M310 768h-113l117 139h106l117 -139h-117l-55 77zM368 -10q-143 0 -232 99.5t-89 260.5t89 260.5t232 99.5t231.5 -99t88.5 -261t-88.5 -261t-231.5 -99zM368 89q94 0 150 70t56 191t-56 191t-150 70q-95 0 -151 -70t-56 -191t56 -191t151 -70z" />
    <glyph glyph-name="Otilde" unicode="&#xd5;" horiz-adv-x="735" 
d="M281 763h-70v37q0 57 24.5 84.5t59.5 27.5q34 0 75 -31.5t55 -31.5q30 0 30 63h70v-39q0 -58 -23.5 -84t-60.5 -26q-35 0 -75 31.5t-55 31.5q-30 0 -30 -63zM368 -10q-143 0 -232 99.5t-89 260.5t89 260.5t232 99.5t231.5 -99t88.5 -261t-88.5 -261t-231.5 -99zM368 89
q94 0 150 70t56 191t-56 191t-150 70q-95 0 -151 -70t-56 -191t56 -191t151 -70z" />
    <glyph glyph-name="Odieresis" unicode="&#xd6;" horiz-adv-x="735" 
d="M272 771q-30 0 -51 19.5t-21 47.5q0 29 21 48.5t51 19.5q29 0 49.5 -19.5t20.5 -48.5q0 -28 -20.5 -47.5t-49.5 -19.5zM465 771q-30 0 -51 19.5t-21 47.5q0 29 21 48.5t51 19.5q29 0 49.5 -19.5t20.5 -48.5q0 -28 -20.5 -47.5t-49.5 -19.5zM368 -10q-143 0 -232 99.5
t-89 260.5t89 260.5t232 99.5t231.5 -99t88.5 -261t-88.5 -261t-231.5 -99zM368 89q94 0 150 70t56 191t-56 191t-150 70q-95 0 -151 -70t-56 -191t56 -191t151 -70z" />
    <glyph glyph-name="multiply" unicode="&#xd7;" 
d="M253 234l-155 -158l-67 67l156 158l-156 156l67 66l155 -156l155 157l68 -67l-156 -156l155 -158l-67 -67z" />
    <glyph glyph-name="Oslash" unicode="&#xd8;" horiz-adv-x="735" 
d="M641 748l-65 -113q112 -99 112 -285q0 -162 -88.5 -261t-231.5 -99q-80 0 -144 32l-60 -104l-71 34l66 114q-112 101 -112 284q0 161 89 260.5t232 99.5q77 0 142 -31l59 103zM161 350q0 -117 53 -187l245 427q-41 21 -91 21q-95 0 -151 -70t-56 -191zM368 89
q94 0 150 70t56 191q0 119 -54 188l-245 -427q42 -22 93 -22z" />
    <glyph glyph-name="Ugrave" unicode="&#xd9;" horiz-adv-x="713" 
d="M404 768h-97l-111 139h145zM357 -10q-124 0 -203.5 75t-79.5 218v417h114v-417q0 -98 47.5 -145t121.5 -47t120.5 47t46.5 145v417h115v-417q0 -143 -79 -218t-203 -75z" />
    <glyph glyph-name="Uacute" unicode="&#xda;" horiz-adv-x="713" 
d="M407 768h-97l63 139h145zM357 -10q-124 0 -203.5 75t-79.5 218v417h114v-417q0 -98 47.5 -145t121.5 -47t120.5 47t46.5 145v417h115v-417q0 -143 -79 -218t-203 -75z" />
    <glyph glyph-name="Ucircumflex" unicode="&#xdb;" horiz-adv-x="713" 
d="M299 768h-113l117 139h106l117 -139h-117l-55 77zM357 -10q-124 0 -203.5 75t-79.5 218v417h114v-417q0 -98 47.5 -145t121.5 -47t120.5 47t46.5 145v417h115v-417q0 -143 -79 -218t-203 -75z" />
    <glyph glyph-name="Udieresis" unicode="&#xdc;" horiz-adv-x="713" 
d="M261 771q-30 0 -51 19.5t-21 47.5q0 29 21 48.5t51 19.5q29 0 49.5 -19.5t20.5 -48.5q0 -28 -20.5 -47.5t-49.5 -19.5zM454 771q-30 0 -51 19.5t-21 47.5q0 29 21 48.5t51 19.5q29 0 49.5 -19.5t20.5 -48.5q0 -28 -20.5 -47.5t-49.5 -19.5zM357 -10q-124 0 -203.5 75
t-79.5 218v417h114v-417q0 -98 47.5 -145t121.5 -47t120.5 47t46.5 145v417h115v-417q0 -143 -79 -218t-203 -75z" />
    <glyph glyph-name="Yacute" unicode="&#xdd;" horiz-adv-x="650" 
d="M375 768h-97l63 139h145zM383 0h-114v266l-250 434h130l175 -323h6l173 323h128l-248 -433v-267z" />
    <glyph glyph-name="Thorn" unicode="&#xde;" horiz-adv-x="618" 
d="M188 0h-114v700h114v-148h168q110 0 171.5 -53.5t61.5 -148.5t-61.5 -148.5t-171.5 -53.5h-168v-148zM188 455v-210h158q62 0 95 27.5t33 77.5t-33 77.5t-95 27.5h-158z" />
    <glyph glyph-name="germandbls" unicode="&#xdf;" horiz-adv-x="613" 
d="M356 -10q-81 0 -142 32l35 87q45 -24 93 -24q55 0 85.5 28.5t30.5 83.5t-34 85.5t-96 30.5h-53v92h36q58 0 89 28t31 78q0 46 -33 76t-90 30q-60 0 -94 -36t-34 -92v-489h-113v490q0 99 62 159.5t179 60.5q107 0 169 -52.5t62 -138.5q0 -56 -26 -95.5t-73 -56.5v-6
q131 -36 131 -174q0 -89 -57 -143t-158 -54z" />
    <glyph glyph-name="agrave" unicode="&#xe0;" horiz-adv-x="561" 
d="M263 717l63 -139h-97l-111 139h145zM496 339v-69q0 -179 5 -270h-98l-10 89h-8q-49 -99 -170 -99q-75 0 -120.5 41.5t-45.5 109.5q0 74 53.5 116t158.5 48l126 7v23q0 48 -31 72.5t-79 24.5q-96 0 -124 -89l-98 29q15 71 75 109.5t147 38.5q104 0 161.5 -47.5
t57.5 -133.5zM243 79q60 0 101 44t43 112l-103 -7q-63 -4 -94.5 -22.5t-31.5 -57.5q0 -32 22.5 -50.5t62.5 -18.5z" />
    <glyph glyph-name="aacute" unicode="&#xe1;" horiz-adv-x="561" 
d="M294 717h145l-111 -139h-97zM496 339v-69q0 -179 5 -270h-98l-10 89h-8q-49 -99 -170 -99q-75 0 -120.5 41.5t-45.5 109.5q0 74 53.5 116t158.5 48l126 7v23q0 48 -31 72.5t-79 24.5q-96 0 -124 -89l-98 29q15 71 75 109.5t147 38.5q104 0 161.5 -47.5t57.5 -133.5z
M243 79q60 0 101 44t43 112l-103 -7q-63 -4 -94.5 -22.5t-31.5 -57.5q0 -32 22.5 -50.5t62.5 -18.5z" />
    <glyph glyph-name="acircumflex" unicode="&#xe2;" horiz-adv-x="561" 
d="M331 578l-55 77l-55 -77h-113l117 139h106l117 -139h-117zM496 339v-69q0 -179 5 -270h-98l-10 89h-8q-49 -99 -170 -99q-75 0 -120.5 41.5t-45.5 109.5q0 74 53.5 116t158.5 48l126 7v23q0 48 -31 72.5t-79 24.5q-96 0 -124 -89l-98 29q15 71 75 109.5t147 38.5
q104 0 161.5 -47.5t57.5 -133.5zM243 79q60 0 101 44t43 112l-103 -7q-63 -4 -94.5 -22.5t-31.5 -57.5q0 -32 22.5 -50.5t62.5 -18.5z" />
    <glyph glyph-name="atilde" unicode="&#xe3;" horiz-adv-x="561" 
d="M221 636q-30 0 -30 -63h-70v37q0 57 24.5 84.5t59.5 27.5q34 0 75 -31.5t55 -31.5q30 0 30 63h70v-39q0 -58 -23.5 -84t-60.5 -26q-35 0 -75 31.5t-55 31.5zM496 339v-69q0 -179 5 -270h-98l-10 89h-8q-49 -99 -170 -99q-75 0 -120.5 41.5t-45.5 109.5q0 74 53.5 116
t158.5 48l126 7v23q0 48 -31 72.5t-79 24.5q-96 0 -124 -89l-98 29q15 71 75 109.5t147 38.5q104 0 161.5 -47.5t57.5 -133.5zM243 79q60 0 101 44t43 112l-103 -7q-63 -4 -94.5 -22.5t-31.5 -57.5q0 -32 22.5 -50.5t62.5 -18.5z" />
    <glyph glyph-name="adieresis" unicode="&#xe4;" horiz-adv-x="561" 
d="M183 581q-30 0 -51 19.5t-21 47.5q0 29 21 48.5t51 19.5q29 0 49.5 -19.5t20.5 -48.5q0 -28 -20.5 -47.5t-49.5 -19.5zM376 581q-30 0 -51 19.5t-21 47.5q0 29 21 48.5t51 19.5q29 0 49.5 -19.5t20.5 -48.5q0 -28 -20.5 -47.5t-49.5 -19.5zM496 339v-69q0 -179 5 -270
h-98l-10 89h-8q-49 -99 -170 -99q-75 0 -120.5 41.5t-45.5 109.5q0 74 53.5 116t158.5 48l126 7v23q0 48 -31 72.5t-79 24.5q-96 0 -124 -89l-98 29q15 71 75 109.5t147 38.5q104 0 161.5 -47.5t57.5 -133.5zM243 79q60 0 101 44t43 112l-103 -7q-63 -4 -94.5 -22.5
t-31.5 -57.5q0 -32 22.5 -50.5t62.5 -18.5z" />
    <glyph glyph-name="aring" unicode="&#xe5;" horiz-adv-x="561" 
d="M278 561q-50 0 -83.5 29.5t-33.5 75.5t33.5 76t83.5 30q51 0 84.5 -30t33.5 -76t-33.5 -75.5t-84.5 -29.5zM278 711q-20 0 -32.5 -12.5t-12.5 -32.5t12.5 -32.5t32.5 -12.5q21 0 33.5 12.5t12.5 32.5t-12.5 32.5t-33.5 12.5zM496 339v-69q0 -179 5 -270h-98l-10 89h-8
q-49 -99 -170 -99q-75 0 -120.5 41.5t-45.5 109.5q0 74 53.5 116t158.5 48l126 7v23q0 48 -31 72.5t-79 24.5q-96 0 -124 -89l-98 29q15 71 75 109.5t147 38.5q104 0 161.5 -47.5t57.5 -133.5zM243 79q60 0 101 44t43 112l-103 -7q-63 -4 -94.5 -22.5t-31.5 -57.5
q0 -32 22.5 -50.5t62.5 -18.5z" />
    <glyph glyph-name="ae" unicode="&#xe6;" horiz-adv-x="882" 
d="M841 268q0 -27 -3 -48h-352q8 -68 42 -105.5t88 -37.5q76 0 113 79l101 -30q-28 -67 -82.5 -101.5t-127.5 -34.5q-61 0 -110 27.5t-76 77.5q-57 -105 -202 -105q-85 0 -134 42t-49 112q0 73 53.5 114.5t150.5 41.5h129v16q0 55 -33 86t-79 31q-89 0 -115 -89l-100 30
q16 70 72 108t134 38q129 0 178 -95q58 95 178 95q104 0 164 -68t60 -184zM487 300h246q-4 63 -36 98t-84 35q-51 0 -84 -35t-42 -98zM244 78q62 0 100 37t38 104v1h-114q-109 0 -109 -72q0 -32 23 -51t62 -19z" />
    <glyph glyph-name="ccedilla" unicode="&#xe7;" horiz-adv-x="559" 
d="M414 183l108 -33q-23 -71 -75.5 -111.5t-124.5 -47.5l-11 -34h4q45 0 74.5 -24.5t29.5 -67.5q0 -45 -34 -73t-95 -28q-69 0 -119 37l37 58q38 -28 80 -28q23 0 37 10t14 26q0 35 -45 35q-20 0 -40 -7l-16 25l24 71q-103 10 -161.5 83.5t-58.5 180.5q0 115 67.5 190
t183.5 75q83 0 142 -40.5t82 -119.5l-108 -33q-32 97 -117 97q-62 0 -99.5 -46.5t-37.5 -122.5t37.5 -122.5t99.5 -46.5q87 0 122 97z" />
    <glyph glyph-name="egrave" unicode="&#xe8;" horiz-adv-x="567" 
d="M275 717l63 -139h-97l-111 139h145zM526 269q0 -28 -3 -49h-369q7 -68 44 -105.5t96 -37.5q82 0 119 79l101 -30q-56 -136 -221 -136q-116 0 -183.5 75t-67.5 190t67 190t183 75q107 0 170.5 -68t63.5 -183zM292 433q-55 0 -91 -35t-46 -98h264q-7 64 -40.5 98.5
t-86.5 34.5z" />
    <glyph glyph-name="eacute" unicode="&#xe9;" horiz-adv-x="567" 
d="M307 717h145l-111 -139h-97zM526 269q0 -28 -3 -49h-369q7 -68 44 -105.5t96 -37.5q82 0 119 79l101 -30q-56 -136 -221 -136q-116 0 -183.5 75t-67.5 190t67 190t183 75q107 0 170.5 -68t63.5 -183zM292 433q-55 0 -91 -35t-46 -98h264q-7 64 -40.5 98.5t-86.5 34.5z
" />
    <glyph glyph-name="ecircumflex" unicode="&#xea;" horiz-adv-x="567" 
d="M344 578l-55 77l-55 -77h-113l117 139h106l117 -139h-117zM526 269q0 -28 -3 -49h-369q7 -68 44 -105.5t96 -37.5q82 0 119 79l101 -30q-56 -136 -221 -136q-116 0 -183.5 75t-67.5 190t67 190t183 75q107 0 170.5 -68t63.5 -183zM292 433q-55 0 -91 -35t-46 -98h264
q-7 64 -40.5 98.5t-86.5 34.5z" />
    <glyph glyph-name="edieresis" unicode="&#xeb;" horiz-adv-x="567" 
d="M196 581q-30 0 -51 19.5t-21 47.5q0 29 21 48.5t51 19.5q29 0 49.5 -19.5t20.5 -48.5q0 -28 -20.5 -47.5t-49.5 -19.5zM389 581q-30 0 -51 19.5t-21 47.5q0 29 21 48.5t51 19.5q29 0 49.5 -19.5t20.5 -48.5q0 -28 -20.5 -47.5t-49.5 -19.5zM526 269q0 -28 -3 -49h-369
q7 -68 44 -105.5t96 -37.5q82 0 119 79l101 -30q-56 -136 -221 -136q-116 0 -183.5 75t-67.5 190t67 190t183 75q107 0 170.5 -68t63.5 -183zM292 433q-55 0 -91 -35t-46 -98h264q-7 64 -40.5 98.5t-86.5 34.5z" />
    <glyph glyph-name="igrave" unicode="&#xec;" horiz-adv-x="247" 
d="M171 578h-97l-111 139h145zM180 0h-113v510h113v-510z" />
    <glyph glyph-name="iacute" unicode="&#xed;" horiz-adv-x="247" 
d="M173 578h-97l63 139h145zM180 0h-113v510h113v-510z" />
    <glyph glyph-name="icircumflex" unicode="&#xee;" horiz-adv-x="247" 
d="M66 578h-113l117 139h106l117 -139h-117l-55 77zM180 0h-113v510h113v-510z" />
    <glyph glyph-name="idieresis" unicode="&#xef;" horiz-adv-x="247" 
d="M41 581q-28 0 -46 19t-18 48q0 30 18 49t46 19q29 0 47 -19t18 -49q0 -29 -18.5 -48t-46.5 -19zM205 581q-28 0 -46.5 19t-18.5 48q0 30 18 49t47 19q28 0 46 -19t18 -49q0 -29 -18 -48t-46 -19zM180 0h-113v510h113v-510z" />
    <glyph glyph-name="eth" unicode="&#xf0;" horiz-adv-x="562" 
d="M280 -10q-107 0 -172.5 68.5t-65.5 169.5q0 103 58.5 170t146.5 67q41 0 68.5 -10t57.5 -36l10 6q-32 73 -132 129l-98 -63l-45 48l75 48q-45 18 -95 32l63 81q74 -22 127 -50l78 50l44 -48l-60 -39q180 -125 180 -359q0 -116 -62 -190t-178 -74zM280 84q58 0 91.5 40
t33.5 104q0 65 -33.5 105t-91.5 40t-91.5 -40t-33.5 -105q0 -64 33.5 -104t91.5 -40z" />
    <glyph glyph-name="ntilde" unicode="&#xf1;" horiz-adv-x="604" 
d="M218 573h-70v37q0 57 24.5 84.5t59.5 27.5q34 0 75 -31.5t55 -31.5q30 0 30 63h70v-39q0 -58 -23.5 -84t-60.5 -26q-35 0 -75 31.5t-55 31.5q-30 0 -30 -63zM180 0h-113v238q0 181 -5 272h107l11 -84h7q59 94 170 94q88 0 137 -54.5t49 -161.5v-304h-114v288
q0 133 -111 133q-61 0 -99.5 -42.5t-38.5 -106.5v-272z" />
    <glyph glyph-name="ograve" unicode="&#xf2;" horiz-adv-x="586" 
d="M340 578h-97l-111 139h145zM293 -10q-116 0 -183.5 75t-67.5 190t67.5 190t183.5 75t184 -75t68 -190t-68 -190t-184 -75zM293 87q62 0 100 46t38 122t-38 122t-100 46t-100 -46t-38 -122t38 -122t100 -46z" />
    <glyph glyph-name="oacute" unicode="&#xf3;" horiz-adv-x="586" 
d="M343 578h-97l63 139h145zM293 -10q-116 0 -183.5 75t-67.5 190t67.5 190t183.5 75t184 -75t68 -190t-68 -190t-184 -75zM293 87q62 0 100 46t38 122t-38 122t-100 46t-100 -46t-38 -122t38 -122t100 -46z" />
    <glyph glyph-name="ocircumflex" unicode="&#xf4;" horiz-adv-x="586" 
d="M236 578h-113l117 139h106l117 -139h-117l-55 77zM293 -10q-116 0 -183.5 75t-67.5 190t67.5 190t183.5 75t184 -75t68 -190t-68 -190t-184 -75zM293 87q62 0 100 46t38 122t-38 122t-100 46t-100 -46t-38 -122t38 -122t100 -46z" />
    <glyph glyph-name="otilde" unicode="&#xf5;" horiz-adv-x="586" 
d="M206 573h-70v37q0 57 24.5 84.5t59.5 27.5q34 0 75 -31.5t55 -31.5q30 0 30 63h70v-39q0 -58 -23.5 -84t-60.5 -26q-35 0 -75 31.5t-55 31.5q-30 0 -30 -63zM293 -10q-116 0 -183.5 75t-67.5 190t67.5 190t183.5 75t184 -75t68 -190t-68 -190t-184 -75zM293 87
q62 0 100 46t38 122t-38 122t-100 46t-100 -46t-38 -122t38 -122t100 -46z" />
    <glyph glyph-name="odieresis" unicode="&#xf6;" horiz-adv-x="586" 
d="M198 581q-30 0 -51 19.5t-21 47.5q0 29 21 48.5t51 19.5q29 0 49.5 -19.5t20.5 -48.5q0 -28 -20.5 -47.5t-49.5 -19.5zM391 581q-30 0 -51 19.5t-21 47.5q0 29 21 48.5t51 19.5q29 0 49.5 -19.5t20.5 -48.5q0 -28 -20.5 -47.5t-49.5 -19.5zM293 -10q-116 0 -183.5 75
t-67.5 190t67.5 190t183.5 75t184 -75t68 -190t-68 -190t-184 -75zM293 87q62 0 100 46t38 122t-38 122t-100 46t-100 -46t-38 -122t38 -122t100 -46z" />
    <glyph glyph-name="divide" unicode="&#xf7;" 
d="M253 406q-29 0 -50 20t-21 49q0 28 21 48t50 20q30 0 51 -20t21 -48q0 -29 -21 -49t-51 -20zM472 252h-438v97h438v-97zM253 57q-29 0 -50 20t-21 49q0 28 21 48t50 20q30 0 51 -20t21 -48q0 -29 -21 -49t-51 -20z" />
    <glyph glyph-name="oslash" unicode="&#xf8;" horiz-adv-x="586" 
d="M497 541l-43 -75q90 -73 90 -211q0 -115 -67.5 -190t-183.5 -75q-55 0 -102 19l-40 -70l-62 30l43 75q-90 74 -90 211q0 115 67.5 190t183.5 75q55 0 102 -19l40 70zM293 427q-64 0 -102.5 -47t-38.5 -125q0 -74 35 -120l161 281q-25 11 -55 11zM293 83q64 0 102.5 47
t38.5 125q0 74 -34 120l-162 -281q25 -11 55 -11z" />
    <glyph glyph-name="ugrave" unicode="&#xf9;" horiz-adv-x="604" 
d="M347 578h-97l-111 139h145zM247 -10q-88 0 -136.5 54.5t-48.5 161.5v304h113v-288q0 -66 29 -99.5t83 -33.5q61 0 99 42.5t38 106.5v272h114v-238q0 -181 5 -272h-108l-10 84h-8q-59 -94 -170 -94z" />
    <glyph glyph-name="uacute" unicode="&#xfa;" horiz-adv-x="604" 
d="M350 578h-97l63 139h145zM247 -10q-88 0 -136.5 54.5t-48.5 161.5v304h113v-288q0 -66 29 -99.5t83 -33.5q61 0 99 42.5t38 106.5v272h114v-238q0 -181 5 -272h-108l-10 84h-8q-59 -94 -170 -94z" />
    <glyph glyph-name="ucircumflex" unicode="&#xfb;" horiz-adv-x="604" 
d="M243 578h-113l117 139h106l117 -139h-117l-55 77zM247 -10q-88 0 -136.5 54.5t-48.5 161.5v304h113v-288q0 -66 29 -99.5t83 -33.5q61 0 99 42.5t38 106.5v272h114v-238q0 -181 5 -272h-108l-10 84h-8q-59 -94 -170 -94z" />
    <glyph glyph-name="udieresis" unicode="&#xfc;" horiz-adv-x="604" 
d="M205 581q-30 0 -51 19.5t-21 47.5q0 29 21 48.5t51 19.5q29 0 49.5 -19.5t20.5 -48.5q0 -28 -20.5 -47.5t-49.5 -19.5zM398 581q-30 0 -51 19.5t-21 47.5q0 29 21 48.5t51 19.5q29 0 49.5 -19.5t20.5 -48.5q0 -28 -20.5 -47.5t-49.5 -19.5zM247 -10q-88 0 -136.5 54.5
t-48.5 161.5v304h113v-288q0 -66 29 -99.5t83 -33.5q61 0 99 42.5t38 106.5v272h114v-238q0 -181 5 -272h-108l-10 84h-8q-59 -94 -170 -94z" />
    <glyph glyph-name="yacute" unicode="&#xfd;" horiz-adv-x="542" 
d="M322 578h-97l63 139h145zM259 -200h-119l73 186l-197 524h119l135 -396h6l134 396h116z" />
    <glyph glyph-name="thorn" unicode="&#xfe;" horiz-adv-x="605" 
d="M180 -200h-113v900h113v-274h8q53 94 165 94q96 0 153 -72t57 -193t-57 -193t-153 -72q-112 0 -165 94h-8v-284zM315 87q62 0 98.5 45.5t36.5 121.5q0 77 -37 123t-98 46t-98 -46t-37 -123q0 -76 36.5 -121.5t98.5 -45.5z" />
    <glyph glyph-name="ydieresis" unicode="&#xff;" horiz-adv-x="542" 
d="M177 581q-30 0 -51 19.5t-21 47.5q0 29 21 48.5t51 19.5q29 0 49.5 -19.5t20.5 -48.5q0 -28 -20.5 -47.5t-49.5 -19.5zM370 581q-30 0 -51 19.5t-21 47.5q0 29 21 48.5t51 19.5q29 0 49.5 -19.5t20.5 -48.5q0 -28 -20.5 -47.5t-49.5 -19.5zM259 -200h-119l73 186
l-197 524h119l135 -396h6l134 396h116z" />
    <glyph glyph-name="Amacron" unicode="&#x100;" horiz-adv-x="680" 
d="M198 885h283v-90h-283v90zM664 0h-122l-50 151h-308l-51 -151h-117l246 700h154zM335 603l-120 -359h246l-120 359h-6z" />
    <glyph glyph-name="amacron" unicode="&#x101;" horiz-adv-x="561" 
d="M137 695h283v-90h-283v90zM496 339v-69q0 -179 5 -270h-98l-10 89h-8q-49 -99 -170 -99q-75 0 -120.5 41.5t-45.5 109.5q0 74 53.5 116t158.5 48l126 7v23q0 48 -31 72.5t-79 24.5q-96 0 -124 -89l-98 29q15 71 75 109.5t147 38.5q104 0 161.5 -47.5t57.5 -133.5zM243 79
q60 0 101 44t43 112l-103 -7q-63 -4 -94.5 -22.5t-31.5 -57.5q0 -32 22.5 -50.5t62.5 -18.5z" />
    <glyph glyph-name="Abreve" unicode="&#x102;" horiz-adv-x="680" 
d="M340 763q-72 0 -112.5 38.5t-40.5 105.5h87q0 -29 17 -48.5t49 -19.5q31 0 48 19.5t17 48.5h87q0 -67 -40.5 -105.5t-111.5 -38.5zM664 0h-122l-50 151h-308l-51 -151h-117l246 700h154zM335 603l-120 -359h246l-120 359h-6z" />
    <glyph glyph-name="abreve" unicode="&#x103;" horiz-adv-x="561" 
d="M279 573q-72 0 -112.5 38.5t-40.5 105.5h87q0 -29 17 -48.5t49 -19.5q31 0 48 19.5t17 48.5h87q0 -67 -40.5 -105.5t-111.5 -38.5zM496 339v-69q0 -179 5 -270h-98l-10 89h-8q-49 -99 -170 -99q-75 0 -120.5 41.5t-45.5 109.5q0 74 53.5 116t158.5 48l126 7v23
q0 48 -31 72.5t-79 24.5q-96 0 -124 -89l-98 29q15 71 75 109.5t147 38.5q104 0 161.5 -47.5t57.5 -133.5zM243 79q60 0 101 44t43 112l-103 -7q-63 -4 -94.5 -22.5t-31.5 -57.5q0 -32 22.5 -50.5t62.5 -18.5z" />
    <glyph glyph-name="Aogonek" unicode="&#x104;" horiz-adv-x="680" 
d="M664 0h-56q-83 -59 -83 -113q0 -39 47 -39q18 0 36 5v-74q-24 -6 -57 -6q-48 0 -78 23.5t-30 71.5q0 76 98 134l-49 149h-308l-51 -151h-117l246 700h154zM335 603l-120 -359h246l-120 359h-6z" />
    <glyph glyph-name="aogonek" unicode="&#x105;" horiz-adv-x="561" 
d="M501 0h-32q-83 -59 -83 -113q0 -39 47 -39q18 0 36 5v-74q-24 -6 -57 -6q-48 0 -78 23.5t-30 71.5q0 77 99 134l-10 87h-8q-49 -99 -170 -99q-75 0 -120.5 41.5t-45.5 109.5q0 74 53.5 116t158.5 48l126 7v23q0 48 -31 72.5t-79 24.5q-96 0 -124 -89l-98 29
q15 71 75 109.5t147 38.5q104 0 161.5 -47.5t57.5 -133.5v-69q0 -179 5 -270zM243 79q60 0 101 44t43 112l-103 -7q-63 -4 -94.5 -22.5t-31.5 -57.5q0 -32 22.5 -50.5t62.5 -18.5z" />
    <glyph glyph-name="Cacute" unicode="&#x106;" horiz-adv-x="703" 
d="M418 768h-97l63 139h145zM367 -10q-143 0 -231.5 99.5t-88.5 260.5t88.5 260.5t231.5 99.5q106 0 182 -53t107 -159l-110 -33q-47 147 -179 147q-94 0 -150 -70t-56 -192t56 -192t150 -70q135 0 184 147l111 -33q-33 -107 -109.5 -159.5t-185.5 -52.5z" />
    <glyph glyph-name="cacute" unicode="&#x107;" horiz-adv-x="559" 
d="M342 578h-97l63 139h145zM293 -10q-116 0 -183.5 75t-67.5 190t67.5 190t183.5 75q83 0 142 -40.5t82 -119.5l-108 -33q-32 97 -117 97q-62 0 -99.5 -46.5t-37.5 -122.5t37.5 -122.5t99.5 -46.5q87 0 122 97l108 -33q-25 -78 -86 -119t-143 -41z" />
    <glyph glyph-name="Ccircumflex" unicode="&#x108;" horiz-adv-x="703" 
d="M310 768h-113l117 139h106l117 -139h-117l-55 77zM367 -10q-143 0 -231.5 99.5t-88.5 260.5t88.5 260.5t231.5 99.5q106 0 182 -53t107 -159l-110 -33q-47 147 -179 147q-94 0 -150 -70t-56 -192t56 -192t150 -70q135 0 184 147l111 -33q-33 -107 -109.5 -159.5
t-185.5 -52.5z" />
    <glyph glyph-name="ccircumflex" unicode="&#x109;" horiz-adv-x="559" 
d="M235 578h-113l117 139h106l117 -139h-117l-55 77zM293 -10q-116 0 -183.5 75t-67.5 190t67.5 190t183.5 75q83 0 142 -40.5t82 -119.5l-108 -33q-32 97 -117 97q-62 0 -99.5 -46.5t-37.5 -122.5t37.5 -122.5t99.5 -46.5q87 0 122 97l108 -33q-25 -78 -86 -119t-143 -41z
" />
    <glyph glyph-name="Cdotaccent" unicode="&#x10a;" horiz-adv-x="703" 
d="M368 766q-33 0 -55.5 21t-22.5 52q0 32 22.5 53t55.5 21t55 -21t22 -53q0 -31 -22.5 -52t-54.5 -21zM367 -10q-143 0 -231.5 99.5t-88.5 260.5t88.5 260.5t231.5 99.5q106 0 182 -53t107 -159l-110 -33q-47 147 -179 147q-94 0 -150 -70t-56 -192t56 -192t150 -70
q135 0 184 147l111 -33q-33 -107 -109.5 -159.5t-185.5 -52.5z" />
    <glyph glyph-name="cdotaccent" unicode="&#x10b;" horiz-adv-x="559" 
d="M293 576q-33 0 -55.5 21t-22.5 52q0 32 22.5 53t55.5 21t55 -21t22 -53q0 -31 -22.5 -52t-54.5 -21zM293 -10q-116 0 -183.5 75t-67.5 190t67.5 190t183.5 75q83 0 142 -40.5t82 -119.5l-108 -33q-32 97 -117 97q-62 0 -99.5 -46.5t-37.5 -122.5t37.5 -122.5t99.5 -46.5
q87 0 122 97l108 -33q-25 -78 -86 -119t-143 -41z" />
    <glyph glyph-name="Ccaron" unicode="&#x10c;" horiz-adv-x="703" 
d="M420 768h-106l-117 139h118l55 -78l54 78h113zM367 -10q-143 0 -231.5 99.5t-88.5 260.5t88.5 260.5t231.5 99.5q106 0 182 -53t107 -159l-110 -33q-47 147 -179 147q-94 0 -150 -70t-56 -192t56 -192t150 -70q135 0 184 147l111 -33q-33 -107 -109.5 -159.5
t-185.5 -52.5z" />
    <glyph glyph-name="ccaron" unicode="&#x10d;" horiz-adv-x="559" 
d="M345 578h-106l-117 139h118l55 -78l54 78h113zM293 -10q-116 0 -183.5 75t-67.5 190t67.5 190t183.5 75q83 0 142 -40.5t82 -119.5l-108 -33q-32 97 -117 97q-62 0 -99.5 -46.5t-37.5 -122.5t37.5 -122.5t99.5 -46.5q87 0 122 97l108 -33q-25 -78 -86 -119t-143 -41z" />
    <glyph glyph-name="Dcaron" unicode="&#x10e;" horiz-adv-x="696" 
d="M387 768h-106l-117 139h118l55 -78l54 78h113zM310 0h-236v700h236q154 0 246.5 -96t92.5 -254t-92.5 -254t-246.5 -96zM188 601v-502h122q103 0 163.5 67t60.5 184t-60.5 184t-163.5 67h-122z" />
    <glyph glyph-name="dcaron" unicode="&#x10f;" horiz-adv-x="695" 
d="M253 -10q-97 0 -154 72t-57 192q0 121 57 193.5t154 72.5q111 0 164 -94h8v274h113v-428q0 -181 5 -272h-107l-11 84h-8q-53 -94 -164 -94zM656 507h-65l10 193h102zM290 87q62 0 98.5 45.5t36.5 121.5q0 77 -37 123t-98 46t-98 -46t-37 -123q0 -76 36.5 -121.5
t98.5 -45.5z" />
    <glyph glyph-name="Dcroat" unicode="&#x110;" horiz-adv-x="746" 
d="M124 700h237q154 0 246 -96t92 -254t-92 -254t-246 -96h-237v308h-115v84h115v308zM239 99h122q103 0 163.5 67t60.5 184t-60.5 184t-163.5 67h-122v-209h184v-84h-184v-209z" />
    <glyph glyph-name="dcroat" unicode="&#x111;" horiz-adv-x="633" 
d="M634 636v-74h-96v-290q0 -181 5 -272h-107l-11 84h-8q-53 -94 -164 -94q-97 0 -154 72t-57 192q0 121 57 193.5t154 72.5q111 0 164 -94h8v136h-166v74h166v64h113v-64h96zM290 87q62 0 98.5 45.5t36.5 121.5q0 77 -37 123t-98 46t-98 -46t-37 -123q0 -76 36.5 -121.5
t98.5 -45.5z" />
    <glyph glyph-name="Emacron" unicode="&#x112;" horiz-adv-x="608" 
d="M461 795h-283v90h283v-90zM555 0h-481v700h481v-98h-367v-193h327v-98h-327v-213h367v-98z" />
    <glyph glyph-name="emacron" unicode="&#x113;" horiz-adv-x="567" 
d="M150 695h283v-90h-283v90zM526 269q0 -28 -3 -49h-369q7 -68 44 -105.5t96 -37.5q82 0 119 79l101 -30q-56 -136 -221 -136q-116 0 -183.5 75t-67.5 190t67 190t183 75q107 0 170.5 -68t63.5 -183zM292 433q-55 0 -91 -35t-46 -98h264q-7 64 -40.5 98.5t-86.5 34.5z" />
    <glyph glyph-name="Ebreve" unicode="&#x114;" horiz-adv-x="608" 
d="M321 763q-72 0 -112.5 38.5t-40.5 105.5h87q0 -29 17 -48.5t49 -19.5q31 0 48 19.5t17 48.5h87q0 -67 -40.5 -105.5t-111.5 -38.5zM555 0h-481v700h481v-98h-367v-193h327v-98h-327v-213h367v-98z" />
    <glyph glyph-name="ebreve" unicode="&#x115;" horiz-adv-x="567" 
d="M292 573q-72 0 -112.5 38.5t-40.5 105.5h87q0 -29 17 -48.5t49 -19.5q31 0 48 19.5t17 48.5h87q0 -67 -40.5 -105.5t-111.5 -38.5zM526 269q0 -28 -3 -49h-369q7 -68 44 -105.5t96 -37.5q82 0 119 79l101 -30q-56 -136 -221 -136q-116 0 -183.5 75t-67.5 190t67 190
t183 75q107 0 170.5 -68t63.5 -183zM292 433q-55 0 -91 -35t-46 -98h264q-7 64 -40.5 98.5t-86.5 34.5z" />
    <glyph glyph-name="Edotaccent" unicode="&#x116;" horiz-adv-x="608" 
d="M320 766q-33 0 -55.5 21t-22.5 52q0 32 22.5 53t55.5 21t55 -21t22 -53q0 -31 -22.5 -52t-54.5 -21zM555 0h-481v700h481v-98h-367v-193h327v-98h-327v-213h367v-98z" />
    <glyph glyph-name="edotaccent" unicode="&#x117;" horiz-adv-x="567" 
d="M291 576q-33 0 -55.5 21t-22.5 52q0 32 22.5 53t55.5 21t55 -21t22 -53q0 -31 -22.5 -52t-54.5 -21zM526 269q0 -28 -3 -49h-369q7 -68 44 -105.5t96 -37.5q82 0 119 79l101 -30q-56 -136 -221 -136q-116 0 -183.5 75t-67.5 190t67 190t183 75q107 0 170.5 -68t63.5 -183
zM292 433q-55 0 -91 -35t-46 -98h264q-7 64 -40.5 98.5t-86.5 34.5z" />
    <glyph glyph-name="Eogonek" unicode="&#x118;" horiz-adv-x="608" 
d="M473 -113q0 -39 47 -39q18 0 36 5v-74q-24 -6 -57 -6q-48 0 -78 23.5t-30 71.5q0 74 95 132h-412v700h481v-98h-367v-193h327v-98h-327v-213h367v-98h1q-83 -59 -83 -113z" />
    <glyph glyph-name="eogonek" unicode="&#x119;" horiz-adv-x="567" 
d="M526 269q0 -28 -3 -49h-369q7 -68 44 -105.5t96 -37.5q82 0 119 79l101 -30q-43 -102 -145 -127q-81 -58 -81 -112q0 -39 47 -39q18 0 36 5v-74q-24 -6 -57 -6q-48 0 -78 23.5t-30 71.5q0 68 79 122q-113 3 -178 77.5t-65 187.5q0 115 67 190t183 75q107 0 170.5 -68
t63.5 -183zM292 433q-55 0 -91 -35t-46 -98h264q-7 64 -40.5 98.5t-86.5 34.5z" />
    <glyph glyph-name="Ecaron" unicode="&#x11a;" horiz-adv-x="608" 
d="M373 768h-106l-117 139h118l55 -78l54 78h113zM555 0h-481v700h481v-98h-367v-193h327v-98h-327v-213h367v-98z" />
    <glyph glyph-name="ecaron" unicode="&#x11b;" horiz-adv-x="567" 
d="M461 717l-117 -139h-106l-117 139h118l55 -78l54 78h113zM526 269q0 -28 -3 -49h-369q7 -68 44 -105.5t96 -37.5q82 0 119 79l101 -30q-56 -136 -221 -136q-116 0 -183.5 75t-67.5 190t67 190t183 75q107 0 170.5 -68t63.5 -183zM292 433q-55 0 -91 -35t-46 -98h264
q-7 64 -40.5 98.5t-86.5 34.5z" />
    <glyph glyph-name="Gcircumflex" unicode="&#x11c;" horiz-adv-x="722" 
d="M310 768h-113l117 139h106l117 -139h-117l-55 77zM381 -10q-153 0 -243.5 99t-90.5 261q0 161 89 260.5t234 99.5q106 0 180.5 -48.5t109.5 -144.5l-109 -33q-50 131 -181 131q-94 0 -151.5 -71.5t-57.5 -193.5q0 -124 58.5 -194.5t163.5 -70.5q96 0 159 65v134l-158 7
v81h270v-260q-96 -122 -273 -122z" />
    <glyph glyph-name="gcircumflex" unicode="&#x11d;" horiz-adv-x="605" 
d="M235 578h-113l117 139h106l117 -139h-117l-55 77zM301 -210q-92 0 -155 36.5t-85 104.5l103 31q28 -84 137 -84q59 0 91.5 31.5t32.5 91.5v105h-8q-55 -94 -165 -94q-95 0 -152.5 69t-57.5 184q0 116 57.5 185.5t152.5 69.5q110 0 165 -94h8l11 84h107q-5 -91 -5 -264
v-248q0 -96 -61.5 -152t-175.5 -56zM290 107q62 0 98.5 44t36.5 115q0 70 -36.5 113.5t-98.5 43.5t-98.5 -43.5t-36.5 -114.5t36.5 -114.5t98.5 -43.5z" />
    <glyph glyph-name="Gbreve" unicode="&#x11e;" horiz-adv-x="722" 
d="M368 763q-72 0 -112.5 38.5t-40.5 105.5h87q0 -29 17 -48.5t49 -19.5q31 0 48 19.5t17 48.5h87q0 -67 -40.5 -105.5t-111.5 -38.5zM381 -10q-153 0 -243.5 99t-90.5 261q0 161 89 260.5t234 99.5q106 0 180.5 -48.5t109.5 -144.5l-109 -33q-50 131 -181 131
q-94 0 -151.5 -71.5t-57.5 -193.5q0 -124 58.5 -194.5t163.5 -70.5q96 0 159 65v134l-158 7v81h270v-260q-96 -122 -273 -122z" />
    <glyph glyph-name="gbreve" unicode="&#x11f;" horiz-adv-x="605" 
d="M293 573q-72 0 -112.5 38.5t-40.5 105.5h87q0 -29 17 -48.5t49 -19.5q31 0 48 19.5t17 48.5h87q0 -67 -40.5 -105.5t-111.5 -38.5zM301 -210q-92 0 -155 36.5t-85 104.5l103 31q28 -84 137 -84q59 0 91.5 31.5t32.5 91.5v105h-8q-55 -94 -165 -94q-95 0 -152.5 69
t-57.5 184q0 116 57.5 185.5t152.5 69.5q110 0 165 -94h8l11 84h107q-5 -91 -5 -264v-248q0 -96 -61.5 -152t-175.5 -56zM290 107q62 0 98.5 44t36.5 115q0 70 -36.5 113.5t-98.5 43.5t-98.5 -43.5t-36.5 -114.5t36.5 -114.5t98.5 -43.5z" />
    <glyph glyph-name="Gdotaccent" unicode="&#x120;" horiz-adv-x="722" 
d="M367 766q-33 0 -55.5 21t-22.5 52q0 32 22.5 53t55.5 21t55 -21t22 -53q0 -31 -22.5 -52t-54.5 -21zM381 -10q-153 0 -243.5 99t-90.5 261q0 161 89 260.5t234 99.5q106 0 180.5 -48.5t109.5 -144.5l-109 -33q-50 131 -181 131q-94 0 -151.5 -71.5t-57.5 -193.5
q0 -124 58.5 -194.5t163.5 -70.5q96 0 159 65v134l-158 7v81h270v-260q-96 -122 -273 -122z" />
    <glyph glyph-name="gdotaccent" unicode="&#x121;" horiz-adv-x="605" 
d="M292 576q-33 0 -55.5 21t-22.5 52q0 32 22.5 53t55.5 21t55 -21t22 -53q0 -31 -22.5 -52t-54.5 -21zM301 -210q-92 0 -155 36.5t-85 104.5l103 31q28 -84 137 -84q59 0 91.5 31.5t32.5 91.5v105h-8q-55 -94 -165 -94q-95 0 -152.5 69t-57.5 184q0 116 57.5 185.5
t152.5 69.5q110 0 165 -94h8l11 84h107q-5 -91 -5 -264v-248q0 -96 -61.5 -152t-175.5 -56zM290 107q62 0 98.5 44t36.5 115q0 70 -36.5 113.5t-98.5 43.5t-98.5 -43.5t-36.5 -114.5t36.5 -114.5t98.5 -43.5z" />
    <glyph glyph-name="uni0122" unicode="&#x122;" horiz-adv-x="722" 
d="M381 -10q-153 0 -243.5 99t-90.5 261q0 161 89 260.5t234 99.5q106 0 180.5 -48.5t109.5 -144.5l-109 -33q-50 131 -181 131q-94 0 -151.5 -71.5t-57.5 -193.5q0 -124 58.5 -194.5t163.5 -70.5q96 0 159 65v134l-158 7v81h270v-260q-96 -122 -273 -122zM374 -194h-87
l36 145h114z" />
    <glyph glyph-name="uni0123" unicode="&#x123;" horiz-adv-x="605" 
d="M349 578h-115l61 139h87zM301 -210q-92 0 -155 36.5t-85 104.5l103 31q28 -84 137 -84q59 0 91.5 31.5t32.5 91.5v105h-8q-55 -94 -165 -94q-95 0 -152.5 69t-57.5 184q0 116 57.5 185.5t152.5 69.5q110 0 165 -94h8l11 84h107q-5 -91 -5 -264v-248q0 -96 -61.5 -152
t-175.5 -56zM290 107q62 0 98.5 44t36.5 115q0 70 -36.5 113.5t-98.5 43.5t-98.5 -43.5t-36.5 -114.5t36.5 -114.5t98.5 -43.5z" />
    <glyph glyph-name="Hcircumflex" unicode="&#x124;" horiz-adv-x="715" 
d="M301 768h-113l117 139h106l117 -139h-117l-55 77zM188 0h-114v700h114v-295h339v295h114v-700h-114v305h-339v-305z" />
    <glyph glyph-name="hcircumflex" unicode="&#x125;" horiz-adv-x="604" 
d="M293 768h-117l-55 77l-55 -77h-113l117 139h106zM357 520q88 0 137 -54.5t49 -161.5v-304h-114v288q0 133 -111 133q-61 0 -99.5 -42.5t-38.5 -106.5v-272h-113v700h113v-156l-4 -118h12q58 94 169 94z" />
    <glyph glyph-name="Hbar" unicode="&#x126;" horiz-adv-x="796" 
d="M229 0h-115v517h-101v81h101v102h115v-102h338v102h115v-102h101v-81h-101v-517h-115v305h-338v-305zM229 517v-112h338v112h-338z" />
    <glyph glyph-name="hbar" unicode="&#x127;" horiz-adv-x="632" 
d="M385 520q88 0 136.5 -54.5t48.5 -161.5v-304h-113v288q0 66 -29 99.5t-83 33.5q-61 0 -99 -42.5t-38 -106.5v-272h-114v562h-95v74h95v64h114v-64h166v-74h-166v-18l-5 -118h13q58 94 169 94z" />
    <glyph glyph-name="Itilde" unicode="&#x128;" horiz-adv-x="262" 
d="M44 763h-70v37q0 57 24.5 84.5t59.5 27.5q34 0 75 -31.5t55 -31.5q30 0 30 63h70v-39q0 -58 -23.5 -84t-60.5 -26q-35 0 -75 31.5t-55 31.5q-30 0 -30 -63zM188 0h-114v700h114v-700z" />
    <glyph glyph-name="itilde" unicode="&#x129;" horiz-adv-x="247" 
d="M36 573h-70v37q0 57 24.5 84.5t59.5 27.5q34 0 75 -31.5t55 -31.5q30 0 30 63h70v-39q0 -58 -23.5 -84t-60.5 -26q-35 0 -75 31.5t-55 31.5q-30 0 -30 -63zM180 0h-113v510h113v-510z" />
    <glyph glyph-name="Imacron" unicode="&#x12a;" horiz-adv-x="262" 
d="M272 795h-283v90h283v-90zM188 0h-114v700h114v-700z" />
    <glyph glyph-name="imacron" unicode="&#x12b;" horiz-adv-x="247" 
d="M265 605h-283v90h283v-90zM180 0h-113v510h113v-510z" />
    <glyph glyph-name="Ibreve" unicode="&#x12c;" horiz-adv-x="262" 
d="M132 763q-72 0 -112.5 38.5t-40.5 105.5h87q0 -29 17 -48.5t49 -19.5q31 0 48 19.5t17 48.5h87q0 -67 -40.5 -105.5t-111.5 -38.5zM188 0h-114v700h114v-700z" />
    <glyph glyph-name="ibreve" unicode="&#x12d;" horiz-adv-x="247" 
d="M124 573q-72 0 -112.5 38.5t-40.5 105.5h87q0 -29 17 -48.5t49 -19.5q31 0 48 19.5t17 48.5h87q0 -67 -40.5 -105.5t-111.5 -38.5zM180 0h-113v510h113v-510z" />
    <glyph glyph-name="Iogonek" unicode="&#x12e;" horiz-adv-x="262" 
d="M106 -113q0 -39 47 -39q18 0 36 5v-74q-24 -6 -57 -6q-48 0 -78 23.5t-30 71.5q0 74 95 132h-45v700h114v-700h1q-83 -59 -83 -113z" />
    <glyph glyph-name="iogonek" unicode="&#x12f;" horiz-adv-x="247" 
d="M124 723q33 0 55 -21t22 -53q0 -31 -22.5 -52t-54.5 -21q-33 0 -55.5 21t-22.5 52q0 32 22.5 53t55.5 21zM110 0h-43v510h113v-510q-83 -59 -83 -113q0 -39 47 -39q18 0 36 5v-74q-24 -6 -57 -6q-48 0 -78 23.5t-30 71.5q0 74 95 132z" />
    <glyph glyph-name="Idotaccent" unicode="&#x130;" horiz-adv-x="262" 
d="M131 766q-33 0 -55.5 21t-22.5 52q0 32 22.5 53t55.5 21t55 -21t22 -53q0 -31 -22.5 -52t-54.5 -21zM188 0h-114v700h114v-700z" />
    <glyph glyph-name="dotlessi" unicode="&#x131;" horiz-adv-x="247" 
d="M180 0h-113v510h113v-510z" />
    <glyph glyph-name="IJ" unicode="&#x132;" horiz-adv-x="743" 
d="M188 0h-114v700h114v-700zM431 0h-126v98h121q128 0 128 143v459h115v-460q0 -115 -63.5 -177.5t-174.5 -62.5z" />
    <glyph glyph-name="ij" unicode="&#x133;" horiz-adv-x="523" 
d="M124 576q-33 0 -55.5 21t-22.5 52q0 32 22.5 53t55.5 21t55 -21t22 -53q0 -31 -22.5 -52t-54.5 -21zM399 576q-32 0 -54.5 21t-22.5 52q0 32 22 53t55 21t55.5 -21t22.5 -53q0 -31 -22.5 -52t-55.5 -21zM180 0h-113v510h113v-510zM302 -210q-70 0 -117 31l32 81
q28 -18 64 -18q62 0 62 70v556h113v-562q0 -77 -41 -117.5t-113 -40.5z" />
    <glyph glyph-name="Jcircumflex" unicode="&#x134;" horiz-adv-x="590" 
d="M400 768h-113l117 139h106l117 -139h-117l-55 77zM271 -10q-90 0 -157 42t-93 122l106 32q35 -98 144 -98q62 0 96.5 36t34.5 105v471h114v-476q0 -109 -64.5 -171.5t-180.5 -62.5z" />
    <glyph glyph-name="jcircumflex" unicode="&#x135;" horiz-adv-x="291" 
d="M110 578h-113l117 139h106l117 -139h-117l-55 77zM70 -210q-70 0 -117 31l32 81q28 -18 64 -18q62 0 62 70v556h113v-562q0 -77 -41 -117.5t-113 -40.5z" />
    <glyph glyph-name="uni0136" unicode="&#x136;" horiz-adv-x="640" 
d="M188 0h-114v700h114v-341l286 341h137l-297 -342l307 -358h-144l-289 347v-347zM326 -194h-87l36 145h114z" />
    <glyph glyph-name="uni0137" unicode="&#x137;" horiz-adv-x="551" 
d="M180 0h-113v700h113v-432l208 242h138l-221 -242l227 -268h-143l-209 255v-255zM278 -194h-87l36 145h114z" />
    <glyph glyph-name="kgreenlandic" unicode="&#x138;" horiz-adv-x="551" 
d="M180 0h-113v510h113v-242l208 242h138l-221 -242l227 -268h-143l-209 255v-255z" />
    <glyph glyph-name="Lacute" unicode="&#x139;" horiz-adv-x="561" 
d="M181 768h-97l63 139h145zM533 0h-459v700h114v-599h345v-101z" />
    <glyph glyph-name="lacute" unicode="&#x13a;" horiz-adv-x="247" 
d="M173 768h-97l63 139h145zM180 0h-113v700h113v-700z" />
    <glyph glyph-name="uni013B" unicode="&#x13b;" horiz-adv-x="561" 
d="M533 0h-459v700h114v-599h345v-101zM308 -194h-87l36 145h114z" />
    <glyph glyph-name="uni013C" unicode="&#x13c;" horiz-adv-x="247" 
d="M180 0h-113v700h113v-700zM117 -194h-87l36 145h114z" />
    <glyph glyph-name="Lcaron" unicode="&#x13d;" horiz-adv-x="561" 
d="M533 0h-459v700h114v-599h345v-101zM306 507h-65l10 193h102z" />
    <glyph glyph-name="lcaron" unicode="&#x13e;" horiz-adv-x="337" 
d="M180 0h-113v700h113v-700zM298 507h-65l10 193h102z" />
    <glyph glyph-name="Ldot" unicode="&#x13f;" horiz-adv-x="561" 
d="M533 0h-459v700h114v-599h345v-101zM412 309q-32 0 -54 20.5t-22 52.5t22 52.5t54 20.5t53.5 -20.5t21.5 -52.5t-21.5 -52.5t-53.5 -20.5z" />
    <glyph glyph-name="ldot" unicode="&#x140;" horiz-adv-x="371" 
d="M180 0h-113v700h113v-700zM309 247q-31 0 -53.5 20.5t-22.5 52.5t22.5 52.5t53.5 20.5q32 0 54 -20.5t22 -52.5t-22 -52.5t-54 -20.5z" />
    <glyph glyph-name="Lslash" unicode="&#x141;" horiz-adv-x="634" 
d="M605 0h-471v246l-111 -59v96l111 59v358h115v-297l193 104v-97l-193 -103v-206h356v-101z" />
    <glyph glyph-name="lslash" unicode="&#x142;" horiz-adv-x="344" 
d="M229 0h-113v255l-93 -50v91l93 49v355h113v-295l93 50v-90l-93 -50v-315z" />
    <glyph glyph-name="Nacute" unicode="&#x143;" horiz-adv-x="729" 
d="M414 768h-97l63 139h145zM187 0h-113v700h124l341 -527h7q-4 96 -4 200v327h113v-700h-124l-342 527h-6q4 -97 4 -200v-327z" />
    <glyph glyph-name="nacute" unicode="&#x144;" horiz-adv-x="604" 
d="M355 578h-97l63 139h145zM180 0h-113v238q0 181 -5 272h107l11 -84h7q59 94 170 94q88 0 137 -54.5t49 -161.5v-304h-114v288q0 133 -111 133q-61 0 -99.5 -42.5t-38.5 -106.5v-272z" />
    <glyph glyph-name="uni0145" unicode="&#x145;" horiz-adv-x="729" 
d="M187 0h-113v700h124l341 -527h7q-4 96 -4 200v327h113v-700h-124l-342 527h-6q4 -97 4 -200v-327zM358 -194h-87l36 145h114z" />
    <glyph glyph-name="uni0146" unicode="&#x146;" horiz-adv-x="604" 
d="M180 0h-113v238q0 181 -5 272h107l11 -84h7q59 94 170 94q88 0 137 -54.5t49 -161.5v-304h-114v288q0 133 -111 133q-61 0 -99.5 -42.5t-38.5 -106.5v-272zM299 -194h-87l36 145h114z" />
    <glyph glyph-name="Ncaron" unicode="&#x147;" horiz-adv-x="729" 
d="M417 768h-106l-117 139h118l55 -78l54 78h113zM187 0h-113v700h124l341 -527h7q-4 96 -4 200v327h113v-700h-124l-342 527h-6q4 -97 4 -200v-327z" />
    <glyph glyph-name="ncaron" unicode="&#x148;" horiz-adv-x="604" 
d="M358 578h-106l-117 139h118l55 -78l54 78h113zM180 0h-113v238q0 181 -5 272h107l11 -84h7q59 94 170 94q88 0 137 -54.5t49 -161.5v-304h-114v288q0 133 -111 133q-61 0 -99.5 -42.5t-38.5 -106.5v-272z" />
    <glyph glyph-name="napostrophe" unicode="&#x149;" horiz-adv-x="604" 
d="M133 569h-65l10 193h102zM180 0h-113v238q0 181 -5 272h107l11 -84h7q59 94 170 94q88 0 137 -54.5t49 -161.5v-304h-114v288q0 133 -111 133q-61 0 -99.5 -42.5t-38.5 -106.5v-272z" />
    <glyph glyph-name="Eng" unicode="&#x14a;" horiz-adv-x="729" 
d="M502 -210q-68 0 -115 31l32 78q29 -18 63 -18q62 0 62 69v36l-355 543h-6q4 -96 4 -199v-330h-113v700h124l341 -521h7q-4 95 -4 199v322h113v-752q0 -77 -40.5 -117.5t-112.5 -40.5z" />
    <glyph glyph-name="eng" unicode="&#x14b;" horiz-adv-x="604" 
d="M389 -210q-70 0 -117 31l33 81q27 -18 63 -18q61 0 61 70v334q0 133 -111 133q-61 0 -99.5 -42.5t-38.5 -106.5v-272h-113v238q0 181 -5 272h107l11 -84h7q59 94 170 94q88 0 137 -54.5t49 -161.5v-356q0 -77 -41 -117.5t-113 -40.5z" />
    <glyph glyph-name="Omacron" unicode="&#x14c;" horiz-adv-x="735" 
d="M509 795h-283v90h283v-90zM368 -10q-143 0 -232 99.5t-89 260.5t89 260.5t232 99.5t231.5 -99t88.5 -261t-88.5 -261t-231.5 -99zM368 89q94 0 150 70t56 191t-56 191t-150 70q-95 0 -151 -70t-56 -191t56 -191t151 -70z" />
    <glyph glyph-name="omacron" unicode="&#x14d;" horiz-adv-x="586" 
d="M434 605h-283v90h283v-90zM293 -10q-116 0 -183.5 75t-67.5 190t67.5 190t183.5 75t184 -75t68 -190t-68 -190t-184 -75zM293 87q62 0 100 46t38 122t-38 122t-100 46t-100 -46t-38 -122t38 -122t100 -46z" />
    <glyph glyph-name="Obreve" unicode="&#x14e;" horiz-adv-x="735" 
d="M368 763q-72 0 -112.5 38.5t-40.5 105.5h87q0 -29 17 -48.5t49 -19.5q31 0 48 19.5t17 48.5h87q0 -67 -40.5 -105.5t-111.5 -38.5zM368 -10q-143 0 -232 99.5t-89 260.5t89 260.5t232 99.5t231.5 -99t88.5 -261t-88.5 -261t-231.5 -99zM368 89q94 0 150 70t56 191
t-56 191t-150 70q-95 0 -151 -70t-56 -191t56 -191t151 -70z" />
    <glyph glyph-name="obreve" unicode="&#x14f;" horiz-adv-x="586" 
d="M294 573q-72 0 -112.5 38.5t-40.5 105.5h87q0 -29 17 -48.5t49 -19.5q31 0 48 19.5t17 48.5h87q0 -67 -40.5 -105.5t-111.5 -38.5zM293 -10q-116 0 -183.5 75t-67.5 190t67.5 190t183.5 75t184 -75t68 -190t-68 -190t-184 -75zM293 87q62 0 100 46t38 122t-38 122
t-100 46t-100 -46t-38 -122t38 -122t100 -46z" />
    <glyph glyph-name="Ohungarumlaut" unicode="&#x150;" horiz-adv-x="735" 
d="M328 768h-89l63 139h131zM495 768h-89l63 139h131zM368 -10q-143 0 -232 99.5t-89 260.5t89 260.5t232 99.5t231.5 -99t88.5 -261t-88.5 -261t-231.5 -99zM368 89q94 0 150 70t56 191t-56 191t-150 70q-95 0 -151 -70t-56 -191t56 -191t151 -70z" />
    <glyph glyph-name="ohungarumlaut" unicode="&#x151;" horiz-adv-x="586" 
d="M253 578h-89l63 139h131zM420 578h-89l63 139h131zM293 -10q-116 0 -183.5 75t-67.5 190t67.5 190t183.5 75t184 -75t68 -190t-68 -190t-184 -75zM293 87q62 0 100 46t38 122t-38 122t-100 46t-100 -46t-38 -122t38 -122t100 -46z" />
    <glyph glyph-name="OE" unicode="&#x152;" horiz-adv-x="954" 
d="M902 0h-529q-147 0 -236.5 96.5t-89.5 253.5t89.5 253.5t236.5 96.5h529v-98h-321v-193h281v-98h-281v-213h321v-98zM376 98h92v504h-92q-98 0 -155.5 -67.5t-57.5 -184.5t57.5 -184.5t155.5 -67.5z" />
    <glyph glyph-name="oe" unicode="&#x153;" horiz-adv-x="930" 
d="M889 268q0 -27 -3 -48h-352q7 -68 41 -105.5t89 -37.5q76 0 113 79l101 -30q-57 -136 -209 -136q-129 0 -194 100q-61 -100 -190 -100q-112 0 -177.5 75t-65.5 190t65.5 190t177.5 75q127 0 191 -100q66 100 189 100q103 0 163.5 -68t60.5 -184zM535 300h246
q-4 63 -36 98t-83 35t-84.5 -35.5t-42.5 -97.5zM288 87q61 0 97 45.5t36 122.5t-36 122.5t-97 45.5t-97 -45.5t-36 -122.5t36 -122.5t97 -45.5z" />
    <glyph glyph-name="Racute" unicode="&#x154;" horiz-adv-x="646" 
d="M371 768h-97l63 139h145zM188 0h-114v700h280q111 0 175 -58t64 -161q0 -74 -37 -125.5t-104 -71.5l154 -284h-129l-135 269h-154v-269zM188 603v-242h158q61 0 96.5 31.5t35.5 88.5t-35.5 89.5t-96.5 32.5h-158z" />
    <glyph glyph-name="racute" unicode="&#x155;" horiz-adv-x="402" 
d="M244 717h145l-111 -139h-97zM183 408h7q44 112 152 112q22 0 37 -1v-110q-16 2 -38 2q-68 0 -114.5 -45.5t-46.5 -145.5v-220h-113v238q0 181 -5 272h107z" />
    <glyph glyph-name="uni0156" unicode="&#x156;" horiz-adv-x="646" 
d="M188 0h-114v700h280q111 0 175 -58t64 -161q0 -74 -37 -125.5t-104 -71.5l154 -284h-129l-135 269h-154v-269zM188 603v-242h158q61 0 96.5 31.5t35.5 88.5t-35.5 89.5t-96.5 32.5h-158zM330 -194h-87l36 145h114z" />
    <glyph glyph-name="uni0157" unicode="&#x157;" horiz-adv-x="402" 
d="M342 520q22 0 37 -1v-110q-16 2 -38 2q-68 0 -114.5 -45.5t-46.5 -145.5v-220h-113v238q0 181 -5 272h107l14 -102h7q44 112 152 112zM128 -194h-87l36 145h114z" />
    <glyph glyph-name="Rcaron" unicode="&#x158;" horiz-adv-x="646" 
d="M374 768h-106l-117 139h118l55 -78l54 78h113zM188 0h-114v700h280q111 0 175 -58t64 -161q0 -74 -37 -125.5t-104 -71.5l154 -284h-129l-135 269h-154v-269zM188 603v-242h158q61 0 96.5 31.5t35.5 88.5t-35.5 89.5t-96.5 32.5h-158z" />
    <glyph glyph-name="rcaron" unicode="&#x159;" horiz-adv-x="402" 
d="M398 717l-117 -139h-106l-117 139h118l55 -78l54 78h113zM183 408h7q44 112 152 112q22 0 37 -1v-110q-16 2 -38 2q-68 0 -114.5 -45.5t-46.5 -145.5v-220h-113v238q0 181 -5 272h107z" />
    <glyph glyph-name="Sacute" unicode="&#x15a;" horiz-adv-x="625" 
d="M359 768h-97l63 139h145zM328 -10q-102 0 -177.5 43.5t-103.5 127.5l105 31q21 -55 69.5 -82.5t106.5 -27.5q68 0 104 28t36 74q0 44 -42 70.5t-101.5 41.5t-119 35.5t-101.5 68.5t-42 124q0 83 66.5 134.5t179.5 51.5q96 0 164.5 -40.5t94.5 -120.5l-106 -31
q-37 100 -152 100q-62 0 -97.5 -26.5t-35.5 -67.5q0 -33 22.5 -55t58.5 -35t79.5 -24.5t86.5 -27t79 -38t58.5 -64t22.5 -97.5q0 -88 -68.5 -140.5t-186.5 -52.5z" />
    <glyph glyph-name="sacute" unicode="&#x15b;" horiz-adv-x="504" 
d="M299 578h-97l63 139h145zM264 -10q-82 0 -142 32.5t-80 99.5l96 29q13 -40 47.5 -60.5t77.5 -20.5t67 18t24 48t-31 46.5t-75 26t-88 24t-75 51t-31 95.5q0 62 52 101.5t141 39.5q76 0 130.5 -31t72.5 -92l-97 -28q-24 71 -105 71q-41 0 -63.5 -17t-22.5 -44
q0 -26 22 -42.5t55.5 -23.5t72.5 -19t72.5 -26.5t55.5 -48.5t22 -83q0 -66 -53.5 -106t-144.5 -40z" />
    <glyph glyph-name="Scircumflex" unicode="&#x15c;" horiz-adv-x="625" 
d="M252 768h-113l117 139h106l117 -139h-117l-55 77zM328 -10q-102 0 -177.5 43.5t-103.5 127.5l105 31q21 -55 69.5 -82.5t106.5 -27.5q68 0 104 28t36 74q0 44 -42 70.5t-101.5 41.5t-119 35.5t-101.5 68.5t-42 124q0 83 66.5 134.5t179.5 51.5q96 0 164.5 -40.5
t94.5 -120.5l-106 -31q-37 100 -152 100q-62 0 -97.5 -26.5t-35.5 -67.5q0 -33 22.5 -55t58.5 -35t79.5 -24.5t86.5 -27t79 -38t58.5 -64t22.5 -97.5q0 -88 -68.5 -140.5t-186.5 -52.5z" />
    <glyph glyph-name="scircumflex" unicode="&#x15d;" horiz-adv-x="504" 
d="M192 578h-113l117 139h106l117 -139h-117l-55 77zM264 -10q-82 0 -142 32.5t-80 99.5l96 29q13 -40 47.5 -60.5t77.5 -20.5t67 18t24 48t-31 46.5t-75 26t-88 24t-75 51t-31 95.5q0 62 52 101.5t141 39.5q76 0 130.5 -31t72.5 -92l-97 -28q-24 71 -105 71
q-41 0 -63.5 -17t-22.5 -44q0 -26 22 -42.5t55.5 -23.5t72.5 -19t72.5 -26.5t55.5 -48.5t22 -83q0 -66 -53.5 -106t-144.5 -40z" />
    <glyph glyph-name="Scedilla" unicode="&#x15e;" horiz-adv-x="625" 
d="M583 183q0 -82 -61 -134t-167 -58l-11 -34h4q45 0 74.5 -24.5t29.5 -67.5q0 -45 -34 -73t-95 -28q-69 0 -119 37l37 58q38 -28 80 -28q23 0 37 10t14 26q0 35 -45 35q-20 0 -40 -7l-16 25l24 71q-91 7 -157 50t-91 120l105 31q21 -55 69.5 -82.5t106.5 -27.5q68 0 104 28
t36 74q0 44 -42 70.5t-101.5 41.5t-119 35.5t-101.5 68.5t-42 124q0 83 66.5 134.5t179.5 51.5q96 0 164.5 -40.5t94.5 -120.5l-106 -31q-37 100 -152 100q-62 0 -97.5 -26.5t-35.5 -67.5q0 -33 22.5 -55t58.5 -35t79.5 -24.5t86.5 -27t79 -38t58.5 -64t22.5 -97.5z" />
    <glyph glyph-name="scedilla" unicode="&#x15f;" horiz-adv-x="504" 
d="M462 136q0 -60 -46 -99.5t-125 -45.5l-11 -34h4q45 0 74.5 -24.5t29.5 -67.5q0 -45 -34 -73t-95 -28q-69 0 -119 37l37 58q38 -28 80 -28q23 0 37 10t14 26q0 35 -45 35q-20 0 -40 -7l-16 25l24 71q-154 14 -189 131l96 29q13 -40 47.5 -60.5t77.5 -20.5t67 18t24 48
t-31 46.5t-75 26t-88 24t-75 51t-31 95.5q0 62 52 101.5t141 39.5q76 0 130.5 -31t72.5 -92l-97 -28q-24 71 -105 71q-41 0 -63.5 -17t-22.5 -44q0 -26 22 -42.5t55.5 -23.5t72.5 -19t72.5 -26.5t55.5 -48.5t22 -83z" />
    <glyph glyph-name="Scaron" unicode="&#x160;" horiz-adv-x="625" 
d="M362 768h-106l-117 139h118l55 -78l54 78h113zM328 -10q-102 0 -177.5 43.5t-103.5 127.5l105 31q21 -55 69.5 -82.5t106.5 -27.5q68 0 104 28t36 74q0 44 -42 70.5t-101.5 41.5t-119 35.5t-101.5 68.5t-42 124q0 83 66.5 134.5t179.5 51.5q96 0 164.5 -40.5t94.5 -120.5
l-106 -31q-37 100 -152 100q-62 0 -97.5 -26.5t-35.5 -67.5q0 -33 22.5 -55t58.5 -35t79.5 -24.5t86.5 -27t79 -38t58.5 -64t22.5 -97.5q0 -88 -68.5 -140.5t-186.5 -52.5z" />
    <glyph glyph-name="scaron" unicode="&#x161;" horiz-adv-x="504" 
d="M302 578h-106l-117 139h118l55 -78l54 78h113zM264 -10q-82 0 -142 32.5t-80 99.5l96 29q13 -40 47.5 -60.5t77.5 -20.5t67 18t24 48t-31 46.5t-75 26t-88 24t-75 51t-31 95.5q0 62 52 101.5t141 39.5q76 0 130.5 -31t72.5 -92l-97 -28q-24 71 -105 71q-41 0 -63.5 -17
t-22.5 -44q0 -26 22 -42.5t55.5 -23.5t72.5 -19t72.5 -26.5t55.5 -48.5t22 -83q0 -66 -53.5 -106t-144.5 -40z" />
    <glyph glyph-name="uni0162" unicode="&#x162;" horiz-adv-x="611" 
d="M363 599v-599h-25l-14 -43h4q45 0 74.5 -24.5t29.5 -67.5q0 -45 -34 -73t-95 -28q-69 0 -119 37l37 58q38 -28 80 -28q23 0 37 10t14 26q0 35 -45 35q-20 0 -40 -7l-16 25l27 80h-30v599h-226v101h567v-101h-226z" />
    <glyph glyph-name="uni0163" unicode="&#x163;" horiz-adv-x="433" 
d="M295 -43h4q45 0 74.5 -24.5t29.5 -67.5q0 -45 -34 -73t-95 -28q-69 0 -119 37l37 58q38 -28 80 -28q23 0 37 10t14 26q0 35 -45 35q-20 0 -40 -7l-16 25l25 73q-56 8 -88 47.5t-32 106.5v271h-99v92h106l22 142h84v-142h142v-92h-142v-266q0 -34 17 -51.5t45 -17.5
q35 0 66 19l31 -78q-44 -29 -93 -33z" />
    <glyph glyph-name="Tcaron" unicode="&#x164;" horiz-adv-x="611" 
d="M358 768h-106l-117 139h118l55 -78l54 78h113zM363 0h-115v599h-226v101h567v-101h-226v-599z" />
    <glyph glyph-name="tcaron" unicode="&#x165;" horiz-adv-x="452" 
d="M366 557h-65l10 193h102zM280 -10q-70 0 -111.5 40t-41.5 117v271h-99v92h106l22 142h84v-142h142v-92h-142v-266q0 -34 17 -51.5t45 -17.5q35 0 66 19l31 -78q-53 -34 -119 -34z" />
    <glyph glyph-name="Tbar" unicode="&#x166;" horiz-adv-x="611" 
d="M589 700v-101h-226v-220h149v-86h-149v-293h-115v293h-149v86h149v220h-226v101h567z" />
    <glyph glyph-name="tbar" unicode="&#x167;" horiz-adv-x="433" 
d="M368 102l31 -78q-53 -34 -119 -34q-70 0 -111.5 40t-41.5 117v82h-94v72h94v117h-99v92h106l22 142h84v-142h142v-92h-142v-117h137v-72h-137v-77q0 -34 17 -51.5t45 -17.5q35 0 66 19z" />
    <glyph glyph-name="Utilde" unicode="&#x168;" horiz-adv-x="713" 
d="M270 763h-70v37q0 57 24.5 84.5t59.5 27.5q34 0 75 -31.5t55 -31.5q30 0 30 63h70v-39q0 -58 -23.5 -84t-60.5 -26q-35 0 -75 31.5t-55 31.5q-30 0 -30 -63zM357 -10q-124 0 -203.5 75t-79.5 218v417h114v-417q0 -98 47.5 -145t121.5 -47t120.5 47t46.5 145v417h115v-417
q0 -143 -79 -218t-203 -75z" />
    <glyph glyph-name="utilde" unicode="&#x169;" horiz-adv-x="604" 
d="M213 573h-70v37q0 57 24.5 84.5t59.5 27.5q34 0 75 -31.5t55 -31.5q30 0 30 63h70v-39q0 -58 -23.5 -84t-60.5 -26q-35 0 -75 31.5t-55 31.5q-30 0 -30 -63zM247 -10q-88 0 -136.5 54.5t-48.5 161.5v304h113v-288q0 -66 29 -99.5t83 -33.5q61 0 99 42.5t38 106.5v272h114
v-238q0 -181 5 -272h-108l-10 84h-8q-59 -94 -170 -94z" />
    <glyph glyph-name="Umacron" unicode="&#x16a;" horiz-adv-x="713" 
d="M498 795h-283v90h283v-90zM357 -10q-124 0 -203.5 75t-79.5 218v417h114v-417q0 -98 47.5 -145t121.5 -47t120.5 47t46.5 145v417h115v-417q0 -143 -79 -218t-203 -75z" />
    <glyph glyph-name="umacron" unicode="&#x16b;" horiz-adv-x="604" 
d="M441 605h-283v90h283v-90zM247 -10q-88 0 -136.5 54.5t-48.5 161.5v304h113v-288q0 -66 29 -99.5t83 -33.5q61 0 99 42.5t38 106.5v272h114v-238q0 -181 5 -272h-108l-10 84h-8q-59 -94 -170 -94z" />
    <glyph glyph-name="Ubreve" unicode="&#x16c;" horiz-adv-x="713" 
d="M357 763q-72 0 -112.5 38.5t-40.5 105.5h87q0 -29 17 -48.5t49 -19.5q31 0 48 19.5t17 48.5h87q0 -67 -40.5 -105.5t-111.5 -38.5zM357 -10q-124 0 -203.5 75t-79.5 218v417h114v-417q0 -98 47.5 -145t121.5 -47t120.5 47t46.5 145v417h115v-417q0 -143 -79 -218
t-203 -75z" />
    <glyph glyph-name="ubreve" unicode="&#x16d;" horiz-adv-x="604" 
d="M301 573q-72 0 -112.5 38.5t-40.5 105.5h87q0 -29 17 -48.5t49 -19.5q31 0 48 19.5t17 48.5h87q0 -67 -40.5 -105.5t-111.5 -38.5zM247 -10q-88 0 -136.5 54.5t-48.5 161.5v304h113v-288q0 -66 29 -99.5t83 -33.5q61 0 99 42.5t38 106.5v272h114v-238q0 -181 5 -272h-108
l-10 84h-8q-59 -94 -170 -94z" />
    <glyph glyph-name="Uring" unicode="&#x16e;" horiz-adv-x="713" 
d="M356 751q-50 0 -83.5 29.5t-33.5 75.5t33.5 76t83.5 30q51 0 84.5 -30t33.5 -76t-33.5 -75.5t-84.5 -29.5zM356 811q21 0 33.5 12.5t12.5 32.5t-12.5 32.5t-33.5 12.5q-20 0 -32.5 -12.5t-12.5 -32.5t12.5 -32.5t32.5 -12.5zM357 -10q-124 0 -203.5 75t-79.5 218v417h114
v-417q0 -98 47.5 -145t121.5 -47t120.5 47t46.5 145v417h115v-417q0 -143 -79 -218t-203 -75z" />
    <glyph glyph-name="uring" unicode="&#x16f;" horiz-adv-x="604" 
d="M300 561q-50 0 -83.5 29.5t-33.5 75.5t33.5 76t83.5 30q51 0 84.5 -30t33.5 -76t-33.5 -75.5t-84.5 -29.5zM300 621q21 0 33.5 12.5t12.5 32.5t-12.5 32.5t-33.5 12.5q-20 0 -32.5 -12.5t-12.5 -32.5t12.5 -32.5t32.5 -12.5zM247 -10q-88 0 -136.5 54.5t-48.5 161.5v304
h113v-288q0 -66 29 -99.5t83 -33.5q61 0 99 42.5t38 106.5v272h114v-238q0 -181 5 -272h-108l-10 84h-8q-59 -94 -170 -94z" />
    <glyph glyph-name="Uhungarumlaut" unicode="&#x170;" horiz-adv-x="713" 
d="M317 768h-89l63 139h131zM484 768h-89l63 139h131zM357 -10q-124 0 -203.5 75t-79.5 218v417h114v-417q0 -98 47.5 -145t121.5 -47t120.5 47t46.5 145v417h115v-417q0 -143 -79 -218t-203 -75z" />
    <glyph glyph-name="uhungarumlaut" unicode="&#x171;" horiz-adv-x="604" 
d="M260 578h-89l63 139h131zM427 578h-89l63 139h131zM247 -10q-88 0 -136.5 54.5t-48.5 161.5v304h113v-288q0 -66 29 -99.5t83 -33.5q61 0 99 42.5t38 106.5v272h114v-238q0 -181 5 -272h-108l-10 84h-8q-59 -94 -170 -94z" />
    <glyph glyph-name="Uogonek" unicode="&#x172;" horiz-adv-x="713" 
d="M524 283v417h115v-417q0 -117 -53.5 -188.5t-144.5 -94.5q-83 -59 -83 -113q0 -39 47 -39q18 0 36 5v-74q-24 -6 -57 -6q-48 0 -78 23.5t-30 71.5q0 68 79 122q-123 1 -202 75.5t-79 217.5v417h114v-417q0 -98 47.5 -145t121.5 -47t120.5 47t46.5 145z" />
    <glyph glyph-name="uogonek" unicode="&#x173;" horiz-adv-x="604" 
d="M460 -113q0 -39 47 -39q18 0 36 5v-74q-24 -6 -57 -6q-48 0 -78 23.5t-30 71.5q0 74 95 132h-38l-10 84h-8q-59 -94 -170 -94q-88 0 -136.5 54.5t-48.5 161.5v304h113v-288q0 -66 29 -99.5t83 -33.5q61 0 99 42.5t38 106.5v272h114v-238q0 -181 5 -272q-83 -59 -83 -113z
" />
    <glyph glyph-name="Wcircumflex" unicode="&#x174;" horiz-adv-x="969" 
d="M431 768h-113l117 139h106l117 -139h-117l-55 77zM347 0h-147l-181 700h117l139 -587h6l135 587h143l134 -587h6l139 587h112l-182 -700h-147l-133 584h-6z" />
    <glyph glyph-name="wcircumflex" unicode="&#x175;" horiz-adv-x="764" 
d="M327 578h-113l117 139h106l117 -139h-117l-55 77zM290 0h-137l-137 510h114l94 -392h7l86 392h136l85 -392h7l93 392h110l-137 -510h-136l-89 402h-7z" />
    <glyph glyph-name="Ycircumflex" unicode="&#x176;" horiz-adv-x="650" 
d="M268 768h-113l117 139h106l117 -139h-117l-55 77zM383 0h-114v266l-250 434h130l175 -323h6l173 323h128l-248 -433v-267z" />
    <glyph glyph-name="ycircumflex" unicode="&#x177;" horiz-adv-x="542" 
d="M215 578h-113l117 139h106l117 -139h-117l-55 77zM259 -200h-119l73 186l-197 524h119l135 -396h6l134 396h116z" />
    <glyph glyph-name="Ydieresis" unicode="&#x178;" horiz-adv-x="650" 
d="M229 771q-30 0 -51 19.5t-21 47.5q0 29 21 48.5t51 19.5q29 0 49.5 -19.5t20.5 -48.5q0 -28 -20.5 -47.5t-49.5 -19.5zM422 771q-30 0 -51 19.5t-21 47.5q0 29 21 48.5t51 19.5q29 0 49.5 -19.5t20.5 -48.5q0 -28 -20.5 -47.5t-49.5 -19.5zM383 0h-114v266l-250 434h130
l175 -323h6l173 323h128l-248 -433v-267z" />
    <glyph glyph-name="Zacute" unicode="&#x179;" horiz-adv-x="619" 
d="M359 768h-97l63 139h145zM575 0h-531v102l375 490v6h-364v102h509v-102l-375 -490v-6h386v-102z" />
    <glyph glyph-name="zacute" unicode="&#x17a;" horiz-adv-x="501" 
d="M301 578h-97l63 139h145zM457 0h-413v93l262 312v7h-254v98h397v-93l-262 -312v-7h270v-98z" />
    <glyph glyph-name="Zdotaccent" unicode="&#x17b;" horiz-adv-x="619" 
d="M310 766q-33 0 -55.5 21t-22.5 52q0 32 22.5 53t55.5 21t55 -21t22 -53q0 -31 -22.5 -52t-54.5 -21zM575 0h-531v102l375 490v6h-364v102h509v-102l-375 -490v-6h386v-102z" />
    <glyph glyph-name="zdotaccent" unicode="&#x17c;" horiz-adv-x="501" 
d="M251 576q-33 0 -55.5 21t-22.5 52q0 32 22.5 53t55.5 21t55 -21t22 -53q0 -31 -22.5 -52t-54.5 -21zM457 0h-413v93l262 312v7h-254v98h397v-93l-262 -312v-7h270v-98z" />
    <glyph glyph-name="Zcaron" unicode="&#x17d;" horiz-adv-x="619" 
d="M362 768h-106l-117 139h118l55 -78l54 78h113zM575 0h-531v102l375 490v6h-364v102h509v-102l-375 -490v-6h386v-102z" />
    <glyph glyph-name="zcaron" unicode="&#x17e;" horiz-adv-x="501" 
d="M304 578h-106l-117 139h118l55 -78l54 78h113zM457 0h-413v93l262 312v7h-254v98h397v-93l-262 -312v-7h270v-98z" />
    <glyph glyph-name="uni018F" unicode="&#x18f;" horiz-adv-x="711" 
d="M345 710q146 0 232.5 -99.5t86.5 -260.5t-87 -260.5t-233 -99.5q-130 0 -213.5 89t-83.5 244q0 43 2 67h499q-9 104 -63.5 163t-139.5 59q-131 0 -181 -125l-110 29q36 97 112.5 145.5t178.5 48.5zM344 88q83 0 137.5 57t65.5 157h-389q2 -99 50 -156.5t136 -57.5z" />
    <glyph glyph-name="florin" unicode="&#x192;" horiz-adv-x="479" 
d="M51 -200h-67v95h48q31 0 51 18.5t25 49.5l64 408h-102v79h114l16 99q25 151 172 151h70v-95h-54q-62 0 -74 -68l-14 -87h122v-79h-135l-66 -420q-22 -151 -170 -151z" />
    <glyph glyph-name="uni019D" unicode="&#x19d;" horiz-adv-x="729" 
d="M33 -210q-69 0 -116 31l32 81q28 -18 63 -18q62 0 62 70v746h124l341 -527h7q-4 96 -4 200v327h113v-700h-124l-342 527h-6q4 -97 4 -200v-379q0 -77 -41 -117.5t-113 -40.5z" />
    <glyph glyph-name="uni01CD" unicode="&#x1cd;" horiz-adv-x="680" 
d="M509 907l-117 -139h-106l-117 139h118l55 -78l54 78h113zM664 0h-122l-50 151h-308l-51 -151h-117l246 700h154zM335 603l-120 -359h246l-120 359h-6z" />
    <glyph glyph-name="uni01CE" unicode="&#x1ce;" horiz-adv-x="561" 
d="M448 717l-117 -139h-106l-117 139h118l55 -78l54 78h113zM496 339v-69q0 -179 5 -270h-98l-10 89h-8q-49 -99 -170 -99q-75 0 -120.5 41.5t-45.5 109.5q0 74 53.5 116t158.5 48l126 7v23q0 48 -31 72.5t-79 24.5q-96 0 -124 -89l-98 29q15 71 75 109.5t147 38.5
q104 0 161.5 -47.5t57.5 -133.5zM243 79q60 0 101 44t43 112l-103 -7q-63 -4 -94.5 -22.5t-31.5 -57.5q0 -32 22.5 -50.5t62.5 -18.5z" />
    <glyph glyph-name="uni01CF" unicode="&#x1cf;" horiz-adv-x="262" 
d="M184 768h-106l-117 139h118l55 -78l54 78h113zM188 0h-114v700h114v-700z" />
    <glyph glyph-name="uni01D0" unicode="&#x1d0;" horiz-adv-x="247" 
d="M176 578h-106l-117 139h118l55 -78l54 78h113zM180 0h-113v510h113v-510z" />
    <glyph glyph-name="uni01D1" unicode="&#x1d1;" horiz-adv-x="735" 
d="M420 768h-106l-117 139h118l55 -78l54 78h113zM368 -10q-143 0 -232 99.5t-89 260.5t89 260.5t232 99.5t231.5 -99t88.5 -261t-88.5 -261t-231.5 -99zM368 89q94 0 150 70t56 191t-56 191t-150 70q-95 0 -151 -70t-56 -191t56 -191t151 -70z" />
    <glyph glyph-name="uni01D2" unicode="&#x1d2;" horiz-adv-x="586" 
d="M346 578h-106l-117 139h118l55 -78l54 78h113zM293 -10q-116 0 -183.5 75t-67.5 190t67.5 190t183.5 75t184 -75t68 -190t-68 -190t-184 -75zM293 87q62 0 100 46t38 122t-38 122t-100 46t-100 -46t-38 -122t38 -122t100 -46z" />
    <glyph glyph-name="uni01D3" unicode="&#x1d3;" horiz-adv-x="713" 
d="M409 768h-106l-117 139h118l55 -78l54 78h113zM357 -10q-124 0 -203.5 75t-79.5 218v417h114v-417q0 -98 47.5 -145t121.5 -47t120.5 47t46.5 145v417h115v-417q0 -143 -79 -218t-203 -75z" />
    <glyph glyph-name="uni01D4" unicode="&#x1d4;" horiz-adv-x="604" 
d="M353 578h-106l-117 139h118l55 -78l54 78h113zM247 -10q-88 0 -136.5 54.5t-48.5 161.5v304h113v-288q0 -66 29 -99.5t83 -33.5q61 0 99 42.5t38 106.5v272h114v-238q0 -181 5 -272h-108l-10 84h-8q-59 -94 -170 -94z" />
    <glyph glyph-name="Gcaron" unicode="&#x1e6;" horiz-adv-x="722" 
d="M420 768h-106l-117 139h118l55 -78l54 78h113zM381 -10q-153 0 -243.5 99t-90.5 261q0 161 89 260.5t234 99.5q106 0 180.5 -48.5t109.5 -144.5l-109 -33q-50 131 -181 131q-94 0 -151.5 -71.5t-57.5 -193.5q0 -124 58.5 -194.5t163.5 -70.5q96 0 159 65v134l-158 7v81
h270v-260q-96 -122 -273 -122z" />
    <glyph glyph-name="gcaron" unicode="&#x1e7;" horiz-adv-x="605" 
d="M345 578h-106l-117 139h118l55 -78l54 78h113zM301 -210q-92 0 -155 36.5t-85 104.5l103 31q28 -84 137 -84q59 0 91.5 31.5t32.5 91.5v105h-8q-55 -94 -165 -94q-95 0 -152.5 69t-57.5 184q0 116 57.5 185.5t152.5 69.5q110 0 165 -94h8l11 84h107q-5 -91 -5 -264v-248
q0 -96 -61.5 -152t-175.5 -56zM290 107q62 0 98.5 44t36.5 115q0 70 -36.5 113.5t-98.5 43.5t-98.5 -43.5t-36.5 -114.5t36.5 -114.5t98.5 -43.5z" />
    <glyph glyph-name="uni01EA" unicode="&#x1ea;" horiz-adv-x="735" 
d="M451 0q-83 -59 -83 -113q0 -39 47 -39q18 0 36 5v-74q-24 -6 -57 -6q-48 0 -78 23.5t-30 71.5q0 68 79 122q-142 1 -230 100.5t-88 259.5q0 161 89 260.5t232 99.5t231.5 -99t88.5 -261q0 -136 -64 -230t-173 -120zM161 350q0 -121 56 -191t151 -70q94 0 150 70t56 191
t-56 191t-150 70q-95 0 -151 -70t-56 -191z" />
    <glyph glyph-name="uni01EB" unicode="&#x1eb;" horiz-adv-x="586" 
d="M365 -1q-81 -58 -81 -112q0 -39 47 -39q18 0 36 5v-74q-24 -6 -57 -6q-48 0 -78 23.5t-30 71.5q0 68 79 122q-111 4 -175 78.5t-64 186.5q0 115 67.5 190t183.5 75t184 -75t68 -190q0 -95 -47.5 -164.5t-132.5 -91.5zM155 255q0 -76 38 -122t100 -46t100 46t38 122
t-38 122t-100 46t-100 -46t-38 -122z" />
    <glyph glyph-name="Aringacute" unicode="&#x1fa;" horiz-adv-x="680" 
d="M339 735q-52 0 -84.5 22t-32.5 61q0 32 21.5 52.5t58.5 27.5l29 74h125l-64 -78q65 -18 65 -76q0 -39 -33 -61t-85 -22zM339 853q-22 0 -35.5 -9.5t-13.5 -25.5q0 -15 13.5 -25t35.5 -10t36 10t14 25q0 16 -13.5 25.5t-36.5 9.5zM664 0h-122l-50 151h-308l-51 -151h-117
l246 700h154zM335 603l-120 -359h246l-120 359h-6z" />
    <glyph glyph-name="aringacute" unicode="&#x1fb;" horiz-adv-x="561" 
d="M278 545q-52 0 -84.5 22t-32.5 61q0 32 21.5 52.5t58.5 27.5l29 74h125l-64 -78q65 -18 65 -76q0 -39 -33 -61t-85 -22zM278 663q-22 0 -35.5 -9.5t-13.5 -25.5q0 -15 13.5 -25t35.5 -10t36 10t14 25q0 16 -14 25.5t-36 9.5zM496 339v-69q0 -179 5 -270h-98l-10 89h-8
q-49 -99 -170 -99q-75 0 -120.5 41.5t-45.5 109.5q0 74 53.5 116t158.5 48l126 7v23q0 48 -31 72.5t-79 24.5q-96 0 -124 -89l-98 29q15 71 75 109.5t147 38.5q104 0 161.5 -47.5t57.5 -133.5zM243 79q60 0 101 44t43 112l-103 -7q-63 -4 -94.5 -22.5t-31.5 -57.5
q0 -32 22.5 -50.5t62.5 -18.5z" />
    <glyph glyph-name="AEacute" unicode="&#x1fc;" horiz-adv-x="981" 
d="M601 768h-97l63 139h145zM140 0h-124l373 700h539v-98h-320v-194h280v-96h-280v-214h320v-98h-433v151h-277zM450 602l-185 -358h230v358h-45z" />
    <glyph glyph-name="aeacute" unicode="&#x1fd;" horiz-adv-x="882" 
d="M448 717h145l-111 -139h-97zM841 268q0 -27 -3 -48h-352q8 -68 42 -105.5t88 -37.5q76 0 113 79l101 -30q-28 -67 -82.5 -101.5t-127.5 -34.5q-61 0 -110 27.5t-76 77.5q-57 -105 -202 -105q-85 0 -134 42t-49 112q0 73 53.5 114.5t150.5 41.5h129v16q0 55 -33 86t-79 31
q-89 0 -115 -89l-100 30q16 70 72 108t134 38q129 0 178 -95q58 95 178 95q104 0 164 -68t60 -184zM487 300h246q-4 63 -36 98t-84 35q-51 0 -84 -35t-42 -98zM244 78q62 0 100 37t38 104v1h-114q-109 0 -109 -72q0 -32 23 -51t62 -19z" />
    <glyph glyph-name="Oslashacute" unicode="&#x1fe;" horiz-adv-x="735" 
d="M384 907h145l-111 -139h-97zM641 748l-65 -113q112 -99 112 -285q0 -162 -88.5 -261t-231.5 -99q-80 0 -144 32l-60 -104l-71 34l66 114q-112 101 -112 284q0 161 89 260.5t232 99.5q77 0 142 -31l59 103zM161 350q0 -117 53 -187l245 427q-41 21 -91 21q-95 0 -151 -70
t-56 -191zM368 89q94 0 150 70t56 191q0 119 -54 188l-245 -427q42 -22 93 -22z" />
    <glyph glyph-name="oslashacute" unicode="&#x1ff;" horiz-adv-x="586" 
d="M309 717h145l-111 -139h-97zM497 541l-43 -75q90 -73 90 -211q0 -115 -67.5 -190t-183.5 -75q-55 0 -102 19l-40 -70l-62 30l43 75q-90 74 -90 211q0 115 67.5 190t183.5 75q55 0 102 -19l40 70zM293 427q-64 0 -102.5 -47t-38.5 -125q0 -74 35 -120l161 281
q-25 11 -55 11zM293 83q64 0 102.5 47t38.5 125q0 74 -34 120l-162 -281q25 -11 55 -11z" />
    <glyph glyph-name="uni0218" unicode="&#x218;" horiz-adv-x="625" 
d="M328 -10q-102 0 -177.5 43.5t-103.5 127.5l105 31q21 -55 69.5 -82.5t106.5 -27.5q68 0 104 28t36 74q0 44 -42 70.5t-101.5 41.5t-119 35.5t-101.5 68.5t-42 124q0 83 66.5 134.5t179.5 51.5q96 0 164.5 -40.5t94.5 -120.5l-106 -31q-37 100 -152 100q-62 0 -97.5 -26.5
t-35.5 -67.5q0 -33 22.5 -55t58.5 -35t79.5 -24.5t86.5 -27t79 -38t58.5 -64t22.5 -97.5q0 -88 -68.5 -140.5t-186.5 -52.5zM319 -194h-87l36 145h114z" />
    <glyph glyph-name="uni0219" unicode="&#x219;" horiz-adv-x="504" 
d="M264 -10q-82 0 -142 32.5t-80 99.5l96 29q13 -40 47.5 -60.5t77.5 -20.5t67 18t24 48t-31 46.5t-75 26t-88 24t-75 51t-31 95.5q0 62 52 101.5t141 39.5q76 0 130.5 -31t72.5 -92l-97 -28q-24 71 -105 71q-41 0 -63.5 -17t-22.5 -44q0 -26 22 -42.5t55.5 -23.5t72.5 -19
t72.5 -26.5t55.5 -48.5t22 -83q0 -66 -53.5 -106t-144.5 -40zM256 -194h-87l36 145h114z" />
    <glyph glyph-name="uni021A" unicode="&#x21a;" horiz-adv-x="611" 
d="M363 0h-115v599h-226v101h567v-101h-226v-599zM299 -194h-87l36 145h114z" />
    <glyph glyph-name="uni021B" unicode="&#x21b;" horiz-adv-x="433" 
d="M280 -10q-70 0 -111.5 40t-41.5 117v271h-99v92h106l22 142h84v-142h142v-92h-142v-266q0 -34 17 -51.5t45 -17.5q35 0 66 19l31 -78q-53 -34 -119 -34zM270 -194h-87l36 145h114z" />
    <glyph glyph-name="uni0232" unicode="&#x232;" horiz-adv-x="650" 
d="M466 795h-283v90h283v-90zM383 0h-114v266l-250 434h130l175 -323h6l173 323h128l-248 -433v-267z" />
    <glyph glyph-name="uni0233" unicode="&#x233;" horiz-adv-x="542" 
d="M413 605h-283v90h283v-90zM259 -200h-119l73 186l-197 524h119l135 -396h6l134 396h116z" />
    <glyph glyph-name="uni0237" unicode="&#x237;" horiz-adv-x="291" 
d="M70 -210q-70 0 -117 31l32 81q28 -18 64 -18q62 0 62 70v556h113v-562q0 -77 -41 -117.5t-113 -40.5z" />
    <glyph glyph-name="uni0259" unicode="&#x259;" horiz-adv-x="567" 
d="M274 520q116 0 183.5 -75t67.5 -190t-67 -190t-183 -75q-107 0 -170.5 68t-63.5 183q0 28 3 49h369q-7 68 -44 105.5t-96 37.5q-82 0 -119 -79l-101 30q56 136 221 136zM275 77q55 0 91 35t46 98h-264q7 -64 40.5 -98.5t86.5 -34.5z" />
    <glyph glyph-name="uni0272" unicode="&#x272;" horiz-adv-x="648" 
d="M69 -210q-69 0 -116 31l32 81q28 -18 63 -18q62 0 62 70v284q0 181 -5 272h107l11 -84h8q59 94 169 94q88 0 137 -54.5t49 -161.5v-304h-113v288q0 66 -29 99.5t-83 33.5q-61 0 -99.5 -42.5t-38.5 -106.5v-324q0 -77 -41 -117.5t-113 -40.5z" />
    <glyph glyph-name="circumflex" unicode="&#x2c6;" horiz-adv-x="400" 
d="M143 578h-113l117 139h106l117 -139h-117l-55 77z" />
    <glyph glyph-name="caron" unicode="&#x2c7;" horiz-adv-x="400" 
d="M253 578h-106l-117 139h118l55 -78l54 78h113z" />
    <glyph glyph-name="breve" unicode="&#x2d8;" horiz-adv-x="365" 
d="M183 573q-72 0 -112.5 38.5t-40.5 105.5h87q0 -29 17 -48.5t49 -19.5q31 0 48 19.5t17 48.5h87q0 -67 -40.5 -105.5t-111.5 -38.5z" />
    <glyph glyph-name="dotaccent" unicode="&#x2d9;" horiz-adv-x="215" 
d="M108 576q-33 0 -55.5 21t-22.5 52q0 32 22.5 53t55.5 21t55 -21t22 -53q0 -31 -22.5 -52t-54.5 -21z" />
    <glyph glyph-name="ring" unicode="&#x2da;" horiz-adv-x="295" 
d="M147 561q-50 0 -83.5 29.5t-33.5 75.5t33.5 76t83.5 30q51 0 84.5 -30t33.5 -76t-33.5 -75.5t-84.5 -29.5zM147 621q21 0 33.5 12.5t12.5 32.5t-12.5 32.5t-33.5 12.5q-20 0 -32.5 -12.5t-12.5 -32.5t12.5 -32.5t32.5 -12.5z" />
    <glyph glyph-name="ogonek" unicode="&#x2db;" horiz-adv-x="225" 
d="M138 -227q-48 0 -78 23.5t-30 71.5q0 81 112 142l53 -10q-83 -59 -83 -113q0 -39 47 -39q18 0 36 5v-74q-24 -6 -57 -6z" />
    <glyph glyph-name="tilde" unicode="&#x2dc;" horiz-adv-x="374" 
d="M100 573h-70v37q0 57 24.5 84.5t59.5 27.5q34 0 75 -31.5t55 -31.5q30 0 30 63h70v-39q0 -58 -23.5 -84t-60.5 -26q-35 0 -75 31.5t-55 31.5q-30 0 -30 -63z" />
    <glyph glyph-name="hungarumlaut" unicode="&#x2dd;" horiz-adv-x="421" 
d="M119 578h-89l63 139h131zM286 578h-89l63 139h131z" />
    <glyph glyph-name="gravecomb" unicode="&#x300;" horiz-adv-x="0" 
d="M-30 578h-97l-111 139h145z" />
    <glyph glyph-name="acutecomb" unicode="&#x301;" horiz-adv-x="0" 
d="M-141 578h-97l63 139h145z" />
    <glyph glyph-name="uni0302" unicode="&#x302;" horiz-adv-x="0" 
d="M-257 578h-113l117 139h106l117 -139h-117l-55 77z" />
    <glyph glyph-name="tildecomb" unicode="&#x303;" horiz-adv-x="0" 
d="M-274 573h-70v37q0 57 24.5 84.5t59.5 27.5q34 0 75 -31.5t55 -31.5q30 0 30 63h70v-39q0 -58 -23.5 -84t-60.5 -26q-35 0 -75 31.5t-55 31.5q-30 0 -30 -63z" />
    <glyph glyph-name="uni0304" unicode="&#x304;" horiz-adv-x="0" 
d="M-30 605h-283v90h283v-90z" />
    <glyph glyph-name="uni0306" unicode="&#x306;" horiz-adv-x="0" 
d="M-182 573q-72 0 -112.5 38.5t-40.5 105.5h87q0 -29 17 -48.5t49 -19.5q31 0 48 19.5t17 48.5h87q0 -67 -40.5 -105.5t-111.5 -38.5z" />
    <glyph glyph-name="uni0307" unicode="&#x307;" horiz-adv-x="0" 
d="M-107 576q-33 0 -55.5 21t-22.5 52q0 32 22.5 53t55.5 21t55 -21t22 -53q0 -31 -22.5 -52t-54.5 -21z" />
    <glyph glyph-name="uni0308" unicode="&#x308;" horiz-adv-x="0" 
d="M-293 581q-30 0 -51 19.5t-21 47.5q0 29 21 48.5t51 19.5q29 0 49.5 -19.5t20.5 -48.5q0 -28 -20.5 -47.5t-49.5 -19.5zM-100 581q-30 0 -51 19.5t-21 47.5q0 29 21 48.5t51 19.5q29 0 49.5 -19.5t20.5 -48.5q0 -28 -20.5 -47.5t-49.5 -19.5z" />
    <glyph glyph-name="uni030A" unicode="&#x30a;" horiz-adv-x="0" 
d="M-148 561q-50 0 -83.5 29.5t-33.5 75.5t33.5 76t83.5 30q51 0 84.5 -30t33.5 -76t-33.5 -75.5t-84.5 -29.5zM-148 621q21 0 33.5 12.5t12.5 32.5t-12.5 32.5t-33.5 12.5q-20 0 -32.5 -12.5t-12.5 -32.5t12.5 -32.5t32.5 -12.5z" />
    <glyph glyph-name="uni030B" unicode="&#x30b;" horiz-adv-x="0" 
d="M-302 578h-89l63 139h131zM-135 578h-89l63 139h131z" />
    <glyph glyph-name="uni030C" unicode="&#x30c;" horiz-adv-x="0" 
d="M-147 578h-106l-117 139h118l55 -78l54 78h113z" />
    <glyph glyph-name="uni0312" unicode="&#x312;" horiz-adv-x="0" 
d="M-63 578h-115l61 139h87z" />
    <glyph glyph-name="dotbelowcomb" unicode="&#x323;" horiz-adv-x="0" 
d="M-104 -193q-32 0 -53.5 20.5t-21.5 50.5q0 31 21.5 51t53.5 20t53 -20t21 -51q0 -30 -21.5 -50.5t-52.5 -20.5z" />
    <glyph glyph-name="uni0326" unicode="&#x326;" horiz-adv-x="0" 
d="M-93 -194h-87l36 145h114z" />
    <glyph glyph-name="uni0327" unicode="&#x327;" horiz-adv-x="0" 
d="M-138 -43h4q45 0 74.5 -24.5t29.5 -67.5q0 -45 -34 -73t-95 -28q-69 0 -119 37l37 58q38 -28 80 -28q23 0 37 10t14 26q0 35 -45 35q-20 0 -40 -7l-16 25l29 85h60z" />
    <glyph glyph-name="uni0328" unicode="&#x328;" horiz-adv-x="0" 
d="M-87 -227q-48 0 -78 23.5t-30 71.5q0 81 112 142l53 -10q-83 -59 -83 -113q0 -39 47 -39q18 0 36 5v-74q-24 -6 -57 -6z" />
    <glyph glyph-name="uni0338" unicode="&#x338;" horiz-adv-x="0" 
d="M-30 748l-477 -830l-71 34l476 830z" />
    <glyph glyph-name="uni0394" unicode="&#x394;" horiz-adv-x="597" 
d="M582 0h-566l218 700h129zM296 576l-145 -482h294l-143 482h-6z" />
    <glyph glyph-name="uni03A9" unicode="&#x3a9;" horiz-adv-x="721" 
d="M313 0h-254v99h137v6q-74 46 -111.5 125t-37.5 158q0 143 87.5 232.5t226.5 89.5q138 0 225.5 -89.5t87.5 -232.5q0 -79 -37.5 -158t-111.5 -125v-6h137v-99h-254v109q69 35 110.5 110t41.5 160q0 106 -54 169t-145 63t-145.5 -63t-54.5 -169q0 -84 42 -159.5t110 -110.5
v-109z" />
    <glyph glyph-name="uni03BC" unicode="&#x3bc;" horiz-adv-x="636" 
d="M174 -200h-112v710h113v-288q0 -66 29 -99.5t83 -33.5q61 0 99 42.5t38 106.5v272h114v-360q0 -53 47 -53h28v-97h-56q-100 0 -116 89h-7q-48 -99 -146 -99q-78 0 -115 59h-6l7 -137v-112z" />
    <glyph glyph-name="pi" unicode="&#x3c0;" horiz-adv-x="609" 
d="M180 0h-113v510h476v-510h-114v410h-249v-410z" />
    <glyph glyph-name="Wgrave" unicode="&#x1e80;" horiz-adv-x="969" 
d="M535 768h-97l-111 139h145zM347 0h-147l-181 700h117l139 -587h6l135 587h143l134 -587h6l139 587h112l-182 -700h-147l-133 584h-6z" />
    <glyph glyph-name="wgrave" unicode="&#x1e81;" horiz-adv-x="764" 
d="M432 578h-97l-111 139h145zM290 0h-137l-137 510h114l94 -392h7l86 392h136l85 -392h7l93 392h110l-137 -510h-136l-89 402h-7z" />
    <glyph glyph-name="Wacute" unicode="&#x1e82;" horiz-adv-x="969" 
d="M538 768h-97l63 139h145zM347 0h-147l-181 700h117l139 -587h6l135 587h143l134 -587h6l139 587h112l-182 -700h-147l-133 584h-6z" />
    <glyph glyph-name="wacute" unicode="&#x1e83;" horiz-adv-x="764" 
d="M434 578h-97l63 139h145zM290 0h-137l-137 510h114l94 -392h7l86 392h136l85 -392h7l93 392h110l-137 -510h-136l-89 402h-7z" />
    <glyph glyph-name="Wdieresis" unicode="&#x1e84;" horiz-adv-x="969" 
d="M392 771q-30 0 -51 19.5t-21 47.5q0 29 21 48.5t51 19.5q29 0 49.5 -19.5t20.5 -48.5q0 -28 -20.5 -47.5t-49.5 -19.5zM585 771q-30 0 -51 19.5t-21 47.5q0 29 21 48.5t51 19.5q29 0 49.5 -19.5t20.5 -48.5q0 -28 -20.5 -47.5t-49.5 -19.5zM347 0h-147l-181 700h117
l139 -587h6l135 587h143l134 -587h6l139 587h112l-182 -700h-147l-133 584h-6z" />
    <glyph glyph-name="wdieresis" unicode="&#x1e85;" horiz-adv-x="764" 
d="M289 581q-30 0 -51 19.5t-21 47.5q0 29 21 48.5t51 19.5q29 0 49.5 -19.5t20.5 -48.5q0 -28 -20.5 -47.5t-49.5 -19.5zM482 581q-30 0 -51 19.5t-21 47.5q0 29 21 48.5t51 19.5q29 0 49.5 -19.5t20.5 -48.5q0 -28 -20.5 -47.5t-49.5 -19.5zM290 0h-137l-137 510h114
l94 -392h7l86 392h136l85 -392h7l93 392h110l-137 -510h-136l-89 402h-7z" />
    <glyph glyph-name="uni1E9E" unicode="&#x1e9e;" horiz-adv-x="717" 
d="M639 603l-180 -203q102 -5 159 -59.5t57 -142.5q0 -90 -63 -149t-177 -59q-110 0 -201 42l37 91q68 -36 152 -36q66 0 101.5 31t35.5 81q0 51 -36 80.5t-109 29.5h-85v77l185 211v6h-165q-162 0 -162 -170v-433h-114v433q0 267 273 267h292v-97z" />
    <glyph glyph-name="uni1EA0" unicode="&#x1ea0;" horiz-adv-x="680" 
d="M416 700l248 -700h-122l-50 151h-308l-51 -151h-117l246 700h154zM335 603l-120 -359h246l-120 359h-6zM340 -51q32 0 53 -20t21 -51q0 -30 -21.5 -50.5t-52.5 -20.5q-32 0 -53.5 20.5t-21.5 50.5q0 31 21.5 51t53.5 20z" />
    <glyph glyph-name="uni1EA1" unicode="&#x1ea1;" horiz-adv-x="561" 
d="M496 339v-69q0 -179 5 -270h-98l-10 89h-8q-49 -99 -170 -99q-75 0 -120.5 41.5t-45.5 109.5q0 74 53.5 116t158.5 48l126 7v23q0 48 -31 72.5t-79 24.5q-96 0 -124 -89l-98 29q15 71 75 109.5t147 38.5q104 0 161.5 -47.5t57.5 -133.5zM243 79q60 0 101 44t43 112
l-103 -7q-63 -4 -94.5 -22.5t-31.5 -57.5q0 -32 22.5 -50.5t62.5 -18.5zM284 -51q32 0 53 -20t21 -51q0 -30 -21.5 -50.5t-52.5 -20.5q-32 0 -53.5 20.5t-21.5 50.5q0 31 21.5 51t53.5 20z" />
    <glyph glyph-name="uni1EB8" unicode="&#x1eb8;" horiz-adv-x="608" 
d="M555 0h-481v700h481v-98h-367v-193h327v-98h-327v-213h367v-98zM320 -193q-32 0 -53.5 20.5t-21.5 50.5q0 31 21.5 51t53.5 20t53 -20t21 -51q0 -30 -21.5 -50.5t-52.5 -20.5z" />
    <glyph glyph-name="uni1EB9" unicode="&#x1eb9;" horiz-adv-x="567" 
d="M526 269q0 -28 -3 -49h-369q7 -68 44 -105.5t96 -37.5q82 0 119 79l101 -30q-56 -136 -221 -136q-116 0 -183.5 75t-67.5 190t67 190t183 75q107 0 170.5 -68t63.5 -183zM292 433q-55 0 -91 -35t-46 -98h264q-7 64 -40.5 98.5t-86.5 34.5zM294 -51q32 0 53 -20t21 -51
q0 -30 -21.5 -50.5t-52.5 -20.5q-32 0 -53.5 20.5t-21.5 50.5q0 31 21.5 51t53.5 20z" />
    <glyph glyph-name="uni1EBC" unicode="&#x1ebc;" horiz-adv-x="608" 
d="M233 763h-70v37q0 57 24.5 84.5t59.5 27.5q34 0 75 -31.5t55 -31.5q30 0 30 63h70v-39q0 -58 -23.5 -84t-60.5 -26q-35 0 -75 31.5t-55 31.5q-30 0 -30 -63zM555 0h-481v700h481v-98h-367v-193h327v-98h-327v-213h367v-98z" />
    <glyph glyph-name="uni1EBD" unicode="&#x1ebd;" horiz-adv-x="567" 
d="M234 636q-30 0 -30 -63h-70v37q0 57 24.5 84.5t59.5 27.5q34 0 75 -31.5t55 -31.5q30 0 30 63h70v-39q0 -58 -23.5 -84t-60.5 -26q-35 0 -75 31.5t-55 31.5zM526 269q0 -28 -3 -49h-369q7 -68 44 -105.5t96 -37.5q82 0 119 79l101 -30q-56 -136 -221 -136
q-116 0 -183.5 75t-67.5 190t67 190t183 75q107 0 170.5 -68t63.5 -183zM292 433q-55 0 -91 -35t-46 -98h264q-7 64 -40.5 98.5t-86.5 34.5z" />
    <glyph glyph-name="uni1ECA" unicode="&#x1eca;" horiz-adv-x="262" 
d="M188 0h-114v700h114v-700zM131 -193q-32 0 -53.5 20.5t-21.5 50.5q0 31 21.5 51t53.5 20t53 -20t21 -51q0 -30 -21.5 -50.5t-52.5 -20.5z" />
    <glyph glyph-name="uni1ECB" unicode="&#x1ecb;" horiz-adv-x="247" 
d="M124 576q-33 0 -55.5 21t-22.5 52q0 32 22.5 53t55.5 21t55 -21t22 -53q0 -31 -22.5 -52t-54.5 -21zM180 0h-113v510h113v-510zM123 -193q-32 0 -53.5 20.5t-21.5 50.5q0 31 21.5 51t53.5 20t53 -20t21 -51q0 -30 -21.5 -50.5t-52.5 -20.5z" />
    <glyph glyph-name="uni1ECC" unicode="&#x1ecc;" horiz-adv-x="735" 
d="M368 -10q-143 0 -232 99.5t-89 260.5t89 260.5t232 99.5t231.5 -99t88.5 -261t-88.5 -261t-231.5 -99zM368 89q94 0 150 70t56 191t-56 191t-150 70q-95 0 -151 -70t-56 -191t56 -191t151 -70zM368 -193q-32 0 -53.5 20.5t-21.5 50.5q0 31 21.5 51t53.5 20t53 -20t21 -51
q0 -30 -21.5 -50.5t-52.5 -20.5z" />
    <glyph glyph-name="uni1ECD" unicode="&#x1ecd;" horiz-adv-x="586" 
d="M293 -10q-116 0 -183.5 75t-67.5 190t67.5 190t183.5 75t184 -75t68 -190t-68 -190t-184 -75zM293 87q62 0 100 46t38 122t-38 122t-100 46t-100 -46t-38 -122t38 -122t100 -46zM293 -193q-32 0 -53.5 20.5t-21.5 50.5q0 31 21.5 51t53.5 20t53 -20t21 -51
q0 -30 -21.5 -50.5t-52.5 -20.5z" />
    <glyph glyph-name="uni1EE4" unicode="&#x1ee4;" horiz-adv-x="713" 
d="M357 -10q-124 0 -203.5 75t-79.5 218v417h114v-417q0 -98 47.5 -145t121.5 -47t120.5 47t46.5 145v417h115v-417q0 -143 -79 -218t-203 -75zM357 -193q-32 0 -53.5 20.5t-21.5 50.5q0 31 21.5 51t53.5 20t53 -20t21 -51q0 -30 -21.5 -50.5t-52.5 -20.5z" />
    <glyph glyph-name="uni1EE5" unicode="&#x1ee5;" horiz-adv-x="604" 
d="M247 -10q-88 0 -136.5 54.5t-48.5 161.5v304h113v-288q0 -66 29 -99.5t83 -33.5q61 0 99 42.5t38 106.5v272h114v-238q0 -181 5 -272h-108l-10 84h-8q-59 -94 -170 -94zM300 -193q-32 0 -53.5 20.5t-21.5 50.5q0 31 21.5 51t53.5 20t53 -20t21 -51q0 -30 -21.5 -50.5
t-52.5 -20.5z" />
    <glyph glyph-name="Ygrave" unicode="&#x1ef2;" horiz-adv-x="650" 
d="M372 768h-97l-111 139h145zM383 0h-114v266l-250 434h130l175 -323h6l173 323h128l-248 -433v-267z" />
    <glyph glyph-name="ygrave" unicode="&#x1ef3;" horiz-adv-x="542" 
d="M319 578h-97l-111 139h145zM259 -200h-119l73 186l-197 524h119l135 -396h6l134 396h116z" />
    <glyph glyph-name="uni1EF8" unicode="&#x1ef8;" horiz-adv-x="650" 
d="M238 763h-70v37q0 57 24.5 84.5t59.5 27.5q34 0 75 -31.5t55 -31.5q30 0 30 63h70v-39q0 -58 -23.5 -84t-60.5 -26q-35 0 -75 31.5t-55 31.5q-30 0 -30 -63zM383 0h-114v266l-250 434h130l175 -323h6l173 323h128l-248 -433v-267z" />
    <glyph glyph-name="uni1EF9" unicode="&#x1ef9;" horiz-adv-x="542" 
d="M185 573h-70v37q0 57 24.5 84.5t59.5 27.5q34 0 75 -31.5t55 -31.5q30 0 30 63h70v-39q0 -58 -23.5 -84t-60.5 -26q-35 0 -75 31.5t-55 31.5q-30 0 -30 -63zM259 -200h-119l73 186l-197 524h119l135 -396h6l134 396h116z" />
    <glyph glyph-name="endash" unicode="&#x2013;" horiz-adv-x="510" 
d="M473 233h-436v94h436v-94z" />
    <glyph glyph-name="emdash" unicode="&#x2014;" horiz-adv-x="732" 
d="M696 233h-659v94h659v-94z" />
    <glyph glyph-name="quoteleft" unicode="&#x2018;" horiz-adv-x="221" 
d="M144 710l28 -23q-48 -57 -56 -113q30 -3 48.5 -22t18.5 -47q0 -30 -20.5 -50t-51.5 -20t-52 20t-21 56q0 105 106 199z" />
    <glyph glyph-name="quoteright" unicode="&#x2019;" horiz-adv-x="221" 
d="M77 435l-28 23q48 57 56 113q-30 3 -48.5 22t-18.5 47q0 30 20.5 50t51.5 20t52 -20t21 -56q0 -105 -106 -199z" />
    <glyph glyph-name="quotesinglbase" unicode="&#x201a;" horiz-adv-x="221" 
d="M77 -146l-28 23q48 57 56 113q-30 3 -48.5 22t-18.5 47q0 31 20.5 50.5t51.5 19.5t52 -20t21 -56q0 -103 -106 -199z" />
    <glyph glyph-name="quotedblleft" unicode="&#x201c;" horiz-adv-x="410" 
d="M144 710l28 -23q-48 -57 -56 -113q30 -3 48.5 -22t18.5 -47q0 -30 -20.5 -50t-51.5 -20t-52 20t-21 56q0 105 106 199zM333 710l29 -23q-47 -55 -56 -113q29 -3 48 -22t19 -47q0 -30 -21 -50t-52 -20t-52 20t-21 56q0 103 106 199z" />
    <glyph glyph-name="quotedblright" unicode="&#x201d;" horiz-adv-x="410" 
d="M77 435l-28 23q48 57 56 113q-30 3 -48.5 22t-18.5 47q0 30 20.5 50t51.5 20t52 -20t21 -56q0 -105 -106 -199zM267 435l-29 23q47 55 56 113q-29 3 -48 22t-19 47q0 30 21 50t52 20t52 -20t21 -56q0 -103 -106 -199z" />
    <glyph glyph-name="quotedblbase" unicode="&#x201e;" horiz-adv-x="410" 
d="M77 -146l-28 23q48 57 56 113q-30 3 -48.5 22t-18.5 47q0 31 20.5 50.5t51.5 19.5t52 -20t21 -56q0 -103 -106 -199zM267 -146l-29 23q47 55 56 113q-29 3 -48 22t-19 47q0 31 20.5 50.5t52.5 19.5q31 0 52 -20t21 -56q0 -102 -106 -199z" />
    <glyph glyph-name="dagger" unicode="&#x2020;" horiz-adv-x="539" 
d="M326 -100h-113v504h-177v102h177v194h113v-194h177v-102h-177v-504z" />
    <glyph glyph-name="daggerdbl" unicode="&#x2021;" horiz-adv-x="539" 
d="M326 -100h-113v198h-177v97h177v210h-177v97h177v198h113v-198h177v-97h-177v-210h177v-97h-177v-198z" />
    <glyph glyph-name="bullet" unicode="&#x2022;" horiz-adv-x="261" 
d="M131 176q-39 0 -66 25t-27 64t27 64t66 25t65.5 -25t26.5 -64t-26.5 -64t-65.5 -25z" />
    <glyph glyph-name="ellipsis" unicode="&#x2026;" horiz-adv-x="652" 
d="M114 -10q-32 0 -54 20.5t-22 52.5q0 31 22 52t54 21t53.5 -21t21.5 -52q0 -32 -21.5 -52.5t-53.5 -20.5zM326 -10q-31 0 -53.5 20.5t-22.5 52.5q0 31 22.5 52t53.5 21q32 0 54 -21t22 -52q0 -32 -22 -52.5t-54 -20.5zM538 -10q-31 0 -53.5 20.5t-22.5 52.5q0 31 22.5 52
t53.5 21q32 0 54 -21t22 -52q0 -32 -22 -52.5t-54 -20.5z" />
    <glyph glyph-name="perthousand" unicode="&#x2030;" horiz-adv-x="1249" 
d="M202 349q-79 0 -128.5 52t-49.5 129t49.5 128.5t128.5 51.5t128 -51.5t49 -128.5t-49 -129t-128 -52zM720 660l-524 -670l-64 50l523 670zM202 432q39 0 64 28t25 70q0 41 -25 69t-64 28t-64 -28t-25 -69q0 -42 25 -70t64 -28zM650 -10q-79 0 -128.5 51.5t-49.5 128.5
t49.5 129t128.5 52t128 -52t49 -129t-49 -128.5t-128 -51.5zM1047 -10q-79 0 -128 51.5t-49 128.5t49 129t128 52t128.5 -52t49.5 -129t-49.5 -128.5t-128.5 -51.5zM650 73q39 0 64 27.5t25 69.5t-25 70t-64 28t-64 -28t-25 -70t25 -69.5t64 -27.5zM1047 73q39 0 64 27.5
t25 69.5t-25 70t-64 28t-64 -28t-25 -70t25 -69.5t64 -27.5z" />
    <glyph glyph-name="guilsinglleft" unicode="&#x2039;" horiz-adv-x="340" 
d="M307 88h-128l-158 172l158 172h128l-161 -172z" />
    <glyph glyph-name="guilsinglright" unicode="&#x203a;" horiz-adv-x="340" 
d="M319 260l-158 -172h-128l161 172l-161 172h128z" />
    <glyph glyph-name="fraction" unicode="&#x2044;" horiz-adv-x="188" 
d="M-86 0h-86l445 700h87z" />
    <glyph glyph-name="uni2070" unicode="&#x2070;" horiz-adv-x="372" 
d="M186 445q-73 0 -115 49.5t-42 130.5t42 130.5t115 49.5t115 -49.5t42 -130.5t-42 -130.5t-115 -49.5zM186 516q36 0 56.5 29t20.5 80t-20.5 80t-56.5 29t-56.5 -28.5t-20.5 -80.5t20.5 -80.5t56.5 -28.5z" />
    <glyph glyph-name="uni2074" unicode="&#x2074;" horiz-adv-x="334" 
d="M265 450h-80v62h-166v72l159 216h87v-221h45v-67h-45v-62zM185 703l-91 -124h91v124z" />
    <glyph glyph-name="uni2075" unicode="&#x2075;" horiz-adv-x="331" 
d="M168 445q-54 0 -94 23t-50 65l79 18q16 -42 65 -42q27 0 43 14.5t16 39.5q0 24 -16 38.5t-41 14.5q-36 0 -60 -22l-70 12l13 194h222v-68h-153l-5 -70h6q27 16 65 16q54 0 86.5 -30.5t32.5 -84.5q0 -55 -37.5 -86.5t-101.5 -31.5z" />
    <glyph glyph-name="uni2076" unicode="&#x2076;" horiz-adv-x="335" 
d="M181 693q57 0 93.5 -34t36.5 -88q0 -56 -40 -91t-104 -35q-63 0 -103 35t-40 91q0 49 44 109l87 120h99v-4l-79 -103h6zM168 512q28 0 45.5 16.5t17.5 42.5t-17.5 43t-45.5 17t-46 -17t-18 -43t18 -42.5t46 -16.5z" />
    <glyph glyph-name="uni2077" unicode="&#x2077;" horiz-adv-x="303" 
d="M146 450h-92l133 271v4h-163v75h255v-71z" />
    <glyph glyph-name="uni2078" unicode="&#x2078;" horiz-adv-x="333" 
d="M166 445q-60 0 -99 28.5t-39 75.5q0 28 15.5 50.5t41.5 33.5q-47 25 -47 75q0 44 35.5 70.5t92.5 26.5t93 -26.5t36 -70.5q0 -50 -47 -75q26 -11 41.5 -33.5t15.5 -50.5q0 -47 -39 -75.5t-100 -28.5zM166 659q22 0 36 11.5t14 30.5q0 18 -14.5 29.5t-35.5 11.5t-35 -11.5
t-14 -29.5q0 -19 14 -30.5t35 -11.5zM166 508q26 0 42.5 12.5t16.5 35.5q0 21 -17 34t-42 13t-41 -13t-16 -34q0 -23 16 -35.5t41 -12.5z" />
    <glyph glyph-name="uni2079" unicode="&#x2079;" horiz-adv-x="335" 
d="M168 805q62 0 102.5 -35.5t40.5 -90.5q0 -49 -44 -109l-87 -120h-99v4l79 103h-6q-57 0 -93.5 34t-36.5 88q0 56 40 91t104 35zM167 619q28 0 46 17t18 43t-18 42.5t-46 16.5t-45.5 -16.5t-17.5 -42.5t17.5 -43t45.5 -17z" />
    <glyph glyph-name="uni2080" unicode="&#x2080;" horiz-adv-x="372" 
d="M186 -105q-73 0 -115 49.5t-42 130.5t42 130.5t115 49.5t115 -49.5t42 -130.5t-42 -130.5t-115 -49.5zM186 -34q36 0 56.5 29t20.5 80t-20.5 80t-56.5 29t-56.5 -28.5t-20.5 -80.5t20.5 -80.5t56.5 -28.5z" />
    <glyph glyph-name="uni2081" unicode="&#x2081;" horiz-adv-x="229" 
d="M181 -100h-80v260h-4l-73 -40v79l95 51h62v-350z" />
    <glyph glyph-name="uni2082" unicode="&#x2082;" horiz-adv-x="319" 
d="M291 -100h-258v62l103 86q39 32 57 54.5t18 46.5q0 20 -14.5 31.5t-35.5 11.5q-45 0 -62 -45l-76 18q11 42 47 66t90 24q59 0 95 -28t36 -78q0 -38 -23 -69.5t-77 -74.5l-38 -32v-4h138v-69z" />
    <glyph glyph-name="uni2083" unicode="&#x2083;" horiz-adv-x="331" 
d="M286 186l-84 -77q46 -5 73 -32.5t27 -70.5q0 -51 -36 -81t-100 -30q-56 0 -94 23.5t-48 67.5l78 18q13 -45 64 -45q25 0 40.5 13.5t15.5 35.5t-16 35t-43 13h-55v46l80 75v4h-149v69h247v-64z" />
    <glyph glyph-name="uni2084" unicode="&#x2084;" horiz-adv-x="334" 
d="M265 -100h-80v62h-166v72l159 216h87v-221h45v-67h-45v-62zM185 153l-91 -124h91v124z" />
    <glyph glyph-name="uni2085" unicode="&#x2085;" horiz-adv-x="331" 
d="M168 -105q-54 0 -94 23t-50 65l79 18q16 -42 65 -42q27 0 43 14.5t16 39.5q0 24 -16 38.5t-41 14.5q-36 0 -60 -22l-70 12l13 194h222v-68h-153l-5 -70h6q27 16 65 16q54 0 86.5 -30.5t32.5 -84.5q0 -55 -37.5 -86.5t-101.5 -31.5z" />
    <glyph glyph-name="uni2086" unicode="&#x2086;" horiz-adv-x="335" 
d="M181 143q57 0 93.5 -34t36.5 -88q0 -56 -40 -91t-104 -35q-63 0 -103 35t-40 91q0 49 44 109l87 120h99v-4l-79 -103h6zM168 -38q28 0 45.5 16.5t17.5 42.5t-17.5 43t-45.5 17t-46 -17t-18 -43t18 -42.5t46 -16.5z" />
    <glyph glyph-name="uni2087" unicode="&#x2087;" horiz-adv-x="303" 
d="M146 -100h-92l133 271v4h-163v75h255v-71z" />
    <glyph glyph-name="uni2088" unicode="&#x2088;" horiz-adv-x="333" 
d="M166 -105q-60 0 -99 28.5t-39 75.5q0 28 15.5 50.5t41.5 33.5q-47 25 -47 75q0 44 35.5 70.5t92.5 26.5t93 -26.5t36 -70.5q0 -50 -47 -75q26 -11 41.5 -33.5t15.5 -50.5q0 -47 -39 -75.5t-100 -28.5zM166 109q22 0 36 11.5t14 30.5q0 18 -14.5 29.5t-35.5 11.5
t-35 -11.5t-14 -29.5q0 -19 14 -30.5t35 -11.5zM166 -42q26 0 42.5 12.5t16.5 35.5q0 21 -17 34t-42 13t-41 -13t-16 -34q0 -23 16 -35.5t41 -12.5z" />
    <glyph glyph-name="uni2089" unicode="&#x2089;" horiz-adv-x="335" 
d="M168 255q62 0 102.5 -35.5t40.5 -90.5q0 -49 -44 -109l-87 -120h-99v4l79 103h-6q-57 0 -93.5 34t-36.5 88q0 56 40 91t104 35zM167 69q28 0 46 17t18 43t-18 42.5t-46 16.5t-45.5 -16.5t-17.5 -42.5t17.5 -43t45.5 -17z" />
    <glyph glyph-name="Euro" unicode="&#x20ac;" horiz-adv-x="759" 
d="M424 -10q-116 0 -198 67t-110 183h-97v73h86q-2 24 -2 37t2 37h-86v73h97q28 116 110 183t198 67q106 0 182 -53t107 -159l-110 -33q-48 147 -179 147q-70 0 -119.5 -40t-71.5 -112h198v-73h-211q-2 -24 -2 -37t2 -37h211v-73h-198q22 -72 71.5 -112t119.5 -40
q134 0 183 147l110 -33q-32 -107 -108.5 -159.5t-184.5 -52.5z" />
    <glyph glyph-name="uni2116" unicode="&#x2116;" horiz-adv-x="1137" 
d="M925 369q-74 0 -124 49t-50 121q0 73 50 122t124 49t124 -49t50 -122q0 -72 -50 -121t-124 -49zM187 0h-113v700h124l341 -527h7q-4 96 -4 200v327h113v-700h-124l-342 527h-6q4 -97 4 -200v-327zM925 454q36 0 60 24.5t24 60.5q0 37 -23.5 61t-60.5 24t-61 -24t-24 -61
q0 -36 24 -60.5t61 -24.5zM1089 214h-328v85h328v-85z" />
    <glyph glyph-name="uni2117" unicode="&#x2117;" horiz-adv-x="735" 
d="M367 -10q-151 0 -247 104t-96 257q0 151 96.5 255t246.5 104q151 0 247.5 -104t96.5 -255q0 -153 -96.5 -257t-247.5 -104zM367 50q123 0 201 86.5t78 214.5q0 126 -78 212.5t-201 86.5q-122 0 -200 -86.5t-78 -212.5q0 -128 78 -214.5t200 -86.5zM327 175h-74v350h151
q58 0 90 -29t32 -82q0 -52 -32 -79.5t-90 -27.5h-77v-132zM327 465v-103h69q25 0 40.5 14t15.5 38t-15 37.5t-41 13.5h-69z" />
    <glyph glyph-name="trademark" unicode="&#x2122;" horiz-adv-x="795" 
d="M212 350h-76v284h-109v66h293v-66h-108v-284zM431 350h-70v350h109l87 -270l87 270h109v-350h-74v260h-5l-85 -260h-67l-85 260h-6v-260z" />
    <glyph glyph-name="uni2150" unicode="&#x2150;" horiz-adv-x="730" 
d="M181 350h-80v260h-4l-73 -40v79l95 51h62v-350zM153 0h-86l445 700h87zM573 0h-92l133 271v4h-163v75h255v-71z" />
    <glyph glyph-name="uni2151" unicode="&#x2151;" horiz-adv-x="752" 
d="M101 350v260h-4l-73 -40v79l95 51h62v-350h-80zM67 0l445 700h87l-446 -700h-86zM585 355q62 0 102.5 -35.5t40.5 -90.5q0 -49 -44 -109l-87 -120h-99v4l79 103h-6q-57 0 -93.5 34t-36.5 88q0 56 40 91t104 35zM584 169q28 0 46 17t18 43t-18 42.5t-46 16.5t-45.5 -16.5
t-17.5 -42.5t17.5 -43t45.5 -17z" />
    <glyph glyph-name="uni2152" unicode="&#x2152;" horiz-adv-x="1028" 
d="M181 350h-80v260h-4l-73 -40v79l95 51h62v-350zM153 0h-86l445 700h87zM842 -5q-73 0 -115 49.5t-42 130.5t42 130.5t115 49.5t115 -49.5t42 -130.5t-42 -130.5t-115 -49.5zM608 0h-80v260h-4l-73 -40v79l95 51h62v-350zM842 66q36 0 56.5 29t20.5 80t-20.5 80t-56.5 29
t-56.5 -28.5t-20.5 -80.5t20.5 -80.5t56.5 -28.5z" />
    <glyph glyph-name="uni2153" unicode="&#x2153;" horiz-adv-x="758" 
d="M101 350v260h-4l-73 -40v79l95 51h62v-350h-80zM67 0l445 700h87l-446 -700h-86zM713 286l-84 -77q46 -5 73 -32.5t27 -70.5q0 -51 -36 -81t-100 -30q-56 0 -94 23.5t-48 67.5l78 18q13 -45 64 -45q25 0 40.5 13.5t15.5 35.5t-16 35t-43 13h-55v46l80 75v4h-149v69h247
v-64z" />
    <glyph glyph-name="uni2154" unicode="&#x2154;" horiz-adv-x="838" 
d="M33 412l103 86q39 32 57 54.5t18 46.5q0 20 -14.5 31.5t-35.5 11.5q-45 0 -62 -45l-76 18q11 42 47 66t90 24q59 0 95 -28t36 -78q0 -38 -23 -69.5t-77 -74.5l-38 -32v-4h138v-69h-258v62zM147 0l445 700h87l-446 -700h-86zM793 286l-84 -77q46 -5 73 -32.5t27 -70.5
q0 -51 -36 -81t-100 -30q-56 0 -94 23.5t-48 67.5l78 18q13 -45 64 -45q25 0 40.5 13.5t15.5 35.5t-16 35t-43 13h-55v46l80 75v4h-149v69h247v-64z" />
    <glyph glyph-name="uni2155" unicode="&#x2155;" horiz-adv-x="753" 
d="M181 350h-80v260h-4l-73 -40v79l95 51h62v-350zM153 0h-86l445 700h87zM590 -5q-54 0 -94 23t-50 65l79 18q16 -42 65 -42q27 0 43 14.5t16 39.5q0 24 -16 38.5t-41 14.5q-36 0 -60 -22l-70 12l13 194h222v-68h-153l-5 -70h6q27 16 65 16q54 0 86.5 -30.5t32.5 -84.5
q0 -55 -37.5 -86.5t-101.5 -31.5z" />
    <glyph glyph-name="uni2156" unicode="&#x2156;" horiz-adv-x="833" 
d="M291 350h-258v62l103 86q39 32 57 54.5t18 46.5q0 20 -14.5 31.5t-35.5 11.5q-45 0 -62 -45l-76 18q11 42 47 66t90 24q59 0 95 -28t36 -78q0 -38 -23 -69.5t-77 -74.5l-38 -32v-4h138v-69zM233 0h-86l445 700h87zM670 -5q-54 0 -94 23t-50 65l79 18q16 -42 65 -42
q27 0 43 14.5t16 39.5q0 24 -16 38.5t-41 14.5q-36 0 -60 -22l-70 12l13 194h222v-68h-153l-5 -70h6q27 16 65 16q54 0 86.5 -30.5t32.5 -84.5q0 -55 -37.5 -86.5t-101.5 -31.5z" />
    <glyph glyph-name="uni2157" unicode="&#x2157;" horiz-adv-x="845" 
d="M302 456q0 -51 -36 -81t-100 -30q-56 0 -94 23.5t-48 67.5l78 18q13 -45 64 -45q25 0 40.5 13.5t15.5 35.5t-16 35t-43 13h-55v46l80 75v4h-149v69h247v-64l-84 -77q46 -5 73 -32.5t27 -70.5zM159 0l445 700h87l-446 -700h-86zM702 228q54 0 86.5 -30.5t32.5 -84.5
q0 -55 -37.5 -86.5t-101.5 -31.5q-54 0 -94 23t-50 65l79 18q16 -42 65 -42q27 0 43 14.5t16 39.5q0 24 -16 38.5t-41 14.5q-36 0 -60 -22l-70 12l13 194h222v-68h-153l-5 -70h6q27 16 65 16z" />
    <glyph glyph-name="uni2158" unicode="&#x2158;" horiz-adv-x="848" 
d="M265 350h-80v62h-166v72l159 216h87v-221h45v-67h-45v-62zM248 0h-86l445 700h87zM185 603l-91 -124h91v124zM685 -5q-54 0 -94 23t-50 65l79 18q16 -42 65 -42q27 0 43 14.5t16 39.5q0 24 -16 38.5t-41 14.5q-36 0 -60 -22l-70 12l13 194h222v-68h-153l-5 -70h6
q27 16 65 16q54 0 86.5 -30.5t32.5 -84.5q0 -55 -37.5 -86.5t-101.5 -31.5z" />
    <glyph glyph-name="uni2159" unicode="&#x2159;" horiz-adv-x="727" 
d="M101 350v260h-4l-73 -40v79l95 51h62v-350h-80zM67 0l445 700h87l-446 -700h-86zM573 243q57 0 93.5 -34t36.5 -88q0 -56 -40 -91t-104 -35q-63 0 -103 35t-40 91q0 49 44 109l87 120h99v-4l-79 -103h6zM560 62q28 0 45.5 16.5t17.5 42.5t-17.5 43t-45.5 17t-46 -17
t-18 -43t18 -42.5t46 -16.5z" />
    <glyph glyph-name="uni215A" unicode="&#x215a;" horiz-adv-x="819" 
d="M307 463q0 -55 -37.5 -86.5t-101.5 -31.5q-54 0 -94 23t-50 65l79 18q16 -42 65 -42q27 0 43 14.5t16 39.5q0 24 -16 38.5t-41 14.5q-36 0 -60 -22l-70 12l13 194h222v-68h-153l-5 -70h6q27 16 65 16q54 0 86.5 -30.5t32.5 -84.5zM159 0l445 700h87l-446 -700h-86z
M665 243q57 0 93.5 -34t36.5 -88q0 -56 -40 -91t-104 -35q-63 0 -103 35t-40 91q0 49 44 109l87 120h99v-4l-79 -103h6zM652 62q28 0 45.5 16.5t17.5 42.5t-17.5 43t-45.5 17t-46 -17t-18 -43t18 -42.5t46 -16.5z" />
    <glyph glyph-name="oneeighth" unicode="&#x215b;" horiz-adv-x="750" 
d="M181 350h-80v260h-4l-73 -40v79l95 51h62v-350zM153 0h-86l445 700h87zM583 -5q-60 0 -99 28.5t-39 75.5q0 28 15.5 50.5t41.5 33.5q-47 25 -47 75q0 44 35.5 70.5t92.5 26.5t93 -26.5t36 -70.5q0 -50 -47 -75q26 -11 41.5 -33.5t15.5 -50.5q0 -47 -39 -75.5t-100 -28.5z
M583 209q22 0 36 11.5t14 30.5q0 18 -14.5 29.5t-35.5 11.5t-35 -11.5t-14 -29.5q0 -19 14 -30.5t35 -11.5zM583 58q26 0 42.5 12.5t16.5 35.5q0 21 -17 34t-42 13t-41 -13t-16 -34q0 -23 16 -35.5t41 -12.5z" />
    <glyph glyph-name="threeeighths" unicode="&#x215c;" horiz-adv-x="842" 
d="M302 456q0 -51 -36 -81t-100 -30q-56 0 -94 23.5t-48 67.5l78 18q13 -45 64 -45q25 0 40.5 13.5t15.5 35.5t-16 35t-43 13h-55v46l80 75v4h-149v69h247v-64l-84 -77q46 -5 73 -32.5t27 -70.5zM159 0l445 700h87l-446 -700h-86zM757 183q26 -11 41.5 -33.5t15.5 -50.5
q0 -47 -39 -75.5t-100 -28.5q-60 0 -99 28.5t-39 75.5q0 28 15.5 50.5t41.5 33.5q-47 25 -47 75q0 44 35.5 70.5t92.5 26.5t93 -26.5t36 -70.5q0 -50 -47 -75zM675 292q-21 0 -35 -11.5t-14 -29.5q0 -19 14 -30.5t35 -11.5q22 0 36 11.5t14 30.5q0 18 -14.5 29.5t-35.5 11.5
zM675 58q26 0 42.5 12.5t16.5 35.5q0 21 -17 34t-42 13t-41 -13t-16 -34q0 -23 16 -35.5t41 -12.5z" />
    <glyph glyph-name="fiveeighths" unicode="&#x215d;" horiz-adv-x="842" 
d="M168 345q-54 0 -94 23t-50 65l79 18q16 -42 65 -42q27 0 43 14.5t16 39.5q0 24 -16 38.5t-41 14.5q-36 0 -60 -22l-70 12l13 194h222v-68h-153l-5 -70h6q27 16 65 16q54 0 86.5 -30.5t32.5 -84.5q0 -55 -37.5 -86.5t-101.5 -31.5zM245 0h-86l445 700h87zM675 -5
q-60 0 -99 28.5t-39 75.5q0 28 15.5 50.5t41.5 33.5q-47 25 -47 75q0 44 35.5 70.5t92.5 26.5t93 -26.5t36 -70.5q0 -50 -47 -75q26 -11 41.5 -33.5t15.5 -50.5q0 -47 -39 -75.5t-100 -28.5zM675 209q22 0 36 11.5t14 30.5q0 18 -14.5 29.5t-35.5 11.5t-35 -11.5t-14 -29.5
q0 -19 14 -30.5t35 -11.5zM675 58q26 0 42.5 12.5t16.5 35.5q0 21 -17 34t-42 13t-41 -13t-16 -34q0 -23 16 -35.5t41 -12.5z" />
    <glyph glyph-name="seveneighths" unicode="&#x215e;" horiz-adv-x="774" 
d="M146 350h-92l133 271v4h-163v75h255v-71zM177 0h-86l445 700h87zM607 -5q-60 0 -99 28.5t-39 75.5q0 28 15.5 50.5t41.5 33.5q-47 25 -47 75q0 44 35.5 70.5t92.5 26.5t93 -26.5t36 -70.5q0 -50 -47 -75q26 -11 41.5 -33.5t15.5 -50.5q0 -47 -39 -75.5t-100 -28.5z
M607 209q22 0 36 11.5t14 30.5q0 18 -14.5 29.5t-35.5 11.5t-35 -11.5t-14 -29.5q0 -19 14 -30.5t35 -11.5zM607 58q26 0 42.5 12.5t16.5 35.5q0 21 -17 34t-42 13t-41 -13t-16 -34q0 -23 16 -35.5t41 -12.5z" />
    <glyph glyph-name="uni215F" unicode="&#x215f;" horiz-adv-x="631" 
d="M181 350h-80v260h-4l-73 -40v79l95 51h62v-350zM137 0h-86l445 700h87z" />
    <glyph glyph-name="partialdiff" unicode="&#x2202;" horiz-adv-x="540" 
d="M269 -10q-100 0 -163.5 64.5t-63.5 165.5q0 98 56 163t150 65q83 0 128 -48h5q-35 203 -225 203q-41 0 -71 -7v98q35 6 81 6q87 0 152.5 -34t104 -94.5t57 -136.5t18.5 -166q0 -122 -58.5 -200.5t-170.5 -78.5zM268 78q50 0 84 40.5t34 101.5q0 59 -34 100t-84 41
q-51 0 -84 -39t-33 -102q0 -61 33.5 -101.5t83.5 -40.5z" />
    <glyph glyph-name="emptyset" unicode="&#x2205;" horiz-adv-x="623" 
d="M211 105l-41 -71l-62 30l44 76q-49 37 -77 92t-28 118q0 110 77.5 187.5t187.5 77.5q54 0 100 -20l41 71l63 -30l-44 -75q49 -37 77 -92.5t28 -118.5q0 -110 -77.5 -187.5t-187.5 -77.5q-53 0 -101 20zM189 205l186 325q-31 11 -63 11q-79 0 -135 -56t-56 -135
q0 -87 68 -145zM312 159q78 0 134 56t56 135q0 88 -67 145l-187 -325q31 -11 64 -11z" />
    <glyph glyph-name="uni2206" unicode="&#x2206;" horiz-adv-x="597" 
d="M582 0h-566l218 700h129zM296 576l-145 -482h294l-143 482h-6z" />
    <glyph glyph-name="product" unicode="&#x220f;" horiz-adv-x="716" 
d="M276 -200h-113v794h-97v106h584v-106h-98v-794h-112v794h-164v-794z" />
    <glyph glyph-name="summation" unicode="&#x2211;" horiz-adv-x="549" 
d="M496 0h-428v88l195 262l-195 262v88h428v-98h-297l189 -252l-189 -252h297v-98z" />
    <glyph glyph-name="minus" unicode="&#x2212;" 
d="M472 250h-438v101h438v-101z" />
    <glyph glyph-name="radical" unicode="&#x221a;" horiz-adv-x="606" 
d="M347 0h-141l-117 324h-81v91h152l116 -327l216 612h106z" />
    <glyph glyph-name="infinity" unicode="&#x221e;" horiz-adv-x="711" 
d="M182 144q-66 0 -107.5 43.5t-41.5 112.5q0 68 41.5 112t107.5 44q51 0 89.5 -25.5t83.5 -74.5q46 50 84 75t89 25q65 0 107.5 -44t42.5 -112q0 -69 -42 -112.5t-108 -43.5q-36 0 -69.5 16t-53.5 33.5t-50 49.5q-45 -49 -83.5 -74t-89.5 -25zM188 219q32 0 59.5 20
t64.5 61q-36 40 -64.5 60.5t-59.5 20.5t-52.5 -22.5t-21.5 -58.5q0 -37 21 -59t53 -22zM523 219q31 0 52.5 22.5t21.5 58.5q0 35 -21.5 58t-52.5 23q-32 0 -60 -20t-64 -61q36 -41 64 -61t60 -20z" />
    <glyph glyph-name="integral" unicode="&#x222b;" horiz-adv-x="427" 
d="M103 -200h-70v93h50q30 0 47 17.5t17 49.5v581q0 159 158 159h79v-93h-58q-31 0 -49 -17.5t-18 -49.5v-581q0 -159 -156 -159z" />
    <glyph glyph-name="approxequal" unicode="&#x2248;" 
d="M125 314h-91v39q0 66 35 99t85 33q32 0 69 -17.5t68 -35.5t48 -18q42 0 42 46v25h91v-39q0 -66 -34 -99t-86 -33q-36 0 -72 17.5t-65 35t-48 17.5q-42 0 -42 -45v-25zM125 115h-91v39q0 66 35 99t85 33q42 0 105 -35t80 -35q42 0 42 45v25h91v-39q0 -66 -34 -99t-86 -33
q-36 0 -72 17.5t-65 35.5t-48 18q-42 0 -42 -46v-25z" />
    <glyph glyph-name="notequal" unicode="&#x2260;" 
d="M184 23h-88l51 125h-113v96h153l45 112h-198v96h238l51 125h88l-51 -125h112v-96h-152l-45 -112h197v-96h-237z" />
    <glyph glyph-name="lessequal" unicode="&#x2264;" 
d="M472 272v-102l-438 151v102l438 151v-101l-318 -101zM472 16h-438v97h438v-97z" />
    <glyph glyph-name="greaterequal" unicode="&#x2265;" 
d="M472 321l-438 -151v102l318 100l-318 101v101l438 -151v-102zM472 16h-438v97h438v-97z" />
    <glyph glyph-name="lozenge" unicode="&#x25ca;" horiz-adv-x="563" 
d="M334 0h-105l-179 350l179 350h105l179 -350zM159 350l123 -238l123 238l-123 238z" />
    <glyph glyph-name="uniE132" unicode="&#xe132;" horiz-adv-x="522" 
d="M173 578h-97l63 139h145zM449 578h-97l63 139h145zM180 0h-113v510h113v-510zM302 -210q-70 0 -117 31l32 81q28 -18 64 -18q62 0 62 70v556h113v-562q0 -77 -41 -117.5t-113 -40.5z" />
    <glyph glyph-name="uniE133" unicode="&#xe133;" horiz-adv-x="743" 
d="M181 768h-97l63 139h145zM661 768h-97l63 139h145zM188 0h-114v700h114v-700zM431 0h-126v98h121q128 0 128 143v459h115v-460q0 -115 -63.5 -177.5t-174.5 -62.5z" />
    <glyph glyph-name="fi" unicode="&#xfb01;" horiz-adv-x="672" 
d="M548 576q-32 0 -54.5 21t-22.5 52q0 32 22 53t55 21t55.5 -21t22.5 -53q0 -31 -22.5 -52t-55.5 -21zM240 0h-113v413h-99v91h99v45q0 77 43 119t118 42q72 0 124 -33l-31 -77q-34 19 -71 19q-31 0 -50.5 -18.5t-19.5 -56.5v-40h365v-504h-113v413h-252v-413z" />
    <glyph glyph-name="Iacute_J.loclNLD" horiz-adv-x="743" 
d="M181 768h-97l63 139h145zM661 768h-97l63 139h145zM188 0h-114v700h114v-700zM431 0h-126v98h121q128 0 128 143v459h115v-460q0 -115 -63.5 -177.5t-174.5 -62.5z" />
    <glyph glyph-name="J.ss01" horiz-adv-x="538" 
d="M226 0h-175v100h170q129 0 129 143v457h115v-460q0 -115 -64 -177.5t-175 -62.5z" />
    <glyph glyph-name="Jcircumflex.ss01" horiz-adv-x="538" 
d="M350 768h-113l117 139h106l117 -139h-117l-55 77zM226 0h-175v100h170q129 0 129 143v457h115v-460q0 -115 -64 -177.5t-175 -62.5z" />
    <glyph glyph-name="Eng.ss01" horiz-adv-x="729" 
d="M486 -200h-81v97h70q69 0 69 79v10l-355 543h-6q4 -96 4 -199v-330h-113v700h124l341 -521h7q-4 95 -4 199v322h113v-723q0 -88 -45.5 -132.5t-123.5 -44.5z" />
    <glyph glyph-name="uni019D.ss01" horiz-adv-x="729" 
d="M18 -200h-83v97h69q70 0 70 83v720h124l341 -527h7q-4 96 -4 200v327h113v-700h-124l-342 527h-6q4 -97 4 -200v-350q0 -88 -45 -132.5t-124 -44.5z" />
    <glyph glyph-name="uni1E9E.ss01" horiz-adv-x="717" 
d="M639 603l-180 -203q102 -5 159 -59t57 -140q0 -91 -63 -146t-178 -55h-166v97h158q65 0 99.5 29.5t34.5 76.5q0 48 -35.5 77t-107.5 29h-87v77l185 211v6h-165q-162 0 -162 -170v-433h-114v433q0 267 273 267h292v-97z" />
    <glyph glyph-name="J.ss05" horiz-adv-x="612" 
d="M293 -10q-90 0 -157 42t-93 122l106 32q35 -98 144 -98q62 0 96 36t34 105v371h-324v100h439v-476q0 -109 -64.5 -171.5t-180.5 -62.5z" />
    <glyph glyph-name="Jcircumflex.ss05" horiz-adv-x="612" 
d="M261 768h-113l117 139h106l117 -139h-117l-55 77zM293 -10q-90 0 -157 42t-93 122l106 32q35 -98 144 -98q62 0 96 36t34 105v371h-324v100h439v-476q0 -109 -64.5 -171.5t-180.5 -62.5z" />
    <glyph glyph-name="i.loclTRK" horiz-adv-x="247" 
d="M124 576q-33 0 -55.5 21t-22.5 52q0 32 22.5 53t55.5 21t55 -21t22 -53q0 -31 -22.5 -52t-54.5 -21zM180 0h-113v510h113v-510z" />
    <glyph glyph-name="iacute_j.loclNLD" horiz-adv-x="522" 
d="M173 578h-97l63 139h145zM449 578h-97l63 139h145zM180 0h-113v510h113v-510zM302 -210q-70 0 -117 31l32 81q28 -18 64 -18q62 0 62 70v556h113v-562q0 -77 -41 -117.5t-113 -40.5z" />
    <glyph glyph-name="f.ss01" horiz-adv-x="412" 
d="M240 0h-113v413h-99v91h99v26q0 84 46.5 127t128.5 43h86v-93h-73q-75 0 -75 -79v-24h141v-91h-141v-413z" />
    <glyph glyph-name="iacute_j.loclNLD.ss01" horiz-adv-x="510" 
d="M173 578h-97l63 139h145zM437 578h-97l63 139h145zM180 0h-113v510h113v-510zM275 -200h-74v97h59q71 0 71 83v530h113v-533q0 -88 -45.5 -132.5t-123.5 -44.5z" />
    <glyph glyph-name="ij.ss01" horiz-adv-x="511" 
d="M124 576q-33 0 -55.5 21t-22.5 52q0 32 22.5 53t55.5 21t55 -21t22 -53q0 -31 -22.5 -52t-54.5 -21zM387 576q-32 0 -54.5 21t-22.5 52q0 32 22 53t55 21t55.5 -21t22.5 -53q0 -31 -22.5 -52t-55.5 -21zM180 0h-113v510h113v-510zM275 -200h-74v97h59q71 0 71 83v530h113
v-533q0 -88 -45.5 -132.5t-123.5 -44.5z" />
    <glyph glyph-name="j.ss01" horiz-adv-x="279" 
d="M156 576q-33 0 -55.5 21t-22.5 52q0 32 22.5 53t55.5 21t55 -21t22 -53q0 -31 -22.5 -52t-54.5 -21zM43 -200h-74v97h59q71 0 71 83v530h113v-533q0 -88 -45.5 -132.5t-123.5 -44.5z" />
    <glyph glyph-name="uni0237.ss01" horiz-adv-x="279" 
d="M43 -200h-74v97h59q71 0 71 83v530h113v-533q0 -88 -45.5 -132.5t-123.5 -44.5z" />
    <glyph glyph-name="jcircumflex.ss01" horiz-adv-x="279" 
d="M98 578h-113l117 139h106l117 -139h-117l-55 77zM43 -200h-74v97h59q71 0 71 83v530h113v-533q0 -88 -45.5 -132.5t-123.5 -44.5z" />
    <glyph glyph-name="eng.ss01" horiz-adv-x="604" 
d="M374 -200h-83v97h68q70 0 70 83v308q0 133 -111 133q-61 0 -99.5 -42.5t-38.5 -106.5v-272h-113v238q0 181 -5 272h107l11 -84h7q59 94 170 94q88 0 137 -54.5t49 -161.5v-327q0 -88 -45.5 -132.5t-123.5 -44.5z" />
    <glyph glyph-name="uni0272.ss01" horiz-adv-x="646" 
d="M52 -200h-83v97h69q70 0 70 83v258q0 181 -5 272h108l10 -84h8q59 94 170 94q88 0 136.5 -54.5t48.5 -161.5v-304h-113v288q0 66 -29 99.5t-83 33.5q-61 0 -99 -42.5t-38 -106.5v-295q0 -88 -45.5 -132.5t-124.5 -44.5z" />
    <glyph glyph-name="germandbls.ss01" horiz-adv-x="613" 
d="M180 0h-113v490q0 99 62 159.5t179 60.5q107 0 169 -52.5t62 -138.5q0 -56 -26 -95.5t-73 -56.5v-6q131 -36 131 -169q0 -87 -57 -139.5t-158 -52.5h-97v94h83q55 0 85.5 27t30.5 80t-34 82.5t-96 29.5h-59v92h42q58 0 89 28t31 78q0 46 -33 76t-90 30q-60 0 -94 -36
t-34 -92v-489z" />
    <glyph glyph-name="t.ss01" horiz-adv-x="432" 
d="M384 0h-74q-87 0 -135 45t-48 136v237h-99v92h106l22 142h84v-142h144v-92h-144v-233q0 -88 83 -88h61v-97z" />
    <glyph glyph-name="tbar.ss01" horiz-adv-x="432" 
d="M384 510v-92h-144v-117h137v-72h-137v-44q0 -88 83 -88h61v-97h-74q-87 0 -135 45t-48 136v48h-94v72h94v117h-99v92h106l22 142h84v-142h144z" />
    <glyph glyph-name="tcaron.ss01" horiz-adv-x="452" 
d="M366 557h-65l10 193h102zM384 0h-74q-87 0 -135 45t-48 136v237h-99v92h106l22 142h84v-142h144v-92h-144v-233q0 -88 83 -88h61v-97z" />
    <glyph glyph-name="uni0163.ss01" horiz-adv-x="432" 
d="M308 -43h4q45 0 74.5 -24.5t29.5 -67.5q0 -45 -34 -73t-95 -28q-69 0 -119 37l37 58q38 -28 80 -28q23 0 37 10t14 26q0 35 -45 35q-20 0 -40 -7l-16 25l29 84q-137 23 -137 177v237h-99v92h106l22 142h84v-142h144v-92h-144v-233q0 -88 83 -88h61v-97h-62z" />
    <glyph glyph-name="uni021B.ss01" horiz-adv-x="432" 
d="M384 0h-74q-87 0 -135 45t-48 136v237h-99v92h106l22 142h84v-142h144v-92h-144v-233q0 -88 83 -88h61v-97zM283 -194h-87l36 145h114z" />
    <glyph glyph-name="a.ss02" horiz-adv-x="605" 
d="M253 -10q-97 0 -154 72t-57 193t57 193t154 72q111 0 164 -94h8l11 84h102v-238q0 -181 5 -272h-107l-11 84h-8q-53 -94 -164 -94zM290 87q62 0 98.5 45.5t36.5 121.5q0 77 -37 123t-98 46t-98 -46t-37 -123q0 -76 36.5 -121.5t98.5 -45.5z" />
    <glyph glyph-name="aacute.ss02" horiz-adv-x="605" 
d="M340 578h-97l63 139h145zM253 -10q-97 0 -154 72t-57 193t57 193t154 72q111 0 164 -94h8l11 84h102v-238q0 -181 5 -272h-107l-11 84h-8q-53 -94 -164 -94zM290 87q62 0 98.5 45.5t36.5 121.5q0 77 -37 123t-98 46t-98 -46t-37 -123q0 -76 36.5 -121.5t98.5 -45.5z" />
    <glyph glyph-name="abreve.ss02" horiz-adv-x="605" 
d="M290 573q-72 0 -112.5 38.5t-40.5 105.5h87q0 -29 17 -48.5t49 -19.5q31 0 48 19.5t17 48.5h87q0 -67 -40.5 -105.5t-111.5 -38.5zM253 -10q-97 0 -154 72t-57 193t57 193t154 72q111 0 164 -94h8l11 84h102v-238q0 -181 5 -272h-107l-11 84h-8q-53 -94 -164 -94zM290 87
q62 0 98.5 45.5t36.5 121.5q0 77 -37 123t-98 46t-98 -46t-37 -123q0 -76 36.5 -121.5t98.5 -45.5z" />
    <glyph glyph-name="uni01CE.ss02" horiz-adv-x="605" 
d="M342 578h-106l-117 139h118l55 -78l54 78h113zM253 -10q-97 0 -154 72t-57 193t57 193t154 72q111 0 164 -94h8l11 84h102v-238q0 -181 5 -272h-107l-11 84h-8q-53 -94 -164 -94zM290 87q62 0 98.5 45.5t36.5 121.5q0 77 -37 123t-98 46t-98 -46t-37 -123
q0 -76 36.5 -121.5t98.5 -45.5z" />
    <glyph glyph-name="acircumflex.ss02" horiz-adv-x="605" 
d="M232 578h-113l117 139h106l117 -139h-117l-55 77zM253 -10q-97 0 -154 72t-57 193t57 193t154 72q111 0 164 -94h8l11 84h102v-238q0 -181 5 -272h-107l-11 84h-8q-53 -94 -164 -94zM290 87q62 0 98.5 45.5t36.5 121.5q0 77 -37 123t-98 46t-98 -46t-37 -123
q0 -76 36.5 -121.5t98.5 -45.5z" />
    <glyph glyph-name="adieresis.ss02" horiz-adv-x="605" 
d="M194 581q-30 0 -51 19.5t-21 47.5q0 29 21 48.5t51 19.5q29 0 49.5 -19.5t20.5 -48.5q0 -28 -20.5 -47.5t-49.5 -19.5zM387 581q-30 0 -51 19.5t-21 47.5q0 29 21 48.5t51 19.5q29 0 49.5 -19.5t20.5 -48.5q0 -28 -20.5 -47.5t-49.5 -19.5zM253 -10q-97 0 -154 72
t-57 193t57 193t154 72q111 0 164 -94h8l11 84h102v-238q0 -181 5 -272h-107l-11 84h-8q-53 -94 -164 -94zM290 87q62 0 98.5 45.5t36.5 121.5q0 77 -37 123t-98 46t-98 -46t-37 -123q0 -76 36.5 -121.5t98.5 -45.5z" />
    <glyph glyph-name="uni1EA1.ss02" horiz-adv-x="605" 
d="M253 -10q-97 0 -154 72t-57 193t57 193t154 72q111 0 164 -94h8l11 84h102v-238q0 -181 5 -272h-107l-11 84h-8q-53 -94 -164 -94zM290 87q62 0 98.5 45.5t36.5 121.5q0 77 -37 123t-98 46t-98 -46t-37 -123q0 -76 36.5 -121.5t98.5 -45.5zM290 -193q-32 0 -53.5 20.5
t-21.5 50.5q0 31 21.5 51t53.5 20t53 -20t21 -51q0 -30 -21.5 -50.5t-52.5 -20.5z" />
    <glyph glyph-name="agrave.ss02" horiz-adv-x="605" 
d="M337 578h-97l-111 139h145zM253 -10q-97 0 -154 72t-57 193t57 193t154 72q111 0 164 -94h8l11 84h102v-238q0 -181 5 -272h-107l-11 84h-8q-53 -94 -164 -94zM290 87q62 0 98.5 45.5t36.5 121.5q0 77 -37 123t-98 46t-98 -46t-37 -123q0 -76 36.5 -121.5t98.5 -45.5z
" />
    <glyph glyph-name="amacron.ss02" horiz-adv-x="605" 
d="M431 605h-283v90h283v-90zM253 -10q-97 0 -154 72t-57 193t57 193t154 72q111 0 164 -94h8l11 84h102v-238q0 -181 5 -272h-107l-11 84h-8q-53 -94 -164 -94zM290 87q62 0 98.5 45.5t36.5 121.5q0 77 -37 123t-98 46t-98 -46t-37 -123q0 -76 36.5 -121.5t98.5 -45.5z" />
    <glyph glyph-name="aogonek.ss02" horiz-adv-x="605" 
d="M461 -113q0 -39 47 -39q18 0 36 5v-74q-24 -6 -57 -6q-48 0 -78 23.5t-30 71.5q0 74 95 132h-38l-11 84h-8q-53 -94 -164 -94q-97 0 -154 72t-57 193t57 193t154 72q111 0 164 -94h8l11 84h102v-238q0 -181 5 -272h1q-83 -59 -83 -113zM290 87q62 0 98.5 45.5t36.5 121.5
q0 77 -37 123t-98 46t-98 -46t-37 -123q0 -76 36.5 -121.5t98.5 -45.5z" />
    <glyph glyph-name="aring.ss02" horiz-adv-x="605" 
d="M289 561q-50 0 -83.5 29.5t-33.5 75.5t33.5 76t83.5 30q51 0 84.5 -30t33.5 -76t-33.5 -75.5t-84.5 -29.5zM289 621q21 0 33.5 12.5t12.5 32.5t-12.5 32.5t-33.5 12.5q-20 0 -32.5 -12.5t-12.5 -32.5t12.5 -32.5t32.5 -12.5zM253 -10q-97 0 -154 72t-57 193t57 193
t154 72q111 0 164 -94h8l11 84h102v-238q0 -181 5 -272h-107l-11 84h-8q-53 -94 -164 -94zM290 87q62 0 98.5 45.5t36.5 121.5q0 77 -37 123t-98 46t-98 -46t-37 -123q0 -76 36.5 -121.5t98.5 -45.5z" />
    <glyph glyph-name="aringacute.ss02" horiz-adv-x="605" 
d="M289 545q-52 0 -84.5 22t-32.5 61q0 32 21.5 52.5t58.5 27.5l29 74h125l-64 -78q65 -18 65 -76q0 -39 -33 -61t-85 -22zM289 593q22 0 36 10t14 25q0 16 -13.5 25.5t-36.5 9.5q-22 0 -35.5 -9.5t-13.5 -25.5q0 -15 13.5 -25t35.5 -10zM253 -10q-97 0 -154 72t-57 193
t57 193t154 72q111 0 164 -94h8l11 84h102v-238q0 -181 5 -272h-107l-11 84h-8q-53 -94 -164 -94zM290 87q62 0 98.5 45.5t36.5 121.5q0 77 -37 123t-98 46t-98 -46t-37 -123q0 -76 36.5 -121.5t98.5 -45.5z" />
    <glyph glyph-name="atilde.ss02" horiz-adv-x="605" 
d="M203 573h-70v37q0 57 24.5 84.5t59.5 27.5q34 0 75 -31.5t55 -31.5q30 0 30 63h70v-39q0 -58 -23.5 -84t-60.5 -26q-35 0 -75 31.5t-55 31.5q-30 0 -30 -63zM253 -10q-97 0 -154 72t-57 193t57 193t154 72q111 0 164 -94h8l11 84h102v-238q0 -181 5 -272h-107l-11 84h-8
q-53 -94 -164 -94zM290 87q62 0 98.5 45.5t36.5 121.5q0 77 -37 123t-98 46t-98 -46t-37 -123q0 -76 36.5 -121.5t98.5 -45.5z" />
    <glyph glyph-name="u.ss03" horiz-adv-x="599" 
d="M299 -10q-116 0 -176.5 65.5t-60.5 176.5v278h113v-275q0 -69 31.5 -108t92.5 -39q62 0 93.5 39t31.5 108v275h114v-278q0 -111 -61 -176.5t-178 -65.5z" />
    <glyph glyph-name="uacute.ss03" horiz-adv-x="599" 
d="M350 578h-97l63 139h145zM299 -10q-116 0 -176.5 65.5t-60.5 176.5v278h113v-275q0 -69 31.5 -108t92.5 -39q62 0 93.5 39t31.5 108v275h114v-278q0 -111 -61 -176.5t-178 -65.5z" />
    <glyph glyph-name="ubreve.ss03" horiz-adv-x="599" 
d="M301 573q-72 0 -112.5 38.5t-40.5 105.5h87q0 -29 17 -48.5t49 -19.5q31 0 48 19.5t17 48.5h87q0 -67 -40.5 -105.5t-111.5 -38.5zM299 -10q-116 0 -176.5 65.5t-60.5 176.5v278h113v-275q0 -69 31.5 -108t92.5 -39q62 0 93.5 39t31.5 108v275h114v-278
q0 -111 -61 -176.5t-178 -65.5z" />
    <glyph glyph-name="uni01D4.ss03" horiz-adv-x="599" 
d="M353 578h-106l-117 139h118l55 -78l54 78h113zM299 -10q-116 0 -176.5 65.5t-60.5 176.5v278h113v-275q0 -69 31.5 -108t92.5 -39q62 0 93.5 39t31.5 108v275h114v-278q0 -111 -61 -176.5t-178 -65.5z" />
    <glyph glyph-name="ucircumflex.ss03" horiz-adv-x="599" 
d="M243 578h-113l117 139h106l117 -139h-117l-55 77zM299 -10q-116 0 -176.5 65.5t-60.5 176.5v278h113v-275q0 -69 31.5 -108t92.5 -39q62 0 93.5 39t31.5 108v275h114v-278q0 -111 -61 -176.5t-178 -65.5z" />
    <glyph glyph-name="udieresis.ss03" horiz-adv-x="599" 
d="M205 581q-30 0 -51 19.5t-21 47.5q0 29 21 48.5t51 19.5q29 0 49.5 -19.5t20.5 -48.5q0 -28 -20.5 -47.5t-49.5 -19.5zM398 581q-30 0 -51 19.5t-21 47.5q0 29 21 48.5t51 19.5q29 0 49.5 -19.5t20.5 -48.5q0 -28 -20.5 -47.5t-49.5 -19.5zM299 -10q-116 0 -176.5 65.5
t-60.5 176.5v278h113v-275q0 -69 31.5 -108t92.5 -39q62 0 93.5 39t31.5 108v275h114v-278q0 -111 -61 -176.5t-178 -65.5z" />
    <glyph glyph-name="uni1EE5.ss03" horiz-adv-x="599" 
d="M299 -10q-116 0 -176.5 65.5t-60.5 176.5v278h113v-275q0 -69 31.5 -108t92.5 -39q62 0 93.5 39t31.5 108v275h114v-278q0 -111 -61 -176.5t-178 -65.5zM299 -193q-32 0 -53.5 20.5t-21.5 50.5q0 31 21.5 51t53.5 20t53 -20t21 -51q0 -30 -21.5 -50.5t-52.5 -20.5z" />
    <glyph glyph-name="ugrave.ss03" horiz-adv-x="599" 
d="M347 578h-97l-111 139h145zM299 -10q-116 0 -176.5 65.5t-60.5 176.5v278h113v-275q0 -69 31.5 -108t92.5 -39q62 0 93.5 39t31.5 108v275h114v-278q0 -111 -61 -176.5t-178 -65.5z" />
    <glyph glyph-name="uhungarumlaut.ss03" horiz-adv-x="599" 
d="M260 578h-89l63 139h131zM427 578h-89l63 139h131zM299 -10q-116 0 -176.5 65.5t-60.5 176.5v278h113v-275q0 -69 31.5 -108t92.5 -39q62 0 93.5 39t31.5 108v275h114v-278q0 -111 -61 -176.5t-178 -65.5z" />
    <glyph glyph-name="umacron.ss03" horiz-adv-x="599" 
d="M441 605h-283v90h283v-90zM299 -10q-116 0 -176.5 65.5t-60.5 176.5v278h113v-275q0 -69 31.5 -108t92.5 -39q62 0 93.5 39t31.5 108v275h114v-278q0 -111 -61 -176.5t-178 -65.5z" />
    <glyph glyph-name="uogonek.ss03" horiz-adv-x="599" 
d="M424 235v275h114v-278q0 -89 -39.5 -150t-116.5 -82h2q-83 -59 -83 -113q0 -39 47 -39q18 0 36 5v-74q-24 -6 -57 -6q-48 0 -78 23.5t-30 71.5q0 68 79 122q-115 0 -175.5 65.5t-60.5 176.5v278h113v-275q0 -69 31.5 -108t92.5 -39q62 0 93.5 39t31.5 108z" />
    <glyph glyph-name="uring.ss03" horiz-adv-x="599" 
d="M300 561q-50 0 -83.5 29.5t-33.5 75.5t33.5 76t83.5 30q51 0 84.5 -30t33.5 -76t-33.5 -75.5t-84.5 -29.5zM300 621q21 0 33.5 12.5t12.5 32.5t-12.5 32.5t-33.5 12.5q-20 0 -32.5 -12.5t-12.5 -32.5t12.5 -32.5t32.5 -12.5zM299 -10q-116 0 -176.5 65.5t-60.5 176.5v278
h113v-275q0 -69 31.5 -108t92.5 -39q62 0 93.5 39t31.5 108v275h114v-278q0 -111 -61 -176.5t-178 -65.5z" />
    <glyph glyph-name="utilde.ss03" horiz-adv-x="599" 
d="M213 573h-70v37q0 57 24.5 84.5t59.5 27.5q34 0 75 -31.5t55 -31.5q30 0 30 63h70v-39q0 -58 -23.5 -84t-60.5 -26q-35 0 -75 31.5t-55 31.5q-30 0 -30 -63zM299 -10q-116 0 -176.5 65.5t-60.5 176.5v278h113v-275q0 -69 31.5 -108t92.5 -39q62 0 93.5 39t31.5 108v275
h114v-278q0 -111 -61 -176.5t-178 -65.5z" />
    <glyph glyph-name="l.ss04" horiz-adv-x="326" 
d="M293 0h-59q-77 0 -122 43.5t-45 127.5v529h113v-528q0 -74 66 -74h47v-98z" />
    <glyph glyph-name="lacute.ss04" horiz-adv-x="326" 
d="M173 768h-97l63 139h145zM293 0h-59q-77 0 -122 43.5t-45 127.5v529h113v-528q0 -74 66 -74h47v-98z" />
    <glyph glyph-name="lcaron.ss04" horiz-adv-x="337" 
d="M293 0h-59q-77 0 -122 43.5t-45 127.5v529h113v-528q0 -74 66 -74h47v-98zM298 507h-65l10 193h102z" />
    <glyph glyph-name="uni013C.ss04" horiz-adv-x="326" 
d="M293 0h-59q-77 0 -122 43.5t-45 127.5v529h113v-528q0 -74 66 -74h47v-98zM197 -194h-87l36 145h114z" />
    <glyph glyph-name="ldot.ss04" horiz-adv-x="371" 
d="M293 0h-59q-77 0 -122 43.5t-45 127.5v529h113v-528q0 -74 66 -74h47v-98zM309 275q-31 0 -53.5 20.5t-22.5 52.5q0 31 22.5 52t53.5 21q32 0 54 -21t22 -52q0 -32 -22 -52.5t-54 -20.5z" />
    <glyph glyph-name="lslash.ss04" horiz-adv-x="386" 
d="M342 0h-60q-76 0 -121 42.5t-45 126.5v85l-93 -49v91l93 49v355h113v-295l113 61v-91l-113 -60v-143q0 -74 66 -74h47v-98z" />
    <glyph glyph-name="j_j.dlig" horiz-adv-x="561" 
d="M167 576q-32 0 -54.5 21t-22.5 52q0 32 22 53t55 21t55.5 -21t22.5 -53q0 -31 -22.5 -52t-55.5 -21zM438 576q-33 0 -55.5 21t-22.5 52q0 32 22.5 53t55.5 21t55 -21t22 -53q0 -31 -22.5 -52t-54.5 -21zM70 -210q-70 0 -117 31l32 81q28 -18 64 -18q62 0 62 70v556h113
v-562q0 -77 -41 -117.5t-113 -40.5zM351 -210q-64 0 -105 31l32 81q23 -18 52 -18q51 0 51 68v558h113v-563q0 -76 -38 -116.5t-105 -40.5z" />
    <glyph glyph-name="t_t.dlig" horiz-adv-x="820" 
d="M127 418h-99v92h106l22 142h84v-142h281l22 142h84v-142h142v-92h-142v-266q0 -34 17 -51.5t45 -17.5q35 0 66 19l32 -78q-54 -34 -120 -34q-70 0 -111.5 40t-41.5 117v271h-274v-266q0 -34 17 -51.5t45 -17.5q35 0 66 19l31 -78q-53 -34 -119 -34q-70 0 -111.5 40
t-41.5 117v271z" />
    <glyph glyph-name="t_t.dlig.ss01" horiz-adv-x="819" 
d="M384 0h-74q-87 0 -135 45t-48 136v237h-99v92h106l22 142h84v-142h281l22 142h84v-142h145v-92h-145v-233q0 -88 83 -88h62v-97h-75q-87 0 -135 45t-48 136v237h-274v-233q0 -88 83 -88h61v-97z" />
    <glyph glyph-name="f_f.ss01" horiz-adv-x="777" 
d="M240 0h-113v413h-99v91h99v26q0 84 46.5 127t128.5 43h105v-93h-92q-75 0 -75 -79v-24h252v26q0 84 46.5 127t128.5 43h86v-93h-73q-75 0 -75 -79v-24h140v-91h-140v-413h-113v413h-252v-413z" />
    <glyph glyph-name="f_f_i.ss01" horiz-adv-x="1037" 
d="M913 576q-32 0 -54.5 21t-22.5 52q0 32 22 53t55 21t55.5 -21t22.5 -53q0 -31 -22.5 -52t-55.5 -21zM240 0h-113v413h-99v91h99v26q0 84 46.5 127t128.5 43h105v-93h-92q-75 0 -75 -79v-24h252v26q0 84 46.5 127t128.5 43h86v-93h-73q-75 0 -75 -79v-24h365v-504h-113
v413h-252v-413h-113v413h-252v-413z" />
    <glyph glyph-name="f_i.ss01" horiz-adv-x="672" 
d="M548 576q-32 0 -54.5 21t-22.5 52q0 32 22 53t55 21t55.5 -21t22.5 -53q0 -31 -22.5 -52t-55.5 -21zM240 0h-113v413h-99v91h99v26q0 84 46.5 127t128.5 43h86v-93h-73q-75 0 -75 -79v-24h365v-504h-113v413h-252v-413z" />
    <glyph glyph-name="fi.ss01" horiz-adv-x="672" 
d="M548 576q-32 0 -54.5 21t-22.5 52q0 32 22 53t55 21t55.5 -21t22.5 -53q0 -31 -22.5 -52t-55.5 -21zM240 0h-113v413h-99v91h99v26q0 84 46.5 127t128.5 43h86v-93h-73q-75 0 -75 -79v-24h365v-504h-113v413h-252v-413z" />
    <glyph glyph-name="fl.ss01" horiz-adv-x="738" 
d="M240 0h-113v413h-99v91h99v26q0 84 46.5 127t128.5 43h86v-93h-73q-75 0 -75 -79v-24h141v-91h-141v-413zM705 0h-59q-77 0 -122 43.5t-45 127.5v529h113v-528q0 -74 66 -74h47v-98z" />
    <glyph glyph-name="zero.lf" horiz-adv-x="686" 
d="M343 -10q-133 0 -214.5 99t-81.5 261t81.5 261t214.5 99t214.5 -99t81.5 -261t-81.5 -261t-214.5 -99zM343 93q84 0 133 68t49 189t-49 189t-133 68q-83 0 -132.5 -68t-49.5 -189t49.5 -189t132.5 -68z" />
    <glyph glyph-name="one.lf" horiz-adv-x="384" 
d="M305 0h-114v565h-7l-151 -88v120l186 103h86v-700z" />
    <glyph glyph-name="two.lf" horiz-adv-x="586" 
d="M539 0h-490v94l206 180q49 43 71.5 65t48.5 52t35.5 55.5t9.5 55.5q0 52 -37 82t-92 30q-52 0 -93 -29t-61 -82l-105 31q24 83 93.5 129.5t165.5 46.5q107 0 175 -56t68 -152q0 -76 -46.5 -139t-158.5 -158l-108 -94v-6h318v-105z" />
    <glyph glyph-name="three.lf" horiz-adv-x="589" 
d="M519 606l-186 -186q98 -5 156 -63t58 -150q0 -99 -67.5 -158t-183.5 -59q-101 0 -172.5 45.5t-95.5 125.5l108 32q17 -50 59.5 -78t99.5 -28q63 0 100 33.5t37 89.5q0 58 -38 90.5t-105 32.5h-105v72l186 189v6h-317v100h466v-94z" />
    <glyph glyph-name="four.lf" horiz-adv-x="607" 
d="M488 0h-115v137h-340v113l329 450h126v-460h96v-103h-96v-137zM373 552l-227 -312h227v312z" />
    <glyph glyph-name="five.lf" horiz-adv-x="608" 
d="M308 -10q-100 0 -173 43.5t-97 121.5l109 31q19 -47 62.5 -72t99.5 -25q65 0 106 37.5t41 98.5q0 62 -40 99t-103 37q-84 0 -149 -58l-97 17l25 380h417v-100h-318l-13 -186h7q64 42 145 42q107 0 173.5 -63t66.5 -168t-71.5 -170t-190.5 -65z" />
    <glyph glyph-name="six.lf" horiz-adv-x="599" 
d="M311 471q111 0 183.5 -66t72.5 -171q0 -108 -75 -176t-193 -68q-117 0 -191.5 68t-74.5 176q0 54 19 99.5t62 105.5l188 261h139v-8l-168 -223q24 2 38 2zM299 89q66 0 109.5 40.5t43.5 104.5t-43.5 104.5t-109.5 40.5t-109 -40.5t-43 -104.5t42.5 -104.5t109.5 -40.5z
" />
    <glyph glyph-name="seven.lf" horiz-adv-x="546" 
d="M229 0h-130l280 587v6h-346v107h480v-101z" />
    <glyph glyph-name="eight.lf" horiz-adv-x="603" 
d="M302 -10q-112 0 -185.5 56.5t-73.5 147.5q0 58 32.5 104t87.5 68q-100 52 -100 153q0 85 66 138t173 53t173 -53t66 -138q0 -50 -27 -89.5t-74 -63.5q55 -22 88 -68.5t33 -103.5q0 -91 -73.5 -147.5t-185.5 -56.5zM302 408q54 0 89.5 28t35.5 74q0 47 -35.5 75t-89.5 28
q-55 0 -90 -28t-35 -75q0 -46 35 -74t90 -28zM302 87q64 0 104 31t40 85q0 53 -40 84.5t-104 31.5t-104.5 -31.5t-40.5 -84.5q0 -54 40.5 -85t104.5 -31z" />
    <glyph glyph-name="nine.lf" horiz-adv-x="599" 
d="M300 710q117 0 192 -68t75 -176q0 -54 -19 -99t-63 -106l-187 -261h-139v8l168 223q-24 -2 -39 -2q-110 0 -182.5 66t-72.5 171q0 108 75 176t192 68zM300 321q67 0 109.5 40.5t42.5 104.5t-42.5 104.5t-109.5 40.5q-66 0 -109.5 -40.5t-43.5 -104.5t43.5 -104.5
t109.5 -40.5z" />
    <glyph glyph-name="zero.tf" horiz-adv-x="622" 
d="M311 -10q-125 0 -199.5 98.5t-74.5 261.5t74.5 261.5t199.5 98.5t200 -99t75 -261q0 -163 -75 -261.5t-200 -98.5zM311 92q76 0 118 67.5t42 190.5t-42 190.5t-118 67.5t-118 -67.5t-42 -190.5t42 -190.5t118 -67.5z" />
    <glyph glyph-name="one.tf" horiz-adv-x="622" 
d="M534 0h-446v100h167v465h-6l-161 -93v120l196 108h85v-600h165v-100z" />
    <glyph glyph-name="two.tf" horiz-adv-x="622" 
d="M555 0h-477v94l199 180q47 44 69 65.5t47.5 52t34.5 56t9 54.5q0 52 -35.5 82t-87.5 30q-108 0 -147 -109l-105 31q25 83 91 128.5t161 45.5q104 0 170.5 -56t66.5 -152q0 -76 -45 -138.5t-153 -158.5l-103 -94v-6h305v-105z" />
    <glyph glyph-name="three.tf" horiz-adv-x="622" 
d="M527 606l-174 -187q91 -5 146 -63t55 -149q0 -99 -65 -158t-176 -59q-96 0 -164 45.5t-90 125.5l107 32q16 -50 55 -78t92 -28q57 0 91.5 33.5t34.5 89.5q0 57 -36 90t-97 33h-99v72l174 189v6h-297v100h443v-94z" />
    <glyph glyph-name="four.tf" horiz-adv-x="622" 
d="M483 0h-115v137h-320v113l310 450h125v-460h91v-103h-91v-137zM368 552l-212 -312h212v312z" />
    <glyph glyph-name="five.tf" horiz-adv-x="622" 
d="M320 -10q-98 0 -168.5 43.5t-94.5 121.5l109 31q17 -47 59 -72t96 -25q62 0 100.5 37.5t38.5 98.5q0 62 -37.5 99t-98.5 37q-79 0 -143 -58l-96 17l26 380h404v-100h-307l-13 -186h7q62 42 140 42q103 0 167.5 -63t64.5 -168t-69.5 -170t-184.5 -65z" />
    <glyph glyph-name="six.tf" horiz-adv-x="622" 
d="M329 471q103 0 172 -66t69 -171q0 -108 -71.5 -176t-182.5 -68t-183 68t-72 176q0 55 18 100.5t59 104.5l178 261h137v-8l-160 -223q24 2 36 2zM316 89q61 0 100.5 40.5t39.5 104.5t-39.5 104.5t-100.5 40.5t-100.5 -40.5t-39.5 -104.5t39.5 -104.5t100.5 -40.5z" />
    <glyph glyph-name="seven.tf" horiz-adv-x="622" 
d="M265 0h-130l280 587v6h-347v107h481v-101z" />
    <glyph glyph-name="eight.tf" horiz-adv-x="622" 
d="M311 -10q-112 0 -185.5 56.5t-73.5 147.5q0 58 32.5 104t88.5 68q-47 24 -74 63.5t-27 89.5q0 85 66 138t173 53t173 -53t66 -138q0 -50 -27 -89.5t-74 -63.5q56 -22 88.5 -68t32.5 -104q0 -91 -73.5 -147.5t-185.5 -56.5zM311 408q54 0 89.5 28t35.5 74q0 47 -35.5 75
t-89.5 28t-89.5 -28t-35.5 -75q0 -46 35.5 -74t89.5 -28zM311 87q65 0 105 31t40 85q0 53 -40 84.5t-105 31.5q-64 0 -104 -31.5t-40 -84.5q0 -54 40 -85t104 -31z" />
    <glyph glyph-name="nine.tf" horiz-adv-x="622" 
d="M307 710q111 0 182.5 -68t71.5 -176q0 -55 -18 -100.5t-59 -104.5l-178 -261h-137v8l160 223q-22 -2 -35 -2q-104 0 -173 66t-69 171q0 108 71.5 176t183.5 68zM307 321q60 0 100 41t40 104q0 64 -39.5 104.5t-100.5 40.5t-100.5 -40.5t-39.5 -104.5t39.5 -104.5
t100.5 -40.5z" />
    <glyph glyph-name="zero.dnom" horiz-adv-x="372" 
d="M186 -5q-73 0 -115 49.5t-42 130.5t42 130.5t115 49.5t115 -49.5t42 -130.5t-42 -130.5t-115 -49.5zM186 66q36 0 56.5 29t20.5 80t-20.5 80t-56.5 29t-56.5 -28.5t-20.5 -80.5t20.5 -80.5t56.5 -28.5z" />
    <glyph glyph-name="one.dnom" horiz-adv-x="229" 
d="M181 0h-80v260h-4l-73 -40v79l95 51h62v-350z" />
    <glyph glyph-name="two.dnom" horiz-adv-x="319" 
d="M291 0h-258v62l103 86q39 32 57 54.5t18 46.5q0 20 -14.5 31.5t-35.5 11.5q-45 0 -62 -45l-76 18q11 42 47 66t90 24q59 0 95 -28t36 -78q0 -38 -23 -69.5t-77 -74.5l-38 -32v-4h138v-69z" />
    <glyph glyph-name="three.dnom" horiz-adv-x="331" 
d="M286 286l-84 -77q46 -5 73 -32.5t27 -70.5q0 -51 -36 -81t-100 -30q-56 0 -94 23.5t-48 67.5l78 18q13 -45 64 -45q25 0 40.5 13.5t15.5 35.5t-16 35t-43 13h-55v46l80 75v4h-149v69h247v-64z" />
    <glyph glyph-name="four.dnom" horiz-adv-x="334" 
d="M265 0h-80v62h-166v72l159 216h87v-221h45v-67h-45v-62zM185 253l-91 -124h91v124z" />
    <glyph glyph-name="five.dnom" horiz-adv-x="331" 
d="M168 -5q-54 0 -94 23t-50 65l79 18q16 -42 65 -42q27 0 43 14.5t16 39.5q0 24 -16 38.5t-41 14.5q-36 0 -60 -22l-70 12l13 194h222v-68h-153l-5 -70h6q27 16 65 16q54 0 86.5 -30.5t32.5 -84.5q0 -55 -37.5 -86.5t-101.5 -31.5z" />
    <glyph glyph-name="six.dnom" horiz-adv-x="335" 
d="M181 243q57 0 93.5 -34t36.5 -88q0 -56 -40 -91t-104 -35q-63 0 -103 35t-40 91q0 49 44 109l87 120h99v-4l-79 -103h6zM168 62q28 0 45.5 16.5t17.5 42.5t-17.5 43t-45.5 17t-46 -17t-18 -43t18 -42.5t46 -16.5z" />
    <glyph glyph-name="seven.dnom" horiz-adv-x="303" 
d="M146 0h-92l133 271v4h-163v75h255v-71z" />
    <glyph glyph-name="eight.dnom" horiz-adv-x="333" 
d="M166 -5q-60 0 -99 28.5t-39 75.5q0 28 15.5 50.5t41.5 33.5q-47 25 -47 75q0 44 35.5 70.5t92.5 26.5t93 -26.5t36 -70.5q0 -50 -47 -75q26 -11 41.5 -33.5t15.5 -50.5q0 -47 -39 -75.5t-100 -28.5zM166 209q22 0 36 11.5t14 30.5q0 18 -14.5 29.5t-35.5 11.5t-35 -11.5
t-14 -29.5q0 -19 14 -30.5t35 -11.5zM166 58q26 0 42.5 12.5t16.5 35.5q0 21 -17 34t-42 13t-41 -13t-16 -34q0 -23 16 -35.5t41 -12.5z" />
    <glyph glyph-name="nine.dnom" horiz-adv-x="335" 
d="M168 355q62 0 102.5 -35.5t40.5 -90.5q0 -49 -44 -109l-87 -120h-99v4l79 103h-6q-57 0 -93.5 34t-36.5 88q0 56 40 91t104 35zM167 169q28 0 46 17t18 43t-18 42.5t-46 16.5t-45.5 -16.5t-17.5 -42.5t17.5 -43t45.5 -17z" />
    <glyph glyph-name="zero.numr" horiz-adv-x="372" 
d="M186 345q-73 0 -115 49.5t-42 130.5t42 130.5t115 49.5t115 -49.5t42 -130.5t-42 -130.5t-115 -49.5zM186 416q36 0 56.5 29t20.5 80t-20.5 80t-56.5 29t-56.5 -28.5t-20.5 -80.5t20.5 -80.5t56.5 -28.5z" />
    <glyph glyph-name="one.numr" horiz-adv-x="229" 
d="M181 350h-80v260h-4l-73 -40v79l95 51h62v-350z" />
    <glyph glyph-name="two.numr" horiz-adv-x="319" 
d="M291 350h-258v62l103 86q39 32 57 54.5t18 46.5q0 20 -14.5 31.5t-35.5 11.5q-45 0 -62 -45l-76 18q11 42 47 66t90 24q59 0 95 -28t36 -78q0 -38 -23 -69.5t-77 -74.5l-38 -32v-4h138v-69z" />
    <glyph glyph-name="three.numr" horiz-adv-x="331" 
d="M286 636l-84 -77q46 -5 73 -32.5t27 -70.5q0 -51 -36 -81t-100 -30q-56 0 -94 23.5t-48 67.5l78 18q13 -45 64 -45q25 0 40.5 13.5t15.5 35.5t-16 35t-43 13h-55v46l80 75v4h-149v69h247v-64z" />
    <glyph glyph-name="four.numr" horiz-adv-x="334" 
d="M265 350h-80v62h-166v72l159 216h87v-221h45v-67h-45v-62zM185 603l-91 -124h91v124z" />
    <glyph glyph-name="five.numr" horiz-adv-x="331" 
d="M168 345q-54 0 -94 23t-50 65l79 18q16 -42 65 -42q27 0 43 14.5t16 39.5q0 24 -16 38.5t-41 14.5q-36 0 -60 -22l-70 12l13 194h222v-68h-153l-5 -70h6q27 16 65 16q54 0 86.5 -30.5t32.5 -84.5q0 -55 -37.5 -86.5t-101.5 -31.5z" />
    <glyph glyph-name="six.numr" horiz-adv-x="335" 
d="M181 593q57 0 93.5 -34t36.5 -88q0 -56 -40 -91t-104 -35q-63 0 -103 35t-40 91q0 49 44 109l87 120h99v-4l-79 -103h6zM168 412q28 0 45.5 16.5t17.5 42.5t-17.5 43t-45.5 17t-46 -17t-18 -43t18 -42.5t46 -16.5z" />
    <glyph glyph-name="seven.numr" horiz-adv-x="303" 
d="M146 350h-92l133 271v4h-163v75h255v-71z" />
    <glyph glyph-name="eight.numr" horiz-adv-x="333" 
d="M166 345q-60 0 -99 28.5t-39 75.5q0 28 15.5 50.5t41.5 33.5q-47 25 -47 75q0 44 35.5 70.5t92.5 26.5t93 -26.5t36 -70.5q0 -50 -47 -75q26 -11 41.5 -33.5t15.5 -50.5q0 -47 -39 -75.5t-100 -28.5zM166 559q22 0 36 11.5t14 30.5q0 18 -14.5 29.5t-35.5 11.5t-35 -11.5
t-14 -29.5q0 -19 14 -30.5t35 -11.5zM166 408q26 0 42.5 12.5t16.5 35.5q0 21 -17 34t-42 13t-41 -13t-16 -34q0 -23 16 -35.5t41 -12.5z" />
    <glyph glyph-name="nine.numr" horiz-adv-x="335" 
d="M168 705q62 0 102.5 -35.5t40.5 -90.5q0 -49 -44 -109l-87 -120h-99v4l79 103h-6q-57 0 -93.5 34t-36.5 88q0 56 40 91t104 35zM167 519q28 0 46 17t18 43t-18 42.5t-46 16.5t-45.5 -16.5t-17.5 -42.5t17.5 -43t45.5 -17z" />
    <glyph glyph-name="exclamdown.case" horiz-adv-x="295" 
d="M148 710q32 0 54 -20.5t22 -52.5q0 -31 -22 -52t-54 -21q-31 0 -53.5 21t-22.5 52q0 32 22.5 52.5t53.5 20.5zM86 0l13 484h98l13 -484h-124z" />
    <glyph glyph-name="questiondown.case" horiz-adv-x="560" 
d="M275 710q32 0 54.5 -20.5t22.5 -52.5q0 -31 -22.5 -52t-54.5 -21q-31 0 -53 21t-22 52q0 32 22 52.5t53 20.5zM224 484h102v-10q0 -44 -17.5 -79.5t-43 -60t-50.5 -46.5t-42.5 -49t-17.5 -58q0 -46 35 -72.5t89 -26.5q117 0 154 113l103 -31q-22 -83 -90 -128.5
t-166 -45.5q-107 0 -173 50.5t-66 136.5q0 45 19 81.5t45.5 60.5t53.5 46.5t46 49.5t19 59v10z" />
    <glyph glyph-name="periodcentered.case" horiz-adv-x="227" 
d="M114 277q-32 0 -54 20.5t-22 52.5t22 52.5t54 20.5t53.5 -20.5t21.5 -52.5t-21.5 -52.5t-53.5 -20.5z" />
    <glyph glyph-name="bullet.case" horiz-adv-x="261" 
d="M131 261q-39 0 -66 25t-27 64t27 64t66 25t65.5 -25t26.5 -64t-26.5 -64t-65.5 -25z" />
    <glyph glyph-name="period.tf" horiz-adv-x="622" 
d="M312 -10q-32 0 -54 20.5t-22 52.5q0 31 22 52t54 21t53.5 -21t21.5 -52q0 -32 -21.5 -52.5t-53.5 -20.5z" />
    <glyph glyph-name="comma.tf" horiz-adv-x="622" 
d="M406 91l-111 -227l-79 25l75 240z" />
    <glyph glyph-name="colon.tf" horiz-adv-x="622" 
d="M312 374q-32 0 -54 21t-22 52q0 32 22 52.5t54 20.5t53.5 -20.5t21.5 -52.5q0 -31 -21.5 -52t-53.5 -21zM312 -10q-32 0 -54 20.5t-22 52.5q0 31 22 52t54 21t53.5 -21t21.5 -52q0 -32 -21.5 -52.5t-53.5 -20.5z" />
    <glyph glyph-name="semicolon.tf" horiz-adv-x="622" 
d="M324 374q-31 0 -53.5 21t-22.5 52q0 32 22.5 52.5t53.5 20.5q32 0 54 -20.5t22 -52.5q0 -31 -22 -52t-54 -21zM406 91l-111 -227l-79 25l75 240z" />
    <glyph glyph-name="parenleft.case" horiz-adv-x="314" 
d="M288 -80l-69 -38q-187 195 -187 468q0 274 187 468l69 -38q-148 -194 -148 -430t148 -430z" />
    <glyph glyph-name="parenright.case" horiz-adv-x="314" 
d="M96 -118l-69 38q147 194 147 430t-147 430l69 38q187 -196 187 -468q0 -273 -187 -468z" />
    <glyph glyph-name="braceleft.case" horiz-adv-x="357" 
d="M320 -109h-49q-80 0 -119 42.5t-39 115.5v177q0 76 -67 76h-27v96h27q67 0 67 76v177q0 73 39 115.5t119 42.5h49v-91h-30q-69 0 -69 -77v-178q0 -90 -58 -110v-6q58 -20 58 -110v-178q0 -77 69 -77h30v-91z" />
    <glyph glyph-name="braceright.case" horiz-adv-x="357" 
d="M86 -109h-49v91h29q70 0 70 77v178q0 90 58 110v6q-58 20 -58 110v178q0 77 -70 77h-29v91h49q80 0 119 -42.5t39 -115.5v-177q0 -76 66 -76h28v-96h-28q-66 0 -66 -76v-177q0 -73 -39 -115.5t-119 -42.5z" />
    <glyph glyph-name="bracketleft.case" horiz-adv-x="323" 
d="M287 -109h-211v918h211v-91h-103v-736h103v-91z" />
    <glyph glyph-name="bracketright.case" horiz-adv-x="323" 
d="M248 809v-918h-211v91h102v736h-102v91h211z" />
    <glyph glyph-name="hyphen.case" horiz-adv-x="409" 
d="M372 303h-335v94h335v-94z" />
    <glyph glyph-name="endash.case" horiz-adv-x="510" 
d="M473 303h-436v94h436v-94z" />
    <glyph glyph-name="emdash.case" horiz-adv-x="732" 
d="M696 303h-659v94h659v-94z" />
    <glyph glyph-name="guillemotleft.case" horiz-adv-x="557" 
d="M307 178h-128l-158 172l158 172h128l-161 -172zM524 178h-127l-158 172l158 172h127l-161 -172z" />
    <glyph glyph-name="guillemotright.case" horiz-adv-x="557" 
d="M319 350l-158 -172h-128l161 172l-161 172h128zM536 350l-158 -172h-128l161 172l-161 172h128z" />
    <glyph glyph-name="guilsinglleft.case" horiz-adv-x="340" 
d="M307 178h-128l-158 172l158 172h128l-161 -172z" />
    <glyph glyph-name="guilsinglright.case" horiz-adv-x="340" 
d="M319 350l-158 -172h-128l161 172l-161 172h128z" />
    <glyph glyph-name="cent.tf" horiz-adv-x="622" 
d="M377 -106h-112v102q-91 18 -142 88.5t-51 170.5t51 170.5t142 88.5v102h112v-101q131 -24 170 -155l-108 -33q-32 97 -116 97q-62 0 -100 -46.5t-38 -122.5t38 -122.5t100 -46.5q85 0 120 97l108 -33q-41 -130 -174 -155v-101z" />
    <glyph glyph-name="currency.tf" horiz-adv-x="622" 
d="M191 168l-60 -61l-62 62l60 61q-35 54 -35 120t35 120l-60 61l62 62l60 -61q53 34 120 34t120 -34l61 61l61 -63l-60 -60q34 -53 34 -120q0 -68 -35 -120l61 -60l-61 -63l-61 61q-53 -34 -120 -34t-120 34zM311 222q55 0 90.5 36.5t35.5 91.5q0 56 -35.5 92t-90.5 36
t-91 -36.5t-36 -91.5t36 -91.5t91 -36.5z" />
    <glyph glyph-name="dollar.tf" horiz-adv-x="622" 
d="M576 183q0 -78 -54.5 -129.5t-150.5 -61.5v-98h-112v101q-77 12 -133.5 54t-80.5 112l105 31q21 -55 68.5 -82.5t105.5 -27.5q67 0 102.5 28t35.5 74q0 38 -30 63t-74.5 36.5t-96.5 28.5t-96.5 37.5t-74.5 65.5t-30 109q0 74 53 123.5t146 59.5v99h112v-101
q146 -26 190 -156l-106 -31q-18 51 -58 75.5t-92 24.5q-61 0 -95.5 -26.5t-34.5 -67.5q0 -44 41.5 -70t100 -41t117.5 -35.5t100.5 -69t41.5 -125.5z" />
    <glyph glyph-name="Euro.tf" horiz-adv-x="622" 
d="M352 -10q-86 0 -147 68t-81 183h-68v68h60q-1 14 -1 41t1 41h-60v68h68q20 115 81 183t147 68q79 0 133.5 -52t77.5 -157l-92 -32q-33 149 -119 149q-48 0 -82 -41.5t-48 -117.5h130v-68h-139v-41v-41h139v-68h-130q14 -76 48 -117.5t82 -41.5q87 0 122 149l93 -32
q-48 -209 -215 -209z" />
    <glyph glyph-name="florin.tf" horiz-adv-x="622" 
d="M149 -200h-67v95h48q30 0 50 18.5t25 49.5l64 408h-101v79h114l16 99q23 151 172 151h70v-95h-54q-30 0 -50 -18.5t-25 -49.5l-14 -87h123v-79h-135l-66 -420q-23 -151 -170 -151z" />
    <glyph glyph-name="sterling.tf" horiz-adv-x="622" 
d="M511 129l65 -64q-37 -41 -67 -58t-73 -17q-35 0 -91.5 17.5t-92.5 17.5q-59 0 -157 -40l-49 80q62 52 86 99.5t24 105.5q0 4 -0.5 11.5t-0.5 10.5h-108v79h82q-15 32 -21 45t-13.5 41.5t-7.5 55.5q0 90 63.5 143.5t170.5 53.5q190 0 242 -156l-102 -30q-36 94 -138 94
q-56 0 -88.5 -30t-32.5 -77q0 -19 5 -39.5t9.5 -32t16.5 -36.5t15 -32h168v-79h-146q1 -6 1 -17q0 -86 -81 -168l3 -7q56 24 93 24q30 0 77 -17.5t68 -17.5q44 0 80 40z" />
    <glyph glyph-name="yen.tf" horiz-adv-x="622" 
d="M367 0h-110v106h-157v76h157v71h-157v76h125l-192 371h126l151 -323h6l149 323h124l-191 -371h125v-76h-156v-71h156v-76h-156v-106z" />
    <glyph glyph-name="plus.case" 
d="M302 130h-97v170h-171v101h171v170h97v-170h170v-101h-170v-170z" />
    <glyph glyph-name="minus.case" 
d="M472 300h-438v101h438v-101z" />
    <glyph glyph-name="multiply.case" 
d="M253 284l-155 -158l-67 67l156 158l-156 156l67 66l155 -156l155 157l68 -67l-156 -156l155 -158l-67 -67z" />
    <glyph glyph-name="divide.case" 
d="M253 456q-29 0 -50 20t-21 49q0 28 21 48t50 20q30 0 51 -20t21 -48q0 -29 -21 -49t-51 -20zM472 302h-438v97h438v-97zM253 107q-29 0 -50 20t-21 49q0 28 21 48t50 20q30 0 51 -20t21 -48q0 -29 -21 -49t-51 -20z" />
    <glyph glyph-name="equal.case" 
d="M472 406h-438v96h438v-96zM472 198h-438v96h438v-96z" />
    <glyph glyph-name="notequal.case" 
d="M184 73h-88l51 125h-113v96h153l45 112h-198v96h238l51 125h88l-51 -125h112v-96h-152l-45 -112h197v-96h-237z" />
    <glyph glyph-name="greater.case" 
d="M472 300l-438 -166v104l323 112l-323 113v103l438 -166v-100z" />
    <glyph glyph-name="less.case" 
d="M472 238v-104l-438 166v100l438 166v-103l-323 -113z" />
    <glyph glyph-name="greaterequal.case" 
d="M472 371l-438 -151v102l318 100l-318 101v101l438 -151v-102zM472 66h-438v97h438v-97z" />
    <glyph glyph-name="lessequal.case" 
d="M472 322v-102l-438 151v102l438 151v-101l-318 -101zM472 66h-438v97h438v-97z" />
    <glyph glyph-name="plusminus.case" 
d="M301 233h-96v137h-171v99h171v139h96v-139h171v-99h-171v-137zM472 92h-438v100h438v-100z" />
    <glyph glyph-name="approxequal.case" 
d="M125 364h-91v39q0 66 35 99t85 33q32 0 69 -17.5t68 -35.5t48 -18q42 0 42 46v25h91v-39q0 -66 -34 -99t-86 -33q-36 0 -72 17.5t-65 35t-48 17.5q-42 0 -42 -45v-25zM125 165h-91v39q0 66 35 99t85 33q42 0 105 -35t80 -35q42 0 42 45v25h91v-39q0 -66 -34 -99t-86 -33
q-36 0 -72 17.5t-65 35.5t-48 18q-42 0 -42 -46v-25z" />
    <glyph glyph-name="logicalnot.case" 
d="M472 239h-104v123h-334v99h438v-222z" />
    <glyph glyph-name="at.case" horiz-adv-x="895" 
d="M550 -65h-107q-170 0 -283 118.5t-113 291.5t114 291.5t282 118.5q177 0 291 -111.5t114 -277.5q0 -98 -41 -156.5t-112 -58.5q-90 0 -122 76h-6q-46 -76 -141 -76q-74 0 -123 54t-49 140q0 87 49 141t123 54q80 0 125 -58h6l6 51h72v-214q0 -93 60 -93q35 0 53.5 38
t18.5 102q0 135 -91 224.5t-233 89.5q-134 0 -224.5 -97t-90.5 -238q0 -140 89.5 -237.5t225.5 -97.5h107v-75zM445 226q45 0 73.5 32.5t28.5 86.5t-28.5 87t-73.5 33q-46 0 -74.5 -33t-28.5 -87q0 -55 28 -87t75 -32z" />
    <glyph glyph-name="uni030C.alt" horiz-adv-x="0" 
d="M-77 507h-65l10 193h102z" />
    <glyph glyph-name="uni0308.alt" horiz-adv-x="0" 
d="M-258 581q-28 0 -46 19t-18 48q0 30 18 49t46 19q29 0 47 -19t18 -49q0 -29 -18.5 -48t-46.5 -19zM-94 581q-28 0 -46.5 19t-18.5 48q0 30 18 49t47 19q28 0 46 -19t18 -49q0 -29 -18 -48t-46 -19z" />
    <glyph glyph-name="uni0338.alt" horiz-adv-x="0" 
d="M-326 26l-51 -87l-61 30l50 88l11 15l211 368l4 11l69 120l63 -30l-65 -111l-9 -13l-215 -374z" />
    </font>
</defs>
</svg>
