<?xml version="1.0" standalone="no"?>
<!DOCTYPE svg PUBLIC "-//W3C//DTD SVG 1.1//EN" "http://www.w3.org/Graphics/SVG/1.1/DTD/svg11.dtd" >
<svg xmlns="http://www.w3.org/2000/svg" xmlns:xlink="http://www.w3.org/1999/xlink" version="1.1">
<metadata>
Created by FontForge 20190801 at Fri Nov 18 14:26:36 2022
 By www-data
Copyright (c) 2022 by Eugene Tantsurin. All rights reserved.
</metadata>
<defs>
<font id="JUSTSansSemiBold" horiz-adv-x="507" >
  <font-face 
    font-family="JUSTSansSemiBold"
    font-weight="600"
    font-stretch="normal"
    units-per-em="1000"
    panose-1="0 0 7 0 0 0 0 0 0 0"
    ascent="800"
    descent="-200"
    x-height="510"
    cap-height="700"
    bbox="-587 -241 1234 974"
    underline-thickness="67"
    underline-position="-99"
    unicode-range="U+0020-FB02"
  />
<missing-glyph horiz-adv-x="600" 
d="M520 40h-440v620h440v-620zM186 599l107 -190h14l107 190h-228zM146 558v-416l117 208zM338 350l116 -207v414zM293 291l-107 -190h228l-107 190h-14z" />
    <glyph glyph-name="fl" unicode="fl" horiz-adv-x="691" 
d="M259 0h-135v392h-98v107h98v40q0 83 45.5 127t126.5 44q72 0 130 -32l-33 -91q-32 18 -68 18q-30 0 -48 -17.5t-18 -53.5v-35h136v-107h-136v-392zM628 0h-135v700h135v-700z" />
    <glyph glyph-name="f_f" unicode="ff" horiz-adv-x="803" 
d="M259 0h-135v392h-98v107h98v38q0 83 48 128t131 45q72 0 136 -34l-34 -92q-35 21 -74 21q-31 0 -51.5 -18.5t-20.5 -54.5v-33h239v40q0 83 45.5 127t126.5 44q73 0 130 -32l-32 -91q-32 18 -68 18q-30 0 -48.5 -17.5t-18.5 -53.5v-35h137v-107h-137v-392h-135v392h-239
v-392z" />
    <glyph glyph-name="f_f_i" unicode="ffi" horiz-adv-x="1071" 
d="M940 571q-37 0 -62 24t-25 59t25 58.5t62 23.5t62 -23.5t25 -58.5t-25 -59t-62 -24zM259 0h-135v392h-98v107h98v38q0 83 48 128t131 45q72 0 136 -34l-34 -92q-35 21 -74 21q-31 0 -51.5 -18.5t-20.5 -54.5v-33h239v40q0 83 45.5 127t126.5 44q73 0 130 -32l-32 -91
q-32 18 -68 18q-30 0 -48.5 -17.5t-18.5 -53.5v-35h375v-499h-136v392h-239v-392h-135v392h-239v-392z" />
    <glyph glyph-name="f_i" unicode="fi" horiz-adv-x="697" 
d="M566 571q-37 0 -62 24t-25 59t25 58.5t62 23.5t62 -23.5t25 -58.5t-25 -59t-62 -24zM259 0h-135v392h-98v107h98v40q0 83 45.5 127t126.5 44q72 0 130 -32l-33 -91q-32 18 -68 18q-30 0 -48 -17.5t-18 -53.5v-35h374v-499h-135v392h-239v-392z" />
    <glyph glyph-name=".notdef" horiz-adv-x="600" 
d="M520 40h-440v620h440v-620zM186 599l107 -190h14l107 190h-228zM146 558v-416l117 208zM338 350l116 -207v414zM293 291l-107 -190h228l-107 190h-14z" />
    <glyph glyph-name=".null" horiz-adv-x="0" 
 />
    <glyph glyph-name="nonmarkingreturn" horiz-adv-x="333" 
 />
    <glyph glyph-name="space" unicode=" " horiz-adv-x="241" 
 />
    <glyph glyph-name="exclam" unicode="!" horiz-adv-x="305" 
d="M211 227h-117l-15 473h148zM153 -10q-35 0 -59.5 23t-24.5 58q0 34 24.5 56.5t59.5 22.5t59.5 -22.5t24.5 -56.5q0 -35 -24.5 -58t-59.5 -23z" />
    <glyph glyph-name="quotedbl" unicode="&#x22;" horiz-adv-x="331" 
d="M137 472h-105l-9 238h123zM300 472h-106l-9 238h124z" />
    <glyph glyph-name="numbersign" unicode="#" horiz-adv-x="739" 
d="M220 0h-97l47 189h-129l21 85h129l37 152h-129l21 85h129l46 189h97l-47 -189h128l47 189h96l-47 -189h129l-21 -85h-129l-36 -152h129l-22 -85h-129l-46 -189h-96l46 189h-128zM324 426l-37 -152h128l37 152h-128z" />
    <glyph glyph-name="dollar" unicode="$" horiz-adv-x="639" 
d="M390 -107h-133v104q-78 14 -134.5 57t-78.5 112l128 33q19 -52 63 -77t100 -25q61 0 93.5 24.5t32.5 65.5q0 35 -30 58t-74.5 33.5t-96.5 27t-96.5 37t-74.5 66t-30 110.5q0 73 52.5 123.5t145.5 63.5v101h133v-104q150 -26 193 -159l-130 -33q-31 92 -138 92
q-54 0 -85.5 -23.5t-31.5 -60.5q0 -30 22 -50t57.5 -32t78.5 -22.5t86 -26.5t78.5 -38.5t57.5 -64.5t22 -99q0 -79 -55.5 -130.5t-154.5 -62.5v-100z" />
    <glyph glyph-name="percent" unicode="%" horiz-adv-x="856" 
d="M203 348q-80 0 -130 52t-50 129t50 129t130 52q81 0 131 -52t50 -129t-50 -129t-131 -52zM723 656l-520 -666l-70 54l521 666zM203 438q37 0 60 26t23 65t-23 65t-60 26t-60 -26t-23 -65t23 -65t60 -26zM653 -10q-80 0 -130 52t-50 129t50 129t130 52q81 0 131 -52
t50 -129t-50 -129t-131 -52zM653 80q37 0 60 26t23 65t-23 65t-60 26t-60 -26t-23 -65t23 -65t60 -26z" />
    <glyph glyph-name="ampersand" unicode="&#x26;" horiz-adv-x="711" 
d="M642 103h32v-103h-62q-66 0 -114 51l-18 18q-87 -79 -204 -79q-99 0 -156.5 48t-57.5 131q0 65 35 113t96 92q-77 94 -77 175q0 71 49.5 116t136.5 45q83 0 132 -43.5t49 -113.5q0 -55 -34.5 -98t-96.5 -89l124 -130l89 138l93 -60l-97 -147l-8 -12l17 -18
q18 -19 33 -26.5t39 -7.5zM231 546q0 -47 54 -109q83 60 83 114q0 27 -19.5 44.5t-48.5 17.5q-32 0 -50.5 -19t-18.5 -48zM284 95q69 0 123 52l-144 151q-72 -60 -72 -117q0 -39 26 -62.5t67 -23.5z" />
    <glyph glyph-name="quotesingle" unicode="'" horiz-adv-x="169" 
d="M137 472h-105l-9 238h123z" />
    <glyph glyph-name="parenleft" unicode="(" horiz-adv-x="328" 
d="M305 -158l-87 -48q-189 197 -189 471q0 275 189 471l87 -48q-146 -195 -146 -423t146 -423z" />
    <glyph glyph-name="parenright" unicode=")" horiz-adv-x="328" 
d="M110 -206l-86 48q145 194 145 423t-145 423l86 48q190 -197 190 -471q0 -273 -190 -471z" />
    <glyph glyph-name="asterisk" unicode="*" horiz-adv-x="404" 
d="M202 498l-64 -109l-60 44l84 94l-123 28l22 70l115 -50l-11 125h74l-12 -126l117 51l22 -70l-125 -28l84 -94l-59 -44z" />
    <glyph glyph-name="plus" unicode="+" 
d="M310 79h-112v164h-165v115h165v163h112v-163h164v-115h-164v-164z" />
    <glyph glyph-name="comma" unicode="," horiz-adv-x="246" 
d="M215 99l-120 -236l-87 28l77 252z" />
    <glyph glyph-name="hyphen" unicode="-" horiz-adv-x="408" 
d="M374 227h-340v106h340v-106z" />
    <glyph glyph-name="period" unicode="." horiz-adv-x="239" 
d="M120 -10q-35 0 -59.5 23t-24.5 58q0 34 24.5 56.5t59.5 22.5t59 -22.5t24 -56.5q0 -35 -24 -58t-59 -23z" />
    <glyph glyph-name="slash" unicode="/" horiz-adv-x="452" 
d="M137 -200h-137l314 930h138z" />
    <glyph glyph-name="zero" unicode="0" horiz-adv-x="696" 
d="M348 -10q-139 0 -221.5 99t-82.5 261t82.5 261t221.5 99q140 0 222.5 -98.5t82.5 -261.5t-82.5 -261.5t-222.5 -98.5zM348 112q77 0 122 63t45 175t-45 175t-122 63t-122 -63t-45 -175t45 -175t122 -63z" />
    <glyph glyph-name="one" unicode="1" horiz-adv-x="400" 
d="M324 0h-138v545h-7l-148 -85v138l188 102h105v-700z" />
    <glyph glyph-name="two" unicode="2" horiz-adv-x="597" 
d="M553 0h-505v112l205 176q47 41 68.5 61t46.5 48.5t34 52t9 50.5q0 46 -33 73t-82 27q-102 0 -139 -101l-128 33q23 84 94 131t172 47q113 0 183 -56t70 -153q0 -54 -24.5 -101.5t-65 -88t-116.5 -103.5l-90 -77v-7h301v-124z" />
    <glyph glyph-name="three" unicode="3" horiz-adv-x="603" 
d="M533 588l-175 -169q94 -8 149 -64.5t55 -145.5q0 -101 -69.5 -160t-190.5 -59q-106 0 -180 46t-96 129l131 34q15 -45 53.5 -70.5t91.5 -25.5q56 0 89.5 30t33.5 80t-35 79.5t-95 29.5h-108v84l172 168v7h-305v119h479v-112z" />
    <glyph glyph-name="four" unicode="4" horiz-adv-x="619" 
d="M505 0h-138v130h-336v129l324 441h150v-451h93v-119h-93v-130zM367 528l-203 -279h203v279z" />
    <glyph glyph-name="five" unicode="5" horiz-adv-x="620" 
d="M315 -10q-105 0 -180.5 44.5t-98.5 125.5l134 34q16 -43 55 -65t90 -22q59 0 95.5 33t36.5 87q0 55 -36 87.5t-93 32.5q-79 0 -135 -53l-117 21l26 385h430v-119h-312l-12 -163h8q60 39 139 39q106 0 172.5 -62.5t66.5 -167.5q0 -107 -73 -172t-196 -65z" />
    <glyph glyph-name="six" unicode="6" horiz-adv-x="613" 
d="M325 475q111 0 184 -66t73 -172q0 -110 -76.5 -178.5t-199.5 -68.5q-120 0 -197.5 69t-77.5 178q0 57 19.5 103.5t64.5 108.5l182 251h166v-8l-166 -218q9 1 28 1zM306 107q61 0 100 36t39 94q0 59 -39 95t-100 36q-60 0 -99 -36.5t-39 -94.5t39 -94t99 -36z" />
    <glyph glyph-name="seven" unicode="7" horiz-adv-x="557" 
d="M250 0h-156l270 565v7h-333v128h495v-121z" />
    <glyph glyph-name="eight" unicode="8" horiz-adv-x="616" 
d="M308 -10q-116 0 -191.5 57t-75.5 149q0 57 32.5 102.5t86.5 67.5q-46 23 -72.5 63t-26.5 89q0 86 68.5 139t178.5 53t178.5 -53t68.5 -139q0 -49 -27 -89t-73 -63q55 -21 87.5 -67t32.5 -103q0 -92 -75.5 -149t-191.5 -57zM308 415q48 0 79.5 24.5t31.5 66.5t-31.5 67
t-79.5 25t-79.5 -25t-31.5 -67t31.5 -66.5t79.5 -24.5zM308 102q57 0 93.5 28.5t36.5 76.5t-36.5 76t-93.5 28q-56 0 -93 -28t-37 -76t37 -76.5t93 -28.5z" />
    <glyph glyph-name="nine" unicode="9" horiz-adv-x="613" 
d="M307 710q120 0 197.5 -69t77.5 -178q0 -57 -19.5 -103.5t-64.5 -108.5l-182 -251h-166v8l166 218q-9 -1 -28 -1q-111 0 -184 66t-73 172q0 110 76.5 178.5t199.5 68.5zM307 332q60 0 99 36.5t39 94.5t-38.5 94t-99.5 36q-60 0 -99.5 -36t-39.5 -94t39.5 -94.5t99.5 -36.5
z" />
    <glyph glyph-name="colon" unicode=":" horiz-adv-x="239" 
d="M120 360q-35 0 -59.5 22.5t-24.5 57.5t24.5 57.5t59.5 22.5t59 -22.5t24 -57.5t-24 -57.5t-59 -22.5zM120 -10q-35 0 -59.5 23t-24.5 58q0 34 24.5 56.5t59.5 22.5t59 -22.5t24 -56.5q0 -35 -24 -58t-59 -23z" />
    <glyph glyph-name="semicolon" unicode=";" horiz-adv-x="246" 
d="M124 360q-35 0 -59.5 22.5t-24.5 57.5t24.5 57.5t59.5 22.5t59.5 -22.5t24.5 -57.5t-24.5 -57.5t-59.5 -22.5zM215 99l-120 -236l-87 28l77 252z" />
    <glyph glyph-name="less" unicode="&#x3c;" 
d="M474 198v-119l-441 161v120l441 161v-118l-317 -103z" />
    <glyph glyph-name="equal" unicode="=" 
d="M474 351h-441v107h441v-107zM474 142h-441v107h441v-107z" />
    <glyph glyph-name="greater" unicode="&#x3e;" 
d="M474 240l-441 -161v119l318 102l-318 103v118l441 -161v-120z" />
    <glyph glyph-name="question" unicode="?" horiz-adv-x="571" 
d="M352 227h-119v10q0 43 17 78.5t41 59t48 44t41 45.5t17 52q0 41 -31 64.5t-79 23.5q-109 0 -142 -104l-122 32q21 84 91.5 131t171.5 47q112 0 180.5 -50.5t68.5 -136.5q0 -44 -19 -79.5t-45.5 -59.5t-53.5 -45.5t-46 -47t-19 -54.5v-10zM292 -10q-35 0 -59.5 23
t-24.5 58q0 34 24.5 56.5t59.5 22.5t59.5 -22.5t24.5 -56.5q0 -35 -24.5 -58t-59.5 -23z" />
    <glyph glyph-name="at" unicode="@" horiz-adv-x="904" 
d="M555 -163h-108q-173 0 -288 119t-115 294t116 294t287 119q181 0 297 -112t116 -279q0 -99 -42.5 -157.5t-118.5 -58.5q-93 0 -126 75h-7q-47 -75 -139 -75q-74 0 -122 53.5t-48 140.5t48 141t122 54q79 0 122 -58h7l7 51h78v-209q0 -89 58 -89q34 0 52 35.5t18 96.5
q0 132 -90.5 219t-231.5 87q-132 0 -222 -94.5t-90 -233.5q0 -138 89 -233t223 -95h108v-85zM449 140q42 0 67.5 29.5t25.5 80.5q0 50 -25.5 80.5t-67.5 30.5t-67.5 -30.5t-25.5 -80.5q0 -51 25.5 -80.5t67.5 -29.5z" />
    <glyph glyph-name="A" unicode="A" horiz-adv-x="698" 
d="M683 0h-146l-46 143h-289l-46 -143h-141l241 700h183zM343 584l-106 -331h219l-106 331h-7z" />
    <glyph glyph-name="B" unicode="B" horiz-adv-x="671" 
d="M385 0h-314v700h294q109 0 170 -46t61 -139q0 -114 -93 -153v-7q123 -39 123 -165q0 -91 -60 -140.5t-181 -49.5zM208 593v-189h144q52 0 80.5 24.5t28.5 69.5t-28.5 70t-80.5 25h-144zM208 306v-199h165q55 0 85 26t30 73q0 48 -30 74t-85 26h-165z" />
    <glyph glyph-name="C" unicode="C" horiz-adv-x="715" 
d="M372 -10q-149 0 -238.5 99t-89.5 261t89.5 261t238.5 99q114 0 192 -55t107 -164l-134 -35q-41 138 -165 138q-88 0 -139.5 -65t-51.5 -179t51.5 -179t139.5 -65q127 0 170 138l134 -35q-31 -110 -109.5 -164.5t-194.5 -54.5z" />
    <glyph glyph-name="D" unicode="D" horiz-adv-x="708" 
d="M319 0h-248v700h248q159 0 252.5 -96t93.5 -254t-93.5 -254t-252.5 -96zM208 583v-466h111q96 0 152 62t56 171t-56 171t-152 62h-111z" />
    <glyph glyph-name="E" unicode="E" horiz-adv-x="619" 
d="M568 0h-497v700h497v-115h-360v-168h320v-114h-320v-188h360v-115z" />
    <glyph glyph-name="F" unicode="F" horiz-adv-x="604" 
d="M208 0h-137v700h492v-115h-355v-186h323v-114h-323v-285z" />
    <glyph glyph-name="G" unicode="G" horiz-adv-x="733" 
d="M386 -10q-158 0 -250 98.5t-92 261.5q0 162 90 261t240 99q234 0 300 -198l-134 -36q-42 121 -166 121q-87 0 -140 -66.5t-53 -180.5q0 -116 54.5 -181.5t152.5 -65.5q87 0 146 56v122l-148 7v89h281v-266q-101 -121 -281 -121z" />
    <glyph glyph-name="H" unicode="H" horiz-adv-x="730" 
d="M208 0h-137v700h137v-286h314v286h137v-700h-137v296h-314v-296z" />
    <glyph glyph-name="I" unicode="I" horiz-adv-x="279" 
d="M208 0h-137v700h137v-700z" />
    <glyph glyph-name="J" unicode="J" horiz-adv-x="609" 
d="M280 -10q-94 0 -165 43.5t-96 129.5l129 33q30 -91 132 -91q57 0 88.5 33t31.5 96v466h138v-471q0 -112 -67.5 -175.5t-190.5 -63.5z" />
    <glyph glyph-name="K" unicode="K" horiz-adv-x="660" 
d="M208 0h-137v700h137v-340l264 340h160l-277 -341l287 -359h-167l-267 346v-346z" />
    <glyph glyph-name="L" unicode="L" horiz-adv-x="571" 
d="M543 0h-472v700h137v-579h335v-121z" />
    <glyph glyph-name="M" unicode="M" horiz-adv-x="912" 
d="M199 0h-128v700h198l186 -555l186 555h200v-700h-135v536h-8l-181 -536h-130l-181 536h-7v-536z" />
    <glyph glyph-name="N" unicode="N" horiz-adv-x="743" 
d="M206 0h-135v700h147l315 -495h8q-4 92 -4 193v302h135v-700h-148l-315 495h-7q4 -93 4 -193v-302z" />
    <glyph glyph-name="O" unicode="O" horiz-adv-x="744" 
d="M372 -10q-148 0 -238 99t-90 261t90 261t238 99q149 0 239 -99t90 -261t-90 -261t-239 -99zM372 107q88 0 139.5 64.5t51.5 178.5t-51.5 178.5t-139.5 64.5q-87 0 -139 -64.5t-52 -178.5t52 -178.5t139 -64.5z" />
    <glyph glyph-name="P" unicode="P" horiz-adv-x="635" 
d="M208 0h-137v700h276q123 0 192 -61t69 -169q0 -107 -69 -167t-192 -60h-139v-243zM208 585v-229h129q62 0 97.5 29.5t35.5 84.5q0 56 -35.5 85.5t-97.5 29.5h-129z" />
    <glyph glyph-name="Q" unicode="Q" horiz-adv-x="744" 
d="M672 -58l-23 -110l-354 65l18 98q-123 19 -196 115t-73 240q0 162 90 261t238 99q149 0 239 -99t90 -261q0 -141 -69.5 -235.5t-187.5 -117.5l-4 -23zM372 107q88 0 139.5 64.5t51.5 178.5t-51.5 178.5t-139.5 64.5q-87 0 -139 -64.5t-52 -178.5t52 -178.5t139 -64.5z
" />
    <glyph glyph-name="R" unicode="R" horiz-adv-x="658" 
d="M208 0h-137v700h289q115 0 181.5 -59t66.5 -165q0 -73 -35 -123.5t-99 -73.5l150 -279h-154l-127 259h-135v-259zM208 588v-222h141q56 0 88.5 29t32.5 81t-32.5 82t-88.5 30h-141z" />
    <glyph glyph-name="S" unicode="S" horiz-adv-x="639" 
d="M335 -10q-106 0 -185 44.5t-106 131.5l128 33q19 -52 63 -77t100 -25q61 0 93.5 24.5t32.5 65.5q0 35 -30 58t-74.5 33.5t-96.5 27t-96.5 37t-74.5 66t-30 110.5q0 85 68.5 138t187.5 53q102 0 172 -42t96 -124l-130 -33q-31 92 -138 92q-54 0 -85.5 -23.5t-31.5 -60.5
q0 -30 22 -50t57.5 -32t78.5 -22.5t86 -26.5t78.5 -38.5t57.5 -64.5t22 -99q0 -89 -70.5 -142.5t-194.5 -53.5z" />
    <glyph glyph-name="T" unicode="T" horiz-adv-x="622" 
d="M380 0h-138v579h-221v121h580v-121h-221v-579z" />
    <glyph glyph-name="U" unicode="U" horiz-adv-x="726" 
d="M363 -10q-129 0 -210.5 75.5t-81.5 219.5v415h137v-415q0 -87 43 -130.5t112 -43.5t111.5 43t42.5 131v415h138v-415q0 -144 -81.5 -219.5t-210.5 -75.5z" />
    <glyph glyph-name="V" unicode="V" horiz-adv-x="702" 
d="M439 0h-177l-244 700h145l186 -571h7l186 571h142z" />
    <glyph glyph-name="W" unicode="W" horiz-adv-x="991" 
d="M369 0h-174l-177 700h139l127 -565h7l123 565h170l122 -565h7l127 565h133l-178 -700h-174l-122 564h-7z" />
    <glyph glyph-name="X" unicode="X" horiz-adv-x="700" 
d="M172 0h-151l224 355l-209 345h155l158 -271h7l158 271h150l-208 -345l223 -355h-156l-172 279h-7z" />
    <glyph glyph-name="Y" unicode="Y" horiz-adv-x="669" 
d="M404 0h-138v262l-248 438h156l159 -304h7l158 304h153l-247 -438v-262z" />
    <glyph glyph-name="Z" unicode="Z" horiz-adv-x="637" 
d="M594 0h-551v117l362 458v8h-350v117h527v-117l-363 -458v-8h375v-117z" />
    <glyph glyph-name="bracketleft" unicode="[" horiz-adv-x="336" 
d="M302 -199h-231v928h231v-108h-100v-712h100v-108z" />
    <glyph glyph-name="backslash" unicode="\" horiz-adv-x="452" 
d="M452 -200h-137l-315 930h138z" />
    <glyph glyph-name="bracketright" unicode="]" horiz-adv-x="336" 
d="M265 729v-928h-231v108h100v712h-100v108h231z" />
    <glyph glyph-name="asciicircum" unicode="^" horiz-adv-x="483" 
d="M143 385h-114l159 315h105l161 -315h-114l-96 197h-7z" />
    <glyph glyph-name="underscore" unicode="_" horiz-adv-x="398" 
d="M408 -161h-418v100h418v-100z" />
    <glyph glyph-name="grave" unicode="`" horiz-adv-x="290" 
d="M260 576h-111l-119 147h164z" />
    <glyph glyph-name="a" unicode="a" horiz-adv-x="579" 
d="M515 337v-69q0 -178 5 -268h-119l-11 87h-9q-49 -97 -167 -97q-74 0 -119 41.5t-45 110.5q0 74 53 116t156 48l126 7v19q0 43 -28 65t-72 22q-87 0 -113 -80l-116 31q13 71 74 110.5t155 39.5q110 0 170 -48.5t60 -134.5zM255 91q53 0 90 38.5t40 100.5l-95 -6
q-56 -4 -83.5 -20t-27.5 -51q0 -28 20.5 -45t55.5 -17z" />
    <glyph glyph-name="b" unicode="b" horiz-adv-x="614" 
d="M369 -10q-107 0 -162 93h-8l-11 -83h-129q5 91 5 272v428h135v-273h8q55 93 162 93q95 0 151 -71.5t56 -194.5q0 -121 -56 -192.5t-151 -71.5zM320 102q55 0 88 41t33 111t-33 112t-88 42t-88 -42t-33 -112t32.5 -111t88.5 -41z" />
    <glyph glyph-name="c" unicode="c" horiz-adv-x="567" 
d="M296 -10q-121 0 -189 74.5t-68 190.5t68 190.5t189 74.5q88 0 147.5 -42t83.5 -124l-129 -34q-26 88 -103 88q-55 0 -88 -41.5t-33 -111.5t33 -111.5t88 -41.5q79 0 108 88l130 -34q-25 -81 -87.5 -123.5t-149.5 -42.5z" />
    <glyph glyph-name="d" unicode="d" horiz-adv-x="614" 
d="M246 -10q-96 0 -151.5 71t-55.5 193q0 123 55.5 194.5t151.5 71.5q107 0 161 -93h9v273h135v-428q0 -181 5 -272h-129l-11 83h-9q-54 -93 -161 -93zM294 102q56 0 89 41t33 111t-33.5 112t-88.5 42t-87.5 -42t-32.5 -112t32.5 -111t87.5 -41z" />
    <glyph glyph-name="e" unicode="e" horiz-adv-x="573" 
d="M537 270q0 -30 -3 -54h-363q8 -62 41.5 -95t85.5 -33q76 0 107 74l121 -32q-58 -140 -230 -140q-120 0 -188.5 74.5t-68.5 190.5t68 190.5t187 74.5q112 0 177.5 -69t65.5 -181zM294 422q-48 0 -79.5 -30.5t-41.5 -87.5h235q-7 59 -36.5 88.5t-77.5 29.5z" />
    <glyph glyph-name="f" unicode="f" horiz-adv-x="429" 
d="M259 0h-135v392h-98v107h98v40q0 83 45.5 127t126.5 44q72 0 130 -32l-33 -91q-32 18 -68 18q-30 0 -48 -17.5t-18 -53.5v-35h136v-107h-136v-392z" />
    <glyph glyph-name="g" unicode="g" horiz-adv-x="614" 
d="M304 -210q-96 0 -161 37t-87 106l123 33q26 -75 124 -75q53 0 83 28.5t30 83.5v104h-9q-54 -93 -162 -93q-94 0 -150 67.5t-56 183.5q0 117 56 186t150 69q108 0 162 -93h9l11 83h129q-5 -91 -5 -266v-244q0 -96 -63.5 -153t-183.5 -57zM294 122q55 0 88.5 40t33.5 104
q0 63 -33.5 102.5t-88.5 39.5q-54 0 -87 -39.5t-33 -103.5t33 -103.5t87 -39.5z" />
    <glyph glyph-name="h" unicode="h" horiz-adv-x="618" 
d="M377 520q87 0 135 -53.5t48 -158.5v-308h-136v282q0 59 -26 90t-75 31q-56 0 -90 -39.5t-34 -99.5v-264h-135v700h135v-155l-5 -118h14q58 93 169 93z" />
    <glyph glyph-name="i" unicode="i" horiz-adv-x="262" 
d="M131 571q-37 0 -62 24t-25 59t25 58.5t62 23.5t62 -23.5t25 -58.5t-25 -59t-62 -24zM199 0h-135v510h135v-510z" />
    <glyph glyph-name="j" unicode="j" horiz-adv-x="305" 
d="M174 571q-37 0 -62 24t-25 59t25 58.5t62 23.5t62 -23.5t25 -58.5t-25 -59t-62 -24zM76 -210q-74 0 -125 30l34 97q28 -16 61 -16q28 0 44 17t16 51v541h136v-548q0 -83 -43.5 -127.5t-122.5 -44.5z" />
    <glyph glyph-name="k" unicode="k" horiz-adv-x="571" 
d="M199 0h-135v700h135v-432l188 242h159l-203 -243l211 -267h-165l-190 254v-254z" />
    <glyph glyph-name="l" unicode="l" horiz-adv-x="262" 
d="M199 0h-135v700h135v-700z" />
    <glyph glyph-name="m" unicode="m" horiz-adv-x="917" 
d="M199 0h-135v238q0 181 -5 272h129l9 -78h9q53 88 157 88q111 0 153 -100h9q54 100 168 100q80 0 123 -49.5t43 -146.5v-324h-135v294q0 53 -23 81t-65 28q-48 0 -77.5 -34.5t-29.5 -89.5v-279h-135v294q0 53 -23 81t-65 28q-48 0 -77.5 -34.5t-29.5 -89.5v-279z" />
    <glyph glyph-name="n" unicode="n" horiz-adv-x="618" 
d="M199 0h-135v238q0 181 -5 272h129l10 -83h9q61 93 170 93q87 0 135 -53.5t48 -158.5v-308h-136v282q0 59 -26 90t-75 31q-56 0 -90 -39t-34 -100v-264z" />
    <glyph glyph-name="o" unicode="o" horiz-adv-x="592" 
d="M296 -10q-120 0 -188.5 74.5t-68.5 190.5t68.5 190.5t188.5 74.5t189 -74.5t69 -190.5t-69 -190.5t-189 -74.5zM296 102q56 0 89 41.5t33 111.5t-33 111.5t-89 41.5t-89 -41.5t-33 -111.5t33 -111.5t89 -41.5z" />
    <glyph glyph-name="p" unicode="p" horiz-adv-x="614" 
d="M199 -200h-135v438q0 181 -5 272h129l11 -83h8q55 93 162 93q95 0 151 -71.5t56 -193.5t-56 -193.5t-151 -71.5q-107 0 -162 93h-8v-283zM320 102q55 0 88 41t33 111t-33 112t-88 42t-88 -42t-33 -112t32.5 -111t88.5 -41z" />
    <glyph glyph-name="q" unicode="q" horiz-adv-x="614" 
d="M551 -200h-135v283h-9q-54 -93 -161 -93q-96 0 -151.5 71.5t-55.5 193.5t55.5 193.5t151.5 71.5q107 0 161 -93h9l11 83h129q-5 -91 -5 -272v-438zM294 102q56 0 89 41t33 111t-33.5 112t-88.5 42t-87.5 -42t-32.5 -112t32.5 -111t87.5 -41z" />
    <glyph glyph-name="r" unicode="r" horiz-adv-x="414" 
d="M358 520q21 0 35 -1v-133q-16 2 -38 2q-67 0 -111.5 -43t-44.5 -138v-207h-135v238q0 181 -5 272h129l13 -104h10q42 114 147 114z" />
    <glyph glyph-name="s" unicode="s" horiz-adv-x="517" 
d="M270 -10q-88 0 -150 33t-81 100l116 30q11 -37 41.5 -55.5t71.5 -18.5q39 0 60 16.5t21 42.5q0 23 -22 38t-55 21.5t-72 18t-72 27t-55 49.5t-22 84q0 64 54.5 104t147.5 40q82 0 138 -31t74 -93l-116 -30q-20 65 -94 65q-35 0 -55 -15.5t-20 -38.5q0 -28 31 -43
t75 -24.5t87.5 -24t74.5 -51t31 -95.5q0 -67 -56 -108t-153 -41z" />
    <glyph glyph-name="t" unicode="t" horiz-adv-x="446" 
d="M288 -10q-76 0 -120 42.5t-44 126.5v244h-98v107h105l22 144h106v-144h136v-107h-136v-237q0 -66 60 -66q32 0 61 17l33 -93q-56 -34 -125 -34z" />
    <glyph glyph-name="u" unicode="u" horiz-adv-x="618" 
d="M241 -10q-86 0 -134 53.5t-48 158.5v308h135v-282q0 -59 26 -90t75 -31q56 0 90 39t34 100v264h136v-238q0 -181 5 -272h-129l-11 83h-9q-61 -93 -170 -93z" />
    <glyph glyph-name="v" unicode="v" horiz-adv-x="549" 
d="M356 0h-164l-177 510h140l118 -389h7l117 389h137z" />
    <glyph glyph-name="w" unicode="w" horiz-adv-x="787" 
d="M310 0h-161l-134 510h134l83 -375h9l76 375h159l75 -375h8l83 375h131l-134 -510h-162l-79 385h-8z" />
    <glyph glyph-name="x" unicode="x" horiz-adv-x="555" 
d="M166 0h-145l158 260l-148 250h147l98 -182h7l97 182h144l-148 -251l158 -259h-148l-105 188h-7z" />
    <glyph glyph-name="y" unicode="y" horiz-adv-x="559" 
d="M282 -200h-142l70 182l-195 528h140l123 -380h7l122 380h137z" />
    <glyph glyph-name="z" unicode="z" horiz-adv-x="513" 
d="M470 0h-427v107l247 284v7h-238v112h409v-107l-247 -284v-7h256v-112z" />
    <glyph glyph-name="braceleft" unicode="{" horiz-adv-x="372" 
d="M339 -199h-61q-84 0 -125.5 45.5t-41.5 123.5v163q0 77 -69 77h-24v110h24q69 0 69 77v163q0 78 41.5 123.5t125.5 45.5h61v-108h-28q-70 0 -70 -79v-163q0 -90 -61 -111v-7q61 -19 61 -110v-163q0 -79 70 -79h28v-108z" />
    <glyph glyph-name="bar" unicode="|" horiz-adv-x="317" 
d="M227 -200h-137v900h137v-900z" />
    <glyph glyph-name="braceright" unicode="}" horiz-adv-x="372" 
d="M95 -199h-61v108h27q70 0 70 79v163q0 90 61 110v7q-61 21 -61 111v163q0 79 -70 79h-27v108h61q84 0 125.5 -45.5t41.5 -123.5v-163q0 -77 68 -77h25v-110h-25q-68 0 -68 -77v-163q0 -78 -41.5 -123.5t-125.5 -45.5z" />
    <glyph glyph-name="asciitilde" unicode="~" 
d="M137 202h-104v50q0 74 36 110t86 36q32 0 67 -20t63.5 -39.5t44.5 -19.5q41 0 41 49v30h103v-50q0 -75 -35 -110.5t-87 -35.5q-36 0 -70 20t-61 39.5t-44 19.5q-40 0 -40 -49v-30z" />
    <glyph glyph-name="uni00A0" unicode="&#xa0;" horiz-adv-x="241" 
 />
    <glyph glyph-name="exclamdown" unicode="&#xa1;" horiz-adv-x="305" 
d="M153 520q35 0 59.5 -23t24.5 -58q0 -34 -24.5 -56.5t-59.5 -22.5t-59.5 22.5t-24.5 56.5q0 35 24.5 58t59.5 23zM79 -190l15 473h117l16 -473h-148z" />
    <glyph glyph-name="cent" unicode="&#xa2;" horiz-adv-x="566" 
d="M362 -107h-133v104q-90 19 -140 89.5t-50 168.5t50 168.5t140 89.5v104h133v-104q128 -29 165 -159l-129 -34q-26 88 -103 88q-55 0 -88 -41.5t-33 -111.5t33 -111.5t88 -41.5q78 0 107 88l130 -34q-41 -130 -170 -159v-104z" />
    <glyph glyph-name="sterling" unicode="&#xa3;" horiz-adv-x="637" 
d="M527 146l77 -75q-38 -44 -71.5 -62.5t-79.5 -18.5q-37 0 -95 17.5t-94 17.5q-63 0 -167 -40l-58 95q64 50 88.5 96t24.5 101q0 9 -1 14h-110v83h84q-1 2 -7 14.5t-7.5 16t-6.5 15t-6.5 17t-5 16t-5 18.5t-2.5 18.5t-1 20.5q0 93 66.5 146.5t182.5 53.5q207 0 256 -162
l-124 -32q-33 88 -129 88q-53 0 -84 -27t-31 -71q0 -18 5 -37t10.5 -31t16 -33l15.5 -31h165v-83h-143v-5q0 -42 -19.5 -79.5t-66.5 -81.5l4 -8q54 25 94 25q30 0 76.5 -17.5t69.5 -17.5q45 0 79 39z" />
    <glyph glyph-name="currency" unicode="&#xa4;" horiz-adv-x="575" 
d="M171 163l-60 -60l-70 69l60 61q-33 53 -33 117t33 117l-60 61l70 69l60 -60q53 32 117 32q63 0 116 -32l61 60l70 -70l-60 -60q32 -54 32 -117q0 -64 -33 -117l61 -60l-70 -70l-61 60q-53 -32 -116 -32q-64 0 -117 32zM288 228q51 0 85 35t34 87q0 53 -33.5 87.5
t-85.5 34.5t-86.5 -35t-34.5 -87t34.5 -87t86.5 -35z" />
    <glyph glyph-name="yen" unicode="&#xa5;" horiz-adv-x="669" 
d="M404 0h-138v100h-173v81h173v69h-173v80h134l-209 370h156l159 -304h7l158 304h153l-209 -370h135v-80h-173v-69h173v-81h-173v-100z" />
    <glyph glyph-name="brokenbar" unicode="&#xa6;" horiz-adv-x="317" 
d="M227 331h-137v369h137v-369zM227 -200h-137v369h137v-369z" />
    <glyph glyph-name="section" unicode="&#xa7;" horiz-adv-x="520" 
d="M270 -100q-190 0 -231 137l121 32q10 -39 40.5 -57t69.5 -18t59.5 14.5t20.5 39.5q0 26 -22 44.5t-55.5 29t-72 24.5t-72 30t-55.5 47t-22 74q0 75 94 113v7q-94 44 -94 143q0 67 56.5 108.5t149.5 41.5q171 0 212 -125l-119 -31q-19 62 -93 62q-37 0 -56 -14.5
t-19 -36.5q0 -26 22 -44.5t55.5 -29t72 -25t72 -30t55.5 -47t22 -74.5q0 -74 -93 -112v-8q93 -43 93 -143q0 -69 -57.5 -110.5t-153.5 -41.5zM282 234q39 8 59.5 25t20.5 38q0 22 -16 38t-34.5 23.5t-53.5 18.5q-40 -6 -61.5 -24t-21.5 -39q0 -22 16 -38t35.5 -24t55.5 -18z
" />
    <glyph glyph-name="dieresis" unicode="&#xa8;" horiz-adv-x="424" 
d="M110 576q-34 0 -57 21.5t-23 53.5t23 54t57 22q32 0 54.5 -22t22.5 -54q0 -31 -22.5 -53t-54.5 -22zM317 576q-34 0 -57 21.5t-23 53.5t23 54t57 22q33 0 55 -22t22 -54t-22 -53.5t-55 -21.5z" />
    <glyph glyph-name="copyright" unicode="&#xa9;" horiz-adv-x="738" 
d="M369 -10q-152 0 -249 104t-97 257q0 151 97 255t249 104t249 -104t97 -255q0 -152 -97.5 -256.5t-248.5 -104.5zM369 55q122 0 199 85t77 211q0 124 -77.5 209.5t-198.5 85.5t-198.5 -85.5t-77.5 -209.5q0 -126 77 -211t199 -85zM373 170q-77 0 -122.5 49.5t-45.5 130.5
t45.5 130.5t122.5 49.5q125 0 154 -113l-79 -18q-18 64 -75 64q-39 0 -62.5 -30t-23.5 -83t23.5 -83t62.5 -30q59 0 78 64l78 -18q-28 -113 -156 -113z" />
    <glyph glyph-name="ordfeminine" unicode="&#xaa;" horiz-adv-x="345" 
d="M126 392q-44 0 -71 24t-27 64q0 91 125 99l75 4v16q0 26 -16.5 38.5t-42.5 12.5q-51 0 -63 -46l-75 18q8 42 45 65t93 23q68 0 104.5 -29t36.5 -81v-42q0 -106 3 -160h-75l-8 56h-5q-25 -62 -99 -62zM155 455q32 0 52.5 22t20.5 62l-55 -4q-63 -5 -63 -44q0 -36 45 -36z
" />
    <glyph glyph-name="guillemotleft" unicode="&#xab;" horiz-adv-x="593" 
d="M328 82h-145l-163 178l163 178h145l-167 -178zM562 82h-145l-164 178l164 178h145l-167 -178z" />
    <glyph glyph-name="logicalnot" unicode="&#xac;" 
d="M474 184h-118v121h-323v111h441v-232z" />
    <glyph glyph-name="uni00AD" unicode="&#xad;" horiz-adv-x="408" 
d="M374 227h-340v106h340v-106z" />
    <glyph glyph-name="registered" unicode="&#xae;" horiz-adv-x="738" 
d="M369 -10q-152 0 -249 104t-97 257q0 151 97 255t249 104q151 0 248.5 -104t97.5 -255q0 -152 -97.5 -256.5t-248.5 -104.5zM369 55q122 0 199 85t77 211q0 124 -77.5 209.5t-198.5 85.5t-198.5 -85.5t-77.5 -209.5q0 -126 77 -211t199 -85zM320 175h-80v350h151
q59 0 93 -29.5t34 -82.5q0 -72 -62 -97v-8l73 -133h-92l-63 129h-54v-129zM320 461v-97h65q24 0 38.5 13t14.5 36q0 22 -14.5 35t-38.5 13h-65z" />
    <glyph glyph-name="macron" unicode="&#xaf;" horiz-adv-x="356" 
d="M326 602h-296v100h296v-100z" />
    <glyph glyph-name="degree" unicode="&#xb0;" horiz-adv-x="368" 
d="M184 387q-73 0 -118 46.5t-45 115.5q0 68 45 114.5t118 46.5t118 -46t45 -115t-45 -115.5t-118 -46.5zM184 467q32 0 52 24t20 58q0 35 -20 58t-52 23t-52 -23t-20 -58q0 -34 20 -58t52 -24z" />
    <glyph glyph-name="plusminus" unicode="&#xb1;" 
d="M308 190h-109v131h-166v111h166v133h109v-133h166v-111h-166v-131zM474 35h-441v113h441v-113z" />
    <glyph glyph-name="uni00B2" unicode="&#xb2;" horiz-adv-x="322" 
d="M296 450h-264v70l102 83q37 31 55 52t18 42q0 18 -13 28.5t-32 10.5q-41 0 -56 -41l-85 19q10 43 47.5 67t92.5 24q61 0 98 -28.5t37 -78.5q0 -38 -23.5 -69t-75.5 -71l-32 -26v-5h131v-77z" />
    <glyph glyph-name="uni00B3" unicode="&#xb3;" horiz-adv-x="336" 
d="M292 728l-82 -69q45 -5 71.5 -32.5t26.5 -70.5q0 -51 -36.5 -81t-102.5 -30q-58 0 -97 24t-49 69l88 19q11 -41 58 -41q23 0 36.5 12t13.5 31q0 20 -14.5 31.5t-39.5 11.5h-56v49l76 67v5h-147v77h254v-72z" />
    <glyph glyph-name="acute" unicode="&#xb4;" horiz-adv-x="290" 
d="M141 576h-111l66 147h164z" />
    <glyph glyph-name="uni00B5" unicode="&#xb5;" horiz-adv-x="647" 
d="M192 -200h-133v710h135v-282q0 -59 26 -90t75 -31q56 0 90 39.5t34 99.5v264h136v-343q0 -55 47 -55h24v-112h-61q-101 0 -120 89h-8q-43 -99 -139 -99q-73 0 -108 54h-7l9 -144v-100z" />
    <glyph glyph-name="paragraph" unicode="&#xb6;" horiz-adv-x="772" 
d="M421 -200h-126v403h-54q-93 0 -154 58.5t-61 189.5q0 132 61 190.5t154 58.5h491v-126h-74v-774h-133v774h-104v-774z" />
    <glyph glyph-name="periodcentered" unicode="&#xb7;" horiz-adv-x="239" 
d="M120 185q-35 0 -59.5 22.5t-24.5 57.5t24.5 57.5t59.5 22.5t59 -22.5t24 -57.5t-24 -57.5t-59 -22.5z" />
    <glyph glyph-name="cedilla" unicode="&#xb8;" horiz-adv-x="321" 
d="M181 -41h3q47 0 77 -25t30 -70q0 -46 -35.5 -75.5t-99.5 -29.5q-73 0 -126 39l40 63q39 -29 82 -29q49 0 49 34q0 33 -43 33q-20 0 -40 -7l-18 27l29 86h68z" />
    <glyph glyph-name="uni00B9" unicode="&#xb9;" horiz-adv-x="234" 
d="M188 450h-89v250h-5l-71 -39v89l96 50h69v-350z" />
    <glyph glyph-name="ordmasculine" unicode="&#xba;" horiz-adv-x="356" 
d="M178 392q-72 0 -113.5 44.5t-41.5 114.5t41.5 114.5t113.5 44.5t113.5 -44.5t41.5 -114.5t-41.5 -114.5t-113.5 -44.5zM178 461q32 0 51 24.5t19 65.5t-19 65.5t-51 24.5t-51 -24.5t-19 -65.5t19 -65.5t51 -24.5z" />
    <glyph glyph-name="guillemotright" unicode="&#xbb;" horiz-adv-x="593" 
d="M339 260l-163 -178h-145l167 178l-167 178h145zM573 260l-164 -178h-145l167 178l-167 178h145z" />
    <glyph glyph-name="onequarter" unicode="&#xbc;" horiz-adv-x="724" 
d="M188 350h-89v250h-5l-71 -39v89l96 50h69v-350zM164 0h-94l445 700h95zM658 0h-90v60h-164v79l156 211h98v-217h43v-73h-43v-60zM568 245l-83 -112h83v112z" />
    <glyph glyph-name="onehalf" unicode="&#xbd;" horiz-adv-x="748" 
d="M188 350h-89v250h-5l-71 -39v89l96 50h69v-350zM164 0h-94l445 700h95zM722 0h-264v70l102 83q37 31 55 52t18 42q0 18 -13 28.5t-32 10.5q-41 0 -56 -41l-85 19q10 43 47.5 67t92.5 24q61 0 98 -28.5t37 -78.5q0 -38 -23.5 -69t-75.5 -71l-32 -26v-5h131v-77z" />
    <glyph glyph-name="threequarters" unicode="&#xbe;" horiz-adv-x="816" 
d="M308 456q0 -51 -36.5 -81t-102.5 -30q-58 0 -97 24t-49 69l88 19q11 -41 58 -41q23 0 36.5 12t13.5 31q0 20 -14.5 31.5t-39.5 11.5h-56v49l76 67v5h-147v77h254v-72l-82 -69q45 -5 71.5 -32.5t26.5 -70.5zM162 0l445 700h95l-446 -700h-94zM750 350v-217h43v-73h-43v-60
h-90v60h-164v79l156 211h98zM577 133h83v112z" />
    <glyph glyph-name="questiondown" unicode="&#xbf;" horiz-adv-x="571" 
d="M278 520q36 0 60 -22.5t24 -58.5q0 -34 -24 -56.5t-60 -22.5q-35 0 -59 22.5t-24 56.5q0 35 24 58t59 23zM219 283h119v-10q0 -43 -17 -78.5t-41 -59t-48 -44t-41 -45.5t-17 -52q0 -41 31 -64.5t79 -23.5q110 0 141 104l123 -32q-21 -84 -91.5 -131t-172.5 -47
q-111 0 -179.5 50.5t-68.5 136.5q0 44 19 79.5t46 59.5t53.5 45.5t45.5 47t19 54.5v10z" />
    <glyph glyph-name="Agrave" unicode="&#xc0;" horiz-adv-x="698" 
d="M337 913l66 -147h-111l-119 147h164zM683 0h-146l-46 143h-289l-46 -143h-141l241 700h183zM343 584l-106 -331h219l-106 331h-7z" />
    <glyph glyph-name="Aacute" unicode="&#xc1;" horiz-adv-x="698" 
d="M361 913h164l-119 -147h-111zM683 0h-146l-46 143h-289l-46 -143h-141l241 700h183zM343 584l-106 -331h219l-106 331h-7z" />
    <glyph glyph-name="Acircumflex" unicode="&#xc2;" horiz-adv-x="698" 
d="M400 766l-53 79l-54 -79h-126l121 147h121l122 -147h-131zM683 0h-146l-46 143h-289l-46 -143h-141l241 700h183zM343 584l-106 -331h219l-106 331h-7z" />
    <glyph glyph-name="Atilde" unicode="&#xc3;" horiz-adv-x="698" 
d="M293 821q-31 0 -31 -60h-77v44q0 56 24.5 84.5t62.5 28.5q35 0 76.5 -30.5t56.5 -30.5q31 0 31 61h77v-46q0 -57 -24 -84t-63 -27q-35 0 -76.5 30t-56.5 30zM683 0h-146l-46 143h-289l-46 -143h-141l241 700h183zM343 584l-106 -331h219l-106 331h-7z" />
    <glyph glyph-name="Adieresis" unicode="&#xc4;" horiz-adv-x="698" 
d="M247 766q-34 0 -57 21.5t-23 53.5t23 54t57 22q32 0 54.5 -22t22.5 -54q0 -31 -22.5 -53t-54.5 -22zM454 766q-34 0 -57 21.5t-23 53.5t23 54t57 22q33 0 55 -22t22 -54t-22 -53.5t-55 -21.5zM683 0h-146l-46 143h-289l-46 -143h-141l241 700h183zM343 584l-106 -331h219
l-106 331h-7z" />
    <glyph glyph-name="Aring" unicode="&#xc5;" horiz-adv-x="698" 
d="M349 746q-54 0 -89 31.5t-35 79.5q0 49 35 80t89 31q53 0 88 -31t35 -80q0 -48 -35 -79.5t-88 -31.5zM349 902q-21 0 -33.5 -12.5t-12.5 -32.5t12.5 -32.5t33.5 -12.5q20 0 32.5 12.5t12.5 32.5t-12.5 32.5t-32.5 12.5zM683 0h-146l-46 143h-289l-46 -143h-141l241 700
h183zM343 584l-106 -331h219l-106 331h-7z" />
    <glyph glyph-name="AE" unicode="&#xc6;" horiz-adv-x="995" 
d="M163 0h-148l367 700h563v-115h-310v-170h270v-110h-270v-190h310v-115h-445v143h-266zM456 585l-167 -332h211v332h-44z" />
    <glyph glyph-name="Ccedilla" unicode="&#xc7;" horiz-adv-x="715" 
d="M542 244l134 -35q-57 -202 -270 -218l-11 -32h3q47 0 77 -25t30 -70q0 -46 -35.5 -75.5t-99.5 -29.5q-73 0 -126 39l40 63q39 -29 82 -29q49 0 49 34q0 33 -43 33q-20 0 -40 -7l-18 27l24 72q-134 12 -214 109.5t-80 249.5q0 162 89.5 261t238.5 99q114 0 192 -55
t107 -164l-134 -35q-41 138 -165 138q-88 0 -139.5 -65t-51.5 -179t51.5 -179t139.5 -65q127 0 170 138z" />
    <glyph glyph-name="Egrave" unicode="&#xc8;" horiz-adv-x="619" 
d="M379 766h-111l-119 147h164zM568 0h-497v700h497v-115h-360v-168h320v-114h-320v-188h360v-115z" />
    <glyph glyph-name="Eacute" unicode="&#xc9;" horiz-adv-x="619" 
d="M382 766h-111l66 147h164zM568 0h-497v700h497v-115h-360v-168h320v-114h-320v-188h360v-115z" />
    <glyph glyph-name="Ecircumflex" unicode="&#xca;" horiz-adv-x="619" 
d="M269 766h-126l121 147h121l122 -147h-131l-53 79zM568 0h-497v700h497v-115h-360v-168h320v-114h-320v-188h360v-115z" />
    <glyph glyph-name="Edieresis" unicode="&#xcb;" horiz-adv-x="619" 
d="M223 766q-34 0 -57 21.5t-23 53.5t23 54t57 22q32 0 54.5 -22t22.5 -54q0 -31 -22.5 -53t-54.5 -22zM430 766q-34 0 -57 21.5t-23 53.5t23 54t57 22q33 0 55 -22t22 -54t-22 -53.5t-55 -21.5zM568 0h-497v700h497v-115h-360v-168h320v-114h-320v-188h360v-115z" />
    <glyph glyph-name="Igrave" unicode="&#xcc;" horiz-adv-x="279" 
d="M194 766h-111l-119 147h164zM208 0h-137v700h137v-700z" />
    <glyph glyph-name="Iacute" unicode="&#xcd;" horiz-adv-x="279" 
d="M196 766h-111l66 147h164zM208 0h-137v700h137v-700z" />
    <glyph glyph-name="Icircumflex" unicode="&#xce;" horiz-adv-x="279" 
d="M84 766h-126l121 147h121l122 -147h-131l-53 79zM208 0h-137v700h137v-700z" />
    <glyph glyph-name="Idieresis" unicode="&#xcf;" horiz-adv-x="279" 
d="M52 766q-31 0 -51 21t-20 54q0 34 20 55t51 21t51 -21t20 -55q0 -33 -20 -54t-51 -21zM228 766q-31 0 -51.5 21t-20.5 54t20.5 54.5t51.5 21.5t51.5 -21.5t20.5 -54.5t-20.5 -54t-51.5 -21zM208 0h-137v700h137v-700z" />
    <glyph glyph-name="Eth" unicode="&#xd0;" horiz-adv-x="757" 
d="M119 700h248q159 0 252.5 -96t93.5 -254t-93.5 -254t-252.5 -96h-248v306h-111v88h111v306zM257 117h110q97 0 153 62t56 171t-56 171t-153 62h-110v-189h173v-88h-173v-189z" />
    <glyph glyph-name="Ntilde" unicode="&#xd1;" horiz-adv-x="743" 
d="M284 761h-77v44q0 56 24.5 84.5t62.5 28.5q35 0 76.5 -30.5t56.5 -30.5q31 0 31 61h77v-46q0 -57 -24 -84t-63 -27q-35 0 -76.5 30t-56.5 30q-31 0 -31 -60zM206 0h-135v700h147l315 -495h8q-4 92 -4 193v302h135v-700h-148l-315 495h-7q4 -93 4 -193v-302z" />
    <glyph glyph-name="Ograve" unicode="&#xd2;" horiz-adv-x="744" 
d="M427 766h-111l-119 147h164zM372 -10q-148 0 -238 99t-90 261t90 261t238 99q149 0 239 -99t90 -261t-90 -261t-239 -99zM372 107q88 0 139.5 64.5t51.5 178.5t-51.5 178.5t-139.5 64.5q-87 0 -139 -64.5t-52 -178.5t52 -178.5t139 -64.5z" />
    <glyph glyph-name="Oacute" unicode="&#xd3;" horiz-adv-x="744" 
d="M429 766h-111l66 147h164zM372 -10q-148 0 -238 99t-90 261t90 261t238 99q149 0 239 -99t90 -261t-90 -261t-239 -99zM372 107q88 0 139.5 64.5t51.5 178.5t-51.5 178.5t-139.5 64.5q-87 0 -139 -64.5t-52 -178.5t52 -178.5t139 -64.5z" />
    <glyph glyph-name="Ocircumflex" unicode="&#xd4;" horiz-adv-x="744" 
d="M316 766h-126l121 147h121l122 -147h-131l-53 79zM372 -10q-148 0 -238 99t-90 261t90 261t238 99q149 0 239 -99t90 -261t-90 -261t-239 -99zM372 107q88 0 139.5 64.5t51.5 178.5t-51.5 178.5t-139.5 64.5q-87 0 -139 -64.5t-52 -178.5t52 -178.5t139 -64.5z" />
    <glyph glyph-name="Otilde" unicode="&#xd5;" horiz-adv-x="744" 
d="M285 761h-77v44q0 56 24.5 84.5t62.5 28.5q35 0 76.5 -30.5t56.5 -30.5q31 0 31 61h77v-46q0 -57 -24 -84t-63 -27q-35 0 -76.5 30t-56.5 30q-31 0 -31 -60zM372 -10q-148 0 -238 99t-90 261t90 261t238 99q149 0 239 -99t90 -261t-90 -261t-239 -99zM372 107
q88 0 139.5 64.5t51.5 178.5t-51.5 178.5t-139.5 64.5q-87 0 -139 -64.5t-52 -178.5t52 -178.5t139 -64.5z" />
    <glyph glyph-name="Odieresis" unicode="&#xd6;" horiz-adv-x="744" 
d="M270 766q-34 0 -57 21.5t-23 53.5t23 54t57 22q32 0 54.5 -22t22.5 -54q0 -31 -22.5 -53t-54.5 -22zM477 766q-34 0 -57 21.5t-23 53.5t23 54t57 22q33 0 55 -22t22 -54t-22 -53.5t-55 -21.5zM372 -10q-148 0 -238 99t-90 261t90 261t238 99q149 0 239 -99t90 -261
t-90 -261t-239 -99zM372 107q88 0 139.5 64.5t51.5 178.5t-51.5 178.5t-139.5 64.5q-87 0 -139 -64.5t-52 -178.5t52 -178.5t139 -64.5z" />
    <glyph glyph-name="multiply" unicode="&#xd7;" 
d="M253 224l-150 -152l-77 77l151 151l-150 151l76 76l150 -151l151 152l77 -77l-151 -151l150 -151l-76 -77z" />
    <glyph glyph-name="Oslash" unicode="&#xd8;" horiz-adv-x="744" 
d="M651 746l-64 -111q114 -100 114 -285q0 -162 -90 -261t-239 -99q-75 0 -139 28l-59 -102l-80 38l64 112q-114 100 -114 284q0 162 90 261t238 99q75 0 140 -28l58 102zM181 350q0 -104 44 -168l226 394q-36 17 -79 17q-87 0 -139 -64.5t-52 -178.5zM372 107
q88 0 139.5 64.5t51.5 178.5q0 102 -43 167l-227 -393q37 -17 79 -17z" />
    <glyph glyph-name="Ugrave" unicode="&#xd9;" horiz-adv-x="726" 
d="M418 766h-111l-119 147h164zM363 -10q-129 0 -210.5 75.5t-81.5 219.5v415h137v-415q0 -87 43 -130.5t112 -43.5t111.5 43t42.5 131v415h138v-415q0 -144 -81.5 -219.5t-210.5 -75.5z" />
    <glyph glyph-name="Uacute" unicode="&#xda;" horiz-adv-x="726" 
d="M420 766h-111l66 147h164zM363 -10q-129 0 -210.5 75.5t-81.5 219.5v415h137v-415q0 -87 43 -130.5t112 -43.5t111.5 43t42.5 131v415h138v-415q0 -144 -81.5 -219.5t-210.5 -75.5z" />
    <glyph glyph-name="Ucircumflex" unicode="&#xdb;" horiz-adv-x="726" 
d="M307 766h-126l121 147h121l122 -147h-131l-53 79zM363 -10q-129 0 -210.5 75.5t-81.5 219.5v415h137v-415q0 -87 43 -130.5t112 -43.5t111.5 43t42.5 131v415h138v-415q0 -144 -81.5 -219.5t-210.5 -75.5z" />
    <glyph glyph-name="Udieresis" unicode="&#xdc;" horiz-adv-x="726" 
d="M261 766q-34 0 -57 21.5t-23 53.5t23 54t57 22q32 0 54.5 -22t22.5 -54q0 -31 -22.5 -53t-54.5 -22zM468 766q-34 0 -57 21.5t-23 53.5t23 54t57 22q33 0 55 -22t22 -54t-22 -53.5t-55 -21.5zM363 -10q-129 0 -210.5 75.5t-81.5 219.5v415h137v-415q0 -87 43 -130.5
t112 -43.5t111.5 43t42.5 131v415h138v-415q0 -144 -81.5 -219.5t-210.5 -75.5z" />
    <glyph glyph-name="Yacute" unicode="&#xdd;" horiz-adv-x="669" 
d="M391 766h-111l66 147h164zM404 0h-138v262l-248 438h156l159 -304h7l158 304h153l-247 -438v-262z" />
    <glyph glyph-name="Thorn" unicode="&#xde;" horiz-adv-x="633" 
d="M208 0h-137v700h137v-142h156q114 0 177.5 -54.5t63.5 -153.5t-63.5 -153.5t-177.5 -54.5h-156v-142zM208 446v-192h142q57 0 87 25t30 71t-30 71t-87 25h-142z" />
    <glyph glyph-name="germandbls" unicode="&#xdf;" horiz-adv-x="636" 
d="M379 -10q-84 0 -147 32l37 101q44 -22 89 -22q49 0 76.5 25.5t27.5 75.5q0 49 -31 76t-87 27h-53v106h36q51 0 78.5 25t27.5 70q0 43 -30.5 70t-82.5 27q-57 0 -89 -33.5t-32 -89.5v-480h-135v482q0 105 66.5 166.5t189.5 61.5q113 0 178.5 -53t65.5 -140
q0 -54 -25.5 -92.5t-70.5 -56.5v-7q130 -39 130 -172q0 -88 -57 -143.5t-162 -55.5z" />
    <glyph glyph-name="agrave" unicode="&#xe0;" horiz-adv-x="579" 
d="M276 723l66 -147h-111l-119 147h164zM515 337v-69q0 -178 5 -268h-119l-11 87h-9q-49 -97 -167 -97q-74 0 -119 41.5t-45 110.5q0 74 53 116t156 48l126 7v19q0 43 -28 65t-72 22q-87 0 -113 -80l-116 31q13 71 74 110.5t155 39.5q110 0 170 -48.5t60 -134.5zM255 91
q53 0 90 38.5t40 100.5l-95 -6q-56 -4 -83.5 -20t-27.5 -51q0 -28 20.5 -45t55.5 -17z" />
    <glyph glyph-name="aacute" unicode="&#xe1;" horiz-adv-x="579" 
d="M300 723h164l-119 -147h-111zM515 337v-69q0 -178 5 -268h-119l-11 87h-9q-49 -97 -167 -97q-74 0 -119 41.5t-45 110.5q0 74 53 116t156 48l126 7v19q0 43 -28 65t-72 22q-87 0 -113 -80l-116 31q13 71 74 110.5t155 39.5q110 0 170 -48.5t60 -134.5zM255 91
q53 0 90 38.5t40 100.5l-95 -6q-56 -4 -83.5 -20t-27.5 -51q0 -28 20.5 -45t55.5 -17z" />
    <glyph glyph-name="acircumflex" unicode="&#xe2;" horiz-adv-x="579" 
d="M339 576l-53 79l-54 -79h-126l121 147h121l122 -147h-131zM515 337v-69q0 -178 5 -268h-119l-11 87h-9q-49 -97 -167 -97q-74 0 -119 41.5t-45 110.5q0 74 53 116t156 48l126 7v19q0 43 -28 65t-72 22q-87 0 -113 -80l-116 31q13 71 74 110.5t155 39.5q110 0 170 -48.5
t60 -134.5zM255 91q53 0 90 38.5t40 100.5l-95 -6q-56 -4 -83.5 -20t-27.5 -51q0 -28 20.5 -45t55.5 -17z" />
    <glyph glyph-name="atilde" unicode="&#xe3;" horiz-adv-x="579" 
d="M232 631q-31 0 -31 -60h-77v44q0 56 24.5 84.5t62.5 28.5q35 0 76.5 -30.5t56.5 -30.5q31 0 31 61h77v-46q0 -57 -24 -84t-63 -27q-35 0 -76.5 30t-56.5 30zM515 337v-69q0 -178 5 -268h-119l-11 87h-9q-49 -97 -167 -97q-74 0 -119 41.5t-45 110.5q0 74 53 116t156 48
l126 7v19q0 43 -28 65t-72 22q-87 0 -113 -80l-116 31q13 71 74 110.5t155 39.5q110 0 170 -48.5t60 -134.5zM255 91q53 0 90 38.5t40 100.5l-95 -6q-56 -4 -83.5 -20t-27.5 -51q0 -28 20.5 -45t55.5 -17z" />
    <glyph glyph-name="adieresis" unicode="&#xe4;" horiz-adv-x="579" 
d="M186 576q-34 0 -57 21.5t-23 53.5t23 54t57 22q32 0 54.5 -22t22.5 -54q0 -31 -22.5 -53t-54.5 -22zM393 576q-34 0 -57 21.5t-23 53.5t23 54t57 22q33 0 55 -22t22 -54t-22 -53.5t-55 -21.5zM515 337v-69q0 -178 5 -268h-119l-11 87h-9q-49 -97 -167 -97
q-74 0 -119 41.5t-45 110.5q0 74 53 116t156 48l126 7v19q0 43 -28 65t-72 22q-87 0 -113 -80l-116 31q13 71 74 110.5t155 39.5q110 0 170 -48.5t60 -134.5zM255 91q53 0 90 38.5t40 100.5l-95 -6q-56 -4 -83.5 -20t-27.5 -51q0 -28 20.5 -45t55.5 -17z" />
    <glyph glyph-name="aring" unicode="&#xe5;" horiz-adv-x="579" 
d="M288 556q-54 0 -89 31.5t-35 79.5q0 49 35 80t89 31q53 0 88 -31t35 -80q0 -48 -35 -79.5t-88 -31.5zM288 712q-21 0 -33.5 -12.5t-12.5 -32.5t12.5 -32.5t33.5 -12.5q20 0 32.5 12.5t12.5 32.5t-12.5 32.5t-32.5 12.5zM515 337v-69q0 -178 5 -268h-119l-11 87h-9
q-49 -97 -167 -97q-74 0 -119 41.5t-45 110.5q0 74 53 116t156 48l126 7v19q0 43 -28 65t-72 22q-87 0 -113 -80l-116 31q13 71 74 110.5t155 39.5q110 0 170 -48.5t60 -134.5zM255 91q53 0 90 38.5t40 100.5l-95 -6q-56 -4 -83.5 -20t-27.5 -51q0 -28 20.5 -45t55.5 -17z
" />
    <glyph glyph-name="ae" unicode="&#xe6;" horiz-adv-x="880" 
d="M843 269q0 -29 -3 -53h-346q8 -62 39 -95t79 -33q69 0 102 74l120 -32q-58 -140 -213 -140q-126 0 -185 98q-56 -98 -198 -98q-88 0 -138 43t-50 113q0 73 53 115.5t151 42.5h125v12q0 50 -30 78t-71 28q-82 0 -104 -82l-118 32q14 71 70 109.5t136 38.5q124 0 179 -88
q28 42 74 65t100 23q107 0 167.5 -69t60.5 -182zM496 304h219q-4 57 -31.5 87.5t-74.5 30.5q-44 0 -74 -31t-39 -87zM257 89q55 0 88 32.5t34 94.5h-103q-96 0 -96 -64q0 -28 21 -45.5t56 -17.5z" />
    <glyph glyph-name="ccedilla" unicode="&#xe7;" horiz-adv-x="567" 
d="M403 190l130 -34q-23 -73 -76.5 -115t-128.5 -49l-11 -33h3q47 0 77 -25t30 -70q0 -46 -35.5 -75.5t-99.5 -29.5q-73 0 -126 39l40 63q39 -29 82 -29q49 0 49 34q0 33 -43 33q-20 0 -40 -7l-18 27l25 73q-105 11 -163.5 83.5t-58.5 179.5q0 116 68 190.5t189 74.5
q88 0 147.5 -42t83.5 -124l-129 -34q-26 88 -103 88q-55 0 -88 -41.5t-33 -111.5t33 -111.5t88 -41.5q79 0 108 88z" />
    <glyph glyph-name="egrave" unicode="&#xe8;" horiz-adv-x="573" 
d="M283 723l66 -147h-111l-119 147h164zM537 270q0 -30 -3 -54h-363q8 -62 41.5 -95t85.5 -33q76 0 107 74l121 -32q-58 -140 -230 -140q-120 0 -188.5 74.5t-68.5 190.5t68 190.5t187 74.5q112 0 177.5 -69t65.5 -181zM294 422q-48 0 -79.5 -30.5t-41.5 -87.5h235
q-7 59 -36.5 88.5t-77.5 29.5z" />
    <glyph glyph-name="eacute" unicode="&#xe9;" horiz-adv-x="573" 
d="M306 723h164l-119 -147h-111zM537 270q0 -30 -3 -54h-363q8 -62 41.5 -95t85.5 -33q76 0 107 74l121 -32q-58 -140 -230 -140q-120 0 -188.5 74.5t-68.5 190.5t68 190.5t187 74.5q112 0 177.5 -69t65.5 -181zM294 422q-48 0 -79.5 -30.5t-41.5 -87.5h235
q-7 59 -36.5 88.5t-77.5 29.5z" />
    <glyph glyph-name="ecircumflex" unicode="&#xea;" horiz-adv-x="573" 
d="M345 576l-53 79l-54 -79h-126l121 147h121l122 -147h-131zM537 270q0 -30 -3 -54h-363q8 -62 41.5 -95t85.5 -33q76 0 107 74l121 -32q-58 -140 -230 -140q-120 0 -188.5 74.5t-68.5 190.5t68 190.5t187 74.5q112 0 177.5 -69t65.5 -181zM294 422q-48 0 -79.5 -30.5
t-41.5 -87.5h235q-7 59 -36.5 88.5t-77.5 29.5z" />
    <glyph glyph-name="edieresis" unicode="&#xeb;" horiz-adv-x="573" 
d="M192 576q-34 0 -57 21.5t-23 53.5t23 54t57 22q32 0 54.5 -22t22.5 -54q0 -31 -22.5 -53t-54.5 -22zM399 576q-34 0 -57 21.5t-23 53.5t23 54t57 22q33 0 55 -22t22 -54t-22 -53.5t-55 -21.5zM537 270q0 -30 -3 -54h-363q8 -62 41.5 -95t85.5 -33q76 0 107 74l121 -32
q-58 -140 -230 -140q-120 0 -188.5 74.5t-68.5 190.5t68 190.5t187 74.5q112 0 177.5 -69t65.5 -181zM294 422q-48 0 -79.5 -30.5t-41.5 -87.5h235q-7 59 -36.5 88.5t-77.5 29.5z" />
    <glyph glyph-name="igrave" unicode="&#xec;" horiz-adv-x="262" 
d="M186 576h-111l-119 147h164zM199 0h-135v510h135v-510z" />
    <glyph glyph-name="iacute" unicode="&#xed;" horiz-adv-x="262" 
d="M188 576h-111l66 147h164zM199 0h-135v510h135v-510z" />
    <glyph glyph-name="icircumflex" unicode="&#xee;" horiz-adv-x="262" 
d="M75 576h-126l121 147h121l122 -147h-131l-53 79zM199 0h-135v510h135v-510z" />
    <glyph glyph-name="idieresis" unicode="&#xef;" horiz-adv-x="262" 
d="M44 576q-31 0 -51 21t-20 54q0 34 20 55t51 21t51 -21t20 -55q0 -33 -20 -54t-51 -21zM220 576q-31 0 -51.5 21t-20.5 54t20.5 54.5t51.5 21.5t51.5 -21.5t20.5 -54.5t-20.5 -54t-51.5 -21zM199 0h-135v510h135v-510z" />
    <glyph glyph-name="eth" unicode="&#xf0;" horiz-adv-x="567" 
d="M282 -10q-112 0 -177.5 67t-65.5 168q0 100 57.5 165.5t144.5 65.5q38 0 65 -9.5t58 -33.5l11 7q-33 70 -129 123l-96 -64l-48 50l71 47q-36 14 -95 31l73 93q72 -21 130 -50l75 50l48 -50l-57 -38q181 -126 181 -359q0 -116 -63.5 -189.5t-182.5 -73.5zM282 98
q51 0 80 34.5t29 92.5t-29 92.5t-80 34.5q-50 0 -79 -35t-29 -92q0 -58 29 -92.5t79 -34.5z" />
    <glyph glyph-name="ntilde" unicode="&#xf1;" horiz-adv-x="618" 
d="M225 571h-77v44q0 56 24.5 84.5t62.5 28.5q35 0 76.5 -30.5t56.5 -30.5q31 0 31 61h77v-46q0 -57 -24 -84t-63 -27q-35 0 -76.5 30t-56.5 30q-31 0 -31 -60zM199 0h-135v238q0 181 -5 272h129l10 -83h9q61 93 170 93q87 0 135 -53.5t48 -158.5v-308h-136v282q0 59 -26 90
t-75 31q-56 0 -90 -39t-34 -100v-264z" />
    <glyph glyph-name="ograve" unicode="&#xf2;" horiz-adv-x="592" 
d="M350 576h-111l-119 147h164zM296 -10q-120 0 -188.5 74.5t-68.5 190.5t68.5 190.5t188.5 74.5t189 -74.5t69 -190.5t-69 -190.5t-189 -74.5zM296 102q56 0 89 41.5t33 111.5t-33 111.5t-89 41.5t-89 -41.5t-33 -111.5t33 -111.5t89 -41.5z" />
    <glyph glyph-name="oacute" unicode="&#xf3;" horiz-adv-x="592" 
d="M353 576h-111l66 147h164zM296 -10q-120 0 -188.5 74.5t-68.5 190.5t68.5 190.5t188.5 74.5t189 -74.5t69 -190.5t-69 -190.5t-189 -74.5zM296 102q56 0 89 41.5t33 111.5t-33 111.5t-89 41.5t-89 -41.5t-33 -111.5t33 -111.5t89 -41.5z" />
    <glyph glyph-name="ocircumflex" unicode="&#xf4;" horiz-adv-x="592" 
d="M240 576h-126l121 147h121l122 -147h-131l-53 79zM296 -10q-120 0 -188.5 74.5t-68.5 190.5t68.5 190.5t188.5 74.5t189 -74.5t69 -190.5t-69 -190.5t-189 -74.5zM296 102q56 0 89 41.5t33 111.5t-33 111.5t-89 41.5t-89 -41.5t-33 -111.5t33 -111.5t89 -41.5z" />
    <glyph glyph-name="otilde" unicode="&#xf5;" horiz-adv-x="592" 
d="M209 571h-77v44q0 56 24.5 84.5t62.5 28.5q35 0 76.5 -30.5t56.5 -30.5q31 0 31 61h77v-46q0 -57 -24 -84t-63 -27q-35 0 -76.5 30t-56.5 30q-31 0 -31 -60zM296 -10q-120 0 -188.5 74.5t-68.5 190.5t68.5 190.5t188.5 74.5t189 -74.5t69 -190.5t-69 -190.5t-189 -74.5z
M296 102q56 0 89 41.5t33 111.5t-33 111.5t-89 41.5t-89 -41.5t-33 -111.5t33 -111.5t89 -41.5z" />
    <glyph glyph-name="odieresis" unicode="&#xf6;" horiz-adv-x="592" 
d="M194 576q-34 0 -57 21.5t-23 53.5t23 54t57 22q32 0 54.5 -22t22.5 -54q0 -31 -22.5 -53t-54.5 -22zM401 576q-34 0 -57 21.5t-23 53.5t23 54t57 22q33 0 55 -22t22 -54t-22 -53.5t-55 -21.5zM296 -10q-120 0 -188.5 74.5t-68.5 190.5t68.5 190.5t188.5 74.5t189 -74.5
t69 -190.5t-69 -190.5t-189 -74.5zM296 102q56 0 89 41.5t33 111.5t-33 111.5t-89 41.5t-89 -41.5t-33 -111.5t33 -111.5t89 -41.5z" />
    <glyph glyph-name="divide" unicode="&#xf7;" 
d="M254 407q-32 0 -55 21.5t-23 52.5t23 52.5t55 21.5t55 -21.5t23 -52.5t-23 -52.5t-55 -21.5zM474 247h-441v107h441v-107zM254 45q-32 0 -55 21.5t-23 52.5t23 53t55 22t55 -22t23 -53t-23 -52.5t-55 -21.5z" />
    <glyph glyph-name="oslash" unicode="&#xf8;" horiz-adv-x="591" 
d="M502 540l-42 -72q93 -73 93 -213q0 -116 -68.5 -190.5t-188.5 -74.5q-55 0 -101 17l-40 -69l-65 32l41 72q-92 74 -92 213q0 116 68 190.5t189 74.5q54 0 100 -17l39 69zM296 414q-59 0 -94 -43t-35 -116q0 -66 29 -107l147 257q-21 9 -47 9zM296 96q58 0 93 43t35 116
q0 66 -29 107l-147 -257q21 -9 48 -9z" />
    <glyph glyph-name="ugrave" unicode="&#xf9;" horiz-adv-x="618" 
d="M361 576h-111l-119 147h164zM241 -10q-86 0 -134 53.5t-48 158.5v308h135v-282q0 -59 26 -90t75 -31q56 0 90 39t34 100v264h136v-238q0 -181 5 -272h-129l-11 83h-9q-61 -93 -170 -93z" />
    <glyph glyph-name="uacute" unicode="&#xfa;" horiz-adv-x="618" 
d="M364 576h-111l66 147h164zM241 -10q-86 0 -134 53.5t-48 158.5v308h135v-282q0 -59 26 -90t75 -31q56 0 90 39t34 100v264h136v-238q0 -181 5 -272h-129l-11 83h-9q-61 -93 -170 -93z" />
    <glyph glyph-name="ucircumflex" unicode="&#xfb;" horiz-adv-x="618" 
d="M251 576h-126l121 147h121l122 -147h-131l-53 79zM241 -10q-86 0 -134 53.5t-48 158.5v308h135v-282q0 -59 26 -90t75 -31q56 0 90 39t34 100v264h136v-238q0 -181 5 -272h-129l-11 83h-9q-61 -93 -170 -93z" />
    <glyph glyph-name="udieresis" unicode="&#xfc;" horiz-adv-x="618" 
d="M205 576q-34 0 -57 21.5t-23 53.5t23 54t57 22q32 0 54.5 -22t22.5 -54q0 -31 -22.5 -53t-54.5 -22zM412 576q-34 0 -57 21.5t-23 53.5t23 54t57 22q33 0 55 -22t22 -54t-22 -53.5t-55 -21.5zM241 -10q-86 0 -134 53.5t-48 158.5v308h135v-282q0 -59 26 -90t75 -31
q56 0 90 39t34 100v264h136v-238q0 -181 5 -272h-129l-11 83h-9q-61 -93 -170 -93z" />
    <glyph glyph-name="yacute" unicode="&#xfd;" horiz-adv-x="559" 
d="M337 576h-111l66 147h164zM282 -200h-142l70 182l-195 528h140l123 -380h7l122 380h137z" />
    <glyph glyph-name="thorn" unicode="&#xfe;" horiz-adv-x="614" 
d="M199 -200h-135v900h135v-273h8q55 93 162 93q95 0 151 -71.5t56 -193.5t-56 -193.5t-151 -71.5q-107 0 -162 93h-8v-283zM320 102q55 0 88 41t33 111t-33 112t-88 42t-88 -42t-33 -112t32.5 -111t88.5 -41z" />
    <glyph glyph-name="ydieresis" unicode="&#xff;" horiz-adv-x="559" 
d="M178 576q-34 0 -57 21.5t-23 53.5t23 54t57 22q32 0 54.5 -22t22.5 -54q0 -31 -22.5 -53t-54.5 -22zM385 576q-34 0 -57 21.5t-23 53.5t23 54t57 22q33 0 55 -22t22 -54t-22 -53.5t-55 -21.5zM282 -200h-142l70 182l-195 528h140l123 -380h7l122 380h137z" />
    <glyph glyph-name="Amacron" unicode="&#x100;" horiz-adv-x="698" 
d="M201 892h296v-100h-296v100zM683 0h-146l-46 143h-289l-46 -143h-141l241 700h183zM343 584l-106 -331h219l-106 331h-7z" />
    <glyph glyph-name="amacron" unicode="&#x101;" horiz-adv-x="579" 
d="M140 702h296v-100h-296v100zM515 337v-69q0 -178 5 -268h-119l-11 87h-9q-49 -97 -167 -97q-74 0 -119 41.5t-45 110.5q0 74 53 116t156 48l126 7v19q0 43 -28 65t-72 22q-87 0 -113 -80l-116 31q13 71 74 110.5t155 39.5q110 0 170 -48.5t60 -134.5zM255 91
q53 0 90 38.5t40 100.5l-95 -6q-56 -4 -83.5 -20t-27.5 -51q0 -28 20.5 -45t55.5 -17z" />
    <glyph glyph-name="Abreve" unicode="&#x102;" horiz-adv-x="698" 
d="M349 761q-75 0 -117.5 40.5t-42.5 111.5h93q0 -30 17.5 -49.5t49.5 -19.5t49 19.5t17 49.5h93q0 -71 -42 -111.5t-117 -40.5zM683 0h-146l-46 143h-289l-46 -143h-141l241 700h183zM343 584l-106 -331h219l-106 331h-7z" />
    <glyph glyph-name="abreve" unicode="&#x103;" horiz-adv-x="579" 
d="M288 571q-75 0 -117.5 40.5t-42.5 111.5h93q0 -30 17.5 -49.5t49.5 -19.5t49 19.5t17 49.5h93q0 -71 -42 -111.5t-117 -40.5zM515 337v-69q0 -178 5 -268h-119l-11 87h-9q-49 -97 -167 -97q-74 0 -119 41.5t-45 110.5q0 74 53 116t156 48l126 7v19q0 43 -28 65t-72 22
q-87 0 -113 -80l-116 31q13 71 74 110.5t155 39.5q110 0 170 -48.5t60 -134.5zM255 91q53 0 90 38.5t40 100.5l-95 -6q-56 -4 -83.5 -20t-27.5 -51q0 -28 20.5 -45t55.5 -17z" />
    <glyph glyph-name="Aogonek" unicode="&#x104;" horiz-adv-x="698" 
d="M683 0h-74q-80 -59 -80 -110q0 -39 45 -39q18 0 35 5v-83q-27 -6 -60 -6q-51 0 -82.5 24.5t-31.5 73.5q0 81 101 138l-45 140h-289l-46 -143h-141l241 700h183zM343 584l-106 -331h219l-106 331h-7z" />
    <glyph glyph-name="aogonek" unicode="&#x105;" horiz-adv-x="579" 
d="M520 0h-46q-80 -59 -80 -110q0 -39 45 -39q18 0 35 5v-83q-27 -6 -60 -6q-51 0 -82.5 24.5t-31.5 73.5q0 80 101 137l-11 85h-9q-49 -97 -167 -97q-74 0 -119 41.5t-45 110.5q0 74 53 116t156 48l126 7v19q0 43 -28 65t-72 22q-87 0 -113 -80l-116 31q13 71 74 110.5
t155 39.5q110 0 170 -48.5t60 -134.5v-69q0 -178 5 -268zM255 91q53 0 90 38.5t40 100.5l-95 -6q-56 -4 -83.5 -20t-27.5 -51q0 -28 20.5 -45t55.5 -17z" />
    <glyph glyph-name="Cacute" unicode="&#x106;" horiz-adv-x="715" 
d="M429 766h-111l66 147h164zM372 -10q-149 0 -238.5 99t-89.5 261t89.5 261t238.5 99q114 0 192 -55t107 -164l-134 -35q-41 138 -165 138q-88 0 -139.5 -65t-51.5 -179t51.5 -179t139.5 -65q127 0 170 138l134 -35q-31 -110 -109.5 -164.5t-194.5 -54.5z" />
    <glyph glyph-name="cacute" unicode="&#x107;" horiz-adv-x="567" 
d="M352 576h-111l66 147h164zM296 -10q-121 0 -189 74.5t-68 190.5t68 190.5t189 74.5q88 0 147.5 -42t83.5 -124l-129 -34q-26 88 -103 88q-55 0 -88 -41.5t-33 -111.5t33 -111.5t88 -41.5q79 0 108 88l130 -34q-25 -81 -87.5 -123.5t-149.5 -42.5z" />
    <glyph glyph-name="Ccircumflex" unicode="&#x108;" horiz-adv-x="715" 
d="M316 766h-126l121 147h121l122 -147h-131l-53 79zM372 -10q-149 0 -238.5 99t-89.5 261t89.5 261t238.5 99q114 0 192 -55t107 -164l-134 -35q-41 138 -165 138q-88 0 -139.5 -65t-51.5 -179t51.5 -179t139.5 -65q127 0 170 138l134 -35q-31 -110 -109.5 -164.5
t-194.5 -54.5z" />
    <glyph glyph-name="ccircumflex" unicode="&#x109;" horiz-adv-x="567" 
d="M239 576h-126l121 147h121l122 -147h-131l-53 79zM296 -10q-121 0 -189 74.5t-68 190.5t68 190.5t189 74.5q88 0 147.5 -42t83.5 -124l-129 -34q-26 88 -103 88q-55 0 -88 -41.5t-33 -111.5t33 -111.5t88 -41.5q79 0 108 88l130 -34q-25 -81 -87.5 -123.5t-149.5 -42.5z
" />
    <glyph glyph-name="Cdotaccent" unicode="&#x10a;" horiz-adv-x="715" 
d="M373 761q-37 0 -62 24t-25 59t25 58.5t62 23.5t62 -23.5t25 -58.5t-25 -59t-62 -24zM372 -10q-149 0 -238.5 99t-89.5 261t89.5 261t238.5 99q114 0 192 -55t107 -164l-134 -35q-41 138 -165 138q-88 0 -139.5 -65t-51.5 -179t51.5 -179t139.5 -65q127 0 170 138l134 -35
q-31 -110 -109.5 -164.5t-194.5 -54.5z" />
    <glyph glyph-name="cdotaccent" unicode="&#x10b;" horiz-adv-x="567" 
d="M295 571q-37 0 -62 24t-25 59t25 58.5t62 23.5t62 -23.5t25 -58.5t-25 -59t-62 -24zM296 -10q-121 0 -189 74.5t-68 190.5t68 190.5t189 74.5q88 0 147.5 -42t83.5 -124l-129 -34q-26 88 -103 88q-55 0 -88 -41.5t-33 -111.5t33 -111.5t88 -41.5q79 0 108 88l130 -34
q-25 -81 -87.5 -123.5t-149.5 -42.5z" />
    <glyph glyph-name="Ccaron" unicode="&#x10c;" horiz-adv-x="715" 
d="M432 766h-121l-121 147h130l55 -80l53 80h126zM372 -10q-149 0 -238.5 99t-89.5 261t89.5 261t238.5 99q114 0 192 -55t107 -164l-134 -35q-41 138 -165 138q-88 0 -139.5 -65t-51.5 -179t51.5 -179t139.5 -65q127 0 170 138l134 -35q-31 -110 -109.5 -164.5
t-194.5 -54.5z" />
    <glyph glyph-name="ccaron" unicode="&#x10d;" horiz-adv-x="567" 
d="M355 576h-121l-121 147h130l55 -80l53 80h126zM296 -10q-121 0 -189 74.5t-68 190.5t68 190.5t189 74.5q88 0 147.5 -42t83.5 -124l-129 -34q-26 88 -103 88q-55 0 -88 -41.5t-33 -111.5t33 -111.5t88 -41.5q79 0 108 88l130 -34q-25 -81 -87.5 -123.5t-149.5 -42.5z" />
    <glyph glyph-name="Dcaron" unicode="&#x10e;" horiz-adv-x="708" 
d="M402 766h-121l-121 147h130l55 -80l53 80h126zM319 0h-248v700h248q159 0 252.5 -96t93.5 -254t-93.5 -254t-252.5 -96zM208 583v-466h111q96 0 152 62t56 171t-56 171t-152 62h-111z" />
    <glyph glyph-name="dcaron" unicode="&#x10f;" horiz-adv-x="714" 
d="M246 -10q-96 0 -151.5 71t-55.5 193q0 123 55.5 194.5t151.5 71.5q107 0 161 -93h9v273h135v-428q0 -181 5 -272h-129l-11 83h-9q-54 -93 -161 -93zM676 504h-74l10 196h113zM294 102q56 0 89 41t33 111t-33.5 112t-88.5 42t-87.5 -42t-32.5 -112t32.5 -111t87.5 -41z
" />
    <glyph glyph-name="Dcroat" unicode="&#x110;" horiz-adv-x="757" 
d="M119 700h248q159 0 252.5 -96t93.5 -254t-93.5 -254t-252.5 -96h-248v306h-111v88h111v306zM257 117h110q97 0 153 62t56 171t-56 171t-153 62h-110v-189h173v-88h-173v-189z" />
    <glyph glyph-name="dcroat" unicode="&#x111;" horiz-adv-x="643" 
d="M645 637v-78h-94v-287q0 -181 5 -272h-129l-11 83h-9q-54 -93 -161 -93q-96 0 -151.5 71t-55.5 193q0 123 55.5 194.5t151.5 71.5q107 0 161 -93h9v132h-165v78h165v63h135v-63h94zM294 102q56 0 89 41t33 111t-33.5 112t-88.5 42t-87.5 -42t-32.5 -112t32.5 -111
t87.5 -41z" />
    <glyph glyph-name="Emacron" unicode="&#x112;" horiz-adv-x="619" 
d="M473 792h-296v100h296v-100zM568 0h-497v700h497v-115h-360v-168h320v-114h-320v-188h360v-115z" />
    <glyph glyph-name="emacron" unicode="&#x113;" horiz-adv-x="573" 
d="M146 702h296v-100h-296v100zM537 270q0 -30 -3 -54h-363q8 -62 41.5 -95t85.5 -33q76 0 107 74l121 -32q-58 -140 -230 -140q-120 0 -188.5 74.5t-68.5 190.5t68 190.5t187 74.5q112 0 177.5 -69t65.5 -181zM294 422q-48 0 -79.5 -30.5t-41.5 -87.5h235q-7 59 -36.5 88.5
t-77.5 29.5z" />
    <glyph glyph-name="Ebreve" unicode="&#x114;" horiz-adv-x="619" 
d="M325 761q-75 0 -117.5 40.5t-42.5 111.5h93q0 -30 17.5 -49.5t49.5 -19.5t49 19.5t17 49.5h93q0 -71 -42 -111.5t-117 -40.5zM568 0h-497v700h497v-115h-360v-168h320v-114h-320v-188h360v-115z" />
    <glyph glyph-name="ebreve" unicode="&#x115;" horiz-adv-x="573" 
d="M295 571q-75 0 -117.5 40.5t-42.5 111.5h93q0 -30 17.5 -49.5t49.5 -19.5t49 19.5t17 49.5h93q0 -71 -42 -111.5t-117 -40.5zM537 270q0 -30 -3 -54h-363q8 -62 41.5 -95t85.5 -33q76 0 107 74l121 -32q-58 -140 -230 -140q-120 0 -188.5 74.5t-68.5 190.5t68 190.5
t187 74.5q112 0 177.5 -69t65.5 -181zM294 422q-48 0 -79.5 -30.5t-41.5 -87.5h235q-7 59 -36.5 88.5t-77.5 29.5z" />
    <glyph glyph-name="Edotaccent" unicode="&#x116;" horiz-adv-x="619" 
d="M325 761q-37 0 -62 24t-25 59t25 58.5t62 23.5t62 -23.5t25 -58.5t-25 -59t-62 -24zM568 0h-497v700h497v-115h-360v-168h320v-114h-320v-188h360v-115z" />
    <glyph glyph-name="edotaccent" unicode="&#x117;" horiz-adv-x="573" 
d="M294 571q-37 0 -62 24t-25 59t25 58.5t62 23.5t62 -23.5t25 -58.5t-25 -59t-62 -24zM537 270q0 -30 -3 -54h-363q8 -62 41.5 -95t85.5 -33q76 0 107 74l121 -32q-58 -140 -230 -140q-120 0 -188.5 74.5t-68.5 190.5t68 190.5t187 74.5q112 0 177.5 -69t65.5 -181z
M294 422q-48 0 -79.5 -30.5t-41.5 -87.5h235q-7 59 -36.5 88.5t-77.5 29.5z" />
    <glyph glyph-name="Eogonek" unicode="&#x118;" horiz-adv-x="619" 
d="M568 700v-115h-360v-168h320v-114h-320v-188h360v-115q-80 -59 -80 -110q0 -39 45 -39q18 0 35 5v-83q-27 -6 -60 -6q-51 0 -82.5 24.5t-31.5 73.5q0 77 97 135h-420v700h497z" />
    <glyph glyph-name="eogonek" unicode="&#x119;" horiz-adv-x="573" 
d="M537 270q0 -30 -3 -54h-363q8 -62 41.5 -95t85.5 -33q76 0 107 74l121 -32q-44 -105 -151 -131q-78 -59 -78 -109q0 -39 45 -39q18 0 35 5v-83q-27 -6 -60 -6q-51 0 -82.5 24.5t-31.5 73.5q0 71 81 125q-115 4 -180 78.5t-65 186.5q0 116 68 190.5t187 74.5
q112 0 177.5 -69t65.5 -181zM294 422q-48 0 -79.5 -30.5t-41.5 -87.5h235q-7 59 -36.5 88.5t-77.5 29.5z" />
    <glyph glyph-name="Ecaron" unicode="&#x11a;" horiz-adv-x="619" 
d="M385 766h-121l-121 147h130l55 -80l53 80h126zM568 0h-497v700h497v-115h-360v-168h320v-114h-320v-188h360v-115z" />
    <glyph glyph-name="ecaron" unicode="&#x11b;" horiz-adv-x="573" 
d="M476 723l-122 -147h-121l-121 147h130l55 -80l53 80h126zM537 270q0 -30 -3 -54h-363q8 -62 41.5 -95t85.5 -33q76 0 107 74l121 -32q-58 -140 -230 -140q-120 0 -188.5 74.5t-68.5 190.5t68 190.5t187 74.5q112 0 177.5 -69t65.5 -181zM294 422q-48 0 -79.5 -30.5
t-41.5 -87.5h235q-7 59 -36.5 88.5t-77.5 29.5z" />
    <glyph glyph-name="Gcircumflex" unicode="&#x11c;" horiz-adv-x="733" 
d="M316 766h-126l121 147h121l122 -147h-131l-53 79zM386 -10q-158 0 -250 98.5t-92 261.5q0 162 90 261t240 99q234 0 300 -198l-134 -36q-42 121 -166 121q-87 0 -140 -66.5t-53 -180.5q0 -116 54.5 -181.5t152.5 -65.5q87 0 146 56v122l-148 7v89h281v-266
q-101 -121 -281 -121z" />
    <glyph glyph-name="gcircumflex" unicode="&#x11d;" horiz-adv-x="614" 
d="M240 576h-126l121 147h121l122 -147h-131l-53 79zM304 -210q-96 0 -161 37t-87 106l123 33q26 -75 124 -75q53 0 83 28.5t30 83.5v104h-9q-54 -93 -162 -93q-94 0 -150 67.5t-56 183.5q0 117 56 186t150 69q108 0 162 -93h9l11 83h129q-5 -91 -5 -266v-244
q0 -96 -63.5 -153t-183.5 -57zM294 122q55 0 88.5 40t33.5 104q0 63 -33.5 102.5t-88.5 39.5q-54 0 -87 -39.5t-33 -103.5t33 -103.5t87 -39.5z" />
    <glyph glyph-name="Gbreve" unicode="&#x11e;" horiz-adv-x="733" 
d="M372 761q-75 0 -117.5 40.5t-42.5 111.5h93q0 -30 17.5 -49.5t49.5 -19.5t49 19.5t17 49.5h93q0 -71 -42 -111.5t-117 -40.5zM386 -10q-158 0 -250 98.5t-92 261.5q0 162 90 261t240 99q234 0 300 -198l-134 -36q-42 121 -166 121q-87 0 -140 -66.5t-53 -180.5
q0 -116 54.5 -181.5t152.5 -65.5q87 0 146 56v122l-148 7v89h281v-266q-101 -121 -281 -121z" />
    <glyph glyph-name="gbreve" unicode="&#x11f;" horiz-adv-x="614" 
d="M297 571q-75 0 -117.5 40.5t-42.5 111.5h93q0 -30 17.5 -49.5t49.5 -19.5t49 19.5t17 49.5h93q0 -71 -42 -111.5t-117 -40.5zM304 -210q-96 0 -161 37t-87 106l123 33q26 -75 124 -75q53 0 83 28.5t30 83.5v104h-9q-54 -93 -162 -93q-94 0 -150 67.5t-56 183.5
q0 117 56 186t150 69q108 0 162 -93h9l11 83h129q-5 -91 -5 -266v-244q0 -96 -63.5 -153t-183.5 -57zM294 122q55 0 88.5 40t33.5 104q0 63 -33.5 102.5t-88.5 39.5q-54 0 -87 -39.5t-33 -103.5t33 -103.5t87 -39.5z" />
    <glyph glyph-name="Gdotaccent" unicode="&#x120;" horiz-adv-x="733" 
d="M372 761q-37 0 -62 24t-25 59t25 58.5t62 23.5t62 -23.5t25 -58.5t-25 -59t-62 -24zM386 -10q-158 0 -250 98.5t-92 261.5q0 162 90 261t240 99q234 0 300 -198l-134 -36q-42 121 -166 121q-87 0 -140 -66.5t-53 -180.5q0 -116 54.5 -181.5t152.5 -65.5q87 0 146 56v122
l-148 7v89h281v-266q-101 -121 -281 -121z" />
    <glyph glyph-name="gdotaccent" unicode="&#x121;" horiz-adv-x="614" 
d="M296 571q-37 0 -62 24t-25 59t25 58.5t62 23.5t62 -23.5t25 -58.5t-25 -59t-62 -24zM304 -210q-96 0 -161 37t-87 106l123 33q26 -75 124 -75q53 0 83 28.5t30 83.5v104h-9q-54 -93 -162 -93q-94 0 -150 67.5t-56 183.5q0 117 56 186t150 69q108 0 162 -93h9l11 83h129
q-5 -91 -5 -266v-244q0 -96 -63.5 -153t-183.5 -57zM294 122q55 0 88.5 40t33.5 104q0 63 -33.5 102.5t-88.5 39.5q-54 0 -87 -39.5t-33 -103.5t33 -103.5t87 -39.5z" />
    <glyph glyph-name="uni0122" unicode="&#x122;" horiz-adv-x="733" 
d="M386 -10q-158 0 -250 98.5t-92 261.5q0 162 90 261t240 99q234 0 300 -198l-134 -36q-42 121 -166 121q-87 0 -140 -66.5t-53 -180.5q0 -116 54.5 -181.5t152.5 -65.5q87 0 146 56v122l-148 7v89h281v-266q-101 -121 -281 -121zM384 -199h-100l34 151h132z" />
    <glyph glyph-name="uni0123" unicode="&#x123;" horiz-adv-x="614" 
d="M362 576h-132l64 147h101zM304 -210q-96 0 -161 37t-87 106l123 33q26 -75 124 -75q53 0 83 28.5t30 83.5v104h-9q-54 -93 -162 -93q-94 0 -150 67.5t-56 183.5q0 117 56 186t150 69q108 0 162 -93h9l11 83h129q-5 -91 -5 -266v-244q0 -96 -63.5 -153t-183.5 -57z
M294 122q55 0 88.5 40t33.5 104q0 63 -33.5 102.5t-88.5 39.5q-54 0 -87 -39.5t-33 -103.5t33 -103.5t87 -39.5z" />
    <glyph glyph-name="Hcircumflex" unicode="&#x124;" horiz-adv-x="730" 
d="M309 766h-126l121 147h121l122 -147h-131l-53 79zM208 0h-137v700h137v-286h314v286h137v-700h-137v296h-314v-296z" />
    <glyph glyph-name="hcircumflex" unicode="&#x125;" horiz-adv-x="618" 
d="M182 766l-53 79l-54 -79h-126l121 147h121l122 -147h-131zM377 520q87 0 135 -53.5t48 -158.5v-308h-136v282q0 59 -26 90t-75 31q-56 0 -90 -39.5t-34 -99.5v-264h-135v700h135v-155l-5 -118h14q58 93 169 93z" />
    <glyph glyph-name="Hbar" unicode="&#x126;" horiz-adv-x="807" 
d="M247 0h-138v519h-98v86h98v95h138v-95h313v95h137v-95h99v-86h-99v-519h-137v296h-313v-296zM247 519v-105h313v105h-313z" />
    <glyph glyph-name="hbar" unicode="&#x127;" horiz-adv-x="646" 
d="M406 520q86 0 134 -53.5t48 -158.5v-308h-135v282q0 59 -26.5 90t-75.5 31q-55 0 -89.5 -39.5t-34.5 -99.5v-264h-135v559h-94v78h94v63h135v-63h165v-78h-165v-14l-4 -118h13q58 93 170 93z" />
    <glyph glyph-name="Itilde" unicode="&#x128;" horiz-adv-x="279" 
d="M52 761h-77v44q0 56 24.5 84.5t62.5 28.5q35 0 76.5 -30.5t56.5 -30.5q31 0 31 61h77v-46q0 -57 -24 -84t-63 -27q-35 0 -76.5 30t-56.5 30q-31 0 -31 -60zM208 0h-137v700h137v-700z" />
    <glyph glyph-name="itilde" unicode="&#x129;" horiz-adv-x="262" 
d="M44 571h-77v44q0 56 24.5 84.5t62.5 28.5q35 0 76.5 -30.5t56.5 -30.5q31 0 31 61h77v-46q0 -57 -24 -84t-63 -27q-35 0 -76.5 30t-56.5 30q-31 0 -31 -60zM199 0h-135v510h135v-510z" />
    <glyph glyph-name="Imacron" unicode="&#x12a;" horiz-adv-x="279" 
d="M288 792h-296v100h296v-100zM208 0h-137v700h137v-700z" />
    <glyph glyph-name="imacron" unicode="&#x12b;" horiz-adv-x="262" 
d="M279 602h-296v100h296v-100zM199 0h-135v510h135v-510z" />
    <glyph glyph-name="Ibreve" unicode="&#x12c;" horiz-adv-x="279" 
d="M140 761q-75 0 -117.5 40.5t-42.5 111.5h93q0 -30 17.5 -49.5t49.5 -19.5t49 19.5t17 49.5h93q0 -71 -42 -111.5t-117 -40.5zM208 0h-137v700h137v-700z" />
    <glyph glyph-name="ibreve" unicode="&#x12d;" horiz-adv-x="262" 
d="M132 571q-75 0 -117.5 40.5t-42.5 111.5h93q0 -30 17.5 -49.5t49.5 -19.5t49 19.5t17 49.5h93q0 -71 -42 -111.5t-117 -40.5zM199 0h-135v510h135v-510z" />
    <glyph glyph-name="Iogonek" unicode="&#x12e;" horiz-adv-x="279" 
d="M208 700v-700q-80 -59 -80 -110q0 -39 45 -39q18 0 35 5v-83q-27 -6 -60 -6q-51 0 -82.5 24.5t-31.5 73.5q0 77 97 135h-60v700h137z" />
    <glyph glyph-name="iogonek" unicode="&#x12f;" horiz-adv-x="262" 
d="M131 571q-37 0 -62 24t-25 59t25 58.5t62 23.5t62 -23.5t25 -58.5t-25 -59t-62 -24zM122 0h-58v510h135v-510q-80 -59 -80 -110q0 -39 45 -39q18 0 35 5v-83q-27 -6 -60 -6q-51 0 -82.5 24.5t-31.5 73.5q0 77 97 135z" />
    <glyph glyph-name="Idotaccent" unicode="&#x130;" horiz-adv-x="279" 
d="M140 761q-37 0 -62 24t-25 59t25 58.5t62 23.5t62 -23.5t25 -58.5t-25 -59t-62 -24zM208 0h-137v700h137v-700z" />
    <glyph glyph-name="dotlessi" unicode="&#x131;" horiz-adv-x="262" 
d="M199 0h-135v510h135v-510z" />
    <glyph glyph-name="IJ" unicode="&#x132;" horiz-adv-x="765" 
d="M208 0h-137v700h137v-700zM444 0h-127v115h118q122 0 122 130v455h137v-457q0 -116 -66 -179.5t-184 -63.5z" />
    <glyph glyph-name="ij" unicode="&#x133;" horiz-adv-x="552" 
d="M131 571q-37 0 -62 24t-25 59t25 58.5t62 23.5t62 -23.5t25 -58.5t-25 -59t-62 -24zM421 571q-37 0 -62 24t-25 59t25 58.5t62 23.5t62 -23.5t25 -58.5t-25 -59t-62 -24zM199 0h-135v510h135v-510zM323 -210q-74 0 -125 30l34 97q28 -16 61 -16q28 0 44 17t16 51v541h136
v-548q0 -83 -43.5 -127.5t-122.5 -44.5z" />
    <glyph glyph-name="Jcircumflex" unicode="&#x134;" horiz-adv-x="609" 
d="M412 766h-126l121 147h121l122 -147h-131l-53 79zM280 -10q-94 0 -165 43.5t-96 129.5l129 33q30 -91 132 -91q57 0 88.5 33t31.5 96v466h138v-471q0 -112 -67.5 -175.5t-190.5 -63.5z" />
    <glyph glyph-name="jcircumflex" unicode="&#x135;" horiz-adv-x="305" 
d="M118 576h-126l121 147h121l122 -147h-131l-53 79zM76 -210q-74 0 -125 30l34 97q28 -16 61 -16q28 0 44 17t16 51v541h136v-548q0 -83 -43.5 -127.5t-122.5 -44.5z" />
    <glyph glyph-name="uni0136" unicode="&#x136;" horiz-adv-x="660" 
d="M208 0h-137v700h137v-340l264 340h160l-277 -341l287 -359h-167l-267 346v-346zM340 -199h-100l34 151h132z" />
    <glyph glyph-name="uni0137" unicode="&#x137;" horiz-adv-x="571" 
d="M199 0h-135v700h135v-432l188 242h159l-203 -243l211 -267h-165l-190 254v-254zM292 -199h-100l34 151h132z" />
    <glyph glyph-name="kgreenlandic" unicode="&#x138;" horiz-adv-x="571" 
d="M199 0h-135v510h135v-242l188 242h159l-203 -243l211 -267h-165l-190 254v-254z" />
    <glyph glyph-name="Lacute" unicode="&#x139;" horiz-adv-x="571" 
d="M196 766h-111l66 147h164zM543 0h-472v700h137v-579h335v-121z" />
    <glyph glyph-name="lacute" unicode="&#x13a;" horiz-adv-x="262" 
d="M188 766h-111l66 147h164zM199 0h-135v700h135v-700z" />
    <glyph glyph-name="uni013B" unicode="&#x13b;" horiz-adv-x="571" 
d="M543 0h-472v700h137v-579h335v-121zM318 -199h-100l34 151h132z" />
    <glyph glyph-name="uni013C" unicode="&#x13c;" horiz-adv-x="262" 
d="M199 0h-135v700h135v-700zM131 -199h-100l34 151h132z" />
    <glyph glyph-name="Lcaron" unicode="&#x13d;" horiz-adv-x="571" 
d="M543 0h-472v700h137v-579h335v-121zM334 504h-74l10 196h113z" />
    <glyph glyph-name="lcaron" unicode="&#x13e;" horiz-adv-x="362" 
d="M199 0h-135v700h135v-700zM324 504h-74l10 196h113z" />
    <glyph glyph-name="Ldot" unicode="&#x13f;" horiz-adv-x="571" 
d="M543 0h-472v700h137v-579h335v-121zM426 304q-35 0 -59.5 22.5t-24.5 57.5t24.5 57.5t59.5 22.5t59 -22.5t24 -57.5t-24 -57.5t-59 -22.5z" />
    <glyph glyph-name="ldot" unicode="&#x140;" horiz-adv-x="403" 
d="M199 0h-135v700h135v-700zM333 240q-35 0 -59.5 22.5t-24.5 57.5t24.5 57.5t59.5 22.5t59.5 -22.5t24.5 -57.5t-24.5 -57.5t-59.5 -22.5z" />
    <glyph glyph-name="Lslash" unicode="&#x141;" horiz-adv-x="642" 
d="M614 0h-485v236l-108 -57v107l108 57v357h138v-283l187 100v-107l-187 -100v-189h347v-121z" />
    <glyph glyph-name="lslash" unicode="&#x142;" horiz-adv-x="358" 
d="M247 0h-136v244l-90 -49v101l90 49v355h136v-283l90 48v-101l-90 -48v-316z" />
    <glyph glyph-name="Nacute" unicode="&#x143;" horiz-adv-x="743" 
d="M428 766h-111l66 147h164zM206 0h-135v700h147l315 -495h8q-4 92 -4 193v302h135v-700h-148l-315 495h-7q4 -93 4 -193v-302z" />
    <glyph glyph-name="nacute" unicode="&#x144;" horiz-adv-x="618" 
d="M369 576h-111l66 147h164zM199 0h-135v238q0 181 -5 272h129l10 -83h9q61 93 170 93q87 0 135 -53.5t48 -158.5v-308h-136v282q0 59 -26 90t-75 31q-56 0 -90 -39t-34 -100v-264z" />
    <glyph glyph-name="uni0145" unicode="&#x145;" horiz-adv-x="743" 
d="M206 0h-135v700h147l315 -495h8q-4 92 -4 193v302h135v-700h-148l-315 495h-7q4 -93 4 -193v-302zM371 -199h-100l34 151h132z" />
    <glyph glyph-name="uni0146" unicode="&#x146;" horiz-adv-x="618" 
d="M199 0h-135v238q0 181 -5 272h129l10 -83h9q61 93 170 93q87 0 135 -53.5t48 -158.5v-308h-136v282q0 59 -26 90t-75 31q-56 0 -90 -39t-34 -100v-264zM311 -199h-100l34 151h132z" />
    <glyph glyph-name="Ncaron" unicode="&#x147;" horiz-adv-x="743" 
d="M432 766h-121l-121 147h130l55 -80l53 80h126zM206 0h-135v700h147l315 -495h8q-4 92 -4 193v302h135v-700h-148l-315 495h-7q4 -93 4 -193v-302z" />
    <glyph glyph-name="ncaron" unicode="&#x148;" horiz-adv-x="618" 
d="M372 576h-121l-121 147h130l55 -80l53 80h126zM199 0h-135v238q0 181 -5 272h129l10 -83h9q61 93 170 93q87 0 135 -53.5t48 -158.5v-308h-136v282q0 59 -26 90t-75 31q-56 0 -90 -39t-34 -100v-264z" />
    <glyph glyph-name="napostrophe" unicode="&#x149;" horiz-adv-x="618" 
d="M139 568h-74l9 196h114zM199 0h-135v238q0 181 -5 272h129l10 -83h9q61 93 170 93q87 0 135 -53.5t48 -158.5v-308h-136v282q0 59 -26 90t-75 31q-56 0 -90 -39t-34 -100v-264z" />
    <glyph glyph-name="Eng" unicode="&#x14a;" horiz-adv-x="743" 
d="M509 -210q-72 0 -123 30l33 93q28 -16 61 -16q61 0 61 63v29l-332 511h-7q4 -92 4 -192v-308h-135v700h147l315 -485h8q-4 92 -4 192v293h135v-738q0 -83 -42.5 -127.5t-120.5 -44.5z" />
    <glyph glyph-name="eng" unicode="&#x14b;" horiz-adv-x="618" 
d="M394 -210q-72 0 -125 30l35 97q27 -16 59 -16q61 0 61 68v313q0 59 -26 90t-75 31q-56 0 -90 -39.5t-34 -99.5v-264h-135v238q0 181 -5 272h129l10 -83h9q61 93 170 93q87 0 135 -53.5t48 -158.5v-346q0 -83 -43.5 -127.5t-122.5 -44.5z" />
    <glyph glyph-name="Omacron" unicode="&#x14c;" horiz-adv-x="744" 
d="M521 792h-296v100h296v-100zM372 -10q-148 0 -238 99t-90 261t90 261t238 99q149 0 239 -99t90 -261t-90 -261t-239 -99zM372 107q88 0 139.5 64.5t51.5 178.5t-51.5 178.5t-139.5 64.5q-87 0 -139 -64.5t-52 -178.5t52 -178.5t139 -64.5z" />
    <glyph glyph-name="omacron" unicode="&#x14d;" horiz-adv-x="592" 
d="M444 602h-296v100h296v-100zM296 -10q-120 0 -188.5 74.5t-68.5 190.5t68.5 190.5t188.5 74.5t189 -74.5t69 -190.5t-69 -190.5t-189 -74.5zM296 102q56 0 89 41.5t33 111.5t-33 111.5t-89 41.5t-89 -41.5t-33 -111.5t33 -111.5t89 -41.5z" />
    <glyph glyph-name="Obreve" unicode="&#x14e;" horiz-adv-x="744" 
d="M373 761q-75 0 -117.5 40.5t-42.5 111.5h93q0 -30 17.5 -49.5t49.5 -19.5t49 19.5t17 49.5h93q0 -71 -42 -111.5t-117 -40.5zM372 -10q-148 0 -238 99t-90 261t90 261t238 99q149 0 239 -99t90 -261t-90 -261t-239 -99zM372 107q88 0 139.5 64.5t51.5 178.5t-51.5 178.5
t-139.5 64.5q-87 0 -139 -64.5t-52 -178.5t52 -178.5t139 -64.5z" />
    <glyph glyph-name="obreve" unicode="&#x14f;" horiz-adv-x="592" 
d="M296 571q-75 0 -117.5 40.5t-42.5 111.5h93q0 -30 17.5 -49.5t49.5 -19.5t49 19.5t17 49.5h93q0 -71 -42 -111.5t-117 -40.5zM296 -10q-120 0 -188.5 74.5t-68.5 190.5t68.5 190.5t188.5 74.5t189 -74.5t69 -190.5t-69 -190.5t-189 -74.5zM296 102q56 0 89 41.5t33 111.5
t-33 111.5t-89 41.5t-89 -41.5t-33 -111.5t33 -111.5t89 -41.5z" />
    <glyph glyph-name="Ohungarumlaut" unicode="&#x150;" horiz-adv-x="744" 
d="M331 766h-99l65 147h145zM511 766h-99l65 147h145zM372 -10q-148 0 -238 99t-90 261t90 261t238 99q149 0 239 -99t90 -261t-90 -261t-239 -99zM372 107q88 0 139.5 64.5t51.5 178.5t-51.5 178.5t-139.5 64.5q-87 0 -139 -64.5t-52 -178.5t52 -178.5t139 -64.5z" />
    <glyph glyph-name="ohungarumlaut" unicode="&#x151;" horiz-adv-x="592" 
d="M255 576h-99l65 147h145zM435 576h-99l65 147h145zM296 -10q-120 0 -188.5 74.5t-68.5 190.5t68.5 190.5t188.5 74.5t189 -74.5t69 -190.5t-69 -190.5t-189 -74.5zM296 102q56 0 89 41.5t33 111.5t-33 111.5t-89 41.5t-89 -41.5t-33 -111.5t33 -111.5t89 -41.5z" />
    <glyph glyph-name="OE" unicode="&#x152;" horiz-adv-x="968" 
d="M917 0h-539q-152 0 -243 96t-91 254t91 254t243 96h539v-115h-311v-168h271v-114h-271v-188h311v-115zM383 115h88v470h-88q-91 0 -144 -62.5t-53 -172.5t53 -172.5t144 -62.5z" />
    <glyph glyph-name="oe" unicode="&#x153;" horiz-adv-x="927" 
d="M890 269q0 -29 -3 -53h-347q7 -62 38.5 -95t79.5 -33q69 0 103 74l119 -32q-58 -140 -212 -140q-130 0 -195 94q-62 -94 -187 -94q-116 0 -181.5 74.5t-65.5 190.5t65.5 190.5t181.5 74.5q123 0 188 -93q65 93 187 93q108 0 168.5 -69t60.5 -182zM542 304h220
q-4 57 -32 87.5t-74 30.5q-45 0 -75 -31t-39 -87zM290 102q54 0 86 41.5t32 111.5t-32 111.5t-86 41.5q-53 0 -84.5 -41.5t-31.5 -111.5t31.5 -111.5t84.5 -41.5z" />
    <glyph glyph-name="Racute" unicode="&#x154;" horiz-adv-x="658" 
d="M383 766h-111l66 147h164zM208 0h-137v700h289q115 0 181.5 -59t66.5 -165q0 -73 -35 -123.5t-99 -73.5l150 -279h-154l-127 259h-135v-259zM208 588v-222h141q56 0 88.5 29t32.5 81t-32.5 82t-88.5 30h-141z" />
    <glyph glyph-name="racute" unicode="&#x155;" horiz-adv-x="414" 
d="M250 723h164l-119 -147h-111zM201 406h10q42 114 147 114q21 0 35 -1v-133q-16 2 -38 2q-67 0 -111.5 -43t-44.5 -138v-207h-135v238q0 181 -5 272h129z" />
    <glyph glyph-name="uni0156" unicode="&#x156;" horiz-adv-x="658" 
d="M208 0h-137v700h289q115 0 181.5 -59t66.5 -165q0 -73 -35 -123.5t-99 -73.5l150 -279h-154l-127 259h-135v-259zM208 588v-222h141q56 0 88.5 29t32.5 81t-32.5 82t-88.5 30h-141zM341 -199h-100l34 151h132z" />
    <glyph glyph-name="uni0157" unicode="&#x157;" horiz-adv-x="414" 
d="M358 520q21 0 35 -1v-133q-16 2 -38 2q-67 0 -111.5 -43t-44.5 -138v-207h-135v238q0 181 -5 272h129l13 -104h10q42 114 147 114zM153 -199h-100l34 151h132z" />
    <glyph glyph-name="Rcaron" unicode="&#x158;" horiz-adv-x="658" 
d="M386 766h-121l-121 147h130l55 -80l53 80h126zM208 0h-137v700h289q115 0 181.5 -59t66.5 -165q0 -73 -35 -123.5t-99 -73.5l150 -279h-154l-127 259h-135v-259zM208 588v-222h141q56 0 88.5 29t32.5 81t-32.5 82t-88.5 30h-141z" />
    <glyph glyph-name="rcaron" unicode="&#x159;" horiz-adv-x="414" 
d="M420 723l-122 -147h-121l-121 147h130l55 -80l53 80h126zM201 406h10q42 114 147 114q21 0 35 -1v-133q-16 2 -38 2q-67 0 -111.5 -43t-44.5 -138v-207h-135v238q0 181 -5 272h129z" />
    <glyph glyph-name="Sacute" unicode="&#x15a;" horiz-adv-x="639" 
d="M372 766h-111l66 147h164zM335 -10q-106 0 -185 44.5t-106 131.5l128 33q19 -52 63 -77t100 -25q61 0 93.5 24.5t32.5 65.5q0 35 -30 58t-74.5 33.5t-96.5 27t-96.5 37t-74.5 66t-30 110.5q0 85 68.5 138t187.5 53q102 0 172 -42t96 -124l-130 -33q-31 92 -138 92
q-54 0 -85.5 -23.5t-31.5 -60.5q0 -30 22 -50t57.5 -32t78.5 -22.5t86 -26.5t78.5 -38.5t57.5 -64.5t22 -99q0 -89 -70.5 -142.5t-194.5 -53.5z" />
    <glyph glyph-name="sacute" unicode="&#x15b;" horiz-adv-x="517" 
d="M313 576h-111l66 147h164zM270 -10q-88 0 -150 33t-81 100l116 30q11 -37 41.5 -55.5t71.5 -18.5q39 0 60 16.5t21 42.5q0 23 -22 38t-55 21.5t-72 18t-72 27t-55 49.5t-22 84q0 64 54.5 104t147.5 40q82 0 138 -31t74 -93l-116 -30q-20 65 -94 65q-35 0 -55 -15.5
t-20 -38.5q0 -28 31 -43t75 -24.5t87.5 -24t74.5 -51t31 -95.5q0 -67 -56 -108t-153 -41z" />
    <glyph glyph-name="Scircumflex" unicode="&#x15c;" horiz-adv-x="639" 
d="M259 766h-126l121 147h121l122 -147h-131l-53 79zM335 -10q-106 0 -185 44.5t-106 131.5l128 33q19 -52 63 -77t100 -25q61 0 93.5 24.5t32.5 65.5q0 35 -30 58t-74.5 33.5t-96.5 27t-96.5 37t-74.5 66t-30 110.5q0 85 68.5 138t187.5 53q102 0 172 -42t96 -124l-130 -33
q-31 92 -138 92q-54 0 -85.5 -23.5t-31.5 -60.5q0 -30 22 -50t57.5 -32t78.5 -22.5t86 -26.5t78.5 -38.5t57.5 -64.5t22 -99q0 -89 -70.5 -142.5t-194.5 -53.5z" />
    <glyph glyph-name="scircumflex" unicode="&#x15d;" horiz-adv-x="517" 
d="M200 576h-126l121 147h121l122 -147h-131l-53 79zM270 -10q-88 0 -150 33t-81 100l116 30q11 -37 41.5 -55.5t71.5 -18.5q39 0 60 16.5t21 42.5q0 23 -22 38t-55 21.5t-72 18t-72 27t-55 49.5t-22 84q0 64 54.5 104t147.5 40q82 0 138 -31t74 -93l-116 -30q-20 65 -94 65
q-35 0 -55 -15.5t-20 -38.5q0 -28 31 -43t75 -24.5t87.5 -24t74.5 -51t31 -95.5q0 -67 -56 -108t-153 -41z" />
    <glyph glyph-name="Scedilla" unicode="&#x15e;" horiz-adv-x="639" 
d="M600 186q0 -83 -62 -135.5t-172 -59.5l-11 -32h3q47 0 77 -25t30 -70q0 -46 -35.5 -75.5t-99.5 -29.5q-73 0 -126 39l40 63q39 -29 82 -29q49 0 49 34q0 33 -43 33q-20 0 -40 -7l-18 27l24 72q-94 8 -161.5 52t-92.5 123l128 33q19 -52 63 -77t100 -25q61 0 93.5 24.5
t32.5 65.5q0 35 -30 58t-74.5 33.5t-96.5 27t-96.5 37t-74.5 66t-30 110.5q0 85 68.5 138t187.5 53q102 0 172 -42t96 -124l-130 -33q-31 92 -138 92q-54 0 -85.5 -23.5t-31.5 -60.5q0 -30 22 -50t57.5 -32t78.5 -22.5t86 -26.5t78.5 -38.5t57.5 -64.5t22 -99z" />
    <glyph glyph-name="scedilla" unicode="&#x15f;" horiz-adv-x="517" 
d="M479 139q0 -61 -47 -101t-130 -47l-11 -32h3q47 0 77 -25t30 -70q0 -46 -35.5 -75.5t-99.5 -29.5q-73 0 -126 39l40 63q39 -29 82 -29q49 0 49 34q0 33 -43 33q-20 0 -40 -7l-18 27l24 72q-161 14 -195 132l116 30q11 -37 41.5 -55.5t71.5 -18.5q39 0 60 16.5t21 42.5
q0 23 -22 38t-55 21.5t-72 18t-72 27t-55 49.5t-22 84q0 64 54.5 104t147.5 40q82 0 138 -31t74 -93l-116 -30q-20 65 -94 65q-35 0 -55 -15.5t-20 -38.5q0 -28 31 -43t75 -24.5t87.5 -24t74.5 -51t31 -95.5z" />
    <glyph glyph-name="Scaron" unicode="&#x160;" horiz-adv-x="639" 
d="M375 766h-121l-121 147h130l55 -80l53 80h126zM335 -10q-106 0 -185 44.5t-106 131.5l128 33q19 -52 63 -77t100 -25q61 0 93.5 24.5t32.5 65.5q0 35 -30 58t-74.5 33.5t-96.5 27t-96.5 37t-74.5 66t-30 110.5q0 85 68.5 138t187.5 53q102 0 172 -42t96 -124l-130 -33
q-31 92 -138 92q-54 0 -85.5 -23.5t-31.5 -60.5q0 -30 22 -50t57.5 -32t78.5 -22.5t86 -26.5t78.5 -38.5t57.5 -64.5t22 -99q0 -89 -70.5 -142.5t-194.5 -53.5z" />
    <glyph glyph-name="scaron" unicode="&#x161;" horiz-adv-x="517" 
d="M316 576h-121l-121 147h130l55 -80l53 80h126zM270 -10q-88 0 -150 33t-81 100l116 30q11 -37 41.5 -55.5t71.5 -18.5q39 0 60 16.5t21 42.5q0 23 -22 38t-55 21.5t-72 18t-72 27t-55 49.5t-22 84q0 64 54.5 104t147.5 40q82 0 138 -31t74 -93l-116 -30q-20 65 -94 65
q-35 0 -55 -15.5t-20 -38.5q0 -28 31 -43t75 -24.5t87.5 -24t74.5 -51t31 -95.5q0 -67 -56 -108t-153 -41z" />
    <glyph glyph-name="uni0162" unicode="&#x162;" horiz-adv-x="622" 
d="M380 579v-579h-33l-14 -41h3q47 0 77 -25t30 -70q0 -46 -35.5 -75.5t-99.5 -29.5q-73 0 -126 39l40 63q39 -29 82 -29q49 0 49 34q0 33 -43 33q-20 0 -40 -7l-18 27l27 81h-37v579h-221v121h580v-121h-221z" />
    <glyph glyph-name="uni0163" unicode="&#x163;" horiz-adv-x="446" 
d="M308 -41h3q47 0 77 -25t30 -70q0 -46 -35.5 -75.5t-99.5 -29.5q-73 0 -126 39l40 63q39 -29 82 -29q49 0 49 34q0 33 -43 33q-20 0 -40 -7l-18 27l25 74q-60 9 -94 51t-34 115v244h-98v107h105l22 144h106v-144h136v-107h-136v-237q0 -66 60 -66q32 0 61 17l33 -93
q-47 -28 -94 -32z" />
    <glyph glyph-name="Tcaron" unicode="&#x164;" horiz-adv-x="622" 
d="M371 766h-121l-121 147h130l55 -80l53 80h126zM380 0h-138v579h-221v121h580v-121h-221v-579z" />
    <glyph glyph-name="tcaron" unicode="&#x165;" horiz-adv-x="464" 
d="M390 554h-74l9 196h114zM288 -10q-76 0 -120 42.5t-44 126.5v244h-98v107h105l22 144h106v-144h136v-107h-136v-237q0 -66 60 -66q32 0 61 17l33 -93q-56 -34 -125 -34z" />
    <glyph glyph-name="Tbar" unicode="&#x166;" horiz-adv-x="622" 
d="M601 700v-121h-221v-202h144v-91h-144v-286h-138v286h-144v91h144v202h-221v121h580z" />
    <glyph glyph-name="tbar" unicode="&#x167;" horiz-adv-x="446" 
d="M380 117l33 -93q-56 -34 -125 -34q-76 0 -120 42.5t-44 126.5v69h-93v74h93v101h-98v107h105l22 144h106v-144h136v-107h-136v-101h132v-74h-132v-62q0 -66 60 -66q32 0 61 17z" />
    <glyph glyph-name="Utilde" unicode="&#x168;" horiz-adv-x="726" 
d="M276 761h-77v44q0 56 24.5 84.5t62.5 28.5q35 0 76.5 -30.5t56.5 -30.5q31 0 31 61h77v-46q0 -57 -24 -84t-63 -27q-35 0 -76.5 30t-56.5 30q-31 0 -31 -60zM363 -10q-129 0 -210.5 75.5t-81.5 219.5v415h137v-415q0 -87 43 -130.5t112 -43.5t111.5 43t42.5 131v415h138
v-415q0 -144 -81.5 -219.5t-210.5 -75.5z" />
    <glyph glyph-name="utilde" unicode="&#x169;" horiz-adv-x="618" 
d="M220 571h-77v44q0 56 24.5 84.5t62.5 28.5q35 0 76.5 -30.5t56.5 -30.5q31 0 31 61h77v-46q0 -57 -24 -84t-63 -27q-35 0 -76.5 30t-56.5 30q-31 0 -31 -60zM241 -10q-86 0 -134 53.5t-48 158.5v308h135v-282q0 -59 26 -90t75 -31q56 0 90 39t34 100v264h136v-238
q0 -181 5 -272h-129l-11 83h-9q-61 -93 -170 -93z" />
    <glyph glyph-name="Umacron" unicode="&#x16a;" horiz-adv-x="726" 
d="M511 792h-296v100h296v-100zM363 -10q-129 0 -210.5 75.5t-81.5 219.5v415h137v-415q0 -87 43 -130.5t112 -43.5t111.5 43t42.5 131v415h138v-415q0 -144 -81.5 -219.5t-210.5 -75.5z" />
    <glyph glyph-name="umacron" unicode="&#x16b;" horiz-adv-x="618" 
d="M455 602h-296v100h296v-100zM241 -10q-86 0 -134 53.5t-48 158.5v308h135v-282q0 -59 26 -90t75 -31q56 0 90 39t34 100v264h136v-238q0 -181 5 -272h-129l-11 83h-9q-61 -93 -170 -93z" />
    <glyph glyph-name="Ubreve" unicode="&#x16c;" horiz-adv-x="726" 
d="M364 761q-75 0 -117.5 40.5t-42.5 111.5h93q0 -30 17.5 -49.5t49.5 -19.5t49 19.5t17 49.5h93q0 -71 -42 -111.5t-117 -40.5zM363 -10q-129 0 -210.5 75.5t-81.5 219.5v415h137v-415q0 -87 43 -130.5t112 -43.5t111.5 43t42.5 131v415h138v-415q0 -144 -81.5 -219.5
t-210.5 -75.5z" />
    <glyph glyph-name="ubreve" unicode="&#x16d;" horiz-adv-x="618" 
d="M307 571q-75 0 -117.5 40.5t-42.5 111.5h93q0 -30 17.5 -49.5t49.5 -19.5t49 19.5t17 49.5h93q0 -71 -42 -111.5t-117 -40.5zM241 -10q-86 0 -134 53.5t-48 158.5v308h135v-282q0 -59 26 -90t75 -31q56 0 90 39t34 100v264h136v-238q0 -181 5 -272h-129l-11 83h-9
q-61 -93 -170 -93z" />
    <glyph glyph-name="Uring" unicode="&#x16e;" horiz-adv-x="726" 
d="M364 746q-54 0 -89 31.5t-35 79.5q0 49 35 80t89 31q53 0 88 -31t35 -80q0 -48 -35 -79.5t-88 -31.5zM364 812q20 0 32.5 12.5t12.5 32.5t-12.5 32.5t-32.5 12.5q-21 0 -33.5 -12.5t-12.5 -32.5t12.5 -32.5t33.5 -12.5zM363 -10q-129 0 -210.5 75.5t-81.5 219.5v415h137
v-415q0 -87 43 -130.5t112 -43.5t111.5 43t42.5 131v415h138v-415q0 -144 -81.5 -219.5t-210.5 -75.5z" />
    <glyph glyph-name="uring" unicode="&#x16f;" horiz-adv-x="618" 
d="M307 556q-54 0 -89 31.5t-35 79.5q0 49 35 80t89 31q53 0 88 -31t35 -80q0 -48 -35 -79.5t-88 -31.5zM307 622q20 0 32.5 12.5t12.5 32.5t-12.5 32.5t-32.5 12.5q-21 0 -33.5 -12.5t-12.5 -32.5t12.5 -32.5t33.5 -12.5zM241 -10q-86 0 -134 53.5t-48 158.5v308h135v-282
q0 -59 26 -90t75 -31q56 0 90 39t34 100v264h136v-238q0 -181 5 -272h-129l-11 83h-9q-61 -93 -170 -93z" />
    <glyph glyph-name="Uhungarumlaut" unicode="&#x170;" horiz-adv-x="726" 
d="M322 766h-99l65 147h145zM502 766h-99l65 147h145zM363 -10q-129 0 -210.5 75.5t-81.5 219.5v415h137v-415q0 -87 43 -130.5t112 -43.5t111.5 43t42.5 131v415h138v-415q0 -144 -81.5 -219.5t-210.5 -75.5z" />
    <glyph glyph-name="uhungarumlaut" unicode="&#x171;" horiz-adv-x="618" 
d="M266 576h-99l65 147h145zM446 576h-99l65 147h145zM241 -10q-86 0 -134 53.5t-48 158.5v308h135v-282q0 -59 26 -90t75 -31q56 0 90 39t34 100v264h136v-238q0 -181 5 -272h-129l-11 83h-9q-61 -93 -170 -93z" />
    <glyph glyph-name="Uogonek" unicode="&#x172;" horiz-adv-x="726" 
d="M517 285v415h138v-415q0 -118 -55.5 -190t-149.5 -95q-80 -59 -80 -110q0 -39 45 -39q18 0 35 5v-83q-27 -6 -60 -6q-51 0 -82.5 24.5t-31.5 73.5q0 71 81 125q-126 2 -206 77.5t-80 217.5v415h137v-415q0 -87 43 -130.5t112 -43.5t111.5 43t42.5 131z" />
    <glyph glyph-name="uogonek" unicode="&#x173;" horiz-adv-x="618" 
d="M480 -110q0 -39 45 -39q18 0 35 5v-83q-27 -6 -60 -6q-51 0 -82.5 24.5t-31.5 73.5q0 77 97 135h-52l-11 83h-9q-61 -93 -170 -93q-86 0 -134 53.5t-48 158.5v308h135v-282q0 -59 26 -90t75 -31q56 0 90 39t34 100v264h136v-238q0 -181 5 -272q-80 -59 -80 -110z" />
    <glyph glyph-name="Wcircumflex" unicode="&#x174;" horiz-adv-x="991" 
d="M443 766h-126l121 147h121l122 -147h-131l-53 79zM369 0h-174l-177 700h139l127 -565h7l123 565h170l122 -565h7l127 565h133l-178 -700h-174l-122 564h-7z" />
    <glyph glyph-name="wcircumflex" unicode="&#x175;" horiz-adv-x="787" 
d="M339 576h-126l121 147h121l122 -147h-131l-53 79zM310 0h-161l-134 510h134l83 -375h9l76 375h159l75 -375h8l83 375h131l-134 -510h-162l-79 385h-8z" />
    <glyph glyph-name="Ycircumflex" unicode="&#x176;" horiz-adv-x="669" 
d="M278 766h-126l121 147h121l122 -147h-131l-53 79zM404 0h-138v262l-248 438h156l159 -304h7l158 304h153l-247 -438v-262z" />
    <glyph glyph-name="ycircumflex" unicode="&#x177;" horiz-adv-x="559" 
d="M225 576h-126l121 147h121l122 -147h-131l-53 79zM282 -200h-142l70 182l-195 528h140l123 -380h7l122 380h137z" />
    <glyph glyph-name="Ydieresis" unicode="&#x178;" horiz-adv-x="669" 
d="M232 766q-34 0 -57 21.5t-23 53.5t23 54t57 22q32 0 54.5 -22t22.5 -54q0 -31 -22.5 -53t-54.5 -22zM439 766q-34 0 -57 21.5t-23 53.5t23 54t57 22q33 0 55 -22t22 -54t-22 -53.5t-55 -21.5zM404 0h-138v262l-248 438h156l159 -304h7l158 304h153l-247 -438v-262z" />
    <glyph glyph-name="Zacute" unicode="&#x179;" horiz-adv-x="637" 
d="M375 766h-111l66 147h164zM594 0h-551v117l362 458v8h-350v117h527v-117l-363 -458v-8h375v-117z" />
    <glyph glyph-name="zacute" unicode="&#x17a;" horiz-adv-x="513" 
d="M313 576h-111l66 147h164zM470 0h-427v107l247 284v7h-238v112h409v-107l-247 -284v-7h256v-112z" />
    <glyph glyph-name="Zdotaccent" unicode="&#x17b;" horiz-adv-x="637" 
d="M318 761q-37 0 -62 24t-25 59t25 58.5t62 23.5t62 -23.5t25 -58.5t-25 -59t-62 -24zM594 0h-551v117l362 458v8h-350v117h527v-117l-363 -458v-8h375v-117z" />
    <glyph glyph-name="zdotaccent" unicode="&#x17c;" horiz-adv-x="513" 
d="M257 571q-37 0 -62 24t-25 59t25 58.5t62 23.5t62 -23.5t25 -58.5t-25 -59t-62 -24zM470 0h-427v107l247 284v7h-238v112h409v-107l-247 -284v-7h256v-112z" />
    <glyph glyph-name="Zcaron" unicode="&#x17d;" horiz-adv-x="637" 
d="M378 766h-121l-121 147h130l55 -80l53 80h126zM594 0h-551v117l362 458v8h-350v117h527v-117l-363 -458v-8h375v-117z" />
    <glyph glyph-name="zcaron" unicode="&#x17e;" horiz-adv-x="513" 
d="M316 576h-121l-121 147h130l55 -80l53 80h126zM470 0h-427v107l247 284v7h-238v112h409v-107l-247 -284v-7h256v-112z" />
    <glyph glyph-name="uni018F" unicode="&#x18f;" horiz-adv-x="721" 
d="M350 710q150 0 239 -99.5t89 -260.5t-89 -260.5t-239 -99.5q-131 0 -218.5 88.5t-87.5 247.5q0 43 2 67h492q-10 94 -60 147.5t-128 53.5q-123 0 -168 -116l-132 32q34 99 113 149.5t187 50.5zM350 106q75 0 125 50.5t62 140.5h-359q5 -89 48.5 -140t123.5 -51z" />
    <glyph glyph-name="florin" unicode="&#x192;" horiz-adv-x="491" 
d="M64 -200h-81v114h48q30 0 49.5 17.5t24.5 46.5l61 386h-101v87h115l14 87q26 162 181 162h83v-114h-54q-30 0 -49.5 -17t-24.5 -47l-12 -71h120v-87h-133l-64 -403q-24 -161 -177 -161z" />
    <glyph glyph-name="uni019D" unicode="&#x19d;" horiz-adv-x="743" 
d="M41 -210q-74 0 -125 30l35 97q27 -16 59 -16q61 0 61 68v731h147l315 -495h8q-4 92 -4 193v302h135v-700h-148l-315 495h-7q4 -93 4 -193v-340q0 -83 -43 -127.5t-122 -44.5z" />
    <glyph glyph-name="uni01CD" unicode="&#x1cd;" horiz-adv-x="698" 
d="M531 913l-122 -147h-121l-121 147h130l55 -80l53 80h126zM683 0h-146l-46 143h-289l-46 -143h-141l241 700h183zM343 584l-106 -331h219l-106 331h-7z" />
    <glyph glyph-name="uni01CE" unicode="&#x1ce;" horiz-adv-x="579" 
d="M470 723l-122 -147h-121l-121 147h130l55 -80l53 80h126zM515 337v-69q0 -178 5 -268h-119l-11 87h-9q-49 -97 -167 -97q-74 0 -119 41.5t-45 110.5q0 74 53 116t156 48l126 7v19q0 43 -28 65t-72 22q-87 0 -113 -80l-116 31q13 71 74 110.5t155 39.5q110 0 170 -48.5
t60 -134.5zM255 91q53 0 90 38.5t40 100.5l-95 -6q-56 -4 -83.5 -20t-27.5 -51q0 -28 20.5 -45t55.5 -17z" />
    <glyph glyph-name="uni01CF" unicode="&#x1cf;" horiz-adv-x="279" 
d="M200 766h-121l-121 147h130l55 -80l53 80h126zM208 0h-137v700h137v-700z" />
    <glyph glyph-name="uni01D0" unicode="&#x1d0;" horiz-adv-x="262" 
d="M191 576h-121l-121 147h130l55 -80l53 80h126zM199 0h-135v510h135v-510z" />
    <glyph glyph-name="uni01D1" unicode="&#x1d1;" horiz-adv-x="744" 
d="M432 766h-121l-121 147h130l55 -80l53 80h126zM372 -10q-148 0 -238 99t-90 261t90 261t238 99q149 0 239 -99t90 -261t-90 -261t-239 -99zM372 107q88 0 139.5 64.5t51.5 178.5t-51.5 178.5t-139.5 64.5q-87 0 -139 -64.5t-52 -178.5t52 -178.5t139 -64.5z" />
    <glyph glyph-name="uni01D2" unicode="&#x1d2;" horiz-adv-x="592" 
d="M356 576h-121l-121 147h130l55 -80l53 80h126zM296 -10q-120 0 -188.5 74.5t-68.5 190.5t68.5 190.5t188.5 74.5t189 -74.5t69 -190.5t-69 -190.5t-189 -74.5zM296 102q56 0 89 41.5t33 111.5t-33 111.5t-89 41.5t-89 -41.5t-33 -111.5t33 -111.5t89 -41.5z" />
    <glyph glyph-name="uni01D3" unicode="&#x1d3;" horiz-adv-x="726" 
d="M423 766h-121l-121 147h130l55 -80l53 80h126zM363 -10q-129 0 -210.5 75.5t-81.5 219.5v415h137v-415q0 -87 43 -130.5t112 -43.5t111.5 43t42.5 131v415h138v-415q0 -144 -81.5 -219.5t-210.5 -75.5z" />
    <glyph glyph-name="uni01D4" unicode="&#x1d4;" horiz-adv-x="618" 
d="M367 576h-121l-121 147h130l55 -80l53 80h126zM241 -10q-86 0 -134 53.5t-48 158.5v308h135v-282q0 -59 26 -90t75 -31q56 0 90 39t34 100v264h136v-238q0 -181 5 -272h-129l-11 83h-9q-61 -93 -170 -93z" />
    <glyph glyph-name="Gcaron" unicode="&#x1e6;" horiz-adv-x="733" 
d="M432 766h-121l-121 147h130l55 -80l53 80h126zM386 -10q-158 0 -250 98.5t-92 261.5q0 162 90 261t240 99q234 0 300 -198l-134 -36q-42 121 -166 121q-87 0 -140 -66.5t-53 -180.5q0 -116 54.5 -181.5t152.5 -65.5q87 0 146 56v122l-148 7v89h281v-266
q-101 -121 -281 -121z" />
    <glyph glyph-name="gcaron" unicode="&#x1e7;" horiz-adv-x="614" 
d="M356 576h-121l-121 147h130l55 -80l53 80h126zM304 -210q-96 0 -161 37t-87 106l123 33q26 -75 124 -75q53 0 83 28.5t30 83.5v104h-9q-54 -93 -162 -93q-94 0 -150 67.5t-56 183.5q0 117 56 186t150 69q108 0 162 -93h9l11 83h129q-5 -91 -5 -266v-244q0 -96 -63.5 -153
t-183.5 -57zM294 122q55 0 88.5 40t33.5 104q0 63 -33.5 102.5t-88.5 39.5q-54 0 -87 -39.5t-33 -103.5t33 -103.5t87 -39.5z" />
    <glyph glyph-name="uni01EA" unicode="&#x1ea;" horiz-adv-x="744" 
d="M701 350q0 -137 -65 -230t-177 -120q-80 -59 -80 -110q0 -39 45 -39q18 0 35 5v-83q-27 -6 -60 -6q-51 0 -82.5 24.5t-31.5 73.5q0 71 81 125q-146 2 -234 101t-88 259q0 162 90 261t238 99q149 0 239 -99t90 -261zM372 107q88 0 139.5 64.5t51.5 178.5t-51.5 178.5
t-139.5 64.5q-87 0 -139 -64.5t-52 -178.5t52 -178.5t139 -64.5z" />
    <glyph glyph-name="uni01EB" unicode="&#x1eb;" horiz-adv-x="592" 
d="M372 -1q-79 -60 -79 -109q0 -39 45 -39q18 0 35 5v-83q-27 -6 -60 -6q-51 0 -82.5 24.5t-31.5 73.5q0 72 81 125q-113 5 -177 79t-64 186q0 116 68.5 190.5t188.5 74.5t189 -74.5t69 -190.5q0 -95 -48 -164.5t-134 -91.5zM174 255q0 -70 33 -111.5t89 -41.5t89 41.5
t33 111.5t-33 111.5t-89 41.5t-89 -41.5t-33 -111.5z" />
    <glyph glyph-name="Aringacute" unicode="&#x1fa;" horiz-adv-x="698" 
d="M349 735q-55 0 -89.5 23t-34.5 63q0 66 83 83l27 70h135l-63 -75q65 -20 65 -78q0 -40 -34 -63t-89 -23zM349 856q-22 0 -35.5 -9.5t-13.5 -25.5q0 -15 13.5 -25t35.5 -10q21 0 34.5 10t13.5 25q0 16 -13 25.5t-35 9.5zM683 0h-146l-46 143h-289l-46 -143h-141l241 700
h183zM343 584l-106 -331h219l-106 331h-7z" />
    <glyph glyph-name="aringacute" unicode="&#x1fb;" horiz-adv-x="579" 
d="M288 545q-55 0 -89.5 23t-34.5 63q0 66 83 83l27 70h135l-63 -75q65 -20 65 -78q0 -40 -34 -63t-89 -23zM288 666q-22 0 -35.5 -9.5t-13.5 -25.5q0 -15 13.5 -25t35.5 -10q21 0 34.5 10t13.5 25q0 16 -13 25.5t-35 9.5zM515 337v-69q0 -178 5 -268h-119l-11 87h-9
q-49 -97 -167 -97q-74 0 -119 41.5t-45 110.5q0 74 53 116t156 48l126 7v19q0 43 -28 65t-72 22q-87 0 -113 -80l-116 31q13 71 74 110.5t155 39.5q110 0 170 -48.5t60 -134.5zM255 91q53 0 90 38.5t40 100.5l-95 -6q-56 -4 -83.5 -20t-27.5 -51q0 -28 20.5 -45t55.5 -17z
" />
    <glyph glyph-name="AEacute" unicode="&#x1fc;" horiz-adv-x="995" 
d="M624 766h-111l66 147h164zM163 0h-148l367 700h563v-115h-310v-170h270v-110h-270v-190h310v-115h-445v143h-266zM456 585l-167 -332h211v332h-44z" />
    <glyph glyph-name="aeacute" unicode="&#x1fd;" horiz-adv-x="880" 
d="M447 723h164l-119 -147h-111zM843 269q0 -29 -3 -53h-346q8 -62 39 -95t79 -33q69 0 102 74l120 -32q-58 -140 -213 -140q-126 0 -185 98q-56 -98 -198 -98q-88 0 -138 43t-50 113q0 73 53 115.5t151 42.5h125v12q0 50 -30 78t-71 28q-82 0 -104 -82l-118 32
q14 71 70 109.5t136 38.5q124 0 179 -88q28 42 74 65t100 23q107 0 167.5 -69t60.5 -182zM496 304h219q-4 57 -31.5 87.5t-74.5 30.5q-44 0 -74 -31t-39 -87zM257 89q55 0 88 32.5t34 94.5h-103q-96 0 -96 -64q0 -28 21 -45.5t56 -17.5z" />
    <glyph glyph-name="Oslashacute" unicode="&#x1fe;" horiz-adv-x="744" 
d="M384 913h164l-119 -147h-111zM651 746l-64 -111q114 -100 114 -285q0 -162 -90 -261t-239 -99q-75 0 -139 28l-59 -102l-80 38l64 112q-114 100 -114 284q0 162 90 261t238 99q75 0 140 -28l58 102zM181 350q0 -104 44 -168l226 394q-36 17 -79 17q-87 0 -139 -64.5
t-52 -178.5zM372 107q88 0 139.5 64.5t51.5 178.5q0 102 -43 167l-227 -393q37 -17 79 -17z" />
    <glyph glyph-name="oslashacute" unicode="&#x1ff;" horiz-adv-x="591" 
d="M307 723h164l-119 -147h-111zM502 540l-42 -72q93 -73 93 -213q0 -116 -68.5 -190.5t-188.5 -74.5q-55 0 -101 17l-40 -69l-65 32l41 72q-92 74 -92 213q0 116 68 190.5t189 74.5q54 0 100 -17l39 69zM296 414q-59 0 -94 -43t-35 -116q0 -66 29 -107l147 257q-21 9 -47 9
zM296 96q58 0 93 43t35 116q0 66 -29 107l-147 -257q21 -9 48 -9z" />
    <glyph glyph-name="uni0218" unicode="&#x218;" horiz-adv-x="639" 
d="M335 -10q-106 0 -185 44.5t-106 131.5l128 33q19 -52 63 -77t100 -25q61 0 93.5 24.5t32.5 65.5q0 35 -30 58t-74.5 33.5t-96.5 27t-96.5 37t-74.5 66t-30 110.5q0 85 68.5 138t187.5 53q102 0 172 -42t96 -124l-130 -33q-31 92 -138 92q-54 0 -85.5 -23.5t-31.5 -60.5
q0 -30 22 -50t57.5 -32t78.5 -22.5t86 -26.5t78.5 -38.5t57.5 -64.5t22 -99q0 -89 -70.5 -142.5t-194.5 -53.5zM331 -199h-100l34 151h132z" />
    <glyph glyph-name="uni0219" unicode="&#x219;" horiz-adv-x="517" 
d="M270 -10q-88 0 -150 33t-81 100l116 30q11 -37 41.5 -55.5t71.5 -18.5q39 0 60 16.5t21 42.5q0 23 -22 38t-55 21.5t-72 18t-72 27t-55 49.5t-22 84q0 64 54.5 104t147.5 40q82 0 138 -31t74 -93l-116 -30q-20 65 -94 65q-35 0 -55 -15.5t-20 -38.5q0 -28 31 -43
t75 -24.5t87.5 -24t74.5 -51t31 -95.5q0 -67 -56 -108t-153 -41zM267 -199h-100l34 151h132z" />
    <glyph glyph-name="uni021A" unicode="&#x21a;" horiz-adv-x="622" 
d="M380 0h-138v579h-221v121h580v-121h-221v-579zM310 -199h-100l34 151h132z" />
    <glyph glyph-name="uni021B" unicode="&#x21b;" horiz-adv-x="446" 
d="M288 -10q-76 0 -120 42.5t-44 126.5v244h-98v107h105l22 144h106v-144h136v-107h-136v-237q0 -66 60 -66q32 0 61 17l33 -93q-56 -34 -125 -34zM285 -199h-100l34 151h132z" />
    <glyph glyph-name="uni0232" unicode="&#x232;" horiz-adv-x="669" 
d="M482 792h-296v100h296v-100zM404 0h-138v262l-248 438h156l159 -304h7l158 304h153l-247 -438v-262z" />
    <glyph glyph-name="uni0233" unicode="&#x233;" horiz-adv-x="559" 
d="M429 602h-296v100h296v-100zM282 -200h-142l70 182l-195 528h140l123 -380h7l122 380h137z" />
    <glyph glyph-name="uni0237" unicode="&#x237;" horiz-adv-x="305" 
d="M76 -210q-74 0 -125 30l34 97q28 -16 61 -16q28 0 44 17t16 51v541h136v-548q0 -83 -43.5 -127.5t-122.5 -44.5z" />
    <glyph glyph-name="uni0259" unicode="&#x259;" horiz-adv-x="574" 
d="M277 520q120 0 188.5 -74.5t68.5 -190.5t-68 -190.5t-187 -74.5q-112 0 -177.5 69t-65.5 181q0 30 3 54h363q-8 62 -41.5 95t-85.5 33q-76 0 -107 -74l-121 32q58 140 230 140zM279 88q48 0 79.5 30.5t41.5 87.5h-235q7 -59 36.5 -88.5t77.5 -29.5z" />
    <glyph glyph-name="uni0272" unicode="&#x272;" horiz-adv-x="660" 
d="M75 -210q-73 0 -124 30l34 97q27 -16 60 -16q61 0 61 68v269q0 181 -5 272h129l11 -83h8q61 93 170 93q87 0 135 -53.5t48 -158.5v-308h-136v282q0 121 -101 121q-55 0 -89.5 -39.5t-34.5 -99.5v-302q0 -83 -43.5 -127.5t-122.5 -44.5z" />
    <glyph glyph-name="circumflex" unicode="&#x2c6;" horiz-adv-x="424" 
d="M156 576h-126l121 147h121l122 -147h-131l-53 79z" />
    <glyph glyph-name="caron" unicode="&#x2c7;" horiz-adv-x="424" 
d="M272 576h-121l-121 147h130l55 -80l53 80h126z" />
    <glyph glyph-name="breve" unicode="&#x2d8;" horiz-adv-x="379" 
d="M190 571q-75 0 -117.5 40.5t-42.5 111.5h93q0 -30 17.5 -49.5t49.5 -19.5t49 19.5t17 49.5h93q0 -71 -42 -111.5t-117 -40.5z" />
    <glyph glyph-name="dotaccent" unicode="&#x2d9;" horiz-adv-x="234" 
d="M117 571q-37 0 -62 24t-25 59t25 58.5t62 23.5t62 -23.5t25 -58.5t-25 -59t-62 -24z" />
    <glyph glyph-name="ring" unicode="&#x2da;" horiz-adv-x="307" 
d="M154 556q-54 0 -89 31.5t-35 79.5q0 49 35 80t89 31q53 0 88 -31t35 -80q0 -48 -35 -79.5t-88 -31.5zM154 622q20 0 32.5 12.5t12.5 32.5t-12.5 32.5t-32.5 12.5q-21 0 -33.5 -12.5t-12.5 -32.5t12.5 -32.5t33.5 -12.5z" />
    <glyph glyph-name="ogonek" unicode="&#x2db;" horiz-adv-x="234" 
d="M144 -233q-51 0 -82.5 24.5t-31.5 73.5q0 86 115 145l59 -10q-80 -59 -80 -110q0 -39 45 -39q18 0 35 5v-83q-27 -6 -60 -6z" />
    <glyph glyph-name="tilde" unicode="&#x2dc;" horiz-adv-x="388" 
d="M107 571h-77v44q0 56 24.5 84.5t62.5 28.5q35 0 76.5 -30.5t56.5 -30.5q31 0 31 61h77v-46q0 -57 -24 -84t-63 -27q-35 0 -76.5 30t-56.5 30q-31 0 -31 -60z" />
    <glyph glyph-name="hungarumlaut" unicode="&#x2dd;" horiz-adv-x="450" 
d="M129 576h-99l65 147h145zM309 576h-99l65 147h145z" />
    <glyph glyph-name="gravecomb" unicode="&#x300;" horiz-adv-x="0" 
d="M-30 576h-111l-119 147h164z" />
    <glyph glyph-name="acutecomb" unicode="&#x301;" horiz-adv-x="0" 
d="M-149 576h-111l66 147h164z" />
    <glyph glyph-name="uni0302" unicode="&#x302;" horiz-adv-x="0" 
d="M-268 576h-126l121 147h121l122 -147h-131l-53 79z" />
    <glyph glyph-name="tildecomb" unicode="&#x303;" horiz-adv-x="0" 
d="M-281 571h-77v44q0 56 24.5 84.5t62.5 28.5q35 0 76.5 -30.5t56.5 -30.5q31 0 31 61h77v-46q0 -57 -24 -84t-63 -27q-35 0 -76.5 30t-56.5 30q-31 0 -31 -60z" />
    <glyph glyph-name="uni0304" unicode="&#x304;" horiz-adv-x="0" 
d="M-30 602h-296v100h296v-100z" />
    <glyph glyph-name="uni0306" unicode="&#x306;" horiz-adv-x="0" 
d="M-189 571q-75 0 -117.5 40.5t-42.5 111.5h93q0 -30 17.5 -49.5t49.5 -19.5t49 19.5t17 49.5h93q0 -71 -42 -111.5t-117 -40.5z" />
    <glyph glyph-name="uni0307" unicode="&#x307;" horiz-adv-x="0" 
d="M-117 571q-37 0 -62 24t-25 59t25 58.5t62 23.5t62 -23.5t25 -58.5t-25 -59t-62 -24z" />
    <glyph glyph-name="uni0308" unicode="&#x308;" horiz-adv-x="0" 
d="M-314 576q-34 0 -57 21.5t-23 53.5t23 54t57 22q32 0 54.5 -22t22.5 -54q0 -31 -22.5 -53t-54.5 -22zM-107 576q-34 0 -57 21.5t-23 53.5t23 54t57 22q33 0 55 -22t22 -54t-22 -53.5t-55 -21.5z" />
    <glyph glyph-name="uni030A" unicode="&#x30a;" horiz-adv-x="0" 
d="M-153 556q-54 0 -89 31.5t-35 79.5q0 49 35 80t89 31q53 0 88 -31t35 -80q0 -48 -35 -79.5t-88 -31.5zM-153 622q20 0 32.5 12.5t12.5 32.5t-12.5 32.5t-32.5 12.5q-21 0 -33.5 -12.5t-12.5 -32.5t12.5 -32.5t33.5 -12.5z" />
    <glyph glyph-name="uni030B" unicode="&#x30b;" horiz-adv-x="0" 
d="M-321 576h-99l65 147h145zM-141 576h-99l65 147h145z" />
    <glyph glyph-name="uni030C" unicode="&#x30c;" horiz-adv-x="0" 
d="M-152 576h-121l-121 147h130l55 -80l53 80h126z" />
    <glyph glyph-name="uni0312" unicode="&#x312;" horiz-adv-x="0" 
d="M-63 576h-132l64 147h101z" />
    <glyph glyph-name="dotbelowcomb" unicode="&#x323;" horiz-adv-x="0" 
d="M-111 -200q-35 0 -58.5 22t-23.5 55q0 32 24 54.5t58 22.5t57.5 -22.5t23.5 -54.5q0 -33 -23 -55t-58 -22z" />
    <glyph glyph-name="uni0326" unicode="&#x326;" horiz-adv-x="0" 
d="M-96 -199h-100l34 151h132z" />
    <glyph glyph-name="uni0327" unicode="&#x327;" horiz-adv-x="0" 
d="M-140 -41h3q47 0 77 -25t30 -70q0 -46 -35.5 -75.5t-99.5 -29.5q-73 0 -126 39l40 63q39 -29 82 -29q49 0 49 34q0 33 -43 33q-20 0 -40 -7l-18 27l29 86h68z" />
    <glyph glyph-name="uni0328" unicode="&#x328;" horiz-adv-x="0" 
d="M-90 -233q-51 0 -82.5 24.5t-31.5 73.5q0 86 115 145l59 -10q-80 -59 -80 -110q0 -39 45 -39q18 0 35 5v-83q-27 -6 -60 -6z" />
    <glyph glyph-name="uni0338" unicode="&#x338;" horiz-adv-x="0" 
d="M-30 746l-477 -830l-80 38l476 830z" />
    <glyph glyph-name="uni0394" unicode="&#x394;" horiz-adv-x="605" 
d="M591 0h-576l218 700h139zM299 544l-128 -436h261l-126 436h-7z" />
    <glyph glyph-name="uni03A9" unicode="&#x3a9;" horiz-adv-x="732" 
d="M320 0h-262v117h124v7q-68 45 -103 119t-35 151q0 140 90 228t232 88q141 0 231.5 -88t90.5 -228q0 -77 -35 -151t-103 -119v-7h124v-117h-263v127q64 35 102 104t38 148q0 98 -50 156t-135 58t-135 -58t-50 -156q0 -77 38 -147t101 -105v-127z" />
    <glyph glyph-name="uni03BC" unicode="&#x3bc;" horiz-adv-x="647" 
d="M192 -200h-133v710h135v-282q0 -59 26 -90t75 -31q56 0 90 39.5t34 99.5v264h136v-343q0 -55 47 -55h24v-112h-61q-101 0 -120 89h-8q-43 -99 -139 -99q-73 0 -108 54h-7l9 -144v-100z" />
    <glyph glyph-name="pi" unicode="&#x3c0;" horiz-adv-x="623" 
d="M199 0h-135v510h496v-510h-136v391h-225v-391z" />
    <glyph glyph-name="Wgrave" unicode="&#x1e80;" horiz-adv-x="991" 
d="M554 766h-111l-119 147h164zM369 0h-174l-177 700h139l127 -565h7l123 565h170l122 -565h7l127 565h133l-178 -700h-174l-122 564h-7z" />
    <glyph glyph-name="wgrave" unicode="&#x1e81;" horiz-adv-x="787" 
d="M450 576h-111l-119 147h164zM310 0h-161l-134 510h134l83 -375h9l76 375h159l75 -375h8l83 375h131l-134 -510h-162l-79 385h-8z" />
    <glyph glyph-name="Wacute" unicode="&#x1e82;" horiz-adv-x="991" 
d="M556 766h-111l66 147h164zM369 0h-174l-177 700h139l127 -565h7l123 565h170l122 -565h7l127 565h133l-178 -700h-174l-122 564h-7z" />
    <glyph glyph-name="wacute" unicode="&#x1e83;" horiz-adv-x="787" 
d="M452 576h-111l66 147h164zM310 0h-161l-134 510h134l83 -375h9l76 375h159l75 -375h8l83 375h131l-134 -510h-162l-79 385h-8z" />
    <glyph glyph-name="Wdieresis" unicode="&#x1e84;" horiz-adv-x="991" 
d="M397 766q-34 0 -57 21.5t-23 53.5t23 54t57 22q32 0 54.5 -22t22.5 -54q0 -31 -22.5 -53t-54.5 -22zM604 766q-34 0 -57 21.5t-23 53.5t23 54t57 22q33 0 55 -22t22 -54t-22 -53.5t-55 -21.5zM369 0h-174l-177 700h139l127 -565h7l123 565h170l122 -565h7l127 565h133
l-178 -700h-174l-122 564h-7z" />
    <glyph glyph-name="wdieresis" unicode="&#x1e85;" horiz-adv-x="787" 
d="M293 576q-34 0 -57 21.5t-23 53.5t23 54t57 22q32 0 54.5 -22t22.5 -54q0 -31 -22.5 -53t-54.5 -22zM500 576q-34 0 -57 21.5t-23 53.5t23 54t57 22q33 0 55 -22t22 -54t-22 -53.5t-55 -21.5zM310 0h-161l-134 510h134l83 -375h9l76 375h159l75 -375h8l83 375h131
l-134 -510h-162l-79 385h-8z" />
    <glyph glyph-name="uni1E9E" unicode="&#x1e9e;" horiz-adv-x="730" 
d="M653 588l-172 -189q99 -6 154 -59.5t55 -140.5q0 -92 -63.5 -150.5t-177.5 -58.5q-107 0 -197 39l38 105q64 -32 140 -32q59 0 91 27.5t32 72.5q0 44 -32.5 70t-96.5 26h-88v92l174 190v8h-151q-151 0 -151 -159v-429h-137v429q0 271 282 271h300v-112z" />
    <glyph glyph-name="uni1EA0" unicode="&#x1ea0;" horiz-adv-x="698" 
d="M439 700l244 -700h-146l-46 143h-289l-46 -143h-141l241 700h183zM343 584l-106 -331h219l-106 331h-7zM349 -46q34 0 57.5 -22.5t23.5 -54.5q0 -33 -23 -55t-58 -22t-58.5 22t-23.5 55q0 32 24 54.5t58 22.5z" />
    <glyph glyph-name="uni1EA1" unicode="&#x1ea1;" horiz-adv-x="579" 
d="M515 337v-69q0 -178 5 -268h-119l-11 87h-9q-49 -97 -167 -97q-74 0 -119 41.5t-45 110.5q0 74 53 116t156 48l126 7v19q0 43 -28 65t-72 22q-87 0 -113 -80l-116 31q13 71 74 110.5t155 39.5q110 0 170 -48.5t60 -134.5zM255 91q53 0 90 38.5t40 100.5l-95 -6
q-56 -4 -83.5 -20t-27.5 -51q0 -28 20.5 -45t55.5 -17zM292 -46q34 0 57.5 -22.5t23.5 -54.5q0 -33 -23 -55t-58 -22t-58.5 22t-23.5 55q0 32 24 54.5t58 22.5z" />
    <glyph glyph-name="uni1EB8" unicode="&#x1eb8;" horiz-adv-x="619" 
d="M568 0h-497v700h497v-115h-360v-168h320v-114h-320v-188h360v-115zM325 -200q-35 0 -58.5 22t-23.5 55q0 32 24 54.5t58 22.5t57.5 -22.5t23.5 -54.5q0 -33 -23 -55t-58 -22z" />
    <glyph glyph-name="uni1EB9" unicode="&#x1eb9;" horiz-adv-x="573" 
d="M537 270q0 -30 -3 -54h-363q8 -62 41.5 -95t85.5 -33q76 0 107 74l121 -32q-58 -140 -230 -140q-120 0 -188.5 74.5t-68.5 190.5t68 190.5t187 74.5q112 0 177.5 -69t65.5 -181zM294 422q-48 0 -79.5 -30.5t-41.5 -87.5h235q-7 59 -36.5 88.5t-77.5 29.5zM297 -46
q34 0 57.5 -22.5t23.5 -54.5q0 -33 -23 -55t-58 -22t-58.5 22t-23.5 55q0 32 24 54.5t58 22.5z" />
    <glyph glyph-name="uni1EBC" unicode="&#x1ebc;" horiz-adv-x="619" 
d="M238 761h-77v44q0 56 24.5 84.5t62.5 28.5q35 0 76.5 -30.5t56.5 -30.5q31 0 31 61h77v-46q0 -57 -24 -84t-63 -27q-35 0 -76.5 30t-56.5 30q-31 0 -31 -60zM568 0h-497v700h497v-115h-360v-168h320v-114h-320v-188h360v-115z" />
    <glyph glyph-name="uni1EBD" unicode="&#x1ebd;" horiz-adv-x="573" 
d="M238 631q-31 0 -31 -60h-77v44q0 56 24.5 84.5t62.5 28.5q35 0 76.5 -30.5t56.5 -30.5q31 0 31 61h77v-46q0 -57 -24 -84t-63 -27q-35 0 -76.5 30t-56.5 30zM537 270q0 -30 -3 -54h-363q8 -62 41.5 -95t85.5 -33q76 0 107 74l121 -32q-58 -140 -230 -140
q-120 0 -188.5 74.5t-68.5 190.5t68 190.5t187 74.5q112 0 177.5 -69t65.5 -181zM294 422q-48 0 -79.5 -30.5t-41.5 -87.5h235q-7 59 -36.5 88.5t-77.5 29.5z" />
    <glyph glyph-name="uni1ECA" unicode="&#x1eca;" horiz-adv-x="279" 
d="M208 0h-137v700h137v-700zM140 -200q-35 0 -58.5 22t-23.5 55q0 32 24 54.5t58 22.5t57.5 -22.5t23.5 -54.5q0 -33 -23 -55t-58 -22z" />
    <glyph glyph-name="uni1ECB" unicode="&#x1ecb;" horiz-adv-x="262" 
d="M131 571q-37 0 -62 24t-25 59t25 58.5t62 23.5t62 -23.5t25 -58.5t-25 -59t-62 -24zM199 0h-135v510h135v-510zM132 -200q-35 0 -58.5 22t-23.5 55q0 32 24 54.5t58 22.5t57.5 -22.5t23.5 -54.5q0 -33 -23 -55t-58 -22z" />
    <glyph glyph-name="uni1ECC" unicode="&#x1ecc;" horiz-adv-x="744" 
d="M372 -10q-148 0 -238 99t-90 261t90 261t238 99q149 0 239 -99t90 -261t-90 -261t-239 -99zM372 107q88 0 139.5 64.5t51.5 178.5t-51.5 178.5t-139.5 64.5q-87 0 -139 -64.5t-52 -178.5t52 -178.5t139 -64.5zM373 -200q-35 0 -58.5 22t-23.5 55q0 32 24 54.5t58 22.5
t57.5 -22.5t23.5 -54.5q0 -33 -23 -55t-58 -22z" />
    <glyph glyph-name="uni1ECD" unicode="&#x1ecd;" horiz-adv-x="592" 
d="M296 -10q-120 0 -188.5 74.5t-68.5 190.5t68.5 190.5t188.5 74.5t189 -74.5t69 -190.5t-69 -190.5t-189 -74.5zM296 102q56 0 89 41.5t33 111.5t-33 111.5t-89 41.5t-89 -41.5t-33 -111.5t33 -111.5t89 -41.5zM296 -200q-35 0 -58.5 22t-23.5 55q0 32 24 54.5t58 22.5
t57.5 -22.5t23.5 -54.5q0 -33 -23 -55t-58 -22z" />
    <glyph glyph-name="uni1EE4" unicode="&#x1ee4;" horiz-adv-x="726" 
d="M363 -10q-129 0 -210.5 75.5t-81.5 219.5v415h137v-415q0 -87 43 -130.5t112 -43.5t111.5 43t42.5 131v415h138v-415q0 -144 -81.5 -219.5t-210.5 -75.5zM364 -200q-35 0 -58.5 22t-23.5 55q0 32 24 54.5t58 22.5t57.5 -22.5t23.5 -54.5q0 -33 -23 -55t-58 -22z" />
    <glyph glyph-name="uni1EE5" unicode="&#x1ee5;" horiz-adv-x="618" 
d="M241 -10q-86 0 -134 53.5t-48 158.5v308h135v-282q0 -59 26 -90t75 -31q56 0 90 39t34 100v264h136v-238q0 -181 5 -272h-129l-11 83h-9q-61 -93 -170 -93zM307 -200q-35 0 -58.5 22t-23.5 55q0 32 24 54.5t58 22.5t57.5 -22.5t23.5 -54.5q0 -33 -23 -55t-58 -22z" />
    <glyph glyph-name="Ygrave" unicode="&#x1ef2;" horiz-adv-x="669" 
d="M389 766h-111l-119 147h164zM404 0h-138v262l-248 438h156l159 -304h7l158 304h153l-247 -438v-262z" />
    <glyph glyph-name="ygrave" unicode="&#x1ef3;" horiz-adv-x="559" 
d="M335 576h-111l-119 147h164zM282 -200h-142l70 182l-195 528h140l123 -380h7l122 380h137z" />
    <glyph glyph-name="uni1EF8" unicode="&#x1ef8;" horiz-adv-x="669" 
d="M247 761h-77v44q0 56 24.5 84.5t62.5 28.5q35 0 76.5 -30.5t56.5 -30.5q31 0 31 61h77v-46q0 -57 -24 -84t-63 -27q-35 0 -76.5 30t-56.5 30q-31 0 -31 -60zM404 0h-138v262l-248 438h156l159 -304h7l158 304h153l-247 -438v-262z" />
    <glyph glyph-name="uni1EF9" unicode="&#x1ef9;" horiz-adv-x="559" 
d="M193 571h-77v44q0 56 24.5 84.5t62.5 28.5q35 0 76.5 -30.5t56.5 -30.5q31 0 31 61h77v-46q0 -57 -24 -84t-63 -27q-35 0 -76.5 30t-56.5 30q-31 0 -31 -60zM282 -200h-142l70 182l-195 528h140l123 -380h7l122 380h137z" />
    <glyph glyph-name="endash" unicode="&#x2013;" horiz-adv-x="510" 
d="M476 227h-442v106h442v-106z" />
    <glyph glyph-name="emdash" unicode="&#x2014;" horiz-adv-x="734" 
d="M701 227h-667v106h667v-106z" />
    <glyph glyph-name="quoteleft" unicode="&#x2018;" horiz-adv-x="232" 
d="M150 710l32 -25q-51 -60 -59 -117q32 -3 52.5 -24t20.5 -51q0 -33 -23 -55t-57 -22q-35 0 -57.5 22t-22.5 62q0 111 114 210z" />
    <glyph glyph-name="quoteright" unicode="&#x2019;" horiz-adv-x="232" 
d="M81 416l-31 25q51 60 59 117q-33 4 -53 24.5t-20 50.5q0 33 22.5 55t56.5 22q35 0 58 -22t23 -62q0 -110 -115 -210z" />
    <glyph glyph-name="quotesinglbase" unicode="&#x201a;" horiz-adv-x="232" 
d="M81 -151l-31 25q51 60 59 117q-33 4 -53 24.5t-20 50.5q0 33 22.5 55t56.5 22q35 0 58 -22t23 -61q0 -111 -115 -211z" />
    <glyph glyph-name="quotedblleft" unicode="&#x201c;" horiz-adv-x="435" 
d="M150 710l32 -25q-51 -60 -59 -117q32 -3 52.5 -24t20.5 -51q0 -33 -23 -55t-57 -22q-35 0 -57.5 22t-22.5 62q0 111 114 210zM353 710l32 -25q-51 -60 -59 -117q32 -3 52.5 -24t20.5 -51q0 -33 -23 -55t-57 -22q-35 0 -57.5 22t-22.5 62q0 111 114 210z" />
    <glyph glyph-name="quotedblright" unicode="&#x201d;" horiz-adv-x="435" 
d="M81 416l-31 25q51 60 59 117q-33 4 -53 24.5t-20 50.5q0 33 22.5 55t56.5 22q35 0 58 -22t23 -62q0 -110 -115 -210zM284 416l-31 25q51 60 59 117q-33 4 -53 24.5t-20 50.5q0 33 22.5 55t56.5 22q35 0 58 -22t23 -62q0 -110 -115 -210z" />
    <glyph glyph-name="quotedblbase" unicode="&#x201e;" horiz-adv-x="435" 
d="M81 -151l-31 25q51 60 59 117q-33 4 -53 24.5t-20 50.5q0 33 22.5 55t56.5 22q35 0 58 -22t23 -61q0 -111 -115 -211zM284 -151l-31 25q51 60 59 117q-33 4 -53 24.5t-20 50.5q0 33 22.5 55t56.5 22q35 0 58 -22t23 -61q0 -111 -115 -211z" />
    <glyph glyph-name="dagger" unicode="&#x2020;" horiz-adv-x="547" 
d="M340 -100h-133v490h-176v121h176v189h133v-189h176v-121h-176v-490z" />
    <glyph glyph-name="daggerdbl" unicode="&#x2021;" horiz-adv-x="547" 
d="M340 -100h-133v192h-176v112h176v192h-176v112h176v192h133v-192h176v-112h-176v-192h176v-112h-176v-192z" />
    <glyph glyph-name="bullet" unicode="&#x2022;" horiz-adv-x="272" 
d="M136 169q-42 0 -71 27t-29 69t29 69t71 27t71 -27t29 -69t-29 -69t-71 -27z" />
    <glyph glyph-name="ellipsis" unicode="&#x2026;" horiz-adv-x="686" 
d="M120 -10q-35 0 -59.5 23t-24.5 58q0 34 24.5 56.5t59.5 22.5t59 -22.5t24 -56.5q0 -35 -24 -58t-59 -23zM343 -10q-35 0 -59.5 23t-24.5 58q0 34 24.5 56.5t59.5 22.5t59.5 -22.5t24.5 -56.5q0 -35 -24.5 -58t-59.5 -23zM567 -10q-35 0 -59.5 23t-24.5 58q0 34 24.5 56.5
t59.5 22.5t59.5 -22.5t24.5 -56.5q0 -35 -24.5 -58t-59.5 -23z" />
    <glyph glyph-name="perthousand" unicode="&#x2030;" horiz-adv-x="1257" 
d="M203 348q-80 0 -130 52t-50 129t50 129t130 52q81 0 131 -52t50 -129t-50 -129t-131 -52zM723 656l-520 -666l-70 54l521 666zM203 438q37 0 60 26t23 65t-23 65t-60 26t-60 -26t-23 -65t23 -65t60 -26zM653 -10q-80 0 -130 52t-50 129t50 129t130 52q81 0 131 -52
t50 -129t-50 -129t-131 -52zM1053 -10q-80 0 -130 52t-50 129t50 129t130 52q81 0 131 -52t50 -129t-50 -129t-131 -52zM653 80q37 0 60 26t23 65t-23 65t-60 26t-60 -26t-23 -65t23 -65t60 -26zM1053 80q37 0 60 26t23 65t-23 65t-60 26t-60 -26t-23 -65t23 -65t60 -26z
" />
    <glyph glyph-name="guilsinglleft" unicode="&#x2039;" horiz-adv-x="359" 
d="M328 82h-145l-163 178l163 178h145l-167 -178z" />
    <glyph glyph-name="guilsinglright" unicode="&#x203a;" horiz-adv-x="359" 
d="M339 260l-163 -178h-145l167 178l-167 178h145z" />
    <glyph glyph-name="fraction" unicode="&#x2044;" horiz-adv-x="192" 
d="M-80 0h-94l445 700h95z" />
    <glyph glyph-name="uni2070" unicode="&#x2070;" horiz-adv-x="377" 
d="M189 445q-75 0 -118 49.5t-43 130.5t43 130.5t118 49.5t117.5 -49.5t42.5 -130.5t-42.5 -130.5t-117.5 -49.5zM189 524q33 0 52 26.5t19 74.5t-19 74.5t-52 26.5t-52.5 -26.5t-19.5 -74.5t19 -74.5t53 -26.5z" />
    <glyph glyph-name="uni2074" unicode="&#x2074;" horiz-adv-x="338" 
d="M272 450h-90v60h-164v79l156 211h98v-217h43v-73h-43v-60zM182 695l-83 -112h83v112z" />
    <glyph glyph-name="uni2075" unicode="&#x2075;" horiz-adv-x="336" 
d="M171 445q-57 0 -97.5 23.5t-50.5 66.5l89 19q14 -38 59 -38q24 0 38.5 13t14.5 35t-14.5 34.5t-37.5 12.5q-31 0 -53 -20l-79 14l14 195h226v-75h-150l-4 -61h6q27 15 61 15q55 0 87.5 -31t32.5 -84q0 -56 -38 -87.5t-104 -31.5z" />
    <glyph glyph-name="uni2076" unicode="&#x2076;" horiz-adv-x="341" 
d="M187 693q59 0 95.5 -33t36.5 -87q0 -57 -41 -92.5t-108 -35.5q-65 0 -106 35.5t-41 92.5q0 30 11 54t35 58l83 115h113v-5l-79 -102h1zM171 519q26 0 42 15t16 39q0 23 -16.5 38t-41.5 15q-26 0 -42.5 -15t-16.5 -38q0 -24 16.5 -39t42.5 -15z" />
    <glyph glyph-name="uni2077" unicode="&#x2077;" horiz-adv-x="307" 
d="M154 450h-103l128 261v5h-156v84h261v-80z" />
    <glyph glyph-name="uni2078" unicode="&#x2078;" horiz-adv-x="337" 
d="M168 445q-62 0 -102 29t-40 76q0 28 15 50t41 33q-46 25 -46 74q0 45 36.5 71.5t95.5 26.5t96.5 -27t37.5 -71q0 -49 -47 -74q26 -11 41.5 -33.5t15.5 -49.5q0 -47 -40.5 -76t-103.5 -29zM168 661q20 0 33 10.5t13 27.5t-13 27.5t-33 10.5t-32.5 -11t-12.5 -27
q0 -17 12.5 -27.5t32.5 -10.5zM168 513q23 0 38.5 12t15.5 32q0 21 -15 32.5t-39 11.5q-23 0 -37.5 -11.5t-14.5 -32.5q0 -20 15 -32t37 -12z" />
    <glyph glyph-name="uni2079" unicode="&#x2079;" horiz-adv-x="341" 
d="M171 805q65 0 106.5 -35.5t41.5 -92.5q0 -30 -11 -54t-35 -58l-84 -115h-113v5l80 102h-2q-58 0 -94.5 33t-36.5 87q0 57 40.5 92.5t107.5 35.5zM112 677q0 -23 16.5 -38t41.5 -15q26 0 42.5 15t16.5 38q0 24 -16.5 39t-42.5 15t-42 -15t-16 -39z" />
    <glyph glyph-name="uni2080" unicode="&#x2080;" horiz-adv-x="377" 
d="M189 -105q-75 0 -118 49.5t-43 130.5t43 130.5t118 49.5t117.5 -49.5t42.5 -130.5t-42.5 -130.5t-117.5 -49.5zM189 -26q33 0 52 26.5t19 74.5t-19 74.5t-52 26.5t-52.5 -26.5t-19.5 -74.5t19 -74.5t53 -26.5z" />
    <glyph glyph-name="uni2081" unicode="&#x2081;" horiz-adv-x="234" 
d="M188 -100h-89v250h-5l-71 -39v89l96 50h69v-350z" />
    <glyph glyph-name="uni2082" unicode="&#x2082;" horiz-adv-x="322" 
d="M296 -100h-264v70l102 83q37 31 55 52t18 42q0 18 -13 28.5t-32 10.5q-41 0 -56 -41l-85 19q10 43 47.5 67t92.5 24q61 0 98 -28.5t37 -78.5q0 -38 -23.5 -69t-75.5 -71l-32 -26v-5h131v-77z" />
    <glyph glyph-name="uni2083" unicode="&#x2083;" horiz-adv-x="336" 
d="M292 178l-82 -69q45 -5 71.5 -32.5t26.5 -70.5q0 -51 -36.5 -81t-102.5 -30q-58 0 -97 24t-49 69l88 19q11 -41 58 -41q23 0 36.5 12t13.5 31q0 20 -14.5 31.5t-39.5 11.5h-56v49l76 67v5h-147v77h254v-72z" />
    <glyph glyph-name="uni2084" unicode="&#x2084;" horiz-adv-x="338" 
d="M272 -100h-90v60h-164v79l156 211h98v-217h43v-73h-43v-60zM182 145l-83 -112h83v112z" />
    <glyph glyph-name="uni2085" unicode="&#x2085;" horiz-adv-x="336" 
d="M171 -105q-57 0 -97.5 23.5t-50.5 66.5l89 19q14 -38 59 -38q24 0 38.5 13t14.5 35t-14.5 34.5t-37.5 12.5q-31 0 -53 -20l-79 14l14 195h226v-75h-150l-4 -61h6q27 15 61 15q55 0 87.5 -31t32.5 -84q0 -56 -38 -87.5t-104 -31.5z" />
    <glyph glyph-name="uni2086" unicode="&#x2086;" horiz-adv-x="341" 
d="M187 143q59 0 95.5 -33t36.5 -87q0 -57 -41 -92.5t-108 -35.5q-65 0 -106 35.5t-41 92.5q0 30 11 54t35 58l83 115h113v-5l-79 -102h1zM171 -31q26 0 42 15t16 39q0 23 -16.5 38t-41.5 15q-26 0 -42.5 -15t-16.5 -38q0 -24 16.5 -39t42.5 -15z" />
    <glyph glyph-name="uni2087" unicode="&#x2087;" horiz-adv-x="307" 
d="M154 -100h-103l128 261v5h-156v84h261v-80z" />
    <glyph glyph-name="uni2088" unicode="&#x2088;" horiz-adv-x="337" 
d="M168 -105q-62 0 -102 29t-40 76q0 28 15 50t41 33q-46 25 -46 74q0 45 36.5 71.5t95.5 26.5t96.5 -27t37.5 -71q0 -49 -47 -74q26 -11 41.5 -33.5t15.5 -49.5q0 -47 -40.5 -76t-103.5 -29zM168 111q20 0 33 10.5t13 27.5t-13 27.5t-33 10.5t-32.5 -11t-12.5 -27
q0 -17 12.5 -27.5t32.5 -10.5zM168 -37q23 0 38.5 12t15.5 32q0 21 -15 32.5t-39 11.5q-23 0 -37.5 -11.5t-14.5 -32.5q0 -20 15 -32t37 -12z" />
    <glyph glyph-name="uni2089" unicode="&#x2089;" horiz-adv-x="341" 
d="M171 255q65 0 106.5 -35.5t41.5 -92.5q0 -30 -11 -54t-35 -58l-84 -115h-113v5l80 102h-2q-58 0 -94.5 33t-36.5 87q0 57 40.5 92.5t107.5 35.5zM112 127q0 -23 16.5 -38t41.5 -15q26 0 42.5 15t16.5 38q0 24 -16.5 39t-42.5 15t-42 -15t-16 -39z" />
    <glyph glyph-name="Euro" unicode="&#x20ac;" horiz-adv-x="767" 
d="M425 -10q-120 0 -204 67t-112 183h-91v76h81q-2 22 -2 34t2 34h-81v76h91q28 116 112 183t204 67q114 0 192 -55t107 -164l-133 -35q-42 138 -166 138q-63 0 -108 -34.5t-66 -99.5h182v-76h-197q-1 -12 -1 -34q0 -23 1 -34h197v-76h-182q21 -65 66 -99.5t108 -34.5
q126 0 170 138l134 -35q-31 -110 -109.5 -164.5t-194.5 -54.5z" />
    <glyph glyph-name="uni2116" unicode="&#x2116;" horiz-adv-x="1153" 
d="M940 364q-75 0 -126 50t-51 123q0 74 51 123.5t126 49.5q76 0 126.5 -49.5t50.5 -123.5t-50.5 -123.5t-126.5 -49.5zM206 0h-135v700h147l315 -495h8q-4 92 -4 193v302h135v-700h-148l-315 495h-7q4 -93 4 -193v-302zM940 457q35 0 57 22.5t22 57.5t-22.5 57.5
t-56.5 22.5t-56.5 -22.5t-22.5 -57.5t22.5 -57.5t56.5 -22.5zM1107 203h-334v95h334v-95z" />
    <glyph glyph-name="uni2117" unicode="&#x2117;" horiz-adv-x="738" 
d="M369 -10q-152 0 -249 104t-97 257q0 151 97 255t249 104q151 0 248.5 -104t97.5 -255q0 -152 -97.5 -256.5t-248.5 -104.5zM369 55q122 0 199 85t77 211q0 124 -77.5 209.5t-198.5 85.5t-198.5 -85.5t-77.5 -209.5q0 -126 77 -211t199 -85zM332 175h-80v350h155
q58 0 90.5 -29.5t32.5 -82.5q0 -54 -32.5 -81.5t-90.5 -27.5h-75v-129zM332 461v-97h65q24 0 38.5 13t14.5 36q0 22 -14.5 35t-38.5 13h-65z" />
    <glyph glyph-name="trademark" unicode="&#x2122;" horiz-adv-x="802" 
d="M215 350h-83v277h-108v73h298v-73h-107v-277zM439 350h-77v350h118l83 -263l83 263h118v-350h-82v250h-6l-79 -250h-72l-79 250h-7v-250z" />
    <glyph glyph-name="uni2150" unicode="&#x2150;" horiz-adv-x="743" 
d="M188 350h-89v250h-5l-71 -39v89l96 50h69v-350zM164 0h-94l445 700h95zM590 0h-103l128 261v5h-156v84h261v-80z" />
    <glyph glyph-name="uni2151" unicode="&#x2151;" horiz-adv-x="767" 
d="M99 350v250h-5l-71 -39v89l96 50h69v-350h-89zM70 0l445 700h95l-446 -700h-94zM597 355q65 0 106.5 -35.5t41.5 -92.5q0 -30 -11 -54t-35 -58l-84 -115h-113v5l80 102h-2q-58 0 -94.5 33t-36.5 87q0 57 40.5 92.5t107.5 35.5zM538 227q0 -23 16.5 -38t41.5 -15
q26 0 42.5 15t16.5 38q0 24 -16.5 39t-42.5 15t-42 -15t-16 -39z" />
    <glyph glyph-name="uni2152" unicode="&#x2152;" horiz-adv-x="1047" 
d="M188 350h-89v250h-5l-71 -39v89l96 50h69v-350zM164 0h-94l445 700h95zM859 -5q-75 0 -118 49.5t-43 130.5t43 130.5t118 49.5t117.5 -49.5t42.5 -130.5t-42.5 -130.5t-117.5 -49.5zM624 0h-89v250h-5l-71 -39v89l96 50h69v-350zM859 74q33 0 52 26.5t19 74.5t-19 74.5
t-52 26.5t-52.5 -26.5t-19.5 -74.5t19 -74.5t53 -26.5z" />
    <glyph glyph-name="uni2153" unicode="&#x2153;" horiz-adv-x="772" 
d="M99 350v250h-5l-71 -39v89l96 50h69v-350h-89zM70 0l445 700h95l-446 -700h-94zM728 278l-82 -69q45 -5 71.5 -32.5t26.5 -70.5q0 -51 -36.5 -81t-102.5 -30q-58 0 -97 24t-49 69l88 19q11 -41 58 -41q23 0 36.5 12t13.5 31q0 20 -14.5 31.5t-39.5 11.5h-56v49l76 67v5
h-147v77h254v-72z" />
    <glyph glyph-name="uni2154" unicode="&#x2154;" horiz-adv-x="850" 
d="M32 420l102 83q37 31 55 52t18 42q0 18 -13 28.5t-32 10.5q-41 0 -56 -41l-85 19q10 43 47.5 67t92.5 24q61 0 98 -28.5t37 -78.5q0 -38 -23.5 -69t-75.5 -71l-32 -26v-5h131v-77h-264v70zM148 0l445 700h95l-446 -700h-94zM806 278l-82 -69q45 -5 71.5 -32.5t26.5 -70.5
q0 -51 -36.5 -81t-102.5 -30q-58 0 -97 24t-49 69l88 19q11 -41 58 -41q23 0 36.5 12t13.5 31q0 20 -14.5 31.5t-39.5 11.5h-56v49l76 67v5h-147v77h254v-72z" />
    <glyph glyph-name="uni2155" unicode="&#x2155;" horiz-adv-x="767" 
d="M188 350h-89v250h-5l-71 -39v89l96 50h69v-350zM164 0h-94l445 700h95zM602 -5q-57 0 -97.5 23.5t-50.5 66.5l89 19q14 -38 59 -38q24 0 38.5 13t14.5 35t-14.5 34.5t-37.5 12.5q-31 0 -53 -20l-79 14l14 195h226v-75h-150l-4 -61h6q27 15 61 15q55 0 87.5 -31t32.5 -84
q0 -56 -38 -87.5t-104 -31.5z" />
    <glyph glyph-name="uni2156" unicode="&#x2156;" horiz-adv-x="845" 
d="M296 350h-264v70l102 83q37 31 55 52t18 42q0 18 -13 28.5t-32 10.5q-41 0 -56 -41l-85 19q10 43 47.5 67t92.5 24q61 0 98 -28.5t37 -78.5q0 -38 -23.5 -69t-75.5 -71l-32 -26v-5h131v-77zM242 0h-94l445 700h95zM680 -5q-57 0 -97.5 23.5t-50.5 66.5l89 19
q14 -38 59 -38q24 0 38.5 13t14.5 35t-14.5 34.5t-37.5 12.5q-31 0 -53 -20l-79 14l14 195h226v-75h-150l-4 -61h6q27 15 61 15q55 0 87.5 -31t32.5 -84q0 -56 -38 -87.5t-104 -31.5z" />
    <glyph glyph-name="uni2157" unicode="&#x2157;" horiz-adv-x="859" 
d="M308 456q0 -51 -36.5 -81t-102.5 -30q-58 0 -97 24t-49 69l88 19q11 -41 58 -41q23 0 36.5 12t13.5 31q0 20 -14.5 31.5t-39.5 11.5h-56v49l76 67v5h-147v77h254v-72l-82 -69q45 -5 71.5 -32.5t26.5 -70.5zM162 0l445 700h95l-446 -700h-94zM716 229q55 0 87.5 -31
t32.5 -84q0 -56 -38 -87.5t-104 -31.5q-57 0 -97.5 23.5t-50.5 66.5l89 19q14 -38 59 -38q24 0 38.5 13t14.5 35t-14.5 34.5t-37.5 12.5q-31 0 -53 -20l-79 14l14 195h226v-75h-150l-4 -61h6q27 15 61 15z" />
    <glyph glyph-name="uni2158" unicode="&#x2158;" horiz-adv-x="861" 
d="M272 350h-90v60h-164v79l156 211h98v-217h43v-73h-43v-60zM258 0h-94l445 700h95zM182 595l-83 -112h83v112zM696 -5q-57 0 -97.5 23.5t-50.5 66.5l89 19q14 -38 59 -38q24 0 38.5 13t14.5 35t-14.5 34.5t-37.5 12.5q-31 0 -53 -20l-79 14l14 195h226v-75h-150l-4 -61h6
q27 15 61 15q55 0 87.5 -31t32.5 -84q0 -56 -38 -87.5t-104 -31.5z" />
    <glyph glyph-name="uni2159" unicode="&#x2159;" horiz-adv-x="742" 
d="M99 350v250h-5l-71 -39v89l96 50h69v-350h-89zM70 0l445 700h95l-446 -700h-94zM588 243q59 0 95.5 -33t36.5 -87q0 -57 -41 -92.5t-108 -35.5q-65 0 -106 35.5t-41 92.5q0 30 11 54t35 58l83 115h113v-5l-79 -102h1zM572 69q26 0 42 15t16 39q0 23 -16.5 38t-41.5 15
q-26 0 -42.5 -15t-16.5 -38q0 -24 16.5 -39t42.5 -15z" />
    <glyph glyph-name="uni215A" unicode="&#x215a;" horiz-adv-x="834" 
d="M313 464q0 -56 -38 -87.5t-104 -31.5q-57 0 -97.5 23.5t-50.5 66.5l89 19q14 -38 59 -38q24 0 38.5 13t14.5 35t-14.5 34.5t-37.5 12.5q-31 0 -53 -20l-79 14l14 195h226v-75h-150l-4 -61h6q27 15 61 15q55 0 87.5 -31t32.5 -84zM162 0l445 700h95l-446 -700h-94z
M680 243q59 0 95.5 -33t36.5 -87q0 -57 -41 -92.5t-108 -35.5q-65 0 -106 35.5t-41 92.5q0 30 11 54t35 58l83 115h113v-5l-79 -102h1zM664 69q26 0 42 15t16 39q0 23 -16.5 38t-41.5 15q-26 0 -42.5 -15t-16.5 -38q0 -24 16.5 -39t42.5 -15z" />
    <glyph glyph-name="oneeighth" unicode="&#x215b;" horiz-adv-x="763" 
d="M188 350h-89v250h-5l-71 -39v89l96 50h69v-350zM164 0h-94l445 700h95zM594 -5q-62 0 -102 29t-40 76q0 28 15 50t41 33q-46 25 -46 74q0 45 36.5 71.5t95.5 26.5t96.5 -27t37.5 -71q0 -49 -47 -74q26 -11 41.5 -33.5t15.5 -49.5q0 -47 -40.5 -76t-103.5 -29zM594 211
q20 0 33 10.5t13 27.5t-13 27.5t-33 10.5t-32.5 -11t-12.5 -27q0 -17 12.5 -27.5t32.5 -10.5zM594 63q23 0 38.5 12t15.5 32q0 21 -15 32.5t-39 11.5q-23 0 -37.5 -11.5t-14.5 -32.5q0 -20 15 -32t37 -12z" />
    <glyph glyph-name="threeeighths" unicode="&#x215c;" horiz-adv-x="855" 
d="M308 456q0 -51 -36.5 -81t-102.5 -30q-58 0 -97 24t-49 69l88 19q11 -41 58 -41q23 0 36.5 12t13.5 31q0 20 -14.5 31.5t-39.5 11.5h-56v49l76 67v5h-147v77h254v-72l-82 -69q45 -5 71.5 -32.5t26.5 -70.5zM162 0l445 700h95l-446 -700h-94zM773 183q26 -11 41.5 -33.5
t15.5 -49.5q0 -47 -40.5 -76t-103.5 -29q-62 0 -102 29t-40 76q0 28 15 50t41 33q-46 25 -46 74q0 45 36.5 71.5t95.5 26.5t96.5 -27t37.5 -71q0 -49 -47 -74zM686 287q-20 0 -32.5 -11t-12.5 -27q0 -17 12.5 -27.5t32.5 -10.5t33 10.5t13 27.5t-13 27.5t-33 10.5zM686 63
q23 0 38.5 12t15.5 32q0 21 -15 32.5t-39 11.5q-23 0 -37.5 -11.5t-14.5 -32.5q0 -20 15 -32t37 -12z" />
    <glyph glyph-name="fiveeighths" unicode="&#x215d;" horiz-adv-x="855" 
d="M171 345q-57 0 -97.5 23.5t-50.5 66.5l89 19q14 -38 59 -38q24 0 38.5 13t14.5 35t-14.5 34.5t-37.5 12.5q-31 0 -53 -20l-79 14l14 195h226v-75h-150l-4 -61h6q27 15 61 15q55 0 87.5 -31t32.5 -84q0 -56 -38 -87.5t-104 -31.5zM256 0h-94l445 700h95zM686 -5
q-62 0 -102 29t-40 76q0 28 15 50t41 33q-46 25 -46 74q0 45 36.5 71.5t95.5 26.5t96.5 -27t37.5 -71q0 -49 -47 -74q26 -11 41.5 -33.5t15.5 -49.5q0 -47 -40.5 -76t-103.5 -29zM686 211q20 0 33 10.5t13 27.5t-13 27.5t-33 10.5t-32.5 -11t-12.5 -27q0 -17 12.5 -27.5
t32.5 -10.5zM686 63q23 0 38.5 12t15.5 32q0 21 -15 32.5t-39 11.5q-23 0 -37.5 -11.5t-14.5 -32.5q0 -20 15 -32t37 -12z" />
    <glyph glyph-name="seveneighths" unicode="&#x215e;" horiz-adv-x="786" 
d="M154 350h-103l128 261v5h-156v84h261v-80zM187 0h-94l445 700h95zM617 -5q-62 0 -102 29t-40 76q0 28 15 50t41 33q-46 25 -46 74q0 45 36.5 71.5t95.5 26.5t96.5 -27t37.5 -71q0 -49 -47 -74q26 -11 41.5 -33.5t15.5 -49.5q0 -47 -40.5 -76t-103.5 -29zM617 211
q20 0 33 10.5t13 27.5t-13 27.5t-33 10.5t-32.5 -11t-12.5 -27q0 -17 12.5 -27.5t32.5 -10.5zM617 63q23 0 38.5 12t15.5 32q0 21 -15 32.5t-39 11.5q-23 0 -37.5 -11.5t-14.5 -32.5q0 -20 15 -32t37 -12z" />
    <glyph glyph-name="uni215F" unicode="&#x215f;" horiz-adv-x="635" 
d="M188 350h-89v250h-5l-71 -39v89l96 50h69v-350zM143 0h-94l445 700h95z" />
    <glyph glyph-name="partialdiff" unicode="&#x2202;" horiz-adv-x="551" 
d="M273 -10q-103 0 -168.5 64.5t-65.5 165.5q0 98 55.5 162.5t151.5 64.5q78 0 123 -44h6q-14 82 -65 133.5t-149 51.5q-38 0 -79 -10v115q46 7 90 7q73 0 131 -23t97 -62.5t64.5 -94t37 -115t11.5 -128.5q0 -128 -61 -207.5t-179 -79.5zM273 91q47 0 77.5 36.5t30.5 92.5
q0 55 -30.5 92t-77.5 37q-48 0 -78 -36t-30 -93q0 -56 31 -92.5t77 -36.5z" />
    <glyph glyph-name="emptyset" unicode="&#x2205;" horiz-adv-x="617" 
d="M209 104l-41 -71l-65 32l44 76q-48 37 -75.5 91.5t-27.5 117.5q0 110 77.5 187.5t187.5 77.5q51 0 98 -19l41 71l67 -32l-44 -76q48 -37 75.5 -92t27.5 -117q0 -110 -78 -187.5t-187 -77.5q-49 0 -100 19zM186 210l181 317q-27 9 -58 9q-77 0 -132 -54.5t-55 -131.5
q0 -84 64 -140zM309 164q77 0 131.5 55t54.5 131q0 84 -63 140l-183 -317q29 -9 60 -9z" />
    <glyph glyph-name="uni2206" unicode="&#x2206;" horiz-adv-x="605" 
d="M591 0h-576l218 700h139zM299 544l-128 -436h261l-126 436h-7z" />
    <glyph glyph-name="product" unicode="&#x220f;" horiz-adv-x="730" 
d="M290 -200h-133v774h-96v126h608v-126h-96v-774h-133v774h-150v-774z" />
    <glyph glyph-name="summation" unicode="&#x2211;" horiz-adv-x="557" 
d="M507 0h-441v105l183 245l-183 245v105h441v-115h-287l176 -235l-176 -235h287v-115z" />
    <glyph glyph-name="minus" unicode="&#x2212;" 
d="M474 243h-441v115h441v-115z" />
    <glyph glyph-name="radical" unicode="&#x221a;" horiz-adv-x="620" 
d="M364 0h-158l-112 313h-88v102h169l110 -310l210 595h120z" />
    <glyph glyph-name="infinity" unicode="&#x221e;" horiz-adv-x="708" 
d="M183 141q-67 0 -109.5 44.5t-42.5 114.5q0 69 42.5 114t109.5 45q51 0 89 -24.5t82 -70.5q30 31 50 48.5t52.5 32t68.5 14.5q67 0 110 -45t43 -114q0 -70 -43 -114.5t-110 -44.5q-36 0 -68.5 15t-52.5 32t-50 48q-30 -31 -50 -48t-52.5 -32t-68.5 -15zM192 226
q30 0 56 18.5t60 55.5q-67 74 -116 74q-29 0 -49.5 -20.5t-20.5 -53.5q0 -34 20 -54t50 -20zM516 226q30 0 50 20.5t20 53.5t-20 53.5t-50 20.5q-29 0 -55 -18.5t-61 -55.5q67 -74 116 -74z" />
    <glyph glyph-name="integral" unicode="&#x222b;" horiz-adv-x="433" 
d="M102 -200h-71v110h45q64 0 64 67v546q0 177 175 177h77v-110h-51q-68 0 -68 -67v-546q0 -177 -171 -177z" />
    <glyph glyph-name="approxequal" unicode="&#x2248;" 
d="M134 313h-101v47q0 67 34 100.5t86 33.5q41 0 102 -33t79 -33q39 0 39 41v25h101v-47q0 -67 -33 -100.5t-87 -33.5q-45 0 -103.5 33t-77.5 33q-39 0 -39 -41v-25zM134 106h-101v47q0 67 34 100.5t86 33.5q41 0 102 -33t79 -33q39 0 39 41v25h101v-47q0 -67 -33 -100.5
t-87 -33.5q-45 0 -103.5 33t-77.5 33q-39 0 -39 -41v-25z" />
    <glyph glyph-name="notequal" unicode="&#x2260;" 
d="M187 21h-95l49 121h-108v107h152l42 102h-194v107h238l50 121h95l-50 -121h108v-107h-152l-41 -102h193v-107h-237z" />
    <glyph glyph-name="lessequal" unicode="&#x2264;" 
d="M474 288v-118l-441 142v125l441 142v-118l-311 -87zM474 11h-441v109h441v-109z" />
    <glyph glyph-name="greaterequal" unicode="&#x2265;" 
d="M474 312l-441 -142v118l311 86l-311 87v118l441 -142v-125zM474 11h-441v109h441v-109z" />
    <glyph glyph-name="lozenge" unicode="&#x25ca;" horiz-adv-x="576" 
d="M350 0h-124l-176 350l176 350h124l176 -350zM175 350l113 -223l113 223l-113 223z" />
    <glyph glyph-name="uniE132" unicode="&#xe132;" horiz-adv-x="553" 
d="M188 576h-111l66 147h164zM478 576h-111l66 147h164zM199 0h-135v510h135v-510zM323 -210q-74 0 -125 30l34 97q28 -16 61 -16q28 0 44 17t16 51v541h136v-548q0 -83 -43.5 -127.5t-122.5 -44.5z" />
    <glyph glyph-name="uniE133" unicode="&#xe133;" horiz-adv-x="765" 
d="M196 766h-111l66 147h164zM682 766h-111l66 147h164zM208 0h-137v700h137v-700zM444 0h-127v115h118q122 0 122 130v455h137v-457q0 -116 -66 -179.5t-184 -63.5z" />
    <glyph glyph-name="fi" unicode="&#xfb01;" horiz-adv-x="697" 
d="M566 571q-37 0 -62 24t-25 59t25 58.5t62 23.5t62 -23.5t25 -58.5t-25 -59t-62 -24zM259 0h-135v392h-98v107h98v40q0 83 45.5 127t126.5 44q72 0 130 -32l-33 -91q-32 18 -68 18q-30 0 -48 -17.5t-18 -53.5v-35h374v-499h-135v392h-239v-392z" />
    <glyph glyph-name="Iacute_J.loclNLD" horiz-adv-x="765" 
d="M196 766h-111l66 147h164zM682 766h-111l66 147h164zM208 0h-137v700h137v-700zM444 0h-127v115h118q122 0 122 130v455h137v-457q0 -116 -66 -179.5t-184 -63.5z" />
    <glyph glyph-name="J.ss01" horiz-adv-x="545" 
d="M224 0h-178v119h168q122 0 122 131v450h138v-457q0 -116 -66 -179.5t-184 -63.5z" />
    <glyph glyph-name="Jcircumflex.ss01" horiz-adv-x="545" 
d="M349 766h-126l121 147h121l122 -147h-131l-53 79zM224 0h-178v119h168q122 0 122 131v450h138v-457q0 -116 -66 -179.5t-184 -63.5z" />
    <glyph glyph-name="Eng.ss01" horiz-adv-x="743" 
d="M495 -200h-82v112h66q62 0 62 68v9l-332 511h-7q4 -92 4 -192v-308h-135v700h147l315 -485h8q-4 92 -4 192v293h135v-714q0 -93 -47.5 -139.5t-129.5 -46.5z" />
    <glyph glyph-name="uni019D.ss01" horiz-adv-x="743" 
d="M29 -200h-86v112h63q65 0 65 76v712h147l315 -495h8q-4 92 -4 193v302h135v-700h-148l-315 495h-7q4 -93 4 -193v-316q0 -93 -47.5 -139.5t-129.5 -46.5z" />
    <glyph glyph-name="uni1E9E.ss01" horiz-adv-x="730" 
d="M653 588l-172 -189q99 -6 154 -58.5t55 -138.5q0 -91 -64.5 -146.5t-179.5 -55.5h-163v112h152q57 0 87.5 26t30.5 68t-31 67t-94 25h-92v92l174 190v8h-151q-151 0 -151 -159v-429h-137v429q0 271 282 271h300v-112z" />
    <glyph glyph-name="J.ss05" horiz-adv-x="630" 
d="M302 -10q-94 0 -165 43.5t-96 129.5l128 33q30 -91 133 -91q56 0 88 33t32 96v347h-319v119h456v-471q0 -112 -67 -175.5t-190 -63.5z" />
    <glyph glyph-name="Jcircumflex.ss05" horiz-adv-x="630" 
d="M275 766h-126l121 147h121l122 -147h-131l-53 79zM302 -10q-94 0 -165 43.5t-96 129.5l128 33q30 -91 133 -91q56 0 88 33t32 96v347h-319v119h456v-471q0 -112 -67 -175.5t-190 -63.5z" />
    <glyph glyph-name="i.loclTRK" horiz-adv-x="262" 
d="M131 571q-37 0 -62 24t-25 59t25 58.5t62 23.5t62 -23.5t25 -58.5t-25 -59t-62 -24zM199 0h-135v510h135v-510z" />
    <glyph glyph-name="iacute_j.loclNLD" horiz-adv-x="553" 
d="M188 576h-111l66 147h164zM478 576h-111l66 147h164zM199 0h-135v510h135v-510zM323 -210q-74 0 -125 30l34 97q28 -16 61 -16q28 0 44 17t16 51v541h136v-548q0 -83 -43.5 -127.5t-122.5 -44.5z" />
    <glyph glyph-name="f.ss01" horiz-adv-x="427" 
d="M259 0h-135v392h-98v107h98v22q0 87 49 133t134 46h98v-106h-76q-70 0 -70 -74v-21h136v-107h-136v-392z" />
    <glyph glyph-name="iacute_j.loclNLD.ss01" horiz-adv-x="539" 
d="M188 576h-111l66 147h164zM464 576h-111l66 147h164zM199 0h-135v510h135v-510zM298 -200h-77v112h54q64 0 64 76v522h136v-524q0 -93 -47.5 -139.5t-129.5 -46.5z" />
    <glyph glyph-name="ij.ss01" horiz-adv-x="538" 
d="M131 571q-37 0 -62 24t-25 59t25 58.5t62 23.5t62 -23.5t25 -58.5t-25 -59t-62 -24zM407 571q-36 0 -61.5 24t-25.5 59t25.5 58.5t61.5 23.5q37 0 62 -23.5t25 -58.5t-25 -59t-62 -24zM199 0h-135v510h135v-510zM298 -200h-77v112h54q64 0 64 76v522h136v-524
q0 -93 -47.5 -139.5t-129.5 -46.5z" />
    <glyph glyph-name="j.ss01" horiz-adv-x="291" 
d="M160 571q-37 0 -62 24t-25 59t25 58.5t62 23.5t62 -23.5t25 -58.5t-25 -59t-62 -24zM51 -200h-77v112h54q64 0 64 76v522h136v-524q0 -93 -47.5 -139.5t-129.5 -46.5z" />
    <glyph glyph-name="uni0237.ss01" horiz-adv-x="291" 
d="M51 -200h-77v112h54q64 0 64 76v522h136v-524q0 -93 -47.5 -139.5t-129.5 -46.5z" />
    <glyph glyph-name="jcircumflex.ss01" horiz-adv-x="291" 
d="M104 576h-126l121 147h121l122 -147h-131l-53 79zM51 -200h-77v112h54q64 0 64 76v522h136v-524q0 -93 -47.5 -139.5t-129.5 -46.5z" />
    <glyph glyph-name="eng.ss01" horiz-adv-x="618" 
d="M383 -200h-87v112h63q65 0 65 76v294q0 59 -26 90t-75 31q-56 0 -90 -39.5t-34 -99.5v-264h-135v238q0 181 -5 272h129l10 -83h9q61 93 170 93q87 0 135 -53.5t48 -158.5v-322q0 -93 -47.5 -139.5t-129.5 -46.5z" />
    <glyph glyph-name="uni0272.ss01" horiz-adv-x="657" 
d="M60 -200h-86v112h63q65 0 65 76v250q0 181 -5 272h129l11 -83h8q61 93 171 93q86 0 134 -53.5t48 -158.5v-308h-135v282q0 59 -26.5 90t-75.5 31q-55 0 -89.5 -39.5t-34.5 -99.5v-278q0 -93 -47.5 -139.5t-129.5 -46.5z" />
    <glyph glyph-name="germandbls.ss01" horiz-adv-x="636" 
d="M199 0h-135v482q0 105 66.5 166.5t189.5 61.5q113 0 178.5 -53t65.5 -140q0 -54 -25.5 -92.5t-70.5 -56.5v-7q130 -37 130 -169q0 -85 -57 -138.5t-162 -53.5h-102v109h81q49 0 76.5 24.5t27.5 72.5q0 47 -31 73t-87 26h-57v106h40q51 0 78.5 25t27.5 70q0 43 -30.5 70
t-82.5 27q-57 0 -89 -33.5t-32 -89.5v-480z" />
    <glyph glyph-name="t.ss01" horiz-adv-x="444" 
d="M398 0h-82q-91 0 -141.5 47t-50.5 142v214h-98v107h105l22 144h106v-144h139v-107h-139v-209q0 -82 77 -82h62v-112z" />
    <glyph glyph-name="tbar.ss01" horiz-adv-x="444" 
d="M398 510v-107h-139v-101h132v-74h-132v-34q0 -82 77 -82h62v-112h-82q-91 0 -141.5 47t-50.5 142v39h-93v74h93v101h-98v107h105l22 144h106v-144h139z" />
    <glyph glyph-name="tcaron.ss01" horiz-adv-x="464" 
d="M390 554h-74l9 196h114zM398 0h-82q-91 0 -141.5 47t-50.5 142v214h-98v107h105l22 144h106v-144h139v-107h-139v-209q0 -82 77 -82h62v-112z" />
    <glyph glyph-name="uni0163.ss01" horiz-adv-x="444" 
d="M320 -41h3q47 0 77 -25t30 -70q0 -46 -35.5 -75.5t-99.5 -29.5q-73 0 -126 39l40 63q39 -29 82 -29q49 0 49 34q0 33 -43 33q-20 0 -40 -7l-18 27l29 85q-144 24 -144 185v214h-98v107h105l22 144h106v-144h139v-107h-139v-209q0 -82 77 -82h62v-112h-64z" />
    <glyph glyph-name="uni021B.ss01" horiz-adv-x="444" 
d="M398 0h-82q-91 0 -141.5 47t-50.5 142v214h-98v107h105l22 144h106v-144h139v-107h-139v-209q0 -82 77 -82h62v-112zM297 -199h-100l34 151h132z" />
    <glyph glyph-name="a.ss02" horiz-adv-x="614" 
d="M246 -10q-96 0 -151.5 71.5t-55.5 193.5t55.5 193.5t151.5 71.5q107 0 161 -93h9l11 83h124v-238q0 -181 5 -272h-129l-11 83h-9q-54 -93 -161 -93zM294 102q56 0 89 41t33 111t-33.5 112t-88.5 42t-87.5 -42t-32.5 -112t32.5 -111t87.5 -41z" />
    <glyph glyph-name="aacute.ss02" horiz-adv-x="614" 
d="M351 576h-111l66 147h164zM246 -10q-96 0 -151.5 71.5t-55.5 193.5t55.5 193.5t151.5 71.5q107 0 161 -93h9l11 83h124v-238q0 -181 5 -272h-129l-11 83h-9q-54 -93 -161 -93zM294 102q56 0 89 41t33 111t-33.5 112t-88.5 42t-87.5 -42t-32.5 -112t32.5 -111t87.5 -41z
" />
    <glyph glyph-name="abreve.ss02" horiz-adv-x="614" 
d="M295 571q-75 0 -117.5 40.5t-42.5 111.5h93q0 -30 17.5 -49.5t49.5 -19.5t49 19.5t17 49.5h93q0 -71 -42 -111.5t-117 -40.5zM246 -10q-96 0 -151.5 71.5t-55.5 193.5t55.5 193.5t151.5 71.5q107 0 161 -93h9l11 83h124v-238q0 -181 5 -272h-129l-11 83h-9
q-54 -93 -161 -93zM294 102q56 0 89 41t33 111t-33.5 112t-88.5 42t-87.5 -42t-32.5 -112t32.5 -111t87.5 -41z" />
    <glyph glyph-name="uni01CE.ss02" horiz-adv-x="614" 
d="M354 576h-121l-121 147h130l55 -80l53 80h126zM246 -10q-96 0 -151.5 71.5t-55.5 193.5t55.5 193.5t151.5 71.5q107 0 161 -93h9l11 83h124v-238q0 -181 5 -272h-129l-11 83h-9q-54 -93 -161 -93zM294 102q56 0 89 41t33 111t-33.5 112t-88.5 42t-87.5 -42t-32.5 -112
t32.5 -111t87.5 -41z" />
    <glyph glyph-name="acircumflex.ss02" horiz-adv-x="614" 
d="M238 576h-126l121 147h121l122 -147h-131l-53 79zM246 -10q-96 0 -151.5 71.5t-55.5 193.5t55.5 193.5t151.5 71.5q107 0 161 -93h9l11 83h124v-238q0 -181 5 -272h-129l-11 83h-9q-54 -93 -161 -93zM294 102q56 0 89 41t33 111t-33.5 112t-88.5 42t-87.5 -42t-32.5 -112
t32.5 -111t87.5 -41z" />
    <glyph glyph-name="adieresis.ss02" horiz-adv-x="614" 
d="M192 576q-34 0 -57 21.5t-23 53.5t23 54t57 22q32 0 54.5 -22t22.5 -54q0 -31 -22.5 -53t-54.5 -22zM399 576q-34 0 -57 21.5t-23 53.5t23 54t57 22q33 0 55 -22t22 -54t-22 -53.5t-55 -21.5zM246 -10q-96 0 -151.5 71.5t-55.5 193.5t55.5 193.5t151.5 71.5
q107 0 161 -93h9l11 83h124v-238q0 -181 5 -272h-129l-11 83h-9q-54 -93 -161 -93zM294 102q56 0 89 41t33 111t-33.5 112t-88.5 42t-87.5 -42t-32.5 -112t32.5 -111t87.5 -41z" />
    <glyph glyph-name="uni1EA1.ss02" horiz-adv-x="614" 
d="M246 -10q-96 0 -151.5 71.5t-55.5 193.5t55.5 193.5t151.5 71.5q107 0 161 -93h9l11 83h124v-238q0 -181 5 -272h-129l-11 83h-9q-54 -93 -161 -93zM294 102q56 0 89 41t33 111t-33.5 112t-88.5 42t-87.5 -42t-32.5 -112t32.5 -111t87.5 -41zM295 -200q-35 0 -58.5 22
t-23.5 55q0 32 24 54.5t58 22.5t57.5 -22.5t23.5 -54.5q0 -33 -23 -55t-58 -22z" />
    <glyph glyph-name="agrave.ss02" horiz-adv-x="614" 
d="M349 576h-111l-119 147h164zM246 -10q-96 0 -151.5 71.5t-55.5 193.5t55.5 193.5t151.5 71.5q107 0 161 -93h9l11 83h124v-238q0 -181 5 -272h-129l-11 83h-9q-54 -93 -161 -93zM294 102q56 0 89 41t33 111t-33.5 112t-88.5 42t-87.5 -42t-32.5 -112t32.5 -111t87.5 -41z
" />
    <glyph glyph-name="amacron.ss02" horiz-adv-x="614" 
d="M443 602h-296v100h296v-100zM246 -10q-96 0 -151.5 71.5t-55.5 193.5t55.5 193.5t151.5 71.5q107 0 161 -93h9l11 83h124v-238q0 -181 5 -272h-129l-11 83h-9q-54 -93 -161 -93zM294 102q56 0 89 41t33 111t-33.5 112t-88.5 42t-87.5 -42t-32.5 -112t32.5 -111t87.5 -41z
" />
    <glyph glyph-name="aogonek.ss02" horiz-adv-x="614" 
d="M476 -110q0 -39 45 -39q18 0 35 5v-83q-27 -6 -60 -6q-51 0 -82.5 24.5t-31.5 73.5q0 77 97 135h-52l-11 83h-9q-54 -93 -161 -93q-96 0 -151.5 71.5t-55.5 193.5t55.5 193.5t151.5 71.5q107 0 161 -93h9l11 83h124v-238q0 -181 5 -272q-80 -59 -80 -110zM294 102
q56 0 89 41t33 111t-33.5 112t-88.5 42t-87.5 -42t-32.5 -112t32.5 -111t87.5 -41z" />
    <glyph glyph-name="aring.ss02" horiz-adv-x="614" 
d="M295 556q-54 0 -89 31.5t-35 79.5q0 49 35 80t89 31q53 0 88 -31t35 -80q0 -48 -35 -79.5t-88 -31.5zM295 622q20 0 32.5 12.5t12.5 32.5t-12.5 32.5t-32.5 12.5q-21 0 -33.5 -12.5t-12.5 -32.5t12.5 -32.5t33.5 -12.5zM246 -10q-96 0 -151.5 71.5t-55.5 193.5
t55.5 193.5t151.5 71.5q107 0 161 -93h9l11 83h124v-238q0 -181 5 -272h-129l-11 83h-9q-54 -93 -161 -93zM294 102q56 0 89 41t33 111t-33.5 112t-88.5 42t-87.5 -42t-32.5 -112t32.5 -111t87.5 -41z" />
    <glyph glyph-name="aringacute.ss02" horiz-adv-x="614" 
d="M295 545q-55 0 -89.5 23t-34.5 63q0 66 83 83l27 70h135l-63 -75q65 -20 65 -78q0 -40 -34 -63t-89 -23zM295 596q21 0 34.5 10t13.5 25q0 16 -13 25.5t-35 9.5t-35.5 -9.5t-13.5 -25.5q0 -15 13.5 -25t35.5 -10zM246 -10q-96 0 -151.5 71.5t-55.5 193.5t55.5 193.5
t151.5 71.5q107 0 161 -93h9l11 83h124v-238q0 -181 5 -272h-129l-11 83h-9q-54 -93 -161 -93zM294 102q56 0 89 41t33 111t-33.5 112t-88.5 42t-87.5 -42t-32.5 -112t32.5 -111t87.5 -41z" />
    <glyph glyph-name="atilde.ss02" horiz-adv-x="614" 
d="M207 571h-77v44q0 56 24.5 84.5t62.5 28.5q35 0 76.5 -30.5t56.5 -30.5q31 0 31 61h77v-46q0 -57 -24 -84t-63 -27q-35 0 -76.5 30t-56.5 30q-31 0 -31 -60zM246 -10q-96 0 -151.5 71.5t-55.5 193.5t55.5 193.5t151.5 71.5q107 0 161 -93h9l11 83h124v-238q0 -181 5 -272
h-129l-11 83h-9q-54 -93 -161 -93zM294 102q56 0 89 41t33 111t-33.5 112t-88.5 42t-87.5 -42t-32.5 -112t32.5 -111t87.5 -41z" />
    <glyph glyph-name="u.ss03" horiz-adv-x="613" 
d="M306 -10q-121 0 -184 65.5t-63 179.5v275h135v-272q0 -63 28.5 -98t83.5 -35t84 35t29 98v272h136v-275q0 -113 -63.5 -179t-185.5 -66z" />
    <glyph glyph-name="uacute.ss03" horiz-adv-x="613" 
d="M364 576h-111l66 147h164zM306 -10q-121 0 -184 65.5t-63 179.5v275h135v-272q0 -63 28.5 -98t83.5 -35t84 35t29 98v272h136v-275q0 -113 -63.5 -179t-185.5 -66z" />
    <glyph glyph-name="ubreve.ss03" horiz-adv-x="613" 
d="M307 571q-75 0 -117.5 40.5t-42.5 111.5h93q0 -30 17.5 -49.5t49.5 -19.5t49 19.5t17 49.5h93q0 -71 -42 -111.5t-117 -40.5zM306 -10q-121 0 -184 65.5t-63 179.5v275h135v-272q0 -63 28.5 -98t83.5 -35t84 35t29 98v272h136v-275q0 -113 -63.5 -179t-185.5 -66z" />
    <glyph glyph-name="uni01D4.ss03" horiz-adv-x="613" 
d="M367 576h-121l-121 147h130l55 -80l53 80h126zM306 -10q-121 0 -184 65.5t-63 179.5v275h135v-272q0 -63 28.5 -98t83.5 -35t84 35t29 98v272h136v-275q0 -113 -63.5 -179t-185.5 -66z" />
    <glyph glyph-name="ucircumflex.ss03" horiz-adv-x="613" 
d="M251 576h-126l121 147h121l122 -147h-131l-53 79zM306 -10q-121 0 -184 65.5t-63 179.5v275h135v-272q0 -63 28.5 -98t83.5 -35t84 35t29 98v272h136v-275q0 -113 -63.5 -179t-185.5 -66z" />
    <glyph glyph-name="udieresis.ss03" horiz-adv-x="613" 
d="M205 576q-34 0 -57 21.5t-23 53.5t23 54t57 22q32 0 54.5 -22t22.5 -54q0 -31 -22.5 -53t-54.5 -22zM412 576q-34 0 -57 21.5t-23 53.5t23 54t57 22q33 0 55 -22t22 -54t-22 -53.5t-55 -21.5zM306 -10q-121 0 -184 65.5t-63 179.5v275h135v-272q0 -63 28.5 -98t83.5 -35
t84 35t29 98v272h136v-275q0 -113 -63.5 -179t-185.5 -66z" />
    <glyph glyph-name="uni1EE5.ss03" horiz-adv-x="613" 
d="M306 -10q-121 0 -184 65.5t-63 179.5v275h135v-272q0 -63 28.5 -98t83.5 -35t84 35t29 98v272h136v-275q0 -113 -63.5 -179t-185.5 -66zM306 -200q-35 0 -58.5 22t-23.5 55q0 32 24 54.5t58 22.5t57.5 -22.5t23.5 -54.5q0 -33 -23 -55t-58 -22z" />
    <glyph glyph-name="ugrave.ss03" horiz-adv-x="613" 
d="M361 576h-111l-119 147h164zM306 -10q-121 0 -184 65.5t-63 179.5v275h135v-272q0 -63 28.5 -98t83.5 -35t84 35t29 98v272h136v-275q0 -113 -63.5 -179t-185.5 -66z" />
    <glyph glyph-name="uhungarumlaut.ss03" horiz-adv-x="613" 
d="M266 576h-99l65 147h145zM446 576h-99l65 147h145zM306 -10q-121 0 -184 65.5t-63 179.5v275h135v-272q0 -63 28.5 -98t83.5 -35t84 35t29 98v272h136v-275q0 -113 -63.5 -179t-185.5 -66z" />
    <glyph glyph-name="umacron.ss03" horiz-adv-x="613" 
d="M455 602h-296v100h296v-100zM306 -10q-121 0 -184 65.5t-63 179.5v275h135v-272q0 -63 28.5 -98t83.5 -35t84 35t29 98v272h136v-275q0 -113 -63.5 -179t-185.5 -66z" />
    <glyph glyph-name="uogonek.ss03" horiz-adv-x="613" 
d="M419 238v272h136v-275q0 -91 -41.5 -152.5t-121.5 -82.5h2q-80 -59 -80 -110q0 -39 45 -39q18 0 35 5v-83q-27 -6 -60 -6q-51 0 -82.5 24.5t-31.5 73.5q0 71 81 125q-119 1 -180.5 67t-61.5 178v275h135v-272q0 -63 28.5 -98t83.5 -35t84 35t29 98z" />
    <glyph glyph-name="uring.ss03" horiz-adv-x="613" 
d="M307 556q-54 0 -89 31.5t-35 79.5q0 49 35 80t89 31q53 0 88 -31t35 -80q0 -48 -35 -79.5t-88 -31.5zM307 622q20 0 32.5 12.5t12.5 32.5t-12.5 32.5t-32.5 12.5q-21 0 -33.5 -12.5t-12.5 -32.5t12.5 -32.5t33.5 -12.5zM306 -10q-121 0 -184 65.5t-63 179.5v275h135v-272
q0 -63 28.5 -98t83.5 -35t84 35t29 98v272h136v-275q0 -113 -63.5 -179t-185.5 -66z" />
    <glyph glyph-name="utilde.ss03" horiz-adv-x="613" 
d="M220 571h-77v44q0 56 24.5 84.5t62.5 28.5q35 0 76.5 -30.5t56.5 -30.5q31 0 31 61h77v-46q0 -57 -24 -84t-63 -27q-35 0 -76.5 30t-56.5 30q-31 0 -31 -60zM306 -10q-121 0 -184 65.5t-63 179.5v275h135v-272q0 -63 28.5 -98t83.5 -35t84 35t29 98v272h136v-275
q0 -113 -63.5 -179t-185.5 -66z" />
    <glyph glyph-name="l.ss04" horiz-adv-x="337" 
d="M306 0h-65q-82 0 -129.5 46t-47.5 137v517h135v-514q0 -71 62 -71h45v-115z" />
    <glyph glyph-name="lacute.ss04" horiz-adv-x="337" 
d="M188 766h-111l66 147h164zM306 0h-65q-82 0 -129.5 46t-47.5 137v517h135v-514q0 -71 62 -71h45v-115z" />
    <glyph glyph-name="lcaron.ss04" horiz-adv-x="362" 
d="M306 0h-65q-82 0 -129.5 46t-47.5 137v517h135v-514q0 -71 62 -71h45v-115zM324 504h-74l10 196h113z" />
    <glyph glyph-name="uni013C.ss04" horiz-adv-x="337" 
d="M306 0h-65q-82 0 -129.5 46t-47.5 137v517h135v-514q0 -71 62 -71h45v-115zM210 -199h-100l34 151h132z" />
    <glyph glyph-name="ldot.ss04" horiz-adv-x="403" 
d="M306 0h-65q-82 0 -129.5 46t-47.5 137v517h135v-514q0 -71 62 -71h45v-115zM333 266q-35 0 -59.5 22.5t-24.5 57.5t24.5 57.5t59.5 22.5t59.5 -22.5t24.5 -57.5t-24.5 -57.5t-59.5 -22.5z" />
    <glyph glyph-name="lslash.ss04" horiz-adv-x="397" 
d="M354 0h-65q-82 0 -130 45t-48 134v64l-90 -48v101l90 48v356h136v-283l107 57v-101l-107 -57v-130q0 -71 62 -71h45v-115z" />
    <glyph glyph-name="j_j.dlig" horiz-adv-x="590" 
d="M174 571q-37 0 -62 24t-25 59t25 58.5t62 23.5t62 -23.5t25 -58.5t-25 -59t-62 -24zM459 571q-36 0 -61.5 24t-25.5 59t25.5 58.5t61.5 23.5q37 0 62 -23.5t25 -58.5t-25 -59t-62 -24zM76 -210q-74 0 -125 30l34 97q28 -16 61 -16q28 0 44 17t16 51v541h136v-548
q0 -83 -43.5 -127.5t-122.5 -44.5zM373 -210q-67 0 -113 30l35 97q21 -16 48 -16q49 0 49 64v545h135v-550q0 -82 -40.5 -126t-113.5 -44z" />
    <glyph glyph-name="t_t.dlig" horiz-adv-x="845" 
d="M124 403h-98v107h105l22 144h106v-144h270l23 144h106v-144h136v-107h-136v-237q0 -33 16 -49.5t43 -16.5q34 0 61 17l34 -93q-56 -34 -125 -34q-76 0 -120.5 42.5t-44.5 126.5v244h-263v-237q0 -66 60 -66q32 0 61 17l33 -93q-56 -34 -125 -34q-76 0 -120 42.5
t-44 126.5v244z" />
    <glyph glyph-name="t_t.dlig.ss01" horiz-adv-x="842" 
d="M398 0h-82q-91 0 -141.5 47t-50.5 142v214h-98v107h105l22 144h106v-144h270l23 144h106v-144h139v-107h-139v-209q0 -82 77 -82h62v-112h-83q-91 0 -141.5 47t-50.5 142v214h-263v-209q0 -82 77 -82h62v-112z" />
    <glyph glyph-name="f_f.ss01" horiz-adv-x="802" 
d="M259 0h-135v392h-98v107h98v22q0 87 49 133t134 46h115v-106h-93q-70 0 -70 -74v-21h239v22q0 87 49 133t135 46h97v-106h-76q-70 0 -70 -74v-21h137v-107h-137v-392h-135v392h-239v-392z" />
    <glyph glyph-name="f_f_i.ss01" horiz-adv-x="1071" 
d="M940 571q-37 0 -62 24t-25 59t25 58.5t62 23.5t62 -23.5t25 -58.5t-25 -59t-62 -24zM259 0h-135v392h-98v107h98v22q0 87 49 133t134 46h115v-106h-93q-70 0 -70 -74v-21h239v22q0 87 49 133t135 46h97v-106h-76q-70 0 -70 -74v-21h375v-499h-136v392h-239v-392h-135v392
h-239v-392z" />
    <glyph glyph-name="f_i.ss01" horiz-adv-x="697" 
d="M566 571q-37 0 -62 24t-25 59t25 58.5t62 23.5t62 -23.5t25 -58.5t-25 -59t-62 -24zM259 0h-135v392h-98v107h98v22q0 87 49 133t134 46h98v-106h-76q-70 0 -70 -74v-21h374v-499h-135v392h-239v-392z" />
    <glyph glyph-name="fi.ss01" horiz-adv-x="697" 
d="M566 571q-37 0 -62 24t-25 59t25 58.5t62 23.5t62 -23.5t25 -58.5t-25 -59t-62 -24zM259 0h-135v392h-98v107h98v22q0 87 49 133t134 46h98v-106h-76q-70 0 -70 -74v-21h374v-499h-135v392h-239v-392z" />
    <glyph glyph-name="fl.ss01" horiz-adv-x="764" 
d="M259 0h-135v392h-98v107h98v22q0 87 49 133t134 46h98v-106h-76q-70 0 -70 -74v-21h136v-107h-136v-392zM733 0h-65q-82 0 -129.5 46t-47.5 137v517h135v-514q0 -71 62 -71h45v-115z" />
    <glyph glyph-name="zero.lf" horiz-adv-x="696" 
d="M348 -10q-139 0 -221.5 99t-82.5 261t82.5 261t221.5 99q140 0 222.5 -98.5t82.5 -261.5t-82.5 -261.5t-222.5 -98.5zM348 112q77 0 122 63t45 175t-45 175t-122 63t-122 -63t-45 -175t45 -175t122 -63z" />
    <glyph glyph-name="one.lf" horiz-adv-x="400" 
d="M324 0h-138v545h-7l-148 -85v138l188 102h105v-700z" />
    <glyph glyph-name="two.lf" horiz-adv-x="597" 
d="M553 0h-505v112l205 176q47 41 68.5 61t46.5 48.5t34 52t9 50.5q0 46 -33 73t-82 27q-102 0 -139 -101l-128 33q23 84 94 131t172 47q113 0 183 -56t70 -153q0 -54 -24.5 -101.5t-65 -88t-116.5 -103.5l-90 -77v-7h301v-124z" />
    <glyph glyph-name="three.lf" horiz-adv-x="603" 
d="M533 588l-175 -169q94 -8 149 -64.5t55 -145.5q0 -101 -69.5 -160t-190.5 -59q-106 0 -180 46t-96 129l131 34q15 -45 53.5 -70.5t91.5 -25.5q56 0 89.5 30t33.5 80t-35 79.5t-95 29.5h-108v84l172 168v7h-305v119h479v-112z" />
    <glyph glyph-name="four.lf" horiz-adv-x="619" 
d="M505 0h-138v130h-336v129l324 441h150v-451h93v-119h-93v-130zM367 528l-203 -279h203v279z" />
    <glyph glyph-name="five.lf" horiz-adv-x="620" 
d="M315 -10q-105 0 -180.5 44.5t-98.5 125.5l134 34q16 -43 55 -65t90 -22q59 0 95.5 33t36.5 87q0 55 -36 87.5t-93 32.5q-79 0 -135 -53l-117 21l26 385h430v-119h-312l-12 -163h8q60 39 139 39q106 0 172.5 -62.5t66.5 -167.5q0 -107 -73 -172t-196 -65z" />
    <glyph glyph-name="six.lf" horiz-adv-x="613" 
d="M325 475q111 0 184 -66t73 -172q0 -110 -76.5 -178.5t-199.5 -68.5q-120 0 -197.5 69t-77.5 178q0 57 19.5 103.5t64.5 108.5l182 251h166v-8l-166 -218q9 1 28 1zM306 107q61 0 100 36t39 94q0 59 -39 95t-100 36q-60 0 -99 -36.5t-39 -94.5t39 -94t99 -36z" />
    <glyph glyph-name="seven.lf" horiz-adv-x="557" 
d="M250 0h-156l270 565v7h-333v128h495v-121z" />
    <glyph glyph-name="eight.lf" horiz-adv-x="616" 
d="M308 -10q-116 0 -191.5 57t-75.5 149q0 57 32.5 102.5t86.5 67.5q-46 23 -72.5 63t-26.5 89q0 86 68.5 139t178.5 53t178.5 -53t68.5 -139q0 -49 -27 -89t-73 -63q55 -21 87.5 -67t32.5 -103q0 -92 -75.5 -149t-191.5 -57zM308 415q48 0 79.5 24.5t31.5 66.5t-31.5 67
t-79.5 25t-79.5 -25t-31.5 -67t31.5 -66.5t79.5 -24.5zM308 102q57 0 93.5 28.5t36.5 76.5t-36.5 76t-93.5 28q-56 0 -93 -28t-37 -76t37 -76.5t93 -28.5z" />
    <glyph glyph-name="nine.lf" horiz-adv-x="613" 
d="M307 710q120 0 197.5 -69t77.5 -178q0 -57 -19.5 -103.5t-64.5 -108.5l-182 -251h-166v8l166 218q-9 -1 -28 -1q-111 0 -184 66t-73 172q0 110 76.5 178.5t199.5 68.5zM307 332q60 0 99 36.5t39 94.5t-38.5 94t-99.5 36q-60 0 -99.5 -36t-39.5 -94t39.5 -94.5t99.5 -36.5
z" />
    <glyph glyph-name="zero.tf" horiz-adv-x="624" 
d="M312 -10q-128 0 -203 98.5t-75 261.5t75 261.5t203 98.5t203.5 -98.5t75.5 -261.5q0 -164 -75.5 -262t-203.5 -98zM312 110q67 0 104 62.5t37 177.5t-37 177.5t-104 62.5t-104 -62.5t-37 -177.5t37 -177.5t104 -62.5z" />
    <glyph glyph-name="one.tf" horiz-adv-x="624" 
d="M542 0h-460v119h164v426h-8l-156 -90v138l196 107h105v-581h159v-119z" />
    <glyph glyph-name="two.tf" horiz-adv-x="624" 
d="M564 0h-491v112l198 176q58 53 84 79t47 62t21 71q0 46 -31 73t-78 27q-98 0 -131 -100l-128 33q23 85 91 131t168 46q110 0 178 -56t68 -153q0 -77 -44.5 -139t-153.5 -154l-86 -77v-7h288v-124z" />
    <glyph glyph-name="three.tf" horiz-adv-x="624" 
d="M534 588l-162 -169q87 -8 138.5 -65t51.5 -145q0 -100 -66.5 -159.5t-181.5 -59.5q-101 0 -170.5 46t-89.5 129l129 34q13 -45 47.5 -70.5t82.5 -25.5q50 0 81 30t31 80t-32 79.5t-86 29.5h-101v84l156 168v7h-281v119h453v-112z" />
    <glyph glyph-name="four.tf" horiz-adv-x="624" 
d="M495 0h-138v130h-315v129l304 441h149v-451h87v-119h-87v-130zM357 528l-191 -279h191v279z" />
    <glyph glyph-name="five.tf" horiz-adv-x="624" 
d="M321 -10q-102 0 -175.5 45t-95.5 125l133 34q15 -43 52.5 -65t85.5 -22q56 0 90 33t34 87q0 55 -33.5 87.5t-87.5 32.5q-73 0 -129 -53l-116 21l25 385h418v-119h-301l-11 -162h8q60 38 134 38q103 0 166.5 -62.5t63.5 -167.5q0 -107 -70.5 -172t-190.5 -65z" />
    <glyph glyph-name="six.tf" horiz-adv-x="624" 
d="M336 475q104 0 173.5 -66t69.5 -172q0 -110 -73 -178.5t-190 -68.5q-115 0 -189 69t-74 178q0 57 19 104t61 108l172 251h164v-8l-157 -218q8 1 24 1zM316 107q55 0 90.5 36t35.5 94q0 59 -35.5 95t-90.5 36t-90.5 -36.5t-35.5 -94.5t35.5 -94t90.5 -36z" />
    <glyph glyph-name="seven.tf" horiz-adv-x="624" 
d="M281 0h-156l271 565v7h-334v128h495v-121z" />
    <glyph glyph-name="eight.tf" horiz-adv-x="624" 
d="M312 -10q-116 0 -191.5 57t-75.5 149q0 57 32.5 102.5t87.5 67.5q-47 23 -73.5 63t-26.5 89q0 86 68.5 139t178.5 53t178.5 -53t68.5 -139q0 -49 -27 -89t-73 -63q55 -21 87.5 -67t32.5 -103q0 -92 -75.5 -149t-191.5 -57zM312 415q48 0 79.5 24.5t31.5 66.5t-31.5 67
t-79.5 25t-79.5 -25t-31.5 -67t31.5 -66.5t79.5 -24.5zM312 102q57 0 93.5 28.5t36.5 76.5t-36.5 76t-93.5 28q-56 0 -93 -28t-37 -76t37 -76.5t93 -28.5z" />
    <glyph glyph-name="nine.tf" horiz-adv-x="624" 
d="M308 710q116 0 190 -69t74 -178q0 -57 -19 -103.5t-62 -108.5l-171 -251h-165v8l157 218q-7 -1 -23 -1q-105 0 -174.5 66t-69.5 172q0 110 73 178.5t190 68.5zM308 332q55 0 90.5 36.5t35.5 94.5t-35.5 94t-90.5 36q-54 0 -90 -36t-36 -94t36 -94.5t90 -36.5z" />
    <glyph glyph-name="zero.dnom" horiz-adv-x="377" 
d="M189 -5q-75 0 -118 49.5t-43 130.5t43 130.5t118 49.5t117.5 -49.5t42.5 -130.5t-42.5 -130.5t-117.5 -49.5zM189 74q33 0 52 26.5t19 74.5t-19 74.5t-52 26.5t-52.5 -26.5t-19.5 -74.5t19 -74.5t53 -26.5z" />
    <glyph glyph-name="one.dnom" horiz-adv-x="234" 
d="M188 0h-89v250h-5l-71 -39v89l96 50h69v-350z" />
    <glyph glyph-name="two.dnom" horiz-adv-x="322" 
d="M296 0h-264v70l102 83q37 31 55 52t18 42q0 18 -13 28.5t-32 10.5q-41 0 -56 -41l-85 19q10 43 47.5 67t92.5 24q61 0 98 -28.5t37 -78.5q0 -38 -23.5 -69t-75.5 -71l-32 -26v-5h131v-77z" />
    <glyph glyph-name="three.dnom" horiz-adv-x="336" 
d="M292 278l-82 -69q45 -5 71.5 -32.5t26.5 -70.5q0 -51 -36.5 -81t-102.5 -30q-58 0 -97 24t-49 69l88 19q11 -41 58 -41q23 0 36.5 12t13.5 31q0 20 -14.5 31.5t-39.5 11.5h-56v49l76 67v5h-147v77h254v-72z" />
    <glyph glyph-name="four.dnom" horiz-adv-x="338" 
d="M272 0h-90v60h-164v79l156 211h98v-217h43v-73h-43v-60zM182 245l-83 -112h83v112z" />
    <glyph glyph-name="five.dnom" horiz-adv-x="336" 
d="M171 -5q-57 0 -97.5 23.5t-50.5 66.5l89 19q14 -38 59 -38q24 0 38.5 13t14.5 35t-14.5 34.5t-37.5 12.5q-31 0 -53 -20l-79 14l14 195h226v-75h-150l-4 -61h6q27 15 61 15q55 0 87.5 -31t32.5 -84q0 -56 -38 -87.5t-104 -31.5z" />
    <glyph glyph-name="six.dnom" horiz-adv-x="341" 
d="M187 243q59 0 95.5 -33t36.5 -87q0 -57 -41 -92.5t-108 -35.5q-65 0 -106 35.5t-41 92.5q0 30 11 54t35 58l83 115h113v-5l-79 -102h1zM171 69q26 0 42 15t16 39q0 23 -16.5 38t-41.5 15q-26 0 -42.5 -15t-16.5 -38q0 -24 16.5 -39t42.5 -15z" />
    <glyph glyph-name="seven.dnom" horiz-adv-x="307" 
d="M154 0h-103l128 261v5h-156v84h261v-80z" />
    <glyph glyph-name="eight.dnom" horiz-adv-x="337" 
d="M168 -5q-62 0 -102 29t-40 76q0 28 15 50t41 33q-46 25 -46 74q0 45 36.5 71.5t95.5 26.5t96.5 -27t37.5 -71q0 -49 -47 -74q26 -11 41.5 -33.5t15.5 -49.5q0 -47 -40.5 -76t-103.5 -29zM168 211q20 0 33 10.5t13 27.5t-13 27.5t-33 10.5t-32.5 -11t-12.5 -27
q0 -17 12.5 -27.5t32.5 -10.5zM168 63q23 0 38.5 12t15.5 32q0 21 -15 32.5t-39 11.5q-23 0 -37.5 -11.5t-14.5 -32.5q0 -20 15 -32t37 -12z" />
    <glyph glyph-name="nine.dnom" horiz-adv-x="341" 
d="M171 355q65 0 106.5 -35.5t41.5 -92.5q0 -30 -11 -54t-35 -58l-84 -115h-113v5l80 102h-2q-58 0 -94.5 33t-36.5 87q0 57 40.5 92.5t107.5 35.5zM112 227q0 -23 16.5 -38t41.5 -15q26 0 42.5 15t16.5 38q0 24 -16.5 39t-42.5 15t-42 -15t-16 -39z" />
    <glyph glyph-name="zero.numr" horiz-adv-x="377" 
d="M189 345q-75 0 -118 49.5t-43 130.5t43 130.5t118 49.5t117.5 -49.5t42.5 -130.5t-42.5 -130.5t-117.5 -49.5zM189 424q33 0 52 26.5t19 74.5t-19 74.5t-52 26.5t-52.5 -26.5t-19.5 -74.5t19 -74.5t53 -26.5z" />
    <glyph glyph-name="one.numr" horiz-adv-x="234" 
d="M188 350h-89v250h-5l-71 -39v89l96 50h69v-350z" />
    <glyph glyph-name="two.numr" horiz-adv-x="322" 
d="M296 350h-264v70l102 83q37 31 55 52t18 42q0 18 -13 28.5t-32 10.5q-41 0 -56 -41l-85 19q10 43 47.5 67t92.5 24q61 0 98 -28.5t37 -78.5q0 -38 -23.5 -69t-75.5 -71l-32 -26v-5h131v-77z" />
    <glyph glyph-name="three.numr" horiz-adv-x="336" 
d="M292 628l-82 -69q45 -5 71.5 -32.5t26.5 -70.5q0 -51 -36.5 -81t-102.5 -30q-58 0 -97 24t-49 69l88 19q11 -41 58 -41q23 0 36.5 12t13.5 31q0 20 -14.5 31.5t-39.5 11.5h-56v49l76 67v5h-147v77h254v-72z" />
    <glyph glyph-name="four.numr" horiz-adv-x="338" 
d="M272 350h-90v60h-164v79l156 211h98v-217h43v-73h-43v-60zM182 595l-83 -112h83v112z" />
    <glyph glyph-name="five.numr" horiz-adv-x="336" 
d="M171 345q-57 0 -97.5 23.5t-50.5 66.5l89 19q14 -38 59 -38q24 0 38.5 13t14.5 35t-14.5 34.5t-37.5 12.5q-31 0 -53 -20l-79 14l14 195h226v-75h-150l-4 -61h6q27 15 61 15q55 0 87.5 -31t32.5 -84q0 -56 -38 -87.5t-104 -31.5z" />
    <glyph glyph-name="six.numr" horiz-adv-x="341" 
d="M187 593q59 0 95.5 -33t36.5 -87q0 -57 -41 -92.5t-108 -35.5q-65 0 -106 35.5t-41 92.5q0 30 11 54t35 58l83 115h113v-5l-79 -102h1zM171 419q26 0 42 15t16 39q0 23 -16.5 38t-41.5 15q-26 0 -42.5 -15t-16.5 -38q0 -24 16.5 -39t42.5 -15z" />
    <glyph glyph-name="seven.numr" horiz-adv-x="307" 
d="M154 350h-103l128 261v5h-156v84h261v-80z" />
    <glyph glyph-name="eight.numr" horiz-adv-x="337" 
d="M168 345q-62 0 -102 29t-40 76q0 28 15 50t41 33q-46 25 -46 74q0 45 36.5 71.5t95.5 26.5t96.5 -27t37.5 -71q0 -49 -47 -74q26 -11 41.5 -33.5t15.5 -49.5q0 -47 -40.5 -76t-103.5 -29zM168 561q20 0 33 10.5t13 27.5t-13 27.5t-33 10.5t-32.5 -11t-12.5 -27
q0 -17 12.5 -27.5t32.5 -10.5zM168 413q23 0 38.5 12t15.5 32q0 21 -15 32.5t-39 11.5q-23 0 -37.5 -11.5t-14.5 -32.5q0 -20 15 -32t37 -12z" />
    <glyph glyph-name="nine.numr" horiz-adv-x="341" 
d="M171 705q65 0 106.5 -35.5t41.5 -92.5q0 -30 -11 -54t-35 -58l-84 -115h-113v5l80 102h-2q-58 0 -94.5 33t-36.5 87q0 57 40.5 92.5t107.5 35.5zM112 577q0 -23 16.5 -38t41.5 -15q26 0 42.5 15t16.5 38q0 24 -16.5 39t-42.5 15t-42 -15t-16 -39z" />
    <glyph glyph-name="exclamdown.case" horiz-adv-x="305" 
d="M153 710q35 0 59.5 -23t24.5 -58q0 -34 -24.5 -56.5t-59.5 -22.5t-59.5 22.5t-24.5 56.5q0 35 24.5 58t59.5 23zM79 0l15 473h117l16 -473h-148z" />
    <glyph glyph-name="questiondown.case" horiz-adv-x="571" 
d="M278 710q36 0 60 -22.5t24 -58.5q0 -34 -24 -56.5t-60 -22.5q-35 0 -59 22.5t-24 56.5q0 35 24 58t59 23zM219 473h119v-10q0 -43 -17 -78.5t-41 -59t-48 -44t-41 -45.5t-17 -52q0 -41 31 -64.5t79 -23.5q110 0 141 104l123 -32q-21 -84 -91.5 -131t-172.5 -47
q-111 0 -179.5 50.5t-68.5 136.5q0 44 19 79.5t46 59.5t53.5 45.5t45.5 47t19 54.5v10z" />
    <glyph glyph-name="periodcentered.case" horiz-adv-x="239" 
d="M120 270q-35 0 -59.5 22.5t-24.5 57.5t24.5 57.5t59.5 22.5t59 -22.5t24 -57.5t-24 -57.5t-59 -22.5z" />
    <glyph glyph-name="bullet.case" horiz-adv-x="272" 
d="M136 254q-42 0 -71 27t-29 69t29 69t71 27t71 -27t29 -69t-29 -69t-71 -27z" />
    <glyph glyph-name="period.tf" horiz-adv-x="624" 
d="M313 -10q-35 0 -59.5 23t-24.5 58q0 34 24.5 56.5t59.5 22.5t59 -22.5t24 -56.5q0 -35 -24 -58t-59 -23z" />
    <glyph glyph-name="comma.tf" horiz-adv-x="624" 
d="M416 99l-120 -236l-88 28l77 252z" />
    <glyph glyph-name="colon.tf" horiz-adv-x="624" 
d="M313 360q-35 0 -59.5 22.5t-24.5 57.5t24.5 57.5t59.5 22.5t59 -22.5t24 -57.5t-24 -57.5t-59 -22.5zM313 -10q-35 0 -59.5 23t-24.5 58q0 34 24.5 56.5t59.5 22.5t59 -22.5t24 -56.5q0 -35 -24 -58t-59 -23z" />
    <glyph glyph-name="semicolon.tf" horiz-adv-x="624" 
d="M325 360q-35 0 -59.5 22.5t-24.5 57.5t24.5 57.5t59.5 22.5t59 -22.5t24 -57.5t-24 -57.5t-59 -22.5zM416 99l-120 -236l-88 28l77 252z" />
    <glyph glyph-name="parenleft.case" horiz-adv-x="328" 
d="M305 -73l-87 -48q-189 197 -189 471q0 275 189 471l87 -48q-146 -195 -146 -423t146 -423z" />
    <glyph glyph-name="parenright.case" horiz-adv-x="328" 
d="M110 -121l-86 48q145 194 145 423t-145 423l86 48q190 -197 190 -471q0 -273 -190 -471z" />
    <glyph glyph-name="braceleft.case" horiz-adv-x="372" 
d="M339 -114h-61q-84 0 -125.5 45.5t-41.5 123.5v163q0 77 -69 77h-24v110h24q69 0 69 77v163q0 78 41.5 123.5t125.5 45.5h61v-108h-28q-70 0 -70 -79v-163q0 -90 -61 -111v-7q61 -19 61 -110v-163q0 -79 70 -79h28v-108z" />
    <glyph glyph-name="braceright.case" horiz-adv-x="372" 
d="M95 -114h-61v108h27q70 0 70 79v163q0 90 61 110v7q-61 21 -61 111v163q0 79 -70 79h-27v108h61q84 0 125.5 -45.5t41.5 -123.5v-163q0 -77 68 -77h25v-110h-25q-68 0 -68 -77v-163q0 -78 -41.5 -123.5t-125.5 -45.5z" />
    <glyph glyph-name="bracketleft.case" horiz-adv-x="336" 
d="M302 -114h-231v928h231v-108h-100v-712h100v-108z" />
    <glyph glyph-name="bracketright.case" horiz-adv-x="336" 
d="M265 814v-928h-231v108h100v712h-100v108h231z" />
    <glyph glyph-name="hyphen.case" horiz-adv-x="408" 
d="M374 297h-340v106h340v-106z" />
    <glyph glyph-name="endash.case" horiz-adv-x="510" 
d="M476 297h-442v106h442v-106z" />
    <glyph glyph-name="emdash.case" horiz-adv-x="734" 
d="M701 297h-667v106h667v-106z" />
    <glyph glyph-name="guillemotleft.case" horiz-adv-x="593" 
d="M328 172h-145l-163 178l163 178h145l-167 -178zM562 172h-145l-164 178l164 178h145l-167 -178z" />
    <glyph glyph-name="guillemotright.case" horiz-adv-x="593" 
d="M339 350l-163 -178h-145l167 178l-167 178h145zM573 350l-164 -178h-145l167 178l-167 178h145z" />
    <glyph glyph-name="guilsinglleft.case" horiz-adv-x="359" 
d="M328 172h-145l-163 178l163 178h145l-167 -178z" />
    <glyph glyph-name="guilsinglright.case" horiz-adv-x="359" 
d="M339 350l-163 -178h-145l167 178l-167 178h145z" />
    <glyph glyph-name="cent.tf" horiz-adv-x="624" 
d="M387 -107h-133v105q-89 19 -138.5 89t-49.5 168t49.5 168t138.5 89v105h133v-104q129 -27 168 -159l-130 -34q-26 88 -103 88q-55 0 -88 -41.5t-33 -111.5t33 -111.5t88 -41.5q80 0 107 88l130 -34q-40 -132 -172 -159v-104z" />
    <glyph glyph-name="currency.tf" horiz-adv-x="624" 
d="M196 163l-61 -60l-70 69l60 61q-32 54 -32 117t32 117l-60 61l70 69l61 -60q53 32 116 32q64 0 117 -32l60 60l70 -70l-60 -60q32 -54 32 -117t-32 -117l60 -60l-70 -70l-60 60q-53 -32 -117 -32q-63 0 -116 32zM312 228q52 0 86 35t34 87q0 53 -34 87.5t-86 34.5
t-86 -34.5t-34 -87.5t34 -87.5t86 -34.5z" />
    <glyph glyph-name="dollar.tf" horiz-adv-x="624" 
d="M585 186q0 -77 -53.5 -128.5t-149.5 -63.5v-101h-133v104q-77 13 -132.5 56t-77.5 113l128 33q18 -52 61 -77t96 -25q59 0 91 24.5t32 65.5q0 30 -21.5 51t-56.5 32.5t-76.5 22.5t-83.5 26.5t-77 38t-56.5 64t-21.5 97.5q0 73 52 123.5t143 63.5v101h133v-104
q146 -29 187 -159l-129 -33q-31 92 -134 92q-53 0 -83.5 -23.5t-30.5 -60.5q0 -30 21.5 -50t56.5 -32t76.5 -22.5t83.5 -26.5t77 -38.5t56.5 -64.5t21.5 -99z" />
    <glyph glyph-name="Euro.tf" horiz-adv-x="624" 
d="M350 -10q-90 0 -151.5 67.5t-81.5 184.5h-66v72h58q-1 12 -1 36t1 36h-58v72h66q20 117 81.5 184.5t151.5 67.5q85 0 141.5 -53.5t78.5 -160.5l-109 -34q-29 143 -111 143q-43 0 -73.5 -38.5t-44.5 -108.5h118v-72h-127v-36v-36h127v-72h-118q14 -70 44.5 -108.5
t73.5 -38.5q84 0 114 143l109 -33q-45 -215 -223 -215z" />
    <glyph glyph-name="florin.tf" horiz-adv-x="624" 
d="M156 -200h-81v114h47q31 0 50.5 17.5t24.5 46.5l60 386h-101v87h115l14 87q26 162 182 162h82v-114h-54q-30 0 -49.5 -17t-24.5 -47l-11 -71h119v-87h-133l-63 -403q-26 -161 -177 -161z" />
    <glyph glyph-name="sterling.tf" horiz-adv-x="624" 
d="M510 146l77 -75q-39 -44 -70 -62.5t-76 -18.5q-36 0 -92.5 17.5t-91.5 17.5q-62 0 -162 -40l-57 95q62 50 85.5 95.5t23.5 101.5q0 9 -1 14h-106v83h80q-2 4 -6 13.5t-6 13.5t-6 13t-6 14.5t-5 14.5t-4 16t-3 15.5t-2.5 17.5t-0.5 18q0 92 65 146t178 54q201 0 248 -162
l-123 -32q-31 88 -122 88q-50 0 -79.5 -27t-29.5 -71q0 -18 5 -37t10 -30.5t16 -33t15 -31.5h157v-83h-136v-5q0 -79 -85 -161l4 -8q53 25 91 25q29 0 74 -17.5t67 -17.5q41 0 74 39z" />
    <glyph glyph-name="yen.tf" horiz-adv-x="624" 
d="M379 0h-133v100h-152v81h152v69h-152v80h118l-185 370h151l132 -304h8l131 304h148l-185 -370h118v-80h-151v-69h151v-81h-151v-100z" />
    <glyph glyph-name="plus.case" 
d="M310 129h-112v164h-165v115h165v163h112v-163h164v-115h-164v-164z" />
    <glyph glyph-name="minus.case" 
d="M474 293h-441v115h441v-115z" />
    <glyph glyph-name="multiply.case" 
d="M253 275l-150 -153l-77 77l151 152l-150 150l76 77l150 -152l151 152l77 -77l-151 -150l150 -152l-76 -77z" />
    <glyph glyph-name="divide.case" 
d="M254 457q-32 0 -55 21.5t-23 52.5t23 52.5t55 21.5t55 -21.5t23 -52.5t-23 -52.5t-55 -21.5zM474 297h-441v107h441v-107zM254 95q-32 0 -55 21.5t-23 52.5t23 53t55 22t55 -22t23 -53t-23 -52.5t-55 -21.5z" />
    <glyph glyph-name="equal.case" 
d="M474 401h-441v107h441v-107zM474 192h-441v107h441v-107z" />
    <glyph glyph-name="notequal.case" 
d="M187 71h-95l49 121h-108v107h152l42 102h-194v107h238l50 121h95l-50 -121h108v-107h-152l-41 -102h193v-107h-237z" />
    <glyph glyph-name="greater.case" 
d="M474 290l-441 -161v119l318 102l-318 103v118l441 -161v-120z" />
    <glyph glyph-name="less.case" 
d="M474 248v-119l-441 161v120l441 161v-118l-317 -103z" />
    <glyph glyph-name="greaterequal.case" 
d="M474 362l-441 -142v118l311 86l-311 87v118l441 -142v-125zM474 61h-441v109h441v-109z" />
    <glyph glyph-name="lessequal.case" 
d="M474 338v-118l-441 142v125l441 142v-118l-311 -87zM474 61h-441v109h441v-109z" />
    <glyph glyph-name="plusminus.case" 
d="M308 240h-109v131h-166v111h166v133h109v-133h166v-111h-166v-131zM474 85h-441v113h441v-113z" />
    <glyph glyph-name="approxequal.case" 
d="M134 363h-101v47q0 67 34 100.5t86 33.5q41 0 102 -33t79 -33q39 0 39 41v25h101v-47q0 -67 -33 -100.5t-87 -33.5q-45 0 -103.5 33t-77.5 33q-39 0 -39 -41v-25zM134 156h-101v47q0 67 34 100.5t86 33.5q41 0 102 -33t79 -33q39 0 39 41v25h101v-47q0 -67 -33 -100.5
t-87 -33.5q-45 0 -103.5 33t-77.5 33q-39 0 -39 -41v-25z" />
    <glyph glyph-name="logicalnot.case" 
d="M474 234h-118v121h-323v111h441v-232z" />
    <glyph glyph-name="at.case" horiz-adv-x="904" 
d="M555 -68h-108q-173 0 -288 119t-115 294t116 294t287 119q181 0 297 -112t116 -279q0 -99 -42.5 -157.5t-118.5 -58.5q-93 0 -126 75h-7q-47 -75 -139 -75q-74 0 -122 53.5t-48 140.5t48 141t122 54q79 0 122 -58h7l7 51h78v-209q0 -89 58 -89q34 0 52 35.5t18 96.5
q0 132 -90.5 219t-231.5 87q-132 0 -222 -94.5t-90 -233.5q0 -138 89 -233t223 -95h108v-85zM449 235q42 0 67.5 29.5t25.5 80.5q0 50 -25.5 80.5t-67.5 30.5t-67.5 -30.5t-25.5 -80.5q0 -51 25.5 -80.5t67.5 -29.5z" />
    <glyph glyph-name="uni030C.alt" horiz-adv-x="0" 
d="M-79 504h-74l10 196h113z" />
    <glyph glyph-name="uni0308.alt" horiz-adv-x="0" 
d="M-278 576q-31 0 -51 21t-20 54q0 34 20 55t51 21t51 -21t20 -55q0 -33 -20 -54t-51 -21zM-102 576q-31 0 -51.5 21t-20.5 54t20.5 54.5t51.5 21.5t51.5 -21.5t20.5 -54.5t-20.5 -54t-51.5 -21z" />
    <glyph glyph-name="uni0338.alt" horiz-adv-x="0" 
d="M-327 23l-49 -85l-66 32l50 87l12 15l211 368l4 13l68 119l67 -32l-63 -109l-12 -14l-215 -376z" />
    </font>
</defs>
</svg>
