<?xml version="1.0" standalone="no"?>
<!DOCTYPE svg PUBLIC "-//W3C//DTD SVG 1.1//EN" "http://www.w3.org/Graphics/SVG/1.1/DTD/svg11.dtd" >
<svg xmlns="http://www.w3.org/2000/svg" xmlns:xlink="http://www.w3.org/1999/xlink" version="1.1">
<metadata>
Created by FontForge 20190801 at Fri Nov 18 14:26:36 2022
 By www-data
Copyright (c) 2022 by Eugene Tantsurin. All rights reserved.
</metadata>
<defs>
<font id="JUSTSansBold" horiz-adv-x="509" >
  <font-face 
    font-family="JUSTSansBold"
    font-weight="700"
    font-stretch="normal"
    units-per-em="1000"
    panose-1="0 0 8 0 0 0 0 0 0 0"
    ascent="800"
    descent="-200"
    x-height="510"
    cap-height="700"
    bbox="-600 -249 1247 978"
    underline-thickness="80"
    underline-position="-100"
    unicode-range="U+0020-FB02"
  />
<missing-glyph horiz-adv-x="600" 
d="M520 40h-440v620h440v-620zM201 591l92 -174h15l91 174h-198zM154 550v-400l106 200zM341 350l105 -198v396zM293 283l-92 -174h198l-91 174h-15z" />
    <glyph glyph-name="fl" unicode="fl" horiz-adv-x="735" 
d="M288 0h-169v360h-97v131h97v31q0 94 49 141t140 47q77 0 140 -31l-35 -113q-31 16 -63 16q-62 0 -62 -64v-27h130v-131h-130v-360zM677 0h-169v700h169v-700z" />
    <glyph glyph-name="f_f" unicode="ff" horiz-adv-x="838" 
d="M288 0h-169v360h-97v131h97v29q0 93 51.5 141.5t144.5 48.5q79 0 146 -33l-35 -112q-35 17 -71 17q-30 0 -48.5 -16.5t-18.5 -48.5v-26h220v31q0 94 49 141t140 47q77 0 140 -31l-35 -113q-31 16 -63 16q-62 0 -62 -64v-27h130v-131h-130v-360h-169v360h-220v-360z" />
    <glyph glyph-name="f_f_i" unicode="ffi" horiz-adv-x="1125" 
d="M982 565q-43 0 -72.5 27.5t-29.5 67.5t29.5 67.5t72.5 27.5t72 -27.5t29 -67.5t-29 -67.5t-72 -27.5zM288 0h-169v360h-97v131h97v29q0 93 51.5 141.5t144.5 48.5q79 0 146 -33l-35 -112q-35 17 -71 17q-30 0 -48.5 -16.5t-18.5 -48.5v-26h220v31q0 94 49 141t140 47
q77 0 140 -31l-35 -113q-31 16 -63 16q-62 0 -62 -64v-27h389v-491h-169v360h-220v-360h-169v360h-220v-360z" />
    <glyph glyph-name="f_i" unicode="fi" horiz-adv-x="736" 
d="M593 565q-43 0 -72.5 27.5t-29.5 67.5t29.5 67.5t72.5 27.5t72 -27.5t29 -67.5t-29 -67.5t-72 -27.5zM288 0h-169v360h-97v131h97v31q0 94 49 141t140 47q77 0 140 -31l-35 -113q-31 16 -63 16q-62 0 -62 -64v-27h389v-491h-169v360h-220v-360z" />
    <glyph glyph-name=".notdef" horiz-adv-x="600" 
d="M520 40h-440v620h440v-620zM201 591l92 -174h15l91 174h-198zM154 550v-400l106 200zM341 350l105 -198v396zM293 283l-92 -174h198l-91 174h-15z" />
    <glyph glyph-name=".null" horiz-adv-x="0" 
 />
    <glyph glyph-name="nonmarkingreturn" horiz-adv-x="333" 
 />
    <glyph glyph-name="space" unicode=" " horiz-adv-x="237" 
 />
    <glyph glyph-name="exclam" unicode="!" horiz-adv-x="320" 
d="M232 243h-144l-20 457h184zM161 -10q-40 0 -68 26t-28 66q0 39 28 65t68 26t68 -26t28 -65q0 -40 -28 -66t-68 -26z" />
    <glyph glyph-name="quotedbl" unicode="&#x22;" horiz-adv-x="379" 
d="M162 462h-131l-10 248h150zM348 462h-131l-9 248h150z" />
    <glyph glyph-name="numbersign" unicode="#" horiz-adv-x="749" 
d="M229 0h-112l44 181h-124l25 98h124l34 142h-123l24 98h123l45 181h112l-45 -181h121l44 181h112l-44 -181h123l-24 -98h-124l-34 -142h124l-25 -98h-124l-44 -181h-112l44 181h-120zM332 421l-34 -142h120l34 142h-120z" />
    <glyph glyph-name="dollar" unicode="$" horiz-adv-x="661" 
d="M416 -109h-165v108q-80 17 -136.5 60.5t-75.5 114.5l163 36q33 -90 142 -90q50 0 78 19.5t28 53.5q0 36 -41 56t-99 33t-116 33t-99 69.5t-41 128.5q0 72 52 123.5t145 67.5v105h165v-108q152 -30 192 -165l-166 -36q-26 80 -117 80q-43 0 -69 -18.5t-26 -48.5
t29.5 -49.5t73 -28.5t95 -25t95 -37t73 -68t29.5 -115q0 -76 -54.5 -128.5t-154.5 -66.5v-104z" />
    <glyph glyph-name="percent" unicode="%" horiz-adv-x="864" 
d="M205 346q-82 0 -133 52t-51 130t51 130t133 52q84 0 134.5 -52t50.5 -130t-50.5 -130t-134.5 -52zM729 650l-516 -660l-77 60l516 660zM205 448q34 0 54.5 23t20.5 57q0 35 -20.5 58t-54.5 23q-33 0 -53.5 -23t-20.5 -58q0 -34 20.5 -57t53.5 -23zM658 -11
q-82 0 -133 52.5t-51 130.5q0 77 51 129t133 52q83 0 134 -52t51 -129q0 -78 -51 -130.5t-134 -52.5zM658 91q34 0 54.5 23t20.5 58q0 34 -20.5 57t-54.5 23q-33 0 -53.5 -23t-20.5 -57q0 -35 20.5 -58t53.5 -23z" />
    <glyph glyph-name="ampersand" unicode="&#x26;" horiz-adv-x="707" 
d="M652 124h28v-124h-70q-64 0 -113 49l-14 14q-87 -73 -202 -73q-107 0 -168 49.5t-61 135.5q0 110 127 197q-75 94 -75 171q0 75 53 121t147 46q90 0 143 -45.5t53 -117.5q0 -53 -33.5 -95t-94.5 -87l102 -102l82 124l112 -72l-98 -148l11 -11q19 -18 33 -25t38 -7z
M242 540q0 -21 10.5 -41t40.5 -53q69 50 69 97q0 23 -16.5 38.5t-43.5 15.5q-29 0 -44.5 -16t-15.5 -41zM292 118q58 0 100 37l-129 129q-53 -48 -53 -93q0 -33 23 -53t59 -20z" />
    <glyph glyph-name="quotesingle" unicode="'" horiz-adv-x="192" 
d="M162 462h-131l-10 248h150z" />
    <glyph glyph-name="parenleft" unicode="(" horiz-adv-x="349" 
d="M330 -148l-114 -63q-192 201 -192 476q0 277 192 476l114 -63q-142 -195 -142 -413t142 -413z" />
    <glyph glyph-name="parenright" unicode=")" horiz-adv-x="349" 
d="M133 -211l-114 63q142 195 142 413t-142 413l114 63q192 -199 192 -476q0 -275 -192 -476z" />
    <glyph glyph-name="asterisk" unicode="*" horiz-adv-x="402" 
d="M201 490l-64 -109l-64 47l83 94l-122 28l24 76l115 -50l-12 124h80l-12 -125l116 51l24 -76l-124 -28l84 -94l-65 -47z" />
    <glyph glyph-name="plus" unicode="+" 
d="M321 78h-133v154h-157v137h157v153h133v-153h157v-137h-157v-154z" />
    <glyph glyph-name="comma" unicode="," horiz-adv-x="268" 
d="M241 112l-133 -251l-102 33l80 270z" />
    <glyph glyph-name="hyphen" unicode="-" horiz-adv-x="406" 
d="M378 217h-349v126h349v-126z" />
    <glyph glyph-name="period" unicode="." horiz-adv-x="257" 
d="M128 -10q-40 0 -68 26t-28 66q0 39 28 65t68 26t68 -26t28 -65q0 -40 -28 -66t-68 -26z" />
    <glyph glyph-name="slash" unicode="/" horiz-adv-x="488" 
d="M173 -200h-173l314 930h174z" />
    <glyph glyph-name="zero" unicode="0" horiz-adv-x="712" 
d="M356 -10q-147 0 -232 98.5t-85 261.5t85 261.5t232 98.5q148 0 232.5 -98.5t84.5 -261.5t-84.5 -261.5t-232.5 -98.5zM356 142q67 0 105.5 54.5t38.5 153.5t-38.5 153.5t-105.5 54.5t-105.5 -54.5t-38.5 -153.5t38.5 -153.5t105.5 -54.5z" />
    <glyph glyph-name="one" unicode="1" horiz-adv-x="424" 
d="M353 0h-173v513h-9l-144 -80v166l191 101h135v-700z" />
    <glyph glyph-name="two" unicode="2" horiz-adv-x="613" 
d="M574 0h-528v139l203 170q82 69 114.5 107t32.5 81q0 37 -26 58.5t-68 21.5q-87 0 -114 -86l-164 37q21 86 94.5 134t182.5 48q122 0 195 -57t73 -155q0 -78 -46 -137t-160 -148l-63 -51v-9h274v-153z" />
    <glyph glyph-name="three" unicode="3" horiz-adv-x="624" 
d="M554 561l-158 -143q89 -11 140 -66t51 -140q0 -102 -72.5 -162t-203.5 -60q-115 0 -191.5 47.5t-97.5 135.5l167 36q12 -39 44 -60t78 -21q47 0 75 24.5t28 64.5t-30.5 64t-80.5 24h-110v102l148 136v9h-286v148h499v-139z" />
    <glyph glyph-name="four" unicode="4" horiz-adv-x="637" 
d="M530 0h-173v119h-330v155l317 426h186v-436h89v-145h-89v-119zM357 490l-166 -226h166v226z" />
    <glyph glyph-name="five" unicode="5" horiz-adv-x="639" 
d="M324 -10q-112 0 -191.5 47t-100.5 132l172 38q13 -36 46 -54.5t74 -18.5q48 0 78.5 26.5t30.5 69.5q0 44 -30 70t-77 26q-68 0 -113 -47l-149 27l27 394h452v-148h-305l-10 -126h10q60 33 130 33q107 0 172.5 -61.5t65.5 -167.5q0 -110 -76 -175t-206 -65z" />
    <glyph glyph-name="six" unicode="6" horiz-adv-x="634" 
d="M345 481q113 0 187.5 -66t74.5 -172q0 -113 -79.5 -183t-210.5 -70q-127 0 -208.5 71.5t-81.5 181.5q0 60 21 108t69 113l172 236h209v-9l-163 -210h10zM317 134q51 0 84 30t33 79t-33 79t-84 30q-50 0 -83 -30.5t-33 -78.5q0 -50 32.5 -79.5t83.5 -29.5z" />
    <glyph glyph-name="seven" unicode="7" horiz-adv-x="573" 
d="M282 0h-197l256 531v9h-314v160h518v-152z" />
    <glyph glyph-name="eight" unicode="8" horiz-adv-x="635" 
d="M318 -10q-123 0 -202 58t-79 152q0 55 32.5 100t86.5 67q-45 21 -72 61.5t-27 87.5q0 88 72 141t189 53q116 0 188 -53t72 -141q0 -48 -27 -88t-73 -61q54 -21 87 -66.5t33 -100.5q0 -94 -78.5 -152t-201.5 -58zM318 424q37 0 63 20t26 54q0 35 -26 55t-63 20
q-38 0 -64 -20t-26 -55q0 -34 26 -54t64 -20zM318 127q45 0 76 23t31 63t-31 63.5t-76 23.5q-46 0 -76.5 -23.5t-30.5 -63.5t30.5 -63t76.5 -23z" />
    <glyph glyph-name="nine" unicode="9" horiz-adv-x="634" 
d="M317 710q127 0 208.5 -71.5t81.5 -181.5q0 -60 -21 -108t-69 -113l-172 -236h-209v9l163 210h-10q-113 0 -187.5 66t-74.5 172q0 113 79.5 183t210.5 70zM201 457q0 -49 33 -79t83 -30t83.5 30.5t33.5 78.5q0 49 -33 79t-84 30q-50 0 -83 -30t-33 -79z" />
    <glyph glyph-name="colon" unicode=":" horiz-adv-x="257" 
d="M128 337q-40 0 -68 26t-28 66q0 39 28 65t68 26t68 -26t28 -65q0 -40 -28 -66t-68 -26zM128 -10q-40 0 -68 26t-28 66q0 39 28 65t68 26t68 -26t28 -65q0 -40 -28 -66t-68 -26z" />
    <glyph glyph-name="semicolon" unicode=";" horiz-adv-x="268" 
d="M135 337q-40 0 -68 26t-28 66q0 39 28 65t68 26t68 -26t28 -65q0 -40 -28 -66t-68 -26zM241 112l-133 -251l-102 33l80 270z" />
    <glyph glyph-name="less" unicode="&#x3c;" 
d="M478 213v-142l-447 153v152l447 153v-142l-310 -87z" />
    <glyph glyph-name="equal" unicode="=" 
d="M478 345h-447v123h447v-123zM478 132h-447v123h447v-123z" />
    <glyph glyph-name="greater" unicode="&#x3e;" 
d="M478 224l-447 -153v142l310 87l-310 87v142l447 -153v-152z" />
    <glyph glyph-name="question" unicode="?" horiz-adv-x="588" 
d="M377 243h-145v10q0 43 16 78t38 57t44.5 40.5t38.5 39.5t16 43q0 34 -24.5 52.5t-63.5 18.5q-44 0 -77 -23.5t-46 -66.5l-153 34q19 87 93 135.5t182 48.5q120 0 191 -50t71 -138q0 -41 -18.5 -75.5t-45 -57.5t-53.5 -43.5t-45.5 -44t-18.5 -48.5v-10zM305 -10
q-40 0 -68 26t-28 66q0 39 28 65t68 26t67.5 -26t27.5 -65q0 -40 -27.5 -66t-67.5 -26z" />
    <glyph glyph-name="at" unicode="@" horiz-adv-x="918" 
d="M563 -166h-108q-178 0 -297 119t-119 297t119.5 297t296.5 119q186 0 305.5 -111.5t119.5 -281.5q0 -99 -46 -158t-129 -59q-97 0 -131 73h-10q-46 -73 -135 -73q-74 0 -120.5 53t-46.5 141t46 141.5t121 53.5q74 0 117 -57h9l7 50h89v-203q0 -80 54 -80q67 0 67 118
q0 128 -88.5 211t-228.5 83q-131 0 -220 -90.5t-89 -226.5t88.5 -226.5t220.5 -90.5h108v-99zM457 155q36 0 56.5 25t20.5 70q0 44 -21 70t-56 26q-37 0 -57.5 -26t-20.5 -70q0 -45 20.5 -70t57.5 -25z" />
    <glyph glyph-name="A" unicode="A" horiz-adv-x="725" 
d="M711 0h-181l-40 133h-260l-40 -133h-177l235 700h228zM356 556l-87 -290h182l-87 290h-8z" />
    <glyph glyph-name="B" unicode="B" horiz-adv-x="688" 
d="M396 0h-330v700h312q114 0 177 -46t63 -139q0 -111 -93 -152v-9q123 -40 123 -163q0 -191 -252 -191zM239 571v-159h121q42 0 65 20.5t23 58.5t-23 59t-65 21h-121zM239 298v-169h140q45 0 70.5 22.5t25.5 62.5t-25.5 62t-70.5 22h-140z" />
    <glyph glyph-name="C" unicode="C" horiz-adv-x="733" 
d="M378 -10q-156 0 -247.5 99t-91.5 261t91.5 261t247.5 99q125 0 206 -58.5t109 -171.5l-170 -37q-16 61 -54 92.5t-91 31.5q-76 0 -121 -58t-45 -159t45 -159t121 -58q55 0 94 31.5t57 92.5l170 -37q-28 -114 -110.5 -172t-210.5 -58z" />
    <glyph glyph-name="D" unicode="D" horiz-adv-x="728" 
d="M333 0h-267v700h267q165 0 260.5 -95.5t95.5 -254.5t-95.5 -254.5t-260.5 -95.5zM239 556v-412h94q85 0 134 55t49 151t-49 151t-134 55h-94z" />
    <glyph glyph-name="E" unicode="E" horiz-adv-x="635" 
d="M588 0h-522v700h522v-141h-349v-136h309v-126h-309v-156h349v-141z" />
    <glyph glyph-name="F" unicode="F" horiz-adv-x="620" 
d="M239 0h-173v700h517v-141h-344v-155h313v-132h-313v-272z" />
    <glyph glyph-name="G" unicode="G" horiz-adv-x="749" 
d="M392 -10q-164 0 -258.5 98.5t-94.5 261.5q0 162 92 261t250 99q254 0 314 -207l-171 -38q-34 105 -143 105q-76 0 -122.5 -59t-46.5 -161q0 -104 48.5 -162t135.5 -58q74 0 125 42v104l-131 6v103h297v-275q-107 -120 -295 -120z" />
    <glyph glyph-name="H" unicode="H" horiz-adv-x="753" 
d="M239 0h-173v700h173v-271h275v271h173v-700h-173v281h-275v-281z" />
    <glyph glyph-name="I" unicode="I" horiz-adv-x="306" 
d="M239 0h-173v700h173v-700z" />
    <glyph glyph-name="J" unicode="J" horiz-adv-x="638" 
d="M294 -10q-99 0 -177 45.5t-101 140.5l164 36q23 -82 114 -82q49 0 76.5 28.5t27.5 83.5v458h174v-465q0 -114 -72 -179.5t-206 -65.5z" />
    <glyph glyph-name="K" unicode="K" horiz-adv-x="690" 
d="M239 0h-173v700h173v-339l229 339h196l-247 -340l257 -360h-203l-232 345v-345z" />
    <glyph glyph-name="L" unicode="L" horiz-adv-x="586" 
d="M560 0h-494v700h173v-548h321v-152z" />
    <glyph glyph-name="M" unicode="M" horiz-adv-x="948" 
d="M227 0h-161v700h241l166 -522l166 522h242v-700h-169v490h-9l-157 -490h-153l-157 490h-9v-490z" />
    <glyph glyph-name="N" unicode="N" horiz-adv-x="765" 
d="M236 0h-170v700h183l276 -446h9q-5 81 -5 181v265h169v-700h-183l-275 446h-9q5 -81 5 -181v-265z" />
    <glyph glyph-name="O" unicode="O" horiz-adv-x="759" 
d="M380 -10q-157 0 -249 99t-92 261t92 261t249 99q156 0 248 -98.5t92 -261.5t-92 -261.5t-248 -98.5zM380 134q77 0 122 57.5t45 158.5t-45 158.5t-122 57.5t-122.5 -57.5t-45.5 -158.5t45.5 -158.5t122.5 -57.5z" />
    <glyph glyph-name="P" unicode="P" horiz-adv-x="657" 
d="M239 0h-173v700h292q129 0 201 -63.5t72 -174.5q0 -110 -72 -172.5t-201 -62.5h-119v-227zM239 560v-196h106q52 0 82.5 25.5t30.5 72.5t-30.5 72.5t-82.5 25.5h-106z" />
    <glyph glyph-name="Q" unicode="Q" horiz-adv-x="759" 
d="M688 -57l-28 -132l-375 69l21 117q-124 22 -195.5 117t-71.5 236q0 162 92 261t249 99q156 0 248 -98.5t92 -261.5q0 -139 -68.5 -232.5t-187.5 -118.5l-5 -26zM380 134q77 0 122 57.5t45 158.5t-45 158.5t-122 57.5t-122.5 -57.5t-45.5 -158.5t45.5 -158.5t122.5 -57.5z
" />
    <glyph glyph-name="R" unicode="R" horiz-adv-x="678" 
d="M239 0h-173v700h304q122 0 191.5 -61t69.5 -171q0 -70 -32 -120.5t-91 -76.5l144 -271h-193l-114 244h-106v-244zM239 563v-189h115q48 0 76 25t28 69q0 45 -28 70t-76 25h-115z" />
    <glyph glyph-name="S" unicode="S" horiz-adv-x="661" 
d="M344 -10q-113 0 -197 46.5t-108 137.5l163 36q33 -90 142 -90q50 0 78 19.5t28 53.5q0 36 -41 56t-99 33t-116 33t-99 69.5t-41 128.5q0 86 72.5 141.5t197.5 55.5q111 0 184.5 -43.5t99.5 -130.5l-166 -36q-26 80 -117 80q-43 0 -69 -18.5t-26 -48.5t29.5 -49.5
t73 -28.5t95 -25t95 -37t73 -68t29.5 -115q0 -90 -74 -145t-207 -55z" />
    <glyph glyph-name="T" unicode="T" horiz-adv-x="638" 
d="M405 0h-173v548h-213v152h600v-152h-214v-548z" />
    <glyph glyph-name="U" unicode="U" horiz-adv-x="746" 
d="M373 -10q-135 0 -221 76.5t-86 221.5v412h173v-412q0 -71 36.5 -108.5t97.5 -37.5t97 37t36 109v412h173v-412q0 -146 -85 -222t-221 -76z" />
    <glyph glyph-name="V" unicode="V" horiz-adv-x="727" 
d="M473 0h-219l-238 700h183l162 -536h9l162 536h179z" />
    <glyph glyph-name="W" unicode="W" horiz-adv-x="1025" 
d="M401 0h-214l-171 700h174l107 -531h9l104 531h212l105 -531h8l109 531h164l-171 -700h-215l-106 533h-9z" />
    <glyph glyph-name="X" unicode="X" horiz-adv-x="728" 
d="M207 0h-187l211 356l-196 344h192l135 -254h9l135 254h187l-196 -345l211 -355h-193l-149 263h-9z" />
    <glyph glyph-name="Y" unicode="Y" horiz-adv-x="698" 
d="M436 0h-173v254l-247 446h196l135 -274h8l134 274h193l-246 -445v-255z" />
    <glyph glyph-name="Z" unicode="Z" horiz-adv-x="664" 
d="M623 0h-582v142l342 408v8h-328v142h554v-142l-342 -408v-8h356v-142z" />
    <glyph glyph-name="bracketleft" unicode="[" horiz-adv-x="355" 
d="M327 -205h-262v940h262v-132h-98v-676h98v-132z" />
    <glyph glyph-name="backslash" unicode="\" horiz-adv-x="488" 
d="M488 -200h-173l-315 930h174z" />
    <glyph glyph-name="bracketright" unicode="]" horiz-adv-x="355" 
d="M290 735v-940h-261v132h97v676h-97v132h261z" />
    <glyph glyph-name="asciicircum" unicode="^" horiz-adv-x="493" 
d="M156 385h-132l159 315h125l161 -315h-133l-86 181h-9z" />
    <glyph glyph-name="underscore" unicode="_" horiz-adv-x="408" 
d="M418 -169h-428v114h428v-114z" />
    <glyph glyph-name="grave" unicode="`" horiz-adv-x="324" 
d="M294 572h-132l-132 161h194z" />
    <glyph glyph-name="a" unicode="a" horiz-adv-x="595" 
d="M538 334v-70q0 -175 5 -264h-153l-12 83h-9q-48 -93 -162 -93q-73 0 -118 41t-45 109q0 153 209 165l122 7v15q0 38 -23 56t-61 18q-78 0 -93 -68l-148 33q13 72 76.5 113t164.5 41q120 0 183.5 -49t63.5 -137zM270 111q44 0 74 30.5t31 83.5l-81 -5q-46 -3 -67 -16.5
t-21 -41.5q0 -24 16.5 -37.5t47.5 -13.5z" />
    <glyph glyph-name="b" unicode="b" horiz-adv-x="629" 
d="M394 -10q-104 0 -157 91h-9l-12 -81h-162q5 91 5 272v428h169v-271h9q53 91 157 91q94 0 147.5 -70.5t53.5 -194.5q0 -125 -53.5 -195t-147.5 -70zM327 127q45 0 72 34.5t27 93.5t-27 93.5t-72 34.5t-72 -34.5t-27 -93.5t27 -93.5t72 -34.5z" />
    <glyph glyph-name="c" unicode="c" horiz-adv-x="579" 
d="M300 -10q-128 0 -197 74t-69 191t69 191t197 74q95 0 157.5 -44.5t85.5 -129.5l-162 -37q-18 76 -83 76q-43 0 -69 -35t-26 -95t26 -95t69 -35q69 0 88 76l163 -37q-25 -84 -89.5 -129t-159.5 -45z" />
    <glyph glyph-name="d" unicode="d" horiz-adv-x="629" 
d="M235 -10q-94 0 -147.5 70t-53.5 195q0 124 53.5 194.5t147.5 70.5q104 0 157 -91h9v271h169v-428q0 -181 5 -272h-162l-12 81h-9q-53 -91 -157 -91zM302 127q45 0 72 34.5t27 93.5t-27 93.5t-72 34.5t-72 -34.5t-27 -93.5t27 -93.5t72 -34.5z" />
    <glyph glyph-name="e" unicode="e" horiz-adv-x="585" 
d="M552 271q0 -34 -3 -58h-352q7 -54 35 -80.5t72 -26.5q63 0 91 63l150 -33q-60 -146 -244 -146q-127 0 -197 74t-70 191t69.5 191t195.5 74q117 0 185 -70.5t68 -178.5zM299 404q-82 0 -101 -97h196q-13 97 -95 97z" />
    <glyph glyph-name="f" unicode="f" horiz-adv-x="449" 
d="M288 0h-169v360h-97v131h97v31q0 94 49 141t140 47q77 0 140 -31l-35 -113q-31 16 -63 16q-62 0 -62 -64v-27h130v-131h-130v-360z" />
    <glyph glyph-name="g" unicode="g" horiz-adv-x="629" 
d="M309 -210q-103 0 -171.5 38t-87.5 109l154 35q21 -62 103 -62q94 0 94 97v102h-9q-53 -91 -158 -91q-92 0 -146 65.5t-54 181.5q0 120 54 187.5t146 67.5q105 0 158 -91h9l12 81h162q-5 -91 -5 -270v-236q0 -99 -65.5 -156.5t-195.5 -57.5zM302 147q45 0 72 32.5t27 85.5
q0 54 -27 86t-72 32t-72 -32t-27 -86t27 -86t72 -32z" />
    <glyph glyph-name="h" unicode="h" horiz-adv-x="639" 
d="M408 520q84 0 130.5 -53t46.5 -153v-314h-169v272q0 51 -22 77.5t-63 26.5q-47 0 -75 -34.5t-28 -89.5v-252h-169v700h169v-152l-5 -119h14q63 91 171 91z" />
    <glyph glyph-name="i" unicode="i" horiz-adv-x="287" 
d="M143 565q-43 0 -72 27.5t-29 67.5t29 67.5t72 27.5t72.5 -27.5t29.5 -67.5t-29.5 -67.5t-72.5 -27.5zM228 0h-169v510h169v-510z" />
    <glyph glyph-name="j" unicode="j" horiz-adv-x="328" 
d="M185 565q-43 0 -72 27.5t-29 67.5t29 67.5t72 27.5t72.5 -27.5t29.5 -67.5t-29.5 -67.5t-72.5 -27.5zM86 -210q-82 0 -139 29l39 123q25 -14 55 -14q59 0 59 64v518h169v-527q0 -94 -46.5 -143.5t-136.5 -49.5z" />
    <glyph glyph-name="k" unicode="k" horiz-adv-x="602" 
d="M228 0h-169v700h169v-431l158 241h191l-177 -244l186 -266h-198l-160 253v-253z" />
    <glyph glyph-name="l" unicode="l" horiz-adv-x="287" 
d="M228 0h-169v700h169v-700z" />
    <glyph glyph-name="m" unicode="m" horiz-adv-x="942" 
d="M228 0h-169v238q0 181 -5 272h162l10 -76h9q59 86 162 86q107 0 150 -100h10q54 100 170 100q77 0 119 -49t42 -141v-330h-169v286q0 90 -73 90q-40 0 -64 -29t-24 -77v-270h-169v286q0 90 -73 90q-40 0 -64 -29t-24 -77v-270z" />
    <glyph glyph-name="n" unicode="n" horiz-adv-x="639" 
d="M228 0h-169v238q0 181 -5 272h162l11 -81h9q65 91 172 91q84 0 130.5 -53t46.5 -153v-314h-169v272q0 51 -22 77.5t-63 26.5q-47 0 -75 -34.5t-28 -88.5v-253z" />
    <glyph glyph-name="o" unicode="o" horiz-adv-x="601" 
d="M301 -10q-128 0 -197.5 74t-69.5 191t69.5 191t197.5 74q127 0 196.5 -74t69.5 -191t-69.5 -191t-196.5 -74zM301 127q44 0 70.5 34.5t26.5 93.5t-26.5 93.5t-70.5 34.5q-45 0 -71.5 -34.5t-26.5 -93.5t26.5 -93.5t71.5 -34.5z" />
    <glyph glyph-name="p" unicode="p" horiz-adv-x="629" 
d="M228 -200h-169v438q0 181 -5 272h162l12 -81h9q53 91 157 91q94 0 147.5 -70t53.5 -195t-53.5 -195t-147.5 -70q-104 0 -157 91h-9v-281zM327 127q45 0 72 34.5t27 93.5t-27 93.5t-72 34.5t-72 -34.5t-27 -93.5t27 -93.5t72 -34.5z" />
    <glyph glyph-name="q" unicode="q" horiz-adv-x="629" 
d="M570 -200h-169v281h-9q-53 -91 -157 -91q-94 0 -147.5 70t-53.5 195t53.5 195t147.5 70q104 0 157 -91h9l12 81h162q-5 -91 -5 -272v-438zM302 127q45 0 72 34.5t27 93.5t-27 93.5t-72 34.5t-72 -34.5t-27 -93.5t27 -93.5t72 -34.5z" />
    <glyph glyph-name="r" unicode="r" horiz-adv-x="432" 
d="M383 520q19 0 31 -1v-169q-16 2 -39 2q-65 0 -106 -39t-41 -126v-187h-169v238q0 181 -5 272h162l15 -108h12q38 118 140 118z" />
    <glyph glyph-name="s" unicode="s" horiz-adv-x="538" 
d="M280 -10q-99 0 -163 34t-83 101l146 32q18 -63 97 -63q31 0 48.5 13t17.5 34q0 20 -22 32.5t-55 18.5t-71.5 17.5t-71.5 27.5t-55 51t-22 85q0 65 58 106t159 41q90 0 149.5 -31.5t77.5 -94.5l-147 -33q-15 55 -77 55q-27 0 -43 -11.5t-16 -30.5q0 -23 30.5 -36t74.5 -22
t87.5 -24t74 -53t30.5 -97q0 -68 -59.5 -110t-164.5 -42z" />
    <glyph glyph-name="t" unicode="t" horiz-adv-x="465" 
d="M301 -10q-85 0 -133.5 46.5t-48.5 140.5v201h-97v132h104l23 148h139v-148h128v-132h-128v-191q0 -62 56 -62q27 0 54 15l36 -117q-60 -33 -133 -33z" />
    <glyph glyph-name="u" unicode="u" horiz-adv-x="639" 
d="M231 -10q-84 0 -130.5 53t-46.5 153v314h169v-272q0 -51 22 -77.5t63 -26.5q47 0 75 34.5t28 88.5v253h169v-238q0 -181 5 -272h-162l-11 81h-9q-65 -91 -172 -91z" />
    <glyph glyph-name="v" unicode="v" horiz-adv-x="574" 
d="M389 0h-203l-173 510h173l99 -364h9l99 364h168z" />
    <glyph glyph-name="w" unicode="w" horiz-adv-x="823" 
d="M342 0h-201l-128 510h166l66 -350h11l60 350h196l60 -350h10l66 350h162l-128 -510h-201l-64 360h-10z" />
    <glyph glyph-name="x" unicode="x" horiz-adv-x="585" 
d="M198 0h-178l148 260l-138 250h179l81 -169h9l79 169h177l-138 -250l148 -260h-181l-88 173h-9z" />
    <glyph glyph-name="y" unicode="y" horiz-adv-x="584" 
d="M319 -200h-180l66 174l-192 536h174l103 -356h9l103 356h169z" />
    <glyph glyph-name="z" unicode="z" horiz-adv-x="531" 
d="M489 0h-448v128l225 240v9h-215v133h429v-128l-225 -240v-9h234v-133z" />
    <glyph glyph-name="braceleft" unicode="{" horiz-adv-x="397" 
d="M368 -205h-79q-91 0 -136.5 49.5t-45.5 135.5v140q0 79 -72 79h-19v132h19q72 0 72 79v140q0 86 45.5 135.5t136.5 49.5h79v-132h-24q-72 0 -72 -82v-141q0 -89 -66 -111v-9q66 -21 66 -110v-141q0 -82 72 -82h24v-132z" />
    <glyph glyph-name="bar" unicode="|" horiz-adv-x="353" 
d="M263 -200h-173v900h173v-900z" />
    <glyph glyph-name="braceright" unicode="}" horiz-adv-x="397" 
d="M108 -205h-79v132h24q72 0 72 82v141q0 89 65 110v9q-65 22 -65 111v141q0 82 -72 82h-24v132h79q91 0 136 -49.5t45 -135.5v-140q0 -79 72 -79h19v-132h-19q-72 0 -72 -79v-140q0 -86 -45 -135.5t-136 -49.5z" />
    <glyph glyph-name="asciitilde" unicode="~" 
d="M153 192h-122v62q0 78 36.5 116t87.5 38q32 0 64.5 -18.5t58.5 -37t41 -18.5q37 0 37 44v30h122v-62q0 -79 -35 -116.5t-89 -37.5q-35 0 -67 18.5t-56.5 37t-40.5 18.5q-37 0 -37 -44v-30z" />
    <glyph glyph-name="uni00A0" unicode="&#xa0;" horiz-adv-x="237" 
 />
    <glyph glyph-name="exclamdown" unicode="&#xa1;" horiz-adv-x="320" 
d="M161 520q40 0 68 -26t28 -66q0 -39 -28 -65t-68 -26t-68 26t-28 65q0 40 28 66t68 26zM68 -190l20 457h144l20 -457h-184z" />
    <glyph glyph-name="cent" unicode="&#xa2;" horiz-adv-x="578" 
d="M382 -109h-166v109q-88 23 -135 91.5t-47 163.5t47 163.5t135 91.5v109h166v-109q126 -33 161 -164l-162 -37q-18 76 -83 76q-43 0 -69 -35t-26 -95t26 -95t69 -35q68 0 87 76l163 -37q-39 -132 -166 -164v-109z" />
    <glyph glyph-name="sterling" unicode="&#xa3;" horiz-adv-x="662" 
d="M539 173l94 -92q-41 -50 -76.5 -70.5t-85.5 -20.5q-36 0 -95 17.5t-96 17.5q-66 0 -175 -40l-71 117q65 49 89.5 91t24.5 95v1h-111v90h84q-38 76 -38 126q0 96 69.5 150.5t194.5 54.5q225 0 269 -171l-157 -35q-23 78 -106 78q-45 0 -71 -23t-26 -62q0 -20 6 -38t21 -45
t19 -35h151v-90h-133q-3 -33 -24 -63.5t-68 -71.5l6 -10q53 25 91 25q29 0 73 -17.5t68 -17.5q43 0 73 39z" />
    <glyph glyph-name="currency" unicode="&#xa4;" horiz-adv-x="584" 
d="M180 156l-60 -61l-83 83l60 60q-29 53 -29 112t29 112l-60 60l83 83l60 -61q52 30 112 30t111 -30l61 61l82 -83l-60 -60q29 -50 29 -112t-29 -112l60 -60l-82 -83l-61 61q-51 -30 -111 -30t-112 30zM292 238q46 0 77.5 32.5t31.5 79.5t-31.5 79.5t-77.5 32.5t-78 -32.5
t-32 -79.5t32 -79.5t78 -32.5z" />
    <glyph glyph-name="yen" unicode="&#xa5;" horiz-adv-x="698" 
d="M436 0h-173v92h-169v88h169v64h-169v89h125l-203 367h196l135 -274h8l134 274h193l-203 -367h125v-89h-168v-64h168v-88h-168v-92z" />
    <glyph glyph-name="brokenbar" unicode="&#xa6;" horiz-adv-x="353" 
d="M263 325h-173v375h173v-375zM263 -200h-173v375h173v-375z" />
    <glyph glyph-name="section" unicode="&#xa7;" horiz-adv-x="538" 
d="M278 -100q-203 0 -244 140l151 34q18 -66 93 -66q64 0 64 44q0 25 -30.5 43t-74 31t-87.5 30t-74.5 51t-30.5 84q0 73 93 112v8q-93 44 -93 143q0 71 59.5 113.5t160.5 42.5q186 0 226 -128l-149 -34q-15 54 -77 54q-28 0 -43 -11t-15 -29q0 -25 30.5 -42.5t74.5 -30.5
t87.5 -30t74 -51.5t30.5 -84.5q0 -73 -93 -112v-8q93 -45 93 -143q0 -74 -60.5 -117t-165.5 -43zM291 246q33 6 50.5 20.5t17.5 31.5q0 18 -14 31t-30.5 20t-47.5 16q-34 -6 -51.5 -20t-17.5 -32q0 -25 23 -39.5t70 -27.5z" />
    <glyph glyph-name="dieresis" unicode="&#xa8;" horiz-adv-x="470" 
d="M121 570q-38 0 -64.5 24.5t-26.5 61.5t26.5 62t64.5 25q39 0 65 -25t26 -62t-26 -61.5t-65 -24.5zM349 570q-38 0 -64.5 24.5t-26.5 61.5t26.5 62t64.5 25q39 0 65 -25t26 -62t-26 -61.5t-65 -24.5z" />
    <glyph glyph-name="copyright" unicode="&#xa9;" horiz-adv-x="742" 
d="M371 -10q-153 0 -251.5 104t-98.5 256q0 151 98.5 255.5t251.5 104.5t251.5 -104.5t98.5 -255.5q0 -152 -98.5 -256t-251.5 -104zM371 62q120 0 196 83t76 205q0 121 -76.5 204.5t-195.5 83.5q-120 0 -196 -83.5t-76 -204.5q0 -122 76 -205t196 -83zM376 170
q-78 0 -125 49.5t-47 130.5t47 130.5t125 49.5q132 0 159 -117l-90 -19q-16 61 -69 61q-36 0 -57.5 -28t-21.5 -77t21.5 -77t57.5 -28q55 0 72 61l89 -19q-27 -117 -161 -117z" />
    <glyph glyph-name="ordfeminine" unicode="&#xaa;" horiz-adv-x="351" 
d="M123 392q-44 0 -71 24.5t-27 64.5q0 92 124 99l74 4v14q0 44 -51 44q-47 0 -56 -42l-88 21q7 42 45.5 65.5t98.5 23.5q72 0 109.5 -29.5t37.5 -82.5v-41q0 -106 3 -159h-89l-8 55h-6q-23 -61 -96 -61zM159 463q26 0 45 19.5t19 53.5l-48 -3q-55 -5 -55 -38q0 -32 39 -32z
" />
    <glyph glyph-name="guillemotleft" unicode="&#xab;" horiz-adv-x="647" 
d="M361 72h-172l-172 188l172 188h172l-177 -188zM619 72h-171l-172 188l172 188h171l-176 -188z" />
    <glyph glyph-name="logicalnot" unicode="&#xac;" 
d="M478 176h-140v118h-307v130h447v-248z" />
    <glyph glyph-name="uni00AD" unicode="&#xad;" horiz-adv-x="406" 
d="M378 217h-349v126h349v-126z" />
    <glyph glyph-name="registered" unicode="&#xae;" horiz-adv-x="742" 
d="M371 -10q-153 0 -251.5 104t-98.5 256q0 151 98.5 255.5t251.5 104.5t251.5 -104.5t98.5 -255.5q0 -152 -98.5 -256t-251.5 -104zM371 62q120 0 196 83t76 205q0 121 -76.5 204.5t-195.5 83.5q-120 0 -196 -83.5t-76 -204.5q0 -122 76 -205t196 -83zM329 175h-91v350h156
q61 0 96 -30t35 -85q0 -70 -59 -96v-9l71 -130h-103l-59 124h-46v-124zM329 454v-88h58q21 0 34.5 11.5t13.5 32.5q0 20 -13.5 32t-34.5 12h-58z" />
    <glyph glyph-name="macron" unicode="&#xaf;" horiz-adv-x="375" 
d="M345 598h-315v114h315v-114z" />
    <glyph glyph-name="degree" unicode="&#xb0;" horiz-adv-x="386" 
d="M193 377q-79 0 -127.5 48t-48.5 119t48.5 118.5t127.5 47.5q80 0 128 -47.5t48 -118.5t-48 -119t-128 -48zM193 469q31 0 49.5 21.5t18.5 53.5q0 33 -18.5 54t-49.5 21q-30 0 -49 -21t-19 -54q0 -32 19 -53.5t49 -21.5z" />
    <glyph glyph-name="plusminus" unicode="&#xb1;" 
d="M319 201h-130v121h-158v130h158v124h130v-124h159v-130h-159v-121zM478 24h-447v134h447v-134z" />
    <glyph glyph-name="uni00B2" unicode="&#xb2;" horiz-adv-x="327" 
d="M304 450h-274v82l101 79q69 54 69 84q0 14 -10 22.5t-26 8.5q-34 0 -47 -35l-100 21q10 44 49 68.5t97 24.5q65 0 103 -29t38 -80q0 -38 -23.5 -67.5t-73.5 -65.5l-22 -17v-6h119v-90z" />
    <glyph glyph-name="uni00B3" unicode="&#xb3;" horiz-adv-x="344" 
d="M300 717l-76 -57q44 -6 69 -33.5t25 -69.5q0 -52 -38 -82t-107 -30q-62 0 -102.5 25t-49.5 72l103 21q8 -36 49 -36q19 0 30 9t11 25q0 35 -45 35h-59v54l70 54v6h-144v90h264v-83z" />
    <glyph glyph-name="acute" unicode="&#xb4;" horiz-adv-x="324" 
d="M161 572h-131l69 161h195z" />
    <glyph glyph-name="uni00B5" unicode="&#xb5;" horiz-adv-x="663" 
d="M219 -200h-165v710h169v-272q0 -51 22 -77.5t63 -26.5q47 0 75 34.5t28 89.5v252h169v-318q0 -55 47 -55h18v-137h-67q-104 0 -127 88h-9q-19 -50 -53.5 -74t-75.5 -24q-63 0 -96 48h-9l11 -158v-80z" />
    <glyph glyph-name="paragraph" unicode="&#xb6;" horiz-adv-x="814" 
d="M443 -200h-154v390h-53q-43 0 -79.5 13t-68 41t-49 79.5t-17.5 121.5t17.5 121.5t49 79.5t68 41t79.5 13h540v-157h-68v-743h-166v743h-99v-743z" />
    <glyph glyph-name="periodcentered" unicode="&#xb7;" horiz-adv-x="257" 
d="M128 174q-40 0 -68 26t-28 66q0 39 28 64.5t68 25.5t68 -25.5t28 -64.5q0 -41 -27.5 -66.5t-68.5 -25.5z" />
    <glyph glyph-name="cedilla" unicode="&#xb8;" horiz-adv-x="341" 
d="M199 -37q50 0 81 -26.5t31 -74.5q0 -49 -38 -80t-106 -31q-77 0 -137 43l45 71q41 -31 86 -31q46 0 46 30t-41 30q-22 0 -40 -7l-21 31l30 87h78z" />
    <glyph glyph-name="uni00B9" unicode="&#xb9;" horiz-adv-x="242" 
d="M199 450h-104v235h-4l-70 -38v104l98 49h80v-350z" />
    <glyph glyph-name="ordmasculine" unicode="&#xba;" horiz-adv-x="359" 
d="M179 392q-75 0 -117 44.5t-42 114.5t42 114.5t117 44.5q76 0 118 -44.5t42 -114.5t-42 -114.5t-118 -44.5zM179 472q27 0 43.5 21.5t16.5 57.5t-16.5 57.5t-43.5 21.5q-26 0 -42.5 -21.5t-16.5 -57.5t16.5 -57.5t42.5 -21.5z" />
    <glyph glyph-name="guillemotright" unicode="&#xbb;" horiz-adv-x="647" 
d="M371 260l-172 -188h-172l177 188l-177 188h172zM630 260l-173 -188h-171l176 188l-176 188h171z" />
    <glyph glyph-name="onequarter" unicode="&#xbc;" horiz-adv-x="745" 
d="M199 350h-104v235h-4l-70 -38v104l98 49h80v-350zM182 0h-108l445 700h109zM682 0h-104v57h-161v89l152 204h113v-210h41v-83h-41v-57zM578 233l-70 -93h70v93z" />
    <glyph glyph-name="onehalf" unicode="&#xbd;" horiz-adv-x="768" 
d="M199 350h-104v235h-4l-70 -38v104l98 49h80v-350zM182 0h-108l445 700h109zM745 0h-274v82l101 79q69 54 69 84q0 14 -10 22.5t-26 8.5q-34 0 -47 -35l-100 21q10 44 49 68.5t97 24.5q65 0 103 -29t38 -80q0 -38 -23.5 -67.5t-73.5 -65.5l-22 -17v-6h119v-90z" />
    <glyph glyph-name="threequarters" unicode="&#xbe;" horiz-adv-x="837" 
d="M318 457q0 -52 -38 -82t-107 -30q-62 0 -102.5 25t-49.5 72l103 21q8 -36 49 -36q19 0 30 9t11 25q0 35 -45 35h-59v54l70 54v6h-144v90h264v-83l-76 -57q44 -6 69 -33.5t25 -69.5zM166 0l445 700h109l-446 -700h-108zM774 350v-210h41v-83h-41v-57h-104v57h-161v89
l152 204h113zM600 140h70v93z" />
    <glyph glyph-name="questiondown" unicode="&#xbf;" horiz-adv-x="588" 
d="M283 520q40 0 68 -26t28 -66q0 -39 -28 -65t-68 -26t-67.5 26t-27.5 65q0 40 27.5 66t67.5 26zM211 267h145v-10q0 -43 -16 -78t-38 -57t-44.5 -40.5t-38.5 -39.5t-16 -43q0 -34 24.5 -52.5t63.5 -18.5q44 0 77 23.5t46 66.5l153 -34q-19 -87 -93 -135.5t-182 -48.5
q-120 0 -191 50t-71 138q0 41 18.5 75.5t45 57.5t53.5 43.5t45.5 44t18.5 48.5v10z" />
    <glyph glyph-name="Agrave" unicode="&#xc0;" horiz-adv-x="725" 
d="M358 923l70 -161h-132l-132 161h194zM711 0h-181l-40 133h-260l-40 -133h-177l235 700h228zM356 556l-87 -290h182l-87 290h-8z" />
    <glyph glyph-name="Aacute" unicode="&#xc1;" horiz-adv-x="725" 
d="M367 923h195l-133 -161h-131zM711 0h-181l-40 133h-260l-40 -133h-177l235 700h228zM356 556l-87 -290h182l-87 290h-8z" />
    <glyph glyph-name="Acircumflex" unicode="&#xc2;" horiz-adv-x="725" 
d="M412 762l-52 84l-52 -84h-146l129 161h143l128 -161h-150zM711 0h-181l-40 133h-260l-40 -133h-177l235 700h228zM356 556l-87 -290h182l-87 290h-8z" />
    <glyph glyph-name="Atilde" unicode="&#xc3;" horiz-adv-x="725" 
d="M308 815q-33 0 -33 -58h-87v56q0 54 25.5 84.5t66.5 30.5q35 0 78 -29t59 -29q33 0 33 58h87v-58q0 -55 -24.5 -84t-66.5 -29q-36 0 -79 29t-59 29zM711 0h-181l-40 133h-260l-40 -133h-177l235 700h228zM356 556l-87 -290h182l-87 290h-8z" />
    <glyph glyph-name="Adieresis" unicode="&#xc4;" horiz-adv-x="725" 
d="M249 760q-38 0 -64.5 24.5t-26.5 61.5t26.5 62t64.5 25q39 0 65 -25t26 -62t-26 -61.5t-65 -24.5zM477 760q-38 0 -64.5 24.5t-26.5 61.5t26.5 62t64.5 25q39 0 65 -25t26 -62t-26 -61.5t-65 -24.5zM711 0h-181l-40 133h-260l-40 -133h-177l235 700h228zM356 556
l-87 -290h182l-87 290h-8z" />
    <glyph glyph-name="Aring" unicode="&#xc5;" horiz-adv-x="725" 
d="M363 740q-58 0 -95.5 33.5t-37.5 85.5t37.5 85.5t95.5 33.5t95.5 -33.5t37.5 -85.5t-37.5 -85.5t-95.5 -33.5zM363 904q-21 0 -33 -12.5t-12 -32.5t12 -32.5t33 -12.5t33 12.5t12 32.5t-12 32.5t-33 12.5zM711 0h-181l-40 133h-260l-40 -133h-177l235 700h228zM356 556
l-87 -290h182l-87 290h-8z" />
    <glyph glyph-name="AE" unicode="&#xc6;" horiz-adv-x="1019" 
d="M198 0h-185l357 700h602v-141h-296v-137h256v-124h-256v-157h296v-141h-465v133h-246zM464 559l-140 -293h183v293h-43z" />
    <glyph glyph-name="Ccedilla" unicode="&#xc7;" horiz-adv-x="733" 
d="M529 257l170 -37q-53 -211 -280 -228l-9 -29q50 0 81 -26.5t31 -74.5q0 -49 -38 -80t-106 -31q-77 0 -137 43l45 71q41 -31 86 -31q46 0 46 30t-41 30q-22 0 -40 -7l-21 31l25 74q-140 12 -221 109t-81 249q0 162 91.5 261t247.5 99q125 0 206 -58.5t109 -171.5l-170 -37
q-16 61 -54 92.5t-91 31.5q-76 0 -121 -58t-45 -159t45 -159t121 -58q55 0 94 31.5t57 92.5z" />
    <glyph glyph-name="Egrave" unicode="&#xc8;" horiz-adv-x="635" 
d="M398 762h-132l-132 161h194zM588 0h-522v700h522v-141h-349v-136h309v-126h-309v-156h349v-141z" />
    <glyph glyph-name="Eacute" unicode="&#xc9;" horiz-adv-x="635" 
d="M398 762h-131l69 161h195zM588 0h-522v700h522v-141h-349v-136h309v-126h-309v-156h349v-141z" />
    <glyph glyph-name="Ecircumflex" unicode="&#xca;" horiz-adv-x="635" 
d="M278 762h-146l129 161h143l128 -161h-150l-52 84zM588 0h-522v700h522v-141h-349v-136h309v-126h-309v-156h349v-141z" />
    <glyph glyph-name="Edieresis" unicode="&#xcb;" horiz-adv-x="635" 
d="M218 760q-38 0 -64.5 24.5t-26.5 61.5t26.5 62t64.5 25q39 0 65 -25t26 -62t-26 -61.5t-65 -24.5zM446 760q-38 0 -64.5 24.5t-26.5 61.5t26.5 62t64.5 25q39 0 65 -25t26 -62t-26 -61.5t-65 -24.5zM588 0h-522v700h522v-141h-349v-136h309v-126h-309v-156h349v-141z" />
    <glyph glyph-name="Igrave" unicode="&#xcc;" horiz-adv-x="306" 
d="M218 762h-132l-132 161h194zM239 0h-173v700h173v-700z" />
    <glyph glyph-name="Iacute" unicode="&#xcd;" horiz-adv-x="306" 
d="M219 762h-131l69 161h195zM239 0h-173v700h173v-700z" />
    <glyph glyph-name="Icircumflex" unicode="&#xce;" horiz-adv-x="306" 
d="M99 762h-146l129 161h143l128 -161h-150l-52 84zM239 0h-173v700h173v-700z" />
    <glyph glyph-name="Idieresis" unicode="&#xcf;" horiz-adv-x="306" 
d="M56 760q-35 0 -58 24t-23 62q0 39 23 63t58 24t58.5 -24.5t23.5 -62.5t-23.5 -62t-58.5 -24zM252 760q-36 0 -59.5 24t-23.5 62q0 39 23.5 63t59.5 24q35 0 58.5 -24.5t23.5 -62.5t-23.5 -62t-58.5 -24zM239 0h-173v700h173v-700z" />
    <glyph glyph-name="Eth" unicode="&#xd0;" horiz-adv-x="773" 
d="M111 700h266q166 0 261.5 -95.5t95.5 -254.5t-95.5 -254.5t-261.5 -95.5h-266v302h-105v96h105v302zM284 144h93q86 0 135 54.5t49 151.5t-49 151.5t-135 54.5h-93v-158h157v-96h-157v-158z" />
    <glyph glyph-name="Ntilde" unicode="&#xd1;" horiz-adv-x="765" 
d="M295 757h-87v56q0 54 25.5 84.5t66.5 30.5q35 0 78 -29t59 -29q33 0 33 58h87v-58q0 -55 -24.5 -84t-66.5 -29q-36 0 -79 29t-59 29q-33 0 -33 -58zM236 0h-170v700h183l276 -446h9q-5 81 -5 181v265h169v-700h-183l-275 446h-9q5 -81 5 -181v-265z" />
    <glyph glyph-name="Ograve" unicode="&#xd2;" horiz-adv-x="759" 
d="M445 762h-132l-132 161h194zM380 -10q-157 0 -249 99t-92 261t92 261t249 99q156 0 248 -98.5t92 -261.5t-92 -261.5t-248 -98.5zM380 134q77 0 122 57.5t45 158.5t-45 158.5t-122 57.5t-122.5 -57.5t-45.5 -158.5t45.5 -158.5t122.5 -57.5z" />
    <glyph glyph-name="Oacute" unicode="&#xd3;" horiz-adv-x="759" 
d="M446 762h-131l69 161h195zM380 -10q-157 0 -249 99t-92 261t92 261t249 99q156 0 248 -98.5t92 -261.5t-92 -261.5t-248 -98.5zM380 134q77 0 122 57.5t45 158.5t-45 158.5t-122 57.5t-122.5 -57.5t-45.5 -158.5t45.5 -158.5t122.5 -57.5z" />
    <glyph glyph-name="Ocircumflex" unicode="&#xd4;" horiz-adv-x="759" 
d="M325 762h-146l129 161h143l128 -161h-150l-52 84zM380 -10q-157 0 -249 99t-92 261t92 261t249 99q156 0 248 -98.5t92 -261.5t-92 -261.5t-248 -98.5zM380 134q77 0 122 57.5t45 158.5t-45 158.5t-122 57.5t-122.5 -57.5t-45.5 -158.5t45.5 -158.5t122.5 -57.5z" />
    <glyph glyph-name="Otilde" unicode="&#xd5;" horiz-adv-x="759" 
d="M292 757h-87v56q0 54 25.5 84.5t66.5 30.5q35 0 78 -29t59 -29q33 0 33 58h87v-58q0 -55 -24.5 -84t-66.5 -29q-36 0 -79 29t-59 29q-33 0 -33 -58zM380 -10q-157 0 -249 99t-92 261t92 261t249 99q156 0 248 -98.5t92 -261.5t-92 -261.5t-248 -98.5zM380 134
q77 0 122 57.5t45 158.5t-45 158.5t-122 57.5t-122.5 -57.5t-45.5 -158.5t45.5 -158.5t122.5 -57.5z" />
    <glyph glyph-name="Odieresis" unicode="&#xd6;" horiz-adv-x="759" 
d="M266 760q-38 0 -64.5 24.5t-26.5 61.5t26.5 62t64.5 25q39 0 65 -25t26 -62t-26 -61.5t-65 -24.5zM494 760q-38 0 -64.5 24.5t-26.5 61.5t26.5 62t64.5 25q39 0 65 -25t26 -62t-26 -61.5t-65 -24.5zM380 -10q-157 0 -249 99t-92 261t92 261t249 99q156 0 248 -98.5
t92 -261.5t-92 -261.5t-248 -98.5zM380 134q77 0 122 57.5t45 158.5t-45 158.5t-122 57.5t-122.5 -57.5t-45.5 -158.5t45.5 -158.5t122.5 -57.5z" />
    <glyph glyph-name="multiply" unicode="&#xd7;" 
d="M254 209l-143 -143l-91 91l142 142l-142 143l91 91l143 -143l143 144l92 -92l-144 -143l143 -142l-92 -91z" />
    <glyph glyph-name="Oslash" unicode="&#xd8;" horiz-adv-x="759" 
d="M665 742l-62 -107q117 -98 117 -285q0 -163 -92 -261.5t-248 -98.5q-73 0 -134 23l-58 -101l-93 46l61 107q-117 98 -117 285q0 162 92 261t249 99q73 0 133 -23l58 101zM212 350q0 -80 30 -135l196 341q-26 10 -58 10q-77 0 -122.5 -57.5t-45.5 -158.5zM380 134
q77 0 122 57.5t45 158.5q0 80 -30 135l-196 -341q26 -10 59 -10z" />
    <glyph glyph-name="Ugrave" unicode="&#xd9;" horiz-adv-x="746" 
d="M439 762h-132l-132 161h194zM373 -10q-135 0 -221 76.5t-86 221.5v412h173v-412q0 -71 36.5 -108.5t97.5 -37.5t97 37t36 109v412h173v-412q0 -146 -85 -222t-221 -76z" />
    <glyph glyph-name="Uacute" unicode="&#xda;" horiz-adv-x="746" 
d="M439 762h-131l69 161h195zM373 -10q-135 0 -221 76.5t-86 221.5v412h173v-412q0 -71 36.5 -108.5t97.5 -37.5t97 37t36 109v412h173v-412q0 -146 -85 -222t-221 -76z" />
    <glyph glyph-name="Ucircumflex" unicode="&#xdb;" horiz-adv-x="746" 
d="M319 762h-146l129 161h143l128 -161h-150l-52 84zM373 -10q-135 0 -221 76.5t-86 221.5v412h173v-412q0 -71 36.5 -108.5t97.5 -37.5t97 37t36 109v412h173v-412q0 -146 -85 -222t-221 -76z" />
    <glyph glyph-name="Udieresis" unicode="&#xdc;" horiz-adv-x="746" 
d="M260 760q-38 0 -64.5 24.5t-26.5 61.5t26.5 62t64.5 25q39 0 65 -25t26 -62t-26 -61.5t-65 -24.5zM488 760q-38 0 -64.5 24.5t-26.5 61.5t26.5 62t64.5 25q39 0 65 -25t26 -62t-26 -61.5t-65 -24.5zM373 -10q-135 0 -221 76.5t-86 221.5v412h173v-412q0 -71 36.5 -108.5
t97.5 -37.5t97 37t36 109v412h173v-412q0 -146 -85 -222t-221 -76z" />
    <glyph glyph-name="Yacute" unicode="&#xdd;" horiz-adv-x="698" 
d="M415 762h-131l69 161h195zM436 0h-173v254l-247 446h196l135 -274h8l134 274h193l-246 -445v-255z" />
    <glyph glyph-name="Thorn" unicode="&#xde;" horiz-adv-x="656" 
d="M239 0h-173v700h173v-132h138q118 0 185 -57t67 -161t-67 -161t-185 -57h-138v-132zM239 431v-162h117q48 0 74 21t26 60t-26 60t-74 21h-117z" />
    <glyph glyph-name="germandbls" unicode="&#xdf;" horiz-adv-x="673" 
d="M415 -10q-89 0 -155 31l40 123q39 -18 81 -18q41 0 65 21.5t24 61.5t-27 62.5t-73 22.5h-54v126h35q41 0 63.5 20t22.5 59q0 38 -26.5 60t-72.5 22q-51 0 -80.5 -29.5t-29.5 -84.5v-467h-169v471q0 113 73 176t206 63q123 0 193 -53t70 -142q0 -107 -91 -145v-9
q129 -40 129 -170q0 -86 -57 -143.5t-167 -57.5z" />
    <glyph glyph-name="agrave" unicode="&#xe0;" horiz-adv-x="595" 
d="M291 733l70 -161h-132l-132 161h194zM538 334v-70q0 -175 5 -264h-153l-12 83h-9q-48 -93 -162 -93q-73 0 -118 41t-45 109q0 153 209 165l122 7v15q0 38 -23 56t-61 18q-78 0 -93 -68l-148 33q13 72 76.5 113t164.5 41q120 0 183.5 -49t63.5 -137zM270 111q44 0 74 30.5
t31 83.5l-81 -5q-46 -3 -67 -16.5t-21 -41.5q0 -24 16.5 -37.5t47.5 -13.5z" />
    <glyph glyph-name="aacute" unicode="&#xe1;" horiz-adv-x="595" 
d="M300 733h195l-133 -161h-131zM538 334v-70q0 -175 5 -264h-153l-12 83h-9q-48 -93 -162 -93q-73 0 -118 41t-45 109q0 153 209 165l122 7v15q0 38 -23 56t-61 18q-78 0 -93 -68l-148 33q13 72 76.5 113t164.5 41q120 0 183.5 -49t63.5 -137zM270 111q44 0 74 30.5
t31 83.5l-81 -5q-46 -3 -67 -16.5t-21 -41.5q0 -24 16.5 -37.5t47.5 -13.5z" />
    <glyph glyph-name="acircumflex" unicode="&#xe2;" horiz-adv-x="595" 
d="M346 572l-52 84l-52 -84h-146l129 161h143l128 -161h-150zM538 334v-70q0 -175 5 -264h-153l-12 83h-9q-48 -93 -162 -93q-73 0 -118 41t-45 109q0 153 209 165l122 7v15q0 38 -23 56t-61 18q-78 0 -93 -68l-148 33q13 72 76.5 113t164.5 41q120 0 183.5 -49t63.5 -137z
M270 111q44 0 74 30.5t31 83.5l-81 -5q-46 -3 -67 -16.5t-21 -41.5q0 -24 16.5 -37.5t47.5 -13.5z" />
    <glyph glyph-name="atilde" unicode="&#xe3;" horiz-adv-x="595" 
d="M241 625q-33 0 -33 -58h-87v56q0 54 25.5 84.5t66.5 30.5q35 0 78 -29t59 -29q33 0 33 58h87v-58q0 -55 -24.5 -84t-66.5 -29q-36 0 -79 29t-59 29zM538 334v-70q0 -175 5 -264h-153l-12 83h-9q-48 -93 -162 -93q-73 0 -118 41t-45 109q0 153 209 165l122 7v15
q0 38 -23 56t-61 18q-78 0 -93 -68l-148 33q13 72 76.5 113t164.5 41q120 0 183.5 -49t63.5 -137zM270 111q44 0 74 30.5t31 83.5l-81 -5q-46 -3 -67 -16.5t-21 -41.5q0 -24 16.5 -37.5t47.5 -13.5z" />
    <glyph glyph-name="adieresis" unicode="&#xe4;" horiz-adv-x="595" 
d="M182 570q-38 0 -64.5 24.5t-26.5 61.5t26.5 62t64.5 25q39 0 65 -25t26 -62t-26 -61.5t-65 -24.5zM410 570q-38 0 -64.5 24.5t-26.5 61.5t26.5 62t64.5 25q39 0 65 -25t26 -62t-26 -61.5t-65 -24.5zM538 334v-70q0 -175 5 -264h-153l-12 83h-9q-48 -93 -162 -93
q-73 0 -118 41t-45 109q0 153 209 165l122 7v15q0 38 -23 56t-61 18q-78 0 -93 -68l-148 33q13 72 76.5 113t164.5 41q120 0 183.5 -49t63.5 -137zM270 111q44 0 74 30.5t31 83.5l-81 -5q-46 -3 -67 -16.5t-21 -41.5q0 -24 16.5 -37.5t47.5 -13.5z" />
    <glyph glyph-name="aring" unicode="&#xe5;" horiz-adv-x="595" 
d="M296 550q-58 0 -95.5 33.5t-37.5 85.5t37.5 85.5t95.5 33.5t95.5 -33.5t37.5 -85.5t-37.5 -85.5t-95.5 -33.5zM296 714q-21 0 -33 -12.5t-12 -32.5t12 -32.5t33 -12.5t33 12.5t12 32.5t-12 32.5t-33 12.5zM538 334v-70q0 -175 5 -264h-153l-12 83h-9q-48 -93 -162 -93
q-73 0 -118 41t-45 109q0 153 209 165l122 7v15q0 38 -23 56t-61 18q-78 0 -93 -68l-148 33q13 72 76.5 113t164.5 41q120 0 183.5 -49t63.5 -137zM270 111q44 0 74 30.5t31 83.5l-81 -5q-46 -3 -67 -16.5t-21 -41.5q0 -24 16.5 -37.5t47.5 -13.5z" />
    <glyph glyph-name="ae" unicode="&#xe6;" horiz-adv-x="873" 
d="M840 270q0 -32 -3 -57h-335q7 -54 32.5 -80.5t64.5 -26.5q59 0 86 64l148 -33q-57 -147 -218 -147q-120 0 -182 86q-54 -86 -193 -86q-93 0 -144.5 43.5t-51.5 114.5q0 73 52.5 116t152.5 43h119v10q0 41 -25 64t-59 23q-69 0 -87 -70l-146 33q13 73 71 113t138 40
q118 0 176 -79q29 38 74 58.5t97 20.5q113 0 173 -70t60 -180zM503 307h178q-4 48 -26.5 72.5t-58.5 24.5q-35 0 -59.5 -24.5t-33.5 -72.5zM270 106q43 0 69.5 26.5t28.5 80.5h-85q-77 0 -77 -53q0 -25 17.5 -39.5t46.5 -14.5z" />
    <glyph glyph-name="ccedilla" unicode="&#xe7;" horiz-adv-x="579" 
d="M386 201l163 -37q-22 -75 -76.5 -119.5t-133.5 -52.5l-10 -29q50 0 81 -26.5t31 -74.5q0 -49 -38 -80t-106 -31q-77 0 -137 43l45 71q41 -31 86 -31q46 0 46 30t-41 30q-22 0 -40 -7l-21 31l26 74q-109 12 -168 84t-59 179q0 117 69 191t197 74q95 0 157.5 -44.5
t85.5 -129.5l-162 -37q-18 76 -83 76q-43 0 -69 -35t-26 -95t26 -95t69 -35q69 0 88 76z" />
    <glyph glyph-name="egrave" unicode="&#xe8;" horiz-adv-x="585" 
d="M294 733l70 -161h-132l-132 161h194zM552 271q0 -34 -3 -58h-352q7 -54 35 -80.5t72 -26.5q63 0 91 63l150 -33q-60 -146 -244 -146q-127 0 -197 74t-70 191t69.5 191t195.5 74q117 0 185 -70.5t68 -178.5zM299 404q-82 0 -101 -97h196q-13 97 -95 97z" />
    <glyph glyph-name="eacute" unicode="&#xe9;" horiz-adv-x="585" 
d="M303 733h195l-133 -161h-131zM552 271q0 -34 -3 -58h-352q7 -54 35 -80.5t72 -26.5q63 0 91 63l150 -33q-60 -146 -244 -146q-127 0 -197 74t-70 191t69.5 191t195.5 74q117 0 185 -70.5t68 -178.5zM299 404q-82 0 -101 -97h196q-13 97 -95 97z" />
    <glyph glyph-name="ecircumflex" unicode="&#xea;" horiz-adv-x="585" 
d="M348 572l-52 84l-52 -84h-146l129 161h143l128 -161h-150zM552 271q0 -34 -3 -58h-352q7 -54 35 -80.5t72 -26.5q63 0 91 63l150 -33q-60 -146 -244 -146q-127 0 -197 74t-70 191t69.5 191t195.5 74q117 0 185 -70.5t68 -178.5zM299 404q-82 0 -101 -97h196
q-13 97 -95 97z" />
    <glyph glyph-name="edieresis" unicode="&#xeb;" horiz-adv-x="585" 
d="M185 570q-38 0 -64.5 24.5t-26.5 61.5t26.5 62t64.5 25q39 0 65 -25t26 -62t-26 -61.5t-65 -24.5zM413 570q-38 0 -64.5 24.5t-26.5 61.5t26.5 62t64.5 25q39 0 65 -25t26 -62t-26 -61.5t-65 -24.5zM552 271q0 -34 -3 -58h-352q7 -54 35 -80.5t72 -26.5q63 0 91 63
l150 -33q-60 -146 -244 -146q-127 0 -197 74t-70 191t69.5 191t195.5 74q117 0 185 -70.5t68 -178.5zM299 404q-82 0 -101 -97h196q-13 97 -95 97z" />
    <glyph glyph-name="igrave" unicode="&#xec;" horiz-adv-x="287" 
d="M209 572h-132l-132 161h194zM228 0h-169v510h169v-510z" />
    <glyph glyph-name="iacute" unicode="&#xed;" horiz-adv-x="287" 
d="M210 572h-131l69 161h195zM228 0h-169v510h169v-510z" />
    <glyph glyph-name="icircumflex" unicode="&#xee;" horiz-adv-x="287" 
d="M89 572h-146l129 161h143l128 -161h-150l-52 84zM228 0h-169v510h169v-510z" />
    <glyph glyph-name="idieresis" unicode="&#xef;" horiz-adv-x="287" 
d="M46 570q-35 0 -58 24t-23 62q0 39 23 63t58 24t58.5 -24.5t23.5 -62.5t-23.5 -62t-58.5 -24zM242 570q-36 0 -59.5 24t-23.5 62q0 39 23.5 63t59.5 24q35 0 58.5 -24.5t23.5 -62.5t-23.5 -62t-58.5 -24zM228 0h-169v510h169v-510z" />
    <glyph glyph-name="eth" unicode="&#xf0;" horiz-adv-x="575" 
d="M286 -10q-118 0 -185 65t-67 164q0 96 56 159t141 63q63 0 119 -38l12 9q-36 68 -123 113l-93 -64l-54 53l66 46q-36 13 -95 28l87 112q77 -22 134 -50l72 50l54 -54l-54 -37q185 -126 185 -359q0 -115 -66 -187.5t-189 -72.5zM286 119q38 0 60 27t22 73t-22 73.5
t-60 27.5t-60.5 -27t-22.5 -74q0 -46 22.5 -73t60.5 -27z" />
    <glyph glyph-name="ntilde" unicode="&#xf1;" horiz-adv-x="639" 
d="M234 567h-87v56q0 54 25.5 84.5t66.5 30.5q35 0 78 -29t59 -29q33 0 33 58h87v-58q0 -55 -24.5 -84t-66.5 -29q-36 0 -79 29t-59 29q-33 0 -33 -58zM228 0h-169v238q0 181 -5 272h162l11 -81h9q65 91 172 91q84 0 130.5 -53t46.5 -153v-314h-169v272q0 51 -22 77.5
t-63 26.5q-47 0 -75 -34.5t-28 -88.5v-253z" />
    <glyph glyph-name="ograve" unicode="&#xf2;" horiz-adv-x="601" 
d="M366 572h-132l-132 161h194zM301 -10q-128 0 -197.5 74t-69.5 191t69.5 191t197.5 74q127 0 196.5 -74t69.5 -191t-69.5 -191t-196.5 -74zM301 127q44 0 70.5 34.5t26.5 93.5t-26.5 93.5t-70.5 34.5q-45 0 -71.5 -34.5t-26.5 -93.5t26.5 -93.5t71.5 -34.5z" />
    <glyph glyph-name="oacute" unicode="&#xf3;" horiz-adv-x="601" 
d="M367 572h-131l69 161h195zM301 -10q-128 0 -197.5 74t-69.5 191t69.5 191t197.5 74q127 0 196.5 -74t69.5 -191t-69.5 -191t-196.5 -74zM301 127q44 0 70.5 34.5t26.5 93.5t-26.5 93.5t-70.5 34.5q-45 0 -71.5 -34.5t-26.5 -93.5t26.5 -93.5t71.5 -34.5z" />
    <glyph glyph-name="ocircumflex" unicode="&#xf4;" horiz-adv-x="601" 
d="M246 572h-146l129 161h143l128 -161h-150l-52 84zM301 -10q-128 0 -197.5 74t-69.5 191t69.5 191t197.5 74q127 0 196.5 -74t69.5 -191t-69.5 -191t-196.5 -74zM301 127q44 0 70.5 34.5t26.5 93.5t-26.5 93.5t-70.5 34.5q-45 0 -71.5 -34.5t-26.5 -93.5t26.5 -93.5
t71.5 -34.5z" />
    <glyph glyph-name="otilde" unicode="&#xf5;" horiz-adv-x="601" 
d="M213 567h-87v56q0 54 25.5 84.5t66.5 30.5q35 0 78 -29t59 -29q33 0 33 58h87v-58q0 -55 -24.5 -84t-66.5 -29q-36 0 -79 29t-59 29q-33 0 -33 -58zM301 -10q-128 0 -197.5 74t-69.5 191t69.5 191t197.5 74q127 0 196.5 -74t69.5 -191t-69.5 -191t-196.5 -74zM301 127
q44 0 70.5 34.5t26.5 93.5t-26.5 93.5t-70.5 34.5q-45 0 -71.5 -34.5t-26.5 -93.5t26.5 -93.5t71.5 -34.5z" />
    <glyph glyph-name="odieresis" unicode="&#xf6;" horiz-adv-x="601" 
d="M187 570q-38 0 -64.5 24.5t-26.5 61.5t26.5 62t64.5 25q39 0 65 -25t26 -62t-26 -61.5t-65 -24.5zM415 570q-38 0 -64.5 24.5t-26.5 61.5t26.5 62t64.5 25q39 0 65 -25t26 -62t-26 -61.5t-65 -24.5zM301 -10q-128 0 -197.5 74t-69.5 191t69.5 191t197.5 74
q127 0 196.5 -74t69.5 -191t-69.5 -191t-196.5 -74zM301 127q44 0 70.5 34.5t26.5 93.5t-26.5 93.5t-70.5 34.5q-45 0 -71.5 -34.5t-26.5 -93.5t26.5 -93.5t71.5 -34.5z" />
    <glyph glyph-name="divide" unicode="&#xf7;" 
d="M255 408q-37 0 -62.5 24t-25.5 59t25.5 59t62.5 24q36 0 61.5 -24t25.5 -59t-25.5 -59t-61.5 -24zM478 239h-447v123h447v-123zM255 27q-37 0 -62.5 24t-25.5 59t25.5 59t62.5 24q36 0 61.5 -24t25.5 -59t-25.5 -59t-61.5 -24z" />
    <glyph glyph-name="oslash" unicode="&#xf8;" horiz-adv-x="600" 
d="M509 539l-39 -69q96 -73 96 -215q0 -117 -69.5 -191t-196.5 -74q-53 0 -98 14l-39 -68l-72 35l40 69q-97 70 -97 215q0 117 69 191t197 74q52 0 97 -14l39 68zM300 395q-50 0 -79 -38t-29 -102q0 -51 18 -84l125 218q-15 6 -35 6zM300 115q50 0 79 38t29 102q0 49 -18 85
l-127 -219q18 -6 37 -6z" />
    <glyph glyph-name="ugrave" unicode="&#xf9;" horiz-adv-x="639" 
d="M383 572h-132l-132 161h194zM231 -10q-84 0 -130.5 53t-46.5 153v314h169v-272q0 -51 22 -77.5t63 -26.5q47 0 75 34.5t28 88.5v253h169v-238q0 -181 5 -272h-162l-11 81h-9q-65 -91 -172 -91z" />
    <glyph glyph-name="uacute" unicode="&#xfa;" horiz-adv-x="639" 
d="M383 572h-131l69 161h195zM231 -10q-84 0 -130.5 53t-46.5 153v314h169v-272q0 -51 22 -77.5t63 -26.5q47 0 75 34.5t28 88.5v253h169v-238q0 -181 5 -272h-162l-11 81h-9q-65 -91 -172 -91z" />
    <glyph glyph-name="ucircumflex" unicode="&#xfb;" horiz-adv-x="639" 
d="M263 572h-146l129 161h143l128 -161h-150l-52 84zM231 -10q-84 0 -130.5 53t-46.5 153v314h169v-272q0 -51 22 -77.5t63 -26.5q47 0 75 34.5t28 88.5v253h169v-238q0 -181 5 -272h-162l-11 81h-9q-65 -91 -172 -91z" />
    <glyph glyph-name="udieresis" unicode="&#xfc;" horiz-adv-x="639" 
d="M203 570q-38 0 -64.5 24.5t-26.5 61.5t26.5 62t64.5 25q39 0 65 -25t26 -62t-26 -61.5t-65 -24.5zM431 570q-38 0 -64.5 24.5t-26.5 61.5t26.5 62t64.5 25q39 0 65 -25t26 -62t-26 -61.5t-65 -24.5zM231 -10q-84 0 -130.5 53t-46.5 153v314h169v-272q0 -51 22 -77.5
t63 -26.5q47 0 75 34.5t28 88.5v253h169v-238q0 -181 5 -272h-162l-11 81h-9q-65 -91 -172 -91z" />
    <glyph glyph-name="yacute" unicode="&#xfd;" horiz-adv-x="584" 
d="M360 572h-131l69 161h195zM319 -200h-180l66 174l-192 536h174l103 -356h9l103 356h169z" />
    <glyph glyph-name="thorn" unicode="&#xfe;" horiz-adv-x="629" 
d="M228 -200h-169v900h169v-271h9q53 91 158 91q93 0 146.5 -70t53.5 -195t-53.5 -195t-146.5 -70q-105 0 -158 91h-9v-281zM327 127q45 0 72 34.5t27 93.5t-27 93.5t-72 34.5t-72 -34.5t-27 -93.5t27 -93.5t72 -34.5z" />
    <glyph glyph-name="ydieresis" unicode="&#xff;" horiz-adv-x="584" 
d="M180 570q-38 0 -64.5 24.5t-26.5 61.5t26.5 62t64.5 25q39 0 65 -25t26 -62t-26 -61.5t-65 -24.5zM408 570q-38 0 -64.5 24.5t-26.5 61.5t26.5 62t64.5 25q39 0 65 -25t26 -62t-26 -61.5t-65 -24.5zM319 -200h-180l66 174l-192 536h174l103 -356h9l103 356h169z" />
    <glyph glyph-name="Amacron" unicode="&#x100;" horiz-adv-x="725" 
d="M205 902h315v-114h-315v114zM711 0h-181l-40 133h-260l-40 -133h-177l235 700h228zM356 556l-87 -290h182l-87 290h-8z" />
    <glyph glyph-name="amacron" unicode="&#x101;" horiz-adv-x="595" 
d="M138 712h315v-114h-315v114zM538 334v-70q0 -175 5 -264h-153l-12 83h-9q-48 -93 -162 -93q-73 0 -118 41t-45 109q0 153 209 165l122 7v15q0 38 -23 56t-61 18q-78 0 -93 -68l-148 33q13 72 76.5 113t164.5 41q120 0 183.5 -49t63.5 -137zM270 111q44 0 74 30.5t31 83.5
l-81 -5q-46 -3 -67 -16.5t-21 -41.5q0 -24 16.5 -37.5t47.5 -13.5z" />
    <glyph glyph-name="Abreve" unicode="&#x102;" horiz-adv-x="725" 
d="M363 757q-80 0 -125.5 43.5t-45.5 122.5h103q0 -33 17.5 -53t50.5 -20t50.5 20t17.5 53h102q0 -79 -45 -122.5t-125 -43.5zM711 0h-181l-40 133h-260l-40 -133h-177l235 700h228zM356 556l-87 -290h182l-87 290h-8z" />
    <glyph glyph-name="abreve" unicode="&#x103;" horiz-adv-x="595" 
d="M296 567q-80 0 -125.5 43.5t-45.5 122.5h103q0 -33 17.5 -53t50.5 -20t50.5 20t17.5 53h102q0 -79 -45 -122.5t-125 -43.5zM538 334v-70q0 -175 5 -264h-153l-12 83h-9q-48 -93 -162 -93q-73 0 -118 41t-45 109q0 153 209 165l122 7v15q0 38 -23 56t-61 18q-78 0 -93 -68
l-148 33q13 72 76.5 113t164.5 41q120 0 183.5 -49t63.5 -137zM270 111q44 0 74 30.5t31 83.5l-81 -5q-46 -3 -67 -16.5t-21 -41.5q0 -24 16.5 -37.5t47.5 -13.5z" />
    <glyph glyph-name="Aogonek" unicode="&#x104;" horiz-adv-x="725" 
d="M711 0h-101q-76 -61 -76 -107q0 -37 42 -37q19 0 34 5v-97q-31 -7 -65 -7q-55 0 -89 26t-34 78q0 85 107 142l-39 130h-260l-40 -133h-177l235 700h228zM356 556l-87 -290h182l-87 290h-8z" />
    <glyph glyph-name="aogonek" unicode="&#x105;" horiz-adv-x="595" 
d="M543 0h-68q-76 -61 -76 -107q0 -37 42 -37q19 0 34 5v-97q-31 -7 -65 -7q-55 0 -89 26t-34 78q0 83 103 140l-12 82h-9q-48 -93 -162 -93q-73 0 -118 41t-45 109q0 153 209 165l122 7v15q0 38 -23 56t-61 18q-78 0 -93 -68l-148 33q13 72 76.5 113t164.5 41
q120 0 183.5 -49t63.5 -137v-70q0 -175 5 -264zM270 111q44 0 74 30.5t31 83.5l-81 -5q-46 -3 -67 -16.5t-21 -41.5q0 -24 16.5 -37.5t47.5 -13.5z" />
    <glyph glyph-name="Cacute" unicode="&#x106;" horiz-adv-x="733" 
d="M446 762h-131l69 161h195zM378 -10q-156 0 -247.5 99t-91.5 261t91.5 261t247.5 99q125 0 206 -58.5t109 -171.5l-170 -37q-16 61 -54 92.5t-91 31.5q-76 0 -121 -58t-45 -159t45 -159t121 -58q55 0 94 31.5t57 92.5l170 -37q-28 -114 -110.5 -172t-210.5 -58z" />
    <glyph glyph-name="cacute" unicode="&#x107;" horiz-adv-x="579" 
d="M364 572h-131l69 161h195zM300 -10q-128 0 -197 74t-69 191t69 191t197 74q95 0 157.5 -44.5t85.5 -129.5l-162 -37q-18 76 -83 76q-43 0 -69 -35t-26 -95t26 -95t69 -35q69 0 88 76l163 -37q-25 -84 -89.5 -129t-159.5 -45z" />
    <glyph glyph-name="Ccircumflex" unicode="&#x108;" horiz-adv-x="733" 
d="M325 762h-146l129 161h143l128 -161h-150l-52 84zM378 -10q-156 0 -247.5 99t-91.5 261t91.5 261t247.5 99q125 0 206 -58.5t109 -171.5l-170 -37q-16 61 -54 92.5t-91 31.5q-76 0 -121 -58t-45 -159t45 -159t121 -58q55 0 94 31.5t57 92.5l170 -37q-28 -114 -110.5 -172
t-210.5 -58z" />
    <glyph glyph-name="ccircumflex" unicode="&#x109;" horiz-adv-x="579" 
d="M244 572h-146l129 161h143l128 -161h-150l-52 84zM300 -10q-128 0 -197 74t-69 191t69 191t197 74q95 0 157.5 -44.5t85.5 -129.5l-162 -37q-18 76 -83 76q-43 0 -69 -35t-26 -95t26 -95t69 -35q69 0 88 76l163 -37q-25 -84 -89.5 -129t-159.5 -45z" />
    <glyph glyph-name="Cdotaccent" unicode="&#x10a;" horiz-adv-x="733" 
d="M379 755q-43 0 -72 27.5t-29 67.5t29 67.5t72 27.5t72.5 -27.5t29.5 -67.5t-29.5 -67.5t-72.5 -27.5zM378 -10q-156 0 -247.5 99t-91.5 261t91.5 261t247.5 99q125 0 206 -58.5t109 -171.5l-170 -37q-16 61 -54 92.5t-91 31.5q-76 0 -121 -58t-45 -159t45 -159t121 -58
q55 0 94 31.5t57 92.5l170 -37q-28 -114 -110.5 -172t-210.5 -58z" />
    <glyph glyph-name="cdotaccent" unicode="&#x10b;" horiz-adv-x="579" 
d="M298 565q-43 0 -72 27.5t-29 67.5t29 67.5t72 27.5t72.5 -27.5t29.5 -67.5t-29.5 -67.5t-72.5 -27.5zM300 -10q-128 0 -197 74t-69 191t69 191t197 74q95 0 157.5 -44.5t85.5 -129.5l-162 -37q-18 76 -83 76q-43 0 -69 -35t-26 -95t26 -95t69 -35q69 0 88 76l163 -37
q-25 -84 -89.5 -129t-159.5 -45z" />
    <glyph glyph-name="Ccaron" unicode="&#x10c;" horiz-adv-x="733" 
d="M451 762h-143l-129 161h150l53 -84l52 84h145zM378 -10q-156 0 -247.5 99t-91.5 261t91.5 261t247.5 99q125 0 206 -58.5t109 -171.5l-170 -37q-16 61 -54 92.5t-91 31.5q-76 0 -121 -58t-45 -159t45 -159t121 -58q55 0 94 31.5t57 92.5l170 -37q-28 -114 -110.5 -172
t-210.5 -58z" />
    <glyph glyph-name="ccaron" unicode="&#x10d;" horiz-adv-x="579" 
d="M370 572h-143l-129 161h150l53 -84l52 84h145zM300 -10q-128 0 -197 74t-69 191t69 191t197 74q95 0 157.5 -44.5t85.5 -129.5l-162 -37q-18 76 -83 76q-43 0 -69 -35t-26 -95t26 -95t69 -35q69 0 88 76l163 -37q-25 -84 -89.5 -129t-159.5 -45z" />
    <glyph glyph-name="Dcaron" unicode="&#x10e;" horiz-adv-x="728" 
d="M426 762h-143l-129 161h150l53 -84l52 84h145zM333 0h-267v700h267q165 0 260.5 -95.5t95.5 -254.5t-95.5 -254.5t-260.5 -95.5zM239 556v-412h94q85 0 134 55t49 151t-49 151t-134 55h-94z" />
    <glyph glyph-name="dcaron" unicode="&#x10f;" horiz-adv-x="743" 
d="M235 -10q-94 0 -147.5 70t-53.5 195q0 124 53.5 194.5t147.5 70.5q104 0 157 -91h9v271h169v-428q0 -181 5 -272h-162l-12 81h-9q-53 -91 -157 -91zM707 499h-88l9 201h131zM302 127q45 0 72 34.5t27 93.5t-27 93.5t-72 34.5t-72 -34.5t-27 -93.5t27 -93.5t72 -34.5z" />
    <glyph glyph-name="Dcroat" unicode="&#x110;" horiz-adv-x="773" 
d="M111 700h266q166 0 261.5 -95.5t95.5 -254.5t-95.5 -254.5t-261.5 -95.5h-266v302h-105v96h105v302zM284 144h93q86 0 135 54.5t49 151.5t-49 151.5t-135 54.5h-93v-158h157v-96h-157v-158z" />
    <glyph glyph-name="dcroat" unicode="&#x111;" horiz-adv-x="658" 
d="M662 639v-85h-92v-282q0 -181 5 -272h-162l-12 81h-9q-53 -91 -157 -91q-94 0 -147.5 70t-53.5 195q0 124 53.5 194.5t147.5 70.5q104 0 157 -91h9v125h-162v85h162v61h169v-61h92zM302 127q45 0 72 34.5t27 93.5t-27 93.5t-72 34.5t-72 -34.5t-27 -93.5t27 -93.5
t72 -34.5z" />
    <glyph glyph-name="Emacron" unicode="&#x112;" horiz-adv-x="635" 
d="M490 788h-315v114h315v-114zM588 0h-522v700h522v-141h-349v-136h309v-126h-309v-156h349v-141z" />
    <glyph glyph-name="emacron" unicode="&#x113;" horiz-adv-x="585" 
d="M141 712h315v-114h-315v114zM552 271q0 -34 -3 -58h-352q7 -54 35 -80.5t72 -26.5q63 0 91 63l150 -33q-60 -146 -244 -146q-127 0 -197 74t-70 191t69.5 191t195.5 74q117 0 185 -70.5t68 -178.5zM299 404q-82 0 -101 -97h196q-13 97 -95 97z" />
    <glyph glyph-name="Ebreve" unicode="&#x114;" horiz-adv-x="635" 
d="M333 757q-80 0 -125.5 43.5t-45.5 122.5h103q0 -33 17.5 -53t50.5 -20t50.5 20t17.5 53h102q0 -79 -45 -122.5t-125 -43.5zM588 0h-522v700h522v-141h-349v-136h309v-126h-309v-156h349v-141z" />
    <glyph glyph-name="ebreve" unicode="&#x115;" horiz-adv-x="585" 
d="M299 567q-80 0 -125.5 43.5t-45.5 122.5h103q0 -33 17.5 -53t50.5 -20t50.5 20t17.5 53h102q0 -79 -45 -122.5t-125 -43.5zM552 271q0 -34 -3 -58h-352q7 -54 35 -80.5t72 -26.5q63 0 91 63l150 -33q-60 -146 -244 -146q-127 0 -197 74t-70 191t69.5 191t195.5 74
q117 0 185 -70.5t68 -178.5zM299 404q-82 0 -101 -97h196q-13 97 -95 97z" />
    <glyph glyph-name="Edotaccent" unicode="&#x116;" horiz-adv-x="635" 
d="M332 755q-43 0 -72 27.5t-29 67.5t29 67.5t72 27.5t72.5 -27.5t29.5 -67.5t-29.5 -67.5t-72.5 -27.5zM588 0h-522v700h522v-141h-349v-136h309v-126h-309v-156h349v-141z" />
    <glyph glyph-name="edotaccent" unicode="&#x117;" horiz-adv-x="585" 
d="M298 565q-43 0 -72 27.5t-29 67.5t29 67.5t72 27.5t72.5 -27.5t29.5 -67.5t-29.5 -67.5t-72.5 -27.5zM552 271q0 -34 -3 -58h-352q7 -54 35 -80.5t72 -26.5q63 0 91 63l150 -33q-60 -146 -244 -146q-127 0 -197 74t-70 191t69.5 191t195.5 74q117 0 185 -70.5t68 -178.5z
M299 404q-82 0 -101 -97h196q-13 97 -95 97z" />
    <glyph glyph-name="Eogonek" unicode="&#x118;" horiz-adv-x="635" 
d="M588 700v-141h-349v-136h309v-126h-309v-156h349v-141q-76 -61 -76 -107q0 -37 42 -37q19 0 34 5v-97q-31 -7 -65 -7q-55 0 -89 26t-34 78q0 83 101 139h-435v700h522z" />
    <glyph glyph-name="eogonek" unicode="&#x119;" horiz-adv-x="585" 
d="M552 271q0 -34 -3 -58h-352q7 -54 35 -80.5t72 -26.5q63 0 91 63l150 -33q-46 -111 -161 -137q-74 -61 -74 -106q0 -37 42 -37q19 0 34 5v-97q-31 -7 -65 -7q-55 0 -89 26t-34 78q0 76 85 129q-119 6 -184 79t-65 186q0 117 69.5 191t195.5 74q117 0 185 -70.5t68 -178.5
zM299 404q-82 0 -101 -97h196q-13 97 -95 97z" />
    <glyph glyph-name="Ecaron" unicode="&#x11a;" horiz-adv-x="635" 
d="M404 762h-143l-129 161h150l53 -84l52 84h145zM588 0h-522v700h522v-141h-349v-136h309v-126h-309v-156h349v-141z" />
    <glyph glyph-name="ecaron" unicode="&#x11b;" horiz-adv-x="585" 
d="M498 733l-128 -161h-143l-129 161h150l53 -84l52 84h145zM552 271q0 -34 -3 -58h-352q7 -54 35 -80.5t72 -26.5q63 0 91 63l150 -33q-60 -146 -244 -146q-127 0 -197 74t-70 191t69.5 191t195.5 74q117 0 185 -70.5t68 -178.5zM299 404q-82 0 -101 -97h196q-13 97 -95 97
z" />
    <glyph glyph-name="Gcircumflex" unicode="&#x11c;" horiz-adv-x="749" 
d="M325 762h-146l129 161h143l128 -161h-150l-52 84zM392 -10q-164 0 -258.5 98.5t-94.5 261.5q0 162 92 261t250 99q254 0 314 -207l-171 -38q-34 105 -143 105q-76 0 -122.5 -59t-46.5 -161q0 -104 48.5 -162t135.5 -58q74 0 125 42v104l-131 6v103h297v-275
q-107 -120 -295 -120z" />
    <glyph glyph-name="gcircumflex" unicode="&#x11d;" horiz-adv-x="629" 
d="M248 572h-146l129 161h143l128 -161h-150l-52 84zM309 -210q-103 0 -171.5 38t-87.5 109l154 35q21 -62 103 -62q94 0 94 97v102h-9q-53 -91 -158 -91q-92 0 -146 65.5t-54 181.5q0 120 54 187.5t146 67.5q105 0 158 -91h9l12 81h162q-5 -91 -5 -270v-236
q0 -99 -65.5 -156.5t-195.5 -57.5zM302 147q45 0 72 32.5t27 85.5q0 54 -27 86t-72 32t-72 -32t-27 -86t27 -86t72 -32z" />
    <glyph glyph-name="Gbreve" unicode="&#x11e;" horiz-adv-x="749" 
d="M380 757q-80 0 -125.5 43.5t-45.5 122.5h103q0 -33 17.5 -53t50.5 -20t50.5 20t17.5 53h102q0 -79 -45 -122.5t-125 -43.5zM392 -10q-164 0 -258.5 98.5t-94.5 261.5q0 162 92 261t250 99q254 0 314 -207l-171 -38q-34 105 -143 105q-76 0 -122.5 -59t-46.5 -161
q0 -104 48.5 -162t135.5 -58q74 0 125 42v104l-131 6v103h297v-275q-107 -120 -295 -120z" />
    <glyph glyph-name="gbreve" unicode="&#x11f;" horiz-adv-x="629" 
d="M303 567q-80 0 -125.5 43.5t-45.5 122.5h103q0 -33 17.5 -53t50.5 -20t50.5 20t17.5 53h102q0 -79 -45 -122.5t-125 -43.5zM309 -210q-103 0 -171.5 38t-87.5 109l154 35q21 -62 103 -62q94 0 94 97v102h-9q-53 -91 -158 -91q-92 0 -146 65.5t-54 181.5q0 120 54 187.5
t146 67.5q105 0 158 -91h9l12 81h162q-5 -91 -5 -270v-236q0 -99 -65.5 -156.5t-195.5 -57.5zM302 147q45 0 72 32.5t27 85.5q0 54 -27 86t-72 32t-72 -32t-27 -86t27 -86t72 -32z" />
    <glyph glyph-name="Gdotaccent" unicode="&#x120;" horiz-adv-x="749" 
d="M379 755q-43 0 -72 27.5t-29 67.5t29 67.5t72 27.5t72.5 -27.5t29.5 -67.5t-29.5 -67.5t-72.5 -27.5zM392 -10q-164 0 -258.5 98.5t-94.5 261.5q0 162 92 261t250 99q254 0 314 -207l-171 -38q-34 105 -143 105q-76 0 -122.5 -59t-46.5 -161q0 -104 48.5 -162t135.5 -58
q74 0 125 42v104l-131 6v103h297v-275q-107 -120 -295 -120z" />
    <glyph glyph-name="gdotaccent" unicode="&#x121;" horiz-adv-x="629" 
d="M302 565q-43 0 -72 27.5t-29 67.5t29 67.5t72 27.5t72.5 -27.5t29.5 -67.5t-29.5 -67.5t-72.5 -27.5zM309 -210q-103 0 -171.5 38t-87.5 109l154 35q21 -62 103 -62q94 0 94 97v102h-9q-53 -91 -158 -91q-92 0 -146 65.5t-54 181.5q0 120 54 187.5t146 67.5
q105 0 158 -91h9l12 81h162q-5 -91 -5 -270v-236q0 -99 -65.5 -156.5t-195.5 -57.5zM302 147q45 0 72 32.5t27 85.5q0 54 -27 86t-72 32t-72 -32t-27 -86t27 -86t72 -32z" />
    <glyph glyph-name="uni0122" unicode="&#x122;" horiz-adv-x="749" 
d="M392 -10q-164 0 -258.5 98.5t-94.5 261.5q0 162 92 261t250 99q254 0 314 -207l-171 -38q-34 105 -143 105q-76 0 -122.5 -59t-46.5 -161q0 -104 48.5 -162t135.5 -58q74 0 125 42v104l-131 6v103h297v-275q-107 -120 -295 -120zM400 -205h-121l32 159h158z" />
    <glyph glyph-name="uni0123" unicode="&#x123;" horiz-adv-x="629" 
d="M380 572h-157l69 161h121zM309 -210q-103 0 -171.5 38t-87.5 109l154 35q21 -62 103 -62q94 0 94 97v102h-9q-53 -91 -158 -91q-92 0 -146 65.5t-54 181.5q0 120 54 187.5t146 67.5q105 0 158 -91h9l12 81h162q-5 -91 -5 -270v-236q0 -99 -65.5 -156.5t-195.5 -57.5z
M302 147q45 0 72 32.5t27 85.5q0 54 -27 86t-72 32t-72 -32t-27 -86t27 -86t72 -32z" />
    <glyph glyph-name="Hcircumflex" unicode="&#x124;" horiz-adv-x="753" 
d="M323 762h-146l129 161h143l128 -161h-150l-52 84zM239 0h-173v700h173v-271h275v271h173v-700h-173v281h-275v-281z" />
    <glyph glyph-name="hcircumflex" unicode="&#x125;" horiz-adv-x="639" 
d="M193 762l-52 84l-52 -84h-146l129 161h143l128 -161h-150zM408 520q84 0 130.5 -53t46.5 -153v-314h-169v272q0 51 -22 77.5t-63 26.5q-47 0 -75 -34.5t-28 -89.5v-252h-169v700h169v-152l-5 -119h14q63 91 171 91z" />
    <glyph glyph-name="Hbar" unicode="&#x126;" horiz-adv-x="823" 
d="M274 0h-173v523h-94v93h94v84h173v-84h275v84h173v-84h93v-93h-93v-523h-173v281h-275v-281zM274 523v-94h275v94h-275z" />
    <glyph glyph-name="hbar" unicode="&#x127;" horiz-adv-x="668" 
d="M438 520q84 0 130.5 -53t46.5 -153v-314h-170v272q0 104 -85 104q-47 0 -75 -34.5t-28 -89.5v-252h-169v554h-92v85h92v61h169v-61h162v-85h-162v-6l-5 -119h15q63 91 171 91z" />
    <glyph glyph-name="Itilde" unicode="&#x128;" horiz-adv-x="306" 
d="M65 757h-87v56q0 54 25.5 84.5t66.5 30.5q35 0 78 -29t59 -29q33 0 33 58h87v-58q0 -55 -24.5 -84t-66.5 -29q-36 0 -79 29t-59 29q-33 0 -33 -58zM239 0h-173v700h173v-700z" />
    <glyph glyph-name="itilde" unicode="&#x129;" horiz-adv-x="287" 
d="M56 567h-87v56q0 54 25.5 84.5t66.5 30.5q35 0 78 -29t59 -29q33 0 33 58h87v-58q0 -55 -24.5 -84t-66.5 -29q-36 0 -79 29t-59 29q-33 0 -33 -58zM228 0h-169v510h169v-510z" />
    <glyph glyph-name="Imacron" unicode="&#x12a;" horiz-adv-x="306" 
d="M310 788h-315v114h315v-114zM239 0h-173v700h173v-700z" />
    <glyph glyph-name="imacron" unicode="&#x12b;" horiz-adv-x="287" 
d="M301 598h-315v114h315v-114zM228 0h-169v510h169v-510z" />
    <glyph glyph-name="Ibreve" unicode="&#x12c;" horiz-adv-x="306" 
d="M153 757q-80 0 -125.5 43.5t-45.5 122.5h103q0 -33 17.5 -53t50.5 -20t50.5 20t17.5 53h102q0 -79 -45 -122.5t-125 -43.5zM239 0h-173v700h173v-700z" />
    <glyph glyph-name="ibreve" unicode="&#x12d;" horiz-adv-x="287" 
d="M144 567q-80 0 -125.5 43.5t-45.5 122.5h103q0 -33 17.5 -53t50.5 -20t50.5 20t17.5 53h102q0 -79 -45 -122.5t-125 -43.5zM228 0h-169v510h169v-510z" />
    <glyph glyph-name="Iogonek" unicode="&#x12e;" horiz-adv-x="306" 
d="M239 700v-700q-76 -61 -76 -107q0 -37 42 -37q19 0 34 5v-97q-31 -7 -65 -7q-55 0 -89 26t-34 78q0 83 101 139h-86v700h173z" />
    <glyph glyph-name="iogonek" unicode="&#x12f;" horiz-adv-x="287" 
d="M143 565q-43 0 -72 27.5t-29 67.5t29 67.5t72 27.5t72.5 -27.5t29.5 -67.5t-29.5 -67.5t-72.5 -27.5zM141 0h-82v510h169v-510q-76 -61 -76 -107q0 -37 42 -37q19 0 34 5v-97q-31 -7 -65 -7q-55 0 -89 26t-34 78q0 83 101 139z" />
    <glyph glyph-name="Idotaccent" unicode="&#x130;" horiz-adv-x="306" 
d="M153 755q-43 0 -72 27.5t-29 67.5t29 67.5t72 27.5t72.5 -27.5t29.5 -67.5t-29.5 -67.5t-72.5 -27.5zM239 0h-173v700h173v-700z" />
    <glyph glyph-name="dotlessi" unicode="&#x131;" horiz-adv-x="287" 
d="M228 0h-169v510h169v-510z" />
    <glyph glyph-name="IJ" unicode="&#x132;" horiz-adv-x="800" 
d="M239 0h-173v700h173v-700zM466 0h-130v140h113q111 0 111 113v447h173v-451q0 -120 -69 -184.5t-198 -64.5z" />
    <glyph glyph-name="ij" unicode="&#x133;" horiz-adv-x="600" 
d="M143 565q-43 0 -72 27.5t-29 67.5t29 67.5t72 27.5t72.5 -27.5t29.5 -67.5t-29.5 -67.5t-72.5 -27.5zM457 565q-43 0 -72 27.5t-29 67.5t29 67.5t72 27.5t72.5 -27.5t29.5 -67.5t-29.5 -67.5t-72.5 -27.5zM228 0h-169v510h169v-510zM358 -210q-82 0 -139 29l39 123
q25 -14 55 -14q59 0 59 64v518h169v-527q0 -94 -46.5 -143.5t-136.5 -49.5z" />
    <glyph glyph-name="Jcircumflex" unicode="&#x134;" horiz-adv-x="638" 
d="M430 762h-146l129 161h143l128 -161h-150l-52 84zM294 -10q-99 0 -177 45.5t-101 140.5l164 36q23 -82 114 -82q49 0 76.5 28.5t27.5 83.5v458h174v-465q0 -114 -72 -179.5t-206 -65.5z" />
    <glyph glyph-name="jcircumflex" unicode="&#x135;" horiz-adv-x="328" 
d="M131 572h-146l129 161h143l128 -161h-150l-52 84zM86 -210q-82 0 -139 29l39 123q25 -14 55 -14q59 0 59 64v518h169v-527q0 -94 -46.5 -143.5t-136.5 -49.5z" />
    <glyph glyph-name="uni0136" unicode="&#x136;" horiz-adv-x="690" 
d="M239 0h-173v700h173v-339l229 339h196l-247 -340l257 -360h-203l-232 345v-345zM363 -205h-121l32 159h158z" />
    <glyph glyph-name="uni0137" unicode="&#x137;" horiz-adv-x="602" 
d="M228 0h-169v700h169v-431l158 241h191l-177 -244l186 -266h-198l-160 253v-253zM315 -205h-121l32 159h158z" />
    <glyph glyph-name="kgreenlandic" unicode="&#x138;" horiz-adv-x="602" 
d="M228 0h-169v510h169v-241l158 241h191l-177 -244l186 -266h-198l-160 253v-253z" />
    <glyph glyph-name="Lacute" unicode="&#x139;" horiz-adv-x="586" 
d="M219 762h-131l69 161h195zM560 0h-494v700h173v-548h321v-152z" />
    <glyph glyph-name="lacute" unicode="&#x13a;" horiz-adv-x="287" 
d="M210 762h-131l69 161h195zM228 0h-169v700h169v-700z" />
    <glyph glyph-name="uni013B" unicode="&#x13b;" horiz-adv-x="586" 
d="M560 0h-494v700h173v-548h321v-152zM335 -205h-121l32 159h158z" />
    <glyph glyph-name="uni013C" unicode="&#x13c;" horiz-adv-x="287" 
d="M228 0h-169v700h169v-700zM153 -205h-121l32 159h158z" />
    <glyph glyph-name="Lcaron" unicode="&#x13d;" horiz-adv-x="586" 
d="M560 0h-494v700h173v-548h321v-152zM377 499h-89l9 201h132z" />
    <glyph glyph-name="lcaron" unicode="&#x13e;" horiz-adv-x="401" 
d="M228 0h-169v700h169v-700zM365 499h-89l9 201h132z" />
    <glyph glyph-name="Ldot" unicode="&#x13f;" horiz-adv-x="586" 
d="M560 0h-494v700h173v-548h321v-152zM446 297q-40 0 -68 26t-28 66q0 39 28 64.5t68 25.5t68 -25.5t28 -64.5q0 -41 -27.5 -66.5t-68.5 -25.5z" />
    <glyph glyph-name="ldot" unicode="&#x140;" horiz-adv-x="453" 
d="M228 0h-169v700h169v-700zM370 229q-41 0 -68.5 25.5t-27.5 66.5q0 39 28 64.5t68 25.5t68 -25.5t28 -64.5q0 -41 -27.5 -66.5t-68.5 -25.5z" />
    <glyph glyph-name="Lslash" unicode="&#x141;" horiz-adv-x="655" 
d="M629 0h-508v221l-104 -55v124l104 55v355h173v-263l178 95v-123l-178 -95v-162h335v-152z" />
    <glyph glyph-name="lslash" unicode="&#x142;" horiz-adv-x="379" 
d="M274 0h-169v226l-88 -46v117l88 47v356h169v-265l88 46v-118l-88 -46v-317z" />
    <glyph glyph-name="Nacute" unicode="&#x143;" horiz-adv-x="765" 
d="M449 762h-131l69 161h195zM236 0h-170v700h183l276 -446h9q-5 81 -5 181v265h169v-700h-183l-275 446h-9q5 -81 5 -181v-265z" />
    <glyph glyph-name="nacute" unicode="&#x144;" horiz-adv-x="639" 
d="M388 572h-131l69 161h195zM228 0h-169v238q0 181 -5 272h162l11 -81h9q65 91 172 91q84 0 130.5 -53t46.5 -153v-314h-169v272q0 51 -22 77.5t-63 26.5q-47 0 -75 -34.5t-28 -88.5v-253z" />
    <glyph glyph-name="uni0145" unicode="&#x145;" horiz-adv-x="765" 
d="M236 0h-170v700h183l276 -446h9q-5 81 -5 181v265h169v-700h-183l-275 446h-9q5 -81 5 -181v-265zM392 -205h-121l32 159h158z" />
    <glyph glyph-name="uni0146" unicode="&#x146;" horiz-adv-x="639" 
d="M228 0h-169v238q0 181 -5 272h162l11 -81h9q65 91 172 91q84 0 130.5 -53t46.5 -153v-314h-169v272q0 51 -22 77.5t-63 26.5q-47 0 -75 -34.5t-28 -88.5v-253zM331 -205h-121l32 159h158z" />
    <glyph glyph-name="Ncaron" unicode="&#x147;" horiz-adv-x="765" 
d="M454 762h-143l-129 161h150l53 -84l52 84h145zM236 0h-170v700h183l276 -446h9q-5 81 -5 181v265h169v-700h-183l-275 446h-9q5 -81 5 -181v-265z" />
    <glyph glyph-name="ncaron" unicode="&#x148;" horiz-adv-x="639" 
d="M394 572h-143l-129 161h150l53 -84l52 84h145zM228 0h-169v238q0 181 -5 272h162l11 -81h9q65 91 172 91q84 0 130.5 -53t46.5 -153v-314h-169v272q0 51 -22 77.5t-63 26.5q-47 0 -75 -34.5t-28 -88.5v-253z" />
    <glyph glyph-name="napostrophe" unicode="&#x149;" horiz-adv-x="639" 
d="M148 566h-89l9 202h132zM228 0h-169v238q0 181 -5 272h162l11 -81h9q65 91 172 91q84 0 130.5 -53t46.5 -153v-314h-169v272q0 51 -22 77.5t-63 26.5q-47 0 -75 -34.5t-28 -88.5v-253z" />
    <glyph glyph-name="Eng" unicode="&#x14a;" horiz-adv-x="765" 
d="M520 -210q-81 0 -136 29l36 114q25 -12 56 -12q60 0 60 56v15l-296 463h-9q5 -81 5 -181v-274h-170v700h183l276 -429h9q-5 81 -5 182v247h169v-717q0 -93 -45.5 -143t-132.5 -50z" />
    <glyph glyph-name="eng" unicode="&#x14b;" horiz-adv-x="639" 
d="M402 -210q-81 0 -138 29l38 123q25 -14 55 -14q59 0 59 64v280q0 51 -22 77.5t-63 26.5q-47 0 -75 -34.5t-28 -89.5v-252h-169v238q0 181 -5 272h162l11 -81h9q65 91 172 91q84 0 130.5 -53t46.5 -153v-331q0 -94 -46.5 -143.5t-136.5 -49.5z" />
    <glyph glyph-name="Omacron" unicode="&#x14c;" horiz-adv-x="759" 
d="M537 788h-315v114h315v-114zM380 -10q-157 0 -249 99t-92 261t92 261t249 99q156 0 248 -98.5t92 -261.5t-92 -261.5t-248 -98.5zM380 134q77 0 122 57.5t45 158.5t-45 158.5t-122 57.5t-122.5 -57.5t-45.5 -158.5t45.5 -158.5t122.5 -57.5z" />
    <glyph glyph-name="omacron" unicode="&#x14d;" horiz-adv-x="601" 
d="M458 598h-315v114h315v-114zM301 -10q-128 0 -197.5 74t-69.5 191t69.5 191t197.5 74q127 0 196.5 -74t69.5 -191t-69.5 -191t-196.5 -74zM301 127q44 0 70.5 34.5t26.5 93.5t-26.5 93.5t-70.5 34.5q-45 0 -71.5 -34.5t-26.5 -93.5t26.5 -93.5t71.5 -34.5z" />
    <glyph glyph-name="Obreve" unicode="&#x14e;" horiz-adv-x="759" 
d="M380 757q-80 0 -125.5 43.5t-45.5 122.5h103q0 -33 17.5 -53t50.5 -20t50.5 20t17.5 53h102q0 -79 -45 -122.5t-125 -43.5zM380 -10q-157 0 -249 99t-92 261t92 261t249 99q156 0 248 -98.5t92 -261.5t-92 -261.5t-248 -98.5zM380 134q77 0 122 57.5t45 158.5t-45 158.5
t-122 57.5t-122.5 -57.5t-45.5 -158.5t45.5 -158.5t122.5 -57.5z" />
    <glyph glyph-name="obreve" unicode="&#x14f;" horiz-adv-x="601" 
d="M301 567q-80 0 -125.5 43.5t-45.5 122.5h103q0 -33 17.5 -53t50.5 -20t50.5 20t17.5 53h102q0 -79 -45 -122.5t-125 -43.5zM301 -10q-128 0 -197.5 74t-69.5 191t69.5 191t197.5 74q127 0 196.5 -74t69.5 -191t-69.5 -191t-196.5 -74zM301 127q44 0 70.5 34.5t26.5 93.5
t-26.5 93.5t-70.5 34.5q-45 0 -71.5 -34.5t-26.5 -93.5t26.5 -93.5t71.5 -34.5z" />
    <glyph glyph-name="Ohungarumlaut" unicode="&#x150;" horiz-adv-x="759" 
d="M336 762h-114l68 161h167zM537 762h-114l67 161h168zM380 -10q-157 0 -249 99t-92 261t92 261t249 99q156 0 248 -98.5t92 -261.5t-92 -261.5t-248 -98.5zM380 134q77 0 122 57.5t45 158.5t-45 158.5t-122 57.5t-122.5 -57.5t-45.5 -158.5t45.5 -158.5t122.5 -57.5z" />
    <glyph glyph-name="ohungarumlaut" unicode="&#x151;" horiz-adv-x="601" 
d="M257 572h-114l68 161h167zM458 572h-114l67 161h168zM301 -10q-128 0 -197.5 74t-69.5 191t69.5 191t197.5 74q127 0 196.5 -74t69.5 -191t-69.5 -191t-196.5 -74zM301 127q44 0 70.5 34.5t26.5 93.5t-26.5 93.5t-70.5 34.5q-45 0 -71.5 -34.5t-26.5 -93.5t26.5 -93.5
t71.5 -34.5z" />
    <glyph glyph-name="OE" unicode="&#x152;" horiz-adv-x="989" 
d="M942 0h-557q-160 0 -253 96t-93 254t93 254t253 96h557v-141h-297v-137h257v-124h-257v-157h297v-141zM392 141h84v418h-84q-82 0 -130 -56t-48 -153t48 -153t130 -56z" />
    <glyph glyph-name="oe" unicode="&#x153;" horiz-adv-x="925" 
d="M892 270q0 -32 -3 -57h-335q7 -54 32.5 -80.5t64.5 -26.5q59 0 86 64l148 -33q-57 -147 -218 -147q-132 0 -196 85q-64 -85 -184 -85q-122 0 -187.5 74t-65.5 191t65.5 191t187.5 74q118 0 184 -84q65 84 184 84q115 0 176 -70t61 -180zM555 307h178q-4 47 -26.5 72
t-58.5 25q-35 0 -59.5 -24.5t-33.5 -72.5zM295 124q43 0 67.5 35.5t24.5 95.5t-24.5 95.5t-67.5 35.5t-67.5 -35.5t-24.5 -95.5t24.5 -95.5t67.5 -35.5z" />
    <glyph glyph-name="Racute" unicode="&#x154;" horiz-adv-x="678" 
d="M400 762h-131l69 161h195zM239 0h-173v700h304q122 0 191.5 -61t69.5 -171q0 -70 -32 -120.5t-91 -76.5l144 -271h-193l-114 244h-106v-244zM239 563v-189h115q48 0 76 25t28 69q0 45 -28 70t-76 25h-115z" />
    <glyph glyph-name="racute" unicode="&#x155;" horiz-adv-x="432" 
d="M258 733h195l-133 -161h-131zM231 402h12q38 118 140 118q19 0 31 -1v-169q-16 2 -39 2q-65 0 -106 -39t-41 -126v-187h-169v238q0 181 -5 272h162z" />
    <glyph glyph-name="uni0156" unicode="&#x156;" horiz-adv-x="678" 
d="M239 0h-173v700h304q122 0 191.5 -61t69.5 -171q0 -70 -32 -120.5t-91 -76.5l144 -271h-193l-114 244h-106v-244zM239 563v-189h115q48 0 76 25t28 69q0 45 -28 70t-76 25h-115zM358 -205h-121l32 159h158z" />
    <glyph glyph-name="uni0157" unicode="&#x157;" horiz-adv-x="432" 
d="M383 520q19 0 31 -1v-169q-16 2 -39 2q-65 0 -106 -39t-41 -126v-187h-169v238q0 181 -5 272h162l15 -108h12q38 118 140 118zM192 -205h-121l32 159h158z" />
    <glyph glyph-name="Rcaron" unicode="&#x158;" horiz-adv-x="678" 
d="M406 762h-143l-129 161h150l53 -84l52 84h145zM239 0h-173v700h304q122 0 191.5 -61t69.5 -171q0 -70 -32 -120.5t-91 -76.5l144 -271h-193l-114 244h-106v-244zM239 563v-189h115q48 0 76 25t28 69q0 45 -28 70t-76 25h-115z" />
    <glyph glyph-name="rcaron" unicode="&#x159;" horiz-adv-x="432" 
d="M453 733l-128 -161h-143l-129 161h150l53 -84l52 84h145zM231 402h12q38 118 140 118q19 0 31 -1v-169q-16 2 -39 2q-65 0 -106 -39t-41 -126v-187h-169v238q0 181 -5 272h162z" />
    <glyph glyph-name="Sacute" unicode="&#x15a;" horiz-adv-x="661" 
d="M390 762h-131l69 161h195zM344 -10q-113 0 -197 46.5t-108 137.5l163 36q33 -90 142 -90q50 0 78 19.5t28 53.5q0 36 -41 56t-99 33t-116 33t-99 69.5t-41 128.5q0 86 72.5 141.5t197.5 55.5q111 0 184.5 -43.5t99.5 -130.5l-166 -36q-26 80 -117 80q-43 0 -69 -18.5
t-26 -48.5t29.5 -49.5t73 -28.5t95 -25t95 -37t73 -68t29.5 -115q0 -90 -74 -145t-207 -55z" />
    <glyph glyph-name="sacute" unicode="&#x15b;" horiz-adv-x="538" 
d="M332 572h-131l69 161h195zM280 -10q-99 0 -163 34t-83 101l146 32q18 -63 97 -63q31 0 48.5 13t17.5 34q0 20 -22 32.5t-55 18.5t-71.5 17.5t-71.5 27.5t-55 51t-22 85q0 65 58 106t159 41q90 0 149.5 -31.5t77.5 -94.5l-147 -33q-15 55 -77 55q-27 0 -43 -11.5
t-16 -30.5q0 -23 30.5 -36t74.5 -22t87.5 -24t74 -53t30.5 -97q0 -68 -59.5 -110t-164.5 -42z" />
    <glyph glyph-name="Scircumflex" unicode="&#x15c;" horiz-adv-x="661" 
d="M269 762h-146l129 161h143l128 -161h-150l-52 84zM344 -10q-113 0 -197 46.5t-108 137.5l163 36q33 -90 142 -90q50 0 78 19.5t28 53.5q0 36 -41 56t-99 33t-116 33t-99 69.5t-41 128.5q0 86 72.5 141.5t197.5 55.5q111 0 184.5 -43.5t99.5 -130.5l-166 -36
q-26 80 -117 80q-43 0 -69 -18.5t-26 -48.5t29.5 -49.5t73 -28.5t95 -25t95 -37t73 -68t29.5 -115q0 -90 -74 -145t-207 -55z" />
    <glyph glyph-name="scircumflex" unicode="&#x15d;" horiz-adv-x="538" 
d="M211 572h-146l129 161h143l128 -161h-150l-52 84zM280 -10q-99 0 -163 34t-83 101l146 32q18 -63 97 -63q31 0 48.5 13t17.5 34q0 20 -22 32.5t-55 18.5t-71.5 17.5t-71.5 27.5t-55 51t-22 85q0 65 58 106t159 41q90 0 149.5 -31.5t77.5 -94.5l-147 -33q-15 55 -77 55
q-27 0 -43 -11.5t-16 -30.5q0 -23 30.5 -36t74.5 -22t87.5 -24t74 -53t30.5 -97q0 -68 -59.5 -110t-164.5 -42z" />
    <glyph glyph-name="Scedilla" unicode="&#x15e;" horiz-adv-x="661" 
d="M625 190q0 -83 -64 -137t-180 -62l-9 -28q50 0 81 -26.5t31 -74.5q0 -49 -38 -80t-106 -31q-77 0 -137 43l45 71q41 -31 86 -31q46 0 46 30t-41 30q-22 0 -40 -7l-21 31l25 74q-99 8 -170.5 53.5t-93.5 128.5l163 36q33 -90 142 -90q50 0 78 19.5t28 53.5q0 36 -41 56
t-99 33t-116 33t-99 69.5t-41 128.5q0 86 72.5 141.5t197.5 55.5q111 0 184.5 -43.5t99.5 -130.5l-166 -36q-26 80 -117 80q-43 0 -69 -18.5t-26 -48.5t29.5 -49.5t73 -28.5t95 -25t95 -37t73 -68t29.5 -115z" />
    <glyph glyph-name="scedilla" unicode="&#x15f;" horiz-adv-x="538" 
d="M504 142q0 -62 -49 -102.5t-138 -47.5l-9 -29q50 0 81 -26.5t31 -74.5q0 -49 -38 -80t-106 -31q-77 0 -137 43l45 71q41 -31 86 -31q46 0 46 30t-41 30q-22 0 -40 -7l-21 31l25 74q-171 13 -205 133l146 32q18 -63 97 -63q31 0 48.5 13t17.5 34q0 20 -22 32.5t-55 18.5
t-71.5 17.5t-71.5 27.5t-55 51t-22 85q0 65 58 106t159 41q90 0 149.5 -31.5t77.5 -94.5l-147 -33q-15 55 -77 55q-27 0 -43 -11.5t-16 -30.5q0 -23 30.5 -36t74.5 -22t87.5 -24t74 -53t30.5 -97z" />
    <glyph glyph-name="Scaron" unicode="&#x160;" horiz-adv-x="661" 
d="M395 762h-143l-129 161h150l53 -84l52 84h145zM344 -10q-113 0 -197 46.5t-108 137.5l163 36q33 -90 142 -90q50 0 78 19.5t28 53.5q0 36 -41 56t-99 33t-116 33t-99 69.5t-41 128.5q0 86 72.5 141.5t197.5 55.5q111 0 184.5 -43.5t99.5 -130.5l-166 -36q-26 80 -117 80
q-43 0 -69 -18.5t-26 -48.5t29.5 -49.5t73 -28.5t95 -25t95 -37t73 -68t29.5 -115q0 -90 -74 -145t-207 -55z" />
    <glyph glyph-name="scaron" unicode="&#x161;" horiz-adv-x="538" 
d="M337 572h-143l-129 161h150l53 -84l52 84h145zM280 -10q-99 0 -163 34t-83 101l146 32q18 -63 97 -63q31 0 48.5 13t17.5 34q0 20 -22 32.5t-55 18.5t-71.5 17.5t-71.5 27.5t-55 51t-22 85q0 65 58 106t159 41q90 0 149.5 -31.5t77.5 -94.5l-147 -33q-15 55 -77 55
q-27 0 -43 -11.5t-16 -30.5q0 -23 30.5 -36t74.5 -22t87.5 -24t74 -53t30.5 -97q0 -68 -59.5 -110t-164.5 -42z" />
    <glyph glyph-name="uni0162" unicode="&#x162;" horiz-adv-x="638" 
d="M405 548v-548h-44l-12 -37q50 0 81 -26.5t31 -74.5q0 -49 -38 -80t-106 -31q-77 0 -137 43l45 71q41 -31 86 -31q46 0 46 30t-41 30q-22 0 -40 -7l-21 31l28 82h-51v548h-213v152h600v-152h-214z" />
    <glyph glyph-name="uni0163" unicode="&#x163;" horiz-adv-x="465" 
d="M330 -37q50 0 81 -26.5t31 -74.5q0 -49 -38 -80t-106 -31q-77 0 -137 43l45 71q41 -31 86 -31q46 0 46 30t-41 30q-22 0 -40 -7l-21 31l26 75q-143 20 -143 184v201h-97v132h104l23 148h139v-148h128v-132h-128v-191q0 -62 56 -62q27 0 54 15l36 -117q-46 -25 -94 -31z
" />
    <glyph glyph-name="Tcaron" unicode="&#x164;" horiz-adv-x="638" 
d="M391 762h-143l-129 161h150l53 -84l52 84h145zM405 0h-173v548h-213v152h600v-152h-214v-548z" />
    <glyph glyph-name="tcaron" unicode="&#x165;" horiz-adv-x="482" 
d="M428 549h-89l9 201h131zM301 -10q-85 0 -133.5 46.5t-48.5 140.5v201h-97v132h104l23 148h139v-148h128v-132h-128v-191q0 -62 56 -62q27 0 54 15l36 -117q-60 -33 -133 -33z" />
    <glyph glyph-name="Tbar" unicode="&#x166;" horiz-adv-x="638" 
d="M619 700v-152h-214v-173h136v-99h-136v-276h-173v276h-136v99h136v173h-213v152h600z" />
    <glyph glyph-name="tbar" unicode="&#x167;" horiz-adv-x="465" 
d="M398 140l36 -117q-60 -33 -133 -33q-85 0 -133.5 46.5t-48.5 140.5v50h-92v77h92v74h-97v132h104l23 148h139v-148h128v-132h-128v-74h122v-77h-122v-40q0 -62 56 -62q27 0 54 15z" />
    <glyph glyph-name="Utilde" unicode="&#x168;" horiz-adv-x="746" 
d="M285 757h-87v56q0 54 25.5 84.5t66.5 30.5q35 0 78 -29t59 -29q33 0 33 58h87v-58q0 -55 -24.5 -84t-66.5 -29q-36 0 -79 29t-59 29q-33 0 -33 -58zM373 -10q-135 0 -221 76.5t-86 221.5v412h173v-412q0 -71 36.5 -108.5t97.5 -37.5t97 37t36 109v412h173v-412
q0 -146 -85 -222t-221 -76z" />
    <glyph glyph-name="utilde" unicode="&#x169;" horiz-adv-x="639" 
d="M229 567h-87v56q0 54 25.5 84.5t66.5 30.5q35 0 78 -29t59 -29q33 0 33 58h87v-58q0 -55 -24.5 -84t-66.5 -29q-36 0 -79 29t-59 29q-33 0 -33 -58zM231 -10q-84 0 -130.5 53t-46.5 153v314h169v-272q0 -51 22 -77.5t63 -26.5q47 0 75 34.5t28 88.5v253h169v-238
q0 -181 5 -272h-162l-11 81h-9q-65 -91 -172 -91z" />
    <glyph glyph-name="Umacron" unicode="&#x16a;" horiz-adv-x="746" 
d="M531 788h-315v114h315v-114zM373 -10q-135 0 -221 76.5t-86 221.5v412h173v-412q0 -71 36.5 -108.5t97.5 -37.5t97 37t36 109v412h173v-412q0 -146 -85 -222t-221 -76z" />
    <glyph glyph-name="umacron" unicode="&#x16b;" horiz-adv-x="639" 
d="M475 598h-315v114h315v-114zM231 -10q-84 0 -130.5 53t-46.5 153v314h169v-272q0 -51 22 -77.5t63 -26.5q47 0 75 34.5t28 88.5v253h169v-238q0 -181 5 -272h-162l-11 81h-9q-65 -91 -172 -91z" />
    <glyph glyph-name="Ubreve" unicode="&#x16c;" horiz-adv-x="746" 
d="M374 757q-80 0 -125.5 43.5t-45.5 122.5h103q0 -33 17.5 -53t50.5 -20t50.5 20t17.5 53h102q0 -79 -45 -122.5t-125 -43.5zM373 -10q-135 0 -221 76.5t-86 221.5v412h173v-412q0 -71 36.5 -108.5t97.5 -37.5t97 37t36 109v412h173v-412q0 -146 -85 -222t-221 -76z" />
    <glyph glyph-name="ubreve" unicode="&#x16d;" horiz-adv-x="639" 
d="M317 567q-80 0 -125.5 43.5t-45.5 122.5h103q0 -33 17.5 -53t50.5 -20t50.5 20t17.5 53h102q0 -79 -45 -122.5t-125 -43.5zM231 -10q-84 0 -130.5 53t-46.5 153v314h169v-272q0 -51 22 -77.5t63 -26.5q47 0 75 34.5t28 88.5v253h169v-238q0 -181 5 -272h-162l-11 81h-9
q-65 -91 -172 -91z" />
    <glyph glyph-name="Uring" unicode="&#x16e;" horiz-adv-x="746" 
d="M374 740q-58 0 -95.5 33.5t-37.5 85.5t37.5 85.5t95.5 33.5t95.5 -33.5t37.5 -85.5t-37.5 -85.5t-95.5 -33.5zM374 814q21 0 33 12.5t12 32.5t-12 32.5t-33 12.5t-33 -12.5t-12 -32.5t12 -32.5t33 -12.5zM373 -10q-135 0 -221 76.5t-86 221.5v412h173v-412
q0 -71 36.5 -108.5t97.5 -37.5t97 37t36 109v412h173v-412q0 -146 -85 -222t-221 -76z" />
    <glyph glyph-name="uring" unicode="&#x16f;" horiz-adv-x="639" 
d="M317 550q-58 0 -95.5 33.5t-37.5 85.5t37.5 85.5t95.5 33.5t95.5 -33.5t37.5 -85.5t-37.5 -85.5t-95.5 -33.5zM317 624q21 0 33 12.5t12 32.5t-12 32.5t-33 12.5t-33 -12.5t-12 -32.5t12 -32.5t33 -12.5zM231 -10q-84 0 -130.5 53t-46.5 153v314h169v-272q0 -51 22 -77.5
t63 -26.5q47 0 75 34.5t28 88.5v253h169v-238q0 -181 5 -272h-162l-11 81h-9q-65 -91 -172 -91z" />
    <glyph glyph-name="Uhungarumlaut" unicode="&#x170;" horiz-adv-x="746" 
d="M330 762h-114l68 161h167zM531 762h-114l67 161h168zM373 -10q-135 0 -221 76.5t-86 221.5v412h173v-412q0 -71 36.5 -108.5t97.5 -37.5t97 37t36 109v412h173v-412q0 -146 -85 -222t-221 -76z" />
    <glyph glyph-name="uhungarumlaut" unicode="&#x171;" horiz-adv-x="639" 
d="M273 572h-114l68 161h167zM474 572h-114l67 161h168zM231 -10q-84 0 -130.5 53t-46.5 153v314h169v-272q0 -51 22 -77.5t63 -26.5q47 0 75 34.5t28 88.5v253h169v-238q0 -181 5 -272h-162l-11 81h-9q-65 -91 -172 -91z" />
    <glyph glyph-name="Uogonek" unicode="&#x172;" horiz-adv-x="746" 
d="M506 288v412h173v-412q0 -119 -58 -192t-156 -96q-76 -61 -76 -107q0 -37 42 -37q19 0 34 5v-97q-31 -7 -65 -7q-55 0 -89 26t-34 78q0 74 84 129q-130 3 -212.5 79.5t-82.5 218.5v412h173v-412q0 -71 36.5 -108.5t97.5 -37.5t97 37t36 109z" />
    <glyph glyph-name="uogonek" unicode="&#x173;" horiz-adv-x="639" 
d="M509 -107q0 -37 42 -37q19 0 34 5v-97q-31 -7 -65 -7q-55 0 -89 26t-34 78q0 83 101 139h-75l-11 81h-9q-65 -91 -172 -91q-84 0 -130.5 53t-46.5 153v314h169v-272q0 -51 22 -77.5t63 -26.5q47 0 75 34.5t28 88.5v253h169v-238q0 -181 5 -272q-76 -61 -76 -107z" />
    <glyph glyph-name="Wcircumflex" unicode="&#x174;" horiz-adv-x="1025" 
d="M462 762h-146l129 161h143l128 -161h-150l-52 84zM401 0h-214l-171 700h174l107 -531h9l104 531h212l105 -531h8l109 531h164l-171 -700h-215l-106 533h-9z" />
    <glyph glyph-name="wcircumflex" unicode="&#x175;" horiz-adv-x="823" 
d="M358 572h-146l129 161h143l128 -161h-150l-52 84zM342 0h-201l-128 510h166l66 -350h11l60 350h196l60 -350h10l66 350h162l-128 -510h-201l-64 360h-10z" />
    <glyph glyph-name="Ycircumflex" unicode="&#x176;" horiz-adv-x="698" 
d="M295 762h-146l129 161h143l128 -161h-150l-52 84zM436 0h-173v254l-247 446h196l135 -274h8l134 274h193l-246 -445v-255z" />
    <glyph glyph-name="ycircumflex" unicode="&#x177;" horiz-adv-x="584" 
d="M240 572h-146l129 161h143l128 -161h-150l-52 84zM319 -200h-180l66 174l-192 536h174l103 -356h9l103 356h169z" />
    <glyph glyph-name="Ydieresis" unicode="&#x178;" horiz-adv-x="698" 
d="M235 760q-38 0 -64.5 24.5t-26.5 61.5t26.5 62t64.5 25q39 0 65 -25t26 -62t-26 -61.5t-65 -24.5zM463 760q-38 0 -64.5 24.5t-26.5 61.5t26.5 62t64.5 25q39 0 65 -25t26 -62t-26 -61.5t-65 -24.5zM436 0h-173v254l-247 446h196l135 -274h8l134 274h193l-246 -445v-255z
" />
    <glyph glyph-name="Zacute" unicode="&#x179;" horiz-adv-x="664" 
d="M398 762h-131l69 161h195zM623 0h-582v142l342 408v8h-328v142h554v-142l-342 -408v-8h356v-142z" />
    <glyph glyph-name="zacute" unicode="&#x17a;" horiz-adv-x="531" 
d="M331 572h-131l69 161h195zM489 0h-448v128l225 240v9h-215v133h429v-128l-225 -240v-9h234v-133z" />
    <glyph glyph-name="Zdotaccent" unicode="&#x17b;" horiz-adv-x="664" 
d="M331 755q-43 0 -72 27.5t-29 67.5t29 67.5t72 27.5t72.5 -27.5t29.5 -67.5t-29.5 -67.5t-72.5 -27.5zM623 0h-582v142l342 408v8h-328v142h554v-142l-342 -408v-8h356v-142z" />
    <glyph glyph-name="zdotaccent" unicode="&#x17c;" horiz-adv-x="531" 
d="M265 565q-43 0 -72 27.5t-29 67.5t29 67.5t72 27.5t72.5 -27.5t29.5 -67.5t-29.5 -67.5t-72.5 -27.5zM489 0h-448v128l225 240v9h-215v133h429v-128l-225 -240v-9h234v-133z" />
    <glyph glyph-name="Zcaron" unicode="&#x17d;" horiz-adv-x="664" 
d="M403 762h-143l-129 161h150l53 -84l52 84h145zM623 0h-582v142l342 408v8h-328v142h554v-142l-342 -408v-8h356v-142z" />
    <glyph glyph-name="zcaron" unicode="&#x17e;" horiz-adv-x="531" 
d="M337 572h-143l-129 161h150l53 -84l52 84h145zM489 0h-448v128l225 240v9h-215v133h429v-128l-225 -240v-9h234v-133z" />
    <glyph glyph-name="uni018F" unicode="&#x18f;" horiz-adv-x="737" 
d="M358 710q157 0 248.5 -99t91.5 -261t-91 -261t-248 -99q-62 0 -118 20.5t-102 60.5t-73 107t-27 152q0 44 2 68h481q-10 80 -53.5 124.5t-110.5 44.5q-109 0 -148 -103l-168 36q33 102 115 156t201 54zM359 133q64 0 106 41t55 115h-311q16 -156 150 -156z" />
    <glyph glyph-name="florin" unicode="&#x192;" horiz-adv-x="511" 
d="M85 -200h-104v143h47q30 0 50 15.5t24 44.5l55 350h-101v100h116l12 69q27 178 196 178h102v-143h-54q-63 0 -74 -60l-7 -44h115v-100h-130l-60 -376q-15 -94 -61.5 -135.5t-125.5 -41.5z" />
    <glyph glyph-name="uni019D" unicode="&#x19d;" horiz-adv-x="765" 
d="M52 -210q-81 0 -138 29l39 123q24 -14 54 -14q59 0 59 64v708h183l276 -446h9q-5 81 -5 181v265h169v-700h-183l-275 446h-9q5 -81 5 -181v-282q0 -94 -47 -143.5t-137 -49.5z" />
    <glyph glyph-name="uni01CD" unicode="&#x1cd;" horiz-adv-x="725" 
d="M562 923l-128 -161h-143l-129 161h150l53 -84l52 84h145zM711 0h-181l-40 133h-260l-40 -133h-177l235 700h228zM356 556l-87 -290h182l-87 290h-8z" />
    <glyph glyph-name="uni01CE" unicode="&#x1ce;" horiz-adv-x="595" 
d="M496 733l-128 -161h-143l-129 161h150l53 -84l52 84h145zM538 334v-70q0 -175 5 -264h-153l-12 83h-9q-48 -93 -162 -93q-73 0 -118 41t-45 109q0 153 209 165l122 7v15q0 38 -23 56t-61 18q-78 0 -93 -68l-148 33q13 72 76.5 113t164.5 41q120 0 183.5 -49t63.5 -137z
M270 111q44 0 74 30.5t31 83.5l-81 -5q-46 -3 -67 -16.5t-21 -41.5q0 -24 16.5 -37.5t47.5 -13.5z" />
    <glyph glyph-name="uni01CF" unicode="&#x1cf;" horiz-adv-x="306" 
d="M225 762h-143l-129 161h150l53 -84l52 84h145zM239 0h-173v700h173v-700z" />
    <glyph glyph-name="uni01D0" unicode="&#x1d0;" horiz-adv-x="287" 
d="M215 572h-143l-129 161h150l53 -84l52 84h145zM228 0h-169v510h169v-510z" />
    <glyph glyph-name="uni01D1" unicode="&#x1d1;" horiz-adv-x="759" 
d="M451 762h-143l-129 161h150l53 -84l52 84h145zM380 -10q-157 0 -249 99t-92 261t92 261t249 99q156 0 248 -98.5t92 -261.5t-92 -261.5t-248 -98.5zM380 134q77 0 122 57.5t45 158.5t-45 158.5t-122 57.5t-122.5 -57.5t-45.5 -158.5t45.5 -158.5t122.5 -57.5z" />
    <glyph glyph-name="uni01D2" unicode="&#x1d2;" horiz-adv-x="601" 
d="M372 572h-143l-129 161h150l53 -84l52 84h145zM301 -10q-128 0 -197.5 74t-69.5 191t69.5 191t197.5 74q127 0 196.5 -74t69.5 -191t-69.5 -191t-196.5 -74zM301 127q44 0 70.5 34.5t26.5 93.5t-26.5 93.5t-70.5 34.5q-45 0 -71.5 -34.5t-26.5 -93.5t26.5 -93.5
t71.5 -34.5z" />
    <glyph glyph-name="uni01D3" unicode="&#x1d3;" horiz-adv-x="746" 
d="M445 762h-143l-129 161h150l53 -84l52 84h145zM373 -10q-135 0 -221 76.5t-86 221.5v412h173v-412q0 -71 36.5 -108.5t97.5 -37.5t97 37t36 109v412h173v-412q0 -146 -85 -222t-221 -76z" />
    <glyph glyph-name="uni01D4" unicode="&#x1d4;" horiz-adv-x="639" 
d="M389 572h-143l-129 161h150l53 -84l52 84h145zM231 -10q-84 0 -130.5 53t-46.5 153v314h169v-272q0 -51 22 -77.5t63 -26.5q47 0 75 34.5t28 88.5v253h169v-238q0 -181 5 -272h-162l-11 81h-9q-65 -91 -172 -91z" />
    <glyph glyph-name="Gcaron" unicode="&#x1e6;" horiz-adv-x="749" 
d="M451 762h-143l-129 161h150l53 -84l52 84h145zM392 -10q-164 0 -258.5 98.5t-94.5 261.5q0 162 92 261t250 99q254 0 314 -207l-171 -38q-34 105 -143 105q-76 0 -122.5 -59t-46.5 -161q0 -104 48.5 -162t135.5 -58q74 0 125 42v104l-131 6v103h297v-275
q-107 -120 -295 -120z" />
    <glyph glyph-name="gcaron" unicode="&#x1e7;" horiz-adv-x="629" 
d="M374 572h-143l-129 161h150l53 -84l52 84h145zM309 -210q-103 0 -171.5 38t-87.5 109l154 35q21 -62 103 -62q94 0 94 97v102h-9q-53 -91 -158 -91q-92 0 -146 65.5t-54 181.5q0 120 54 187.5t146 67.5q105 0 158 -91h9l12 81h162q-5 -91 -5 -270v-236
q0 -99 -65.5 -156.5t-195.5 -57.5zM302 147q45 0 72 32.5t27 85.5q0 54 -27 86t-72 32t-72 -32t-27 -86t27 -86t72 -32z" />
    <glyph glyph-name="uni01EA" unicode="&#x1ea;" horiz-adv-x="759" 
d="M470 0q-76 -61 -76 -107q0 -37 42 -37q19 0 34 5v-97q-31 -7 -65 -7q-55 0 -89 26t-34 78q0 74 84 129q-151 4 -239 103t-88 257q0 162 92 261t249 99q156 0 248 -98.5t92 -261.5q0 -137 -66.5 -230.5t-183.5 -119.5zM212 350q0 -101 45.5 -158.5t122.5 -57.5t122 57.5
t45 158.5t-45 158.5t-122 57.5t-122.5 -57.5t-45.5 -158.5z" />
    <glyph glyph-name="uni01EB" unicode="&#x1eb;" horiz-adv-x="601" 
d="M381 -1q-75 -62 -75 -106q0 -37 42 -37q19 0 34 5v-97q-31 -7 -65 -7q-55 0 -89 26t-34 78q0 76 85 130q-118 7 -181.5 79.5t-63.5 184.5q0 117 69.5 191t197.5 74q127 0 196.5 -74t69.5 -191q0 -96 -48 -165t-138 -91zM203 255q0 -59 26.5 -93.5t71.5 -34.5
q44 0 70.5 34.5t26.5 93.5t-26.5 93.5t-70.5 34.5q-45 0 -71.5 -34.5t-26.5 -93.5z" />
    <glyph glyph-name="Aringacute" unicode="&#x1fa;" horiz-adv-x="725" 
d="M363 735q-59 0 -96 24t-37 67q0 34 23 56.5t64 30.5l25 65h150l-61 -71q65 -23 65 -81q0 -43 -37 -67t-96 -24zM363 861q-22 0 -34.5 -9.5t-12.5 -25.5q0 -15 13 -25t34 -10t33.5 10t12.5 25q0 16 -12.5 25.5t-33.5 9.5zM711 0h-181l-40 133h-260l-40 -133h-177l235 700
h228zM356 556l-87 -290h182l-87 290h-8z" />
    <glyph glyph-name="aringacute" unicode="&#x1fb;" horiz-adv-x="595" 
d="M296 545q-59 0 -96 24t-37 67q0 34 23 56.5t64 30.5l25 65h150l-61 -71q65 -23 65 -81q0 -43 -37 -67t-96 -24zM296 671q-22 0 -34.5 -9.5t-12.5 -25.5q0 -15 13 -25t34 -10t33.5 10t12.5 25q0 16 -12.5 25.5t-33.5 9.5zM538 334v-70q0 -175 5 -264h-153l-12 83h-9
q-48 -93 -162 -93q-73 0 -118 41t-45 109q0 153 209 165l122 7v15q0 38 -23 56t-61 18q-78 0 -93 -68l-148 33q13 72 76.5 113t164.5 41q120 0 183.5 -49t63.5 -137zM270 111q44 0 74 30.5t31 83.5l-81 -5q-46 -3 -67 -16.5t-21 -41.5q0 -24 16.5 -37.5t47.5 -13.5z" />
    <glyph glyph-name="AEacute" unicode="&#x1fc;" horiz-adv-x="1019" 
d="M658 762h-131l69 161h195zM198 0h-185l357 700h602v-141h-296v-137h256v-124h-256v-157h296v-141h-465v133h-246zM464 559l-140 -293h183v293h-43z" />
    <glyph glyph-name="aeacute" unicode="&#x1fd;" horiz-adv-x="873" 
d="M437 733h195l-133 -161h-131zM840 270q0 -32 -3 -57h-335q7 -54 32.5 -80.5t64.5 -26.5q59 0 86 64l148 -33q-57 -147 -218 -147q-120 0 -182 86q-54 -86 -193 -86q-93 0 -144.5 43.5t-51.5 114.5q0 73 52.5 116t152.5 43h119v10q0 41 -25 64t-59 23q-69 0 -87 -70
l-146 33q13 73 71 113t138 40q118 0 176 -79q29 38 74 58.5t97 20.5q113 0 173 -70t60 -180zM503 307h178q-4 48 -26.5 72.5t-58.5 24.5q-35 0 -59.5 -24.5t-33.5 -72.5zM270 106q43 0 69.5 26.5t28.5 80.5h-85q-77 0 -77 -53q0 -25 17.5 -39.5t46.5 -14.5z" />
    <glyph glyph-name="Oslashacute" unicode="&#x1fe;" horiz-adv-x="759" 
d="M384 923h195l-133 -161h-131zM665 742l-62 -107q117 -98 117 -285q0 -163 -92 -261.5t-248 -98.5q-73 0 -134 23l-58 -101l-93 46l61 107q-117 98 -117 285q0 162 92 261t249 99q73 0 133 -23l58 101zM212 350q0 -80 30 -135l196 341q-26 10 -58 10q-77 0 -122.5 -57.5
t-45.5 -158.5zM380 134q77 0 122 57.5t45 158.5q0 80 -30 135l-196 -341q26 -10 59 -10z" />
    <glyph glyph-name="oslashacute" unicode="&#x1ff;" horiz-adv-x="600" 
d="M304 733h195l-133 -161h-131zM509 539l-39 -69q96 -73 96 -215q0 -117 -69.5 -191t-196.5 -74q-53 0 -98 14l-39 -68l-72 35l40 69q-97 70 -97 215q0 117 69 191t197 74q52 0 97 -14l39 68zM300 395q-50 0 -79 -38t-29 -102q0 -51 18 -84l125 218q-15 6 -35 6zM300 115
q50 0 79 38t29 102q0 49 -18 85l-127 -219q18 -6 37 -6z" />
    <glyph glyph-name="uni0218" unicode="&#x218;" horiz-adv-x="661" 
d="M344 -10q-113 0 -197 46.5t-108 137.5l163 36q33 -90 142 -90q50 0 78 19.5t28 53.5q0 36 -41 56t-99 33t-116 33t-99 69.5t-41 128.5q0 86 72.5 141.5t197.5 55.5q111 0 184.5 -43.5t99.5 -130.5l-166 -36q-26 80 -117 80q-43 0 -69 -18.5t-26 -48.5t29.5 -49.5
t73 -28.5t95 -25t95 -37t73 -68t29.5 -115q0 -90 -74 -145t-207 -55zM351 -205h-121l32 159h158z" />
    <glyph glyph-name="uni0219" unicode="&#x219;" horiz-adv-x="538" 
d="M280 -10q-99 0 -163 34t-83 101l146 32q18 -63 97 -63q31 0 48.5 13t17.5 34q0 20 -22 32.5t-55 18.5t-71.5 17.5t-71.5 27.5t-55 51t-22 85q0 65 58 106t159 41q90 0 149.5 -31.5t77.5 -94.5l-147 -33q-15 55 -77 55q-27 0 -43 -11.5t-16 -30.5q0 -23 30.5 -36t74.5 -22
t87.5 -24t74 -53t30.5 -97q0 -68 -59.5 -110t-164.5 -42zM286 -205h-121l32 159h158z" />
    <glyph glyph-name="uni021A" unicode="&#x21a;" horiz-adv-x="638" 
d="M405 0h-173v548h-213v152h600v-152h-214v-548zM328 -205h-121l32 159h158z" />
    <glyph glyph-name="uni021B" unicode="&#x21b;" horiz-adv-x="465" 
d="M301 -10q-85 0 -133.5 46.5t-48.5 140.5v201h-97v132h104l23 148h139v-148h128v-132h-128v-191q0 -62 56 -62q27 0 54 15l36 -117q-60 -33 -133 -33zM309 -205h-121l32 159h158z" />
    <glyph glyph-name="uni0232" unicode="&#x232;" horiz-adv-x="698" 
d="M506 788h-315v114h315v-114zM436 0h-173v254l-247 446h196l135 -274h8l134 274h193l-246 -445v-255z" />
    <glyph glyph-name="uni0233" unicode="&#x233;" horiz-adv-x="584" 
d="M451 598h-315v114h315v-114zM319 -200h-180l66 174l-192 536h174l103 -356h9l103 356h169z" />
    <glyph glyph-name="uni0237" unicode="&#x237;" horiz-adv-x="328" 
d="M86 -210q-82 0 -139 29l39 123q25 -14 55 -14q59 0 59 64v518h169v-527q0 -94 -46.5 -143.5t-136.5 -49.5z" />
    <glyph glyph-name="uni0259" unicode="&#x259;" horiz-adv-x="585" 
d="M284 520q127 0 197 -74t70 -191t-69.5 -191t-195.5 -74q-117 0 -185 70.5t-68 178.5q0 34 3 58h352q-7 54 -35 80.5t-72 26.5q-63 0 -91 -63l-150 33q60 146 244 146zM286 106q82 0 101 97h-196q13 -97 95 -97z" />
    <glyph glyph-name="uni0272" unicode="&#x272;" horiz-adv-x="680" 
d="M85 -210q-81 0 -138 29l39 123q24 -14 54 -14q27 0 43.5 16t16.5 48v246q0 181 -5 272h162l11 -81h9q65 91 172 91q84 0 130.5 -53t46.5 -153v-314h-169v272q0 51 -22 77.5t-63 26.5q-47 0 -75 -34.5t-28 -89.5v-269q0 -94 -47 -143.5t-137 -49.5z" />
    <glyph glyph-name="circumflex" unicode="&#x2c6;" horiz-adv-x="460" 
d="M176 572h-146l129 161h143l128 -161h-150l-52 84z" />
    <glyph glyph-name="caron" unicode="&#x2c7;" horiz-adv-x="460" 
d="M302 572h-143l-129 161h150l53 -84l52 84h145z" />
    <glyph glyph-name="breve" unicode="&#x2d8;" horiz-adv-x="401" 
d="M201 567q-80 0 -125.5 43.5t-45.5 122.5h103q0 -33 17.5 -53t50.5 -20t50.5 20t17.5 53h102q0 -79 -45 -122.5t-125 -43.5z" />
    <glyph glyph-name="dotaccent" unicode="&#x2d9;" horiz-adv-x="263" 
d="M131 565q-43 0 -72 27.5t-29 67.5t29 67.5t72 27.5t72.5 -27.5t29.5 -67.5t-29.5 -67.5t-72.5 -27.5z" />
    <glyph glyph-name="ring" unicode="&#x2da;" horiz-adv-x="326" 
d="M163 550q-58 0 -95.5 33.5t-37.5 85.5t37.5 85.5t95.5 33.5t95.5 -33.5t37.5 -85.5t-37.5 -85.5t-95.5 -33.5zM163 624q21 0 33 12.5t12 32.5t-12 32.5t-33 12.5t-33 -12.5t-12 -32.5t12 -32.5t33 -12.5z" />
    <glyph glyph-name="ogonek" unicode="&#x2db;" horiz-adv-x="248" 
d="M153 -243q-55 0 -89 26t-34 78q0 90 120 149l68 -10q-76 -61 -76 -107q0 -37 42 -37q19 0 34 5v-97q-31 -7 -65 -7z" />
    <glyph glyph-name="tilde" unicode="&#x2dc;" horiz-adv-x="409" 
d="M117 567h-87v56q0 54 25.5 84.5t66.5 30.5q35 0 78 -29t59 -29q33 0 33 58h87v-58q0 -55 -24.5 -84t-66.5 -29q-36 0 -79 29t-59 29q-33 0 -33 -58z" />
    <glyph glyph-name="hungarumlaut" unicode="&#x2dd;" horiz-adv-x="496" 
d="M144 572h-114l68 161h167zM345 572h-114l67 161h168z" />
    <glyph glyph-name="gravecomb" unicode="&#x300;" horiz-adv-x="0" 
d="M-30 572h-132l-132 161h194z" />
    <glyph glyph-name="acutecomb" unicode="&#x301;" horiz-adv-x="0" 
d="M-163 572h-131l69 161h195z" />
    <glyph glyph-name="uni0302" unicode="&#x302;" horiz-adv-x="0" 
d="M-284 572h-146l129 161h143l128 -161h-150l-52 84z" />
    <glyph glyph-name="tildecomb" unicode="&#x303;" horiz-adv-x="0" 
d="M-292 567h-87v56q0 54 25.5 84.5t66.5 30.5q35 0 78 -29t59 -29q33 0 33 58h87v-58q0 -55 -24.5 -84t-66.5 -29q-36 0 -79 29t-59 29q-33 0 -33 -58z" />
    <glyph glyph-name="uni0304" unicode="&#x304;" horiz-adv-x="0" 
d="M-30 598h-315v114h315v-114z" />
    <glyph glyph-name="uni0306" unicode="&#x306;" horiz-adv-x="0" 
d="M-200 567q-80 0 -125.5 43.5t-45.5 122.5h103q0 -33 17.5 -53t50.5 -20t50.5 20t17.5 53h102q0 -79 -45 -122.5t-125 -43.5z" />
    <glyph glyph-name="uni0307" unicode="&#x307;" horiz-adv-x="0" 
d="M-132 565q-43 0 -72 27.5t-29 67.5t29 67.5t72 27.5t72.5 -27.5t29.5 -67.5t-29.5 -67.5t-72.5 -27.5z" />
    <glyph glyph-name="uni0308" unicode="&#x308;" horiz-adv-x="0" 
d="M-349 570q-38 0 -64.5 24.5t-26.5 61.5t26.5 62t64.5 25q39 0 65 -25t26 -62t-26 -61.5t-65 -24.5zM-121 570q-38 0 -64.5 24.5t-26.5 61.5t26.5 62t64.5 25q39 0 65 -25t26 -62t-26 -61.5t-65 -24.5z" />
    <glyph glyph-name="uni030A" unicode="&#x30a;" horiz-adv-x="0" 
d="M-163 550q-58 0 -95.5 33.5t-37.5 85.5t37.5 85.5t95.5 33.5t95.5 -33.5t37.5 -85.5t-37.5 -85.5t-95.5 -33.5zM-163 624q21 0 33 12.5t12 32.5t-12 32.5t-33 12.5t-33 -12.5t-12 -32.5t12 -32.5t33 -12.5z" />
    <glyph glyph-name="uni030B" unicode="&#x30b;" horiz-adv-x="0" 
d="M-352 572h-114l68 161h167zM-151 572h-114l67 161h168z" />
    <glyph glyph-name="uni030C" unicode="&#x30c;" horiz-adv-x="0" 
d="M-158 572h-143l-129 161h150l53 -84l52 84h145z" />
    <glyph glyph-name="uni0312" unicode="&#x312;" horiz-adv-x="0" 
d="M-63 572h-157l69 161h121z" />
    <glyph glyph-name="dotbelowcomb" unicode="&#x323;" horiz-adv-x="0" 
d="M-122 -211q-38 0 -65 24.5t-27 61.5q0 36 27 60.5t65 24.5q39 0 65.5 -24.5t26.5 -60.5q0 -37 -26.5 -61.5t-65.5 -24.5z" />
    <glyph glyph-name="uni0326" unicode="&#x326;" horiz-adv-x="0" 
d="M-99 -205h-121l32 159h158z" />
    <glyph glyph-name="uni0327" unicode="&#x327;" horiz-adv-x="0" 
d="M-142 -37q50 0 81 -26.5t31 -74.5q0 -49 -38 -80t-106 -31q-77 0 -137 43l45 71q41 -31 86 -31q46 0 46 30t-41 30q-22 0 -40 -7l-21 31l30 87h78z" />
    <glyph glyph-name="uni0328" unicode="&#x328;" horiz-adv-x="0" 
d="M-95 -243q-55 0 -89 26t-34 78q0 90 120 149l68 -10q-76 -61 -76 -107q0 -37 42 -37q19 0 34 5v-97q-31 -7 -65 -7z" />
    <glyph glyph-name="uni0338" unicode="&#x338;" horiz-adv-x="0" 
d="M-30 742l-477 -830l-93 46l476 830z" />
    <glyph glyph-name="uni0394" unicode="&#x394;" horiz-adv-x="618" 
d="M604 0h-591l218 700h156zM304 493l-101 -364h210l-100 364h-9z" />
    <glyph glyph-name="uni03A9" unicode="&#x3a9;" horiz-adv-x="748" 
d="M331 0h-275v144h103v9q-59 44 -89.5 110t-30.5 141q0 134 94 220t241 86t241 -86t94 -220q0 -75 -31 -141t-89 -110v-9h103v-144h-276v154q56 35 88 95.5t32 130.5q0 84 -44 135t-118 51t-118 -51t-44 -135q0 -67 32 -129t87 -97v-154z" />
    <glyph glyph-name="uni03BC" unicode="&#x3bc;" horiz-adv-x="663" 
d="M219 -200h-165v710h169v-272q0 -51 22 -77.5t63 -26.5q47 0 75 34.5t28 89.5v252h169v-318q0 -55 47 -55h18v-137h-67q-104 0 -127 88h-9q-19 -50 -53.5 -74t-75.5 -24q-63 0 -96 48h-9l11 -158v-80z" />
    <glyph glyph-name="pi" unicode="&#x3c0;" horiz-adv-x="644" 
d="M228 0h-169v510h526v-510h-169v362h-188v-362z" />
    <glyph glyph-name="Wgrave" unicode="&#x1e80;" horiz-adv-x="1025" 
d="M582 762h-132l-132 161h194zM401 0h-214l-171 700h174l107 -531h9l104 531h212l105 -531h8l109 531h164l-171 -700h-215l-106 533h-9z" />
    <glyph glyph-name="wgrave" unicode="&#x1e81;" horiz-adv-x="823" 
d="M478 572h-132l-132 161h194zM342 0h-201l-128 510h166l66 -350h11l60 350h196l60 -350h10l66 350h162l-128 -510h-201l-64 360h-10z" />
    <glyph glyph-name="Wacute" unicode="&#x1e82;" horiz-adv-x="1025" 
d="M583 762h-131l69 161h195zM401 0h-214l-171 700h174l107 -531h9l104 531h212l105 -531h8l109 531h164l-171 -700h-215l-106 533h-9z" />
    <glyph glyph-name="wacute" unicode="&#x1e83;" horiz-adv-x="823" 
d="M478 572h-131l69 161h195zM342 0h-201l-128 510h166l66 -350h11l60 350h196l60 -350h10l66 350h162l-128 -510h-201l-64 360h-10z" />
    <glyph glyph-name="Wdieresis" unicode="&#x1e84;" horiz-adv-x="1025" 
d="M403 760q-38 0 -64.5 24.5t-26.5 61.5t26.5 62t64.5 25q39 0 65 -25t26 -62t-26 -61.5t-65 -24.5zM631 760q-38 0 -64.5 24.5t-26.5 61.5t26.5 62t64.5 25q39 0 65 -25t26 -62t-26 -61.5t-65 -24.5zM401 0h-214l-171 700h174l107 -531h9l104 531h212l105 -531h8l109 531
h164l-171 -700h-215l-106 533h-9z" />
    <glyph glyph-name="wdieresis" unicode="&#x1e85;" horiz-adv-x="823" 
d="M298 570q-38 0 -64.5 24.5t-26.5 61.5t26.5 62t64.5 25q39 0 65 -25t26 -62t-26 -61.5t-65 -24.5zM526 570q-38 0 -64.5 24.5t-26.5 61.5t26.5 62t64.5 25q39 0 65 -25t26 -62t-26 -61.5t-65 -24.5zM342 0h-201l-128 510h166l66 -350h11l60 350h196l60 -350h10l66 350
h162l-128 -510h-201l-64 360h-10z" />
    <glyph glyph-name="uni1E9E" unicode="&#x1e9e;" horiz-adv-x="750" 
d="M676 563l-162 -164q94 -8 147.5 -60t53.5 -137q0 -96 -64.5 -154t-179.5 -58q-104 0 -192 33l40 128q54 -24 122 -24q49 0 75 21t26 58q0 34 -26.5 55t-76.5 21h-93v114l156 159v8h-130q-133 0 -133 -141v-422h-173v422q0 278 296 278h314v-137z" />
    <glyph glyph-name="uni1EA0" unicode="&#x1ea0;" horiz-adv-x="725" 
d="M476 700l235 -700h-181l-40 133h-260l-40 -133h-177l235 700h228zM356 556l-87 -290h182l-87 290h-8zM362 -40q39 0 65.5 -24.5t26.5 -60.5q0 -37 -26.5 -61.5t-65.5 -24.5q-38 0 -65 24.5t-27 61.5q0 36 27 60.5t65 24.5z" />
    <glyph glyph-name="uni1EA1" unicode="&#x1ea1;" horiz-adv-x="595" 
d="M538 334v-70q0 -175 5 -264h-153l-12 83h-9q-48 -93 -162 -93q-73 0 -118 41t-45 109q0 153 209 165l122 7v15q0 38 -23 56t-61 18q-78 0 -93 -68l-148 33q13 72 76.5 113t164.5 41q120 0 183.5 -49t63.5 -137zM270 111q44 0 74 30.5t31 83.5l-81 -5q-46 -3 -67 -16.5
t-21 -41.5q0 -24 16.5 -37.5t47.5 -13.5zM298 -40q39 0 65.5 -24.5t26.5 -60.5q0 -37 -26.5 -61.5t-65.5 -24.5q-38 0 -65 24.5t-27 61.5q0 36 27 60.5t65 24.5z" />
    <glyph glyph-name="uni1EB8" unicode="&#x1eb8;" horiz-adv-x="635" 
d="M588 0h-522v700h522v-141h-349v-136h309v-126h-309v-156h349v-141zM332 -211q-38 0 -65 24.5t-27 61.5q0 36 27 60.5t65 24.5q39 0 65.5 -24.5t26.5 -60.5q0 -37 -26.5 -61.5t-65.5 -24.5z" />
    <glyph glyph-name="uni1EB9" unicode="&#x1eb9;" horiz-adv-x="585" 
d="M552 271q0 -34 -3 -58h-352q7 -54 35 -80.5t72 -26.5q63 0 91 63l150 -33q-60 -146 -244 -146q-127 0 -197 74t-70 191t69.5 191t195.5 74q117 0 185 -70.5t68 -178.5zM299 404q-82 0 -101 -97h196q-13 97 -95 97zM302 -40q39 0 65.5 -24.5t26.5 -60.5q0 -37 -26.5 -61.5
t-65.5 -24.5q-38 0 -65 24.5t-27 61.5q0 36 27 60.5t65 24.5z" />
    <glyph glyph-name="uni1EBC" unicode="&#x1ebc;" horiz-adv-x="635" 
d="M244 757h-87v56q0 54 25.5 84.5t66.5 30.5q35 0 78 -29t59 -29q33 0 33 58h87v-58q0 -55 -24.5 -84t-66.5 -29q-36 0 -79 29t-59 29q-33 0 -33 -58zM588 0h-522v700h522v-141h-349v-136h309v-126h-309v-156h349v-141z" />
    <glyph glyph-name="uni1EBD" unicode="&#x1ebd;" horiz-adv-x="585" 
d="M244 625q-33 0 -33 -58h-87v56q0 54 25.5 84.5t66.5 30.5q35 0 78 -29t59 -29q33 0 33 58h87v-58q0 -55 -24.5 -84t-66.5 -29q-36 0 -79 29t-59 29zM552 271q0 -34 -3 -58h-352q7 -54 35 -80.5t72 -26.5q63 0 91 63l150 -33q-60 -146 -244 -146q-127 0 -197 74t-70 191
t69.5 191t195.5 74q117 0 185 -70.5t68 -178.5zM299 404q-82 0 -101 -97h196q-13 97 -95 97z" />
    <glyph glyph-name="uni1ECA" unicode="&#x1eca;" horiz-adv-x="306" 
d="M239 0h-173v700h173v-700zM153 -211q-38 0 -65 24.5t-27 61.5q0 36 27 60.5t65 24.5q39 0 65.5 -24.5t26.5 -60.5q0 -37 -26.5 -61.5t-65.5 -24.5z" />
    <glyph glyph-name="uni1ECB" unicode="&#x1ecb;" horiz-adv-x="287" 
d="M143 565q-43 0 -72 27.5t-29 67.5t29 67.5t72 27.5t72.5 -27.5t29.5 -67.5t-29.5 -67.5t-72.5 -27.5zM228 0h-169v510h169v-510zM144 -211q-38 0 -65 24.5t-27 61.5q0 36 27 60.5t65 24.5q39 0 65.5 -24.5t26.5 -60.5q0 -37 -26.5 -61.5t-65.5 -24.5z" />
    <glyph glyph-name="uni1ECC" unicode="&#x1ecc;" horiz-adv-x="759" 
d="M380 -10q-157 0 -249 99t-92 261t92 261t249 99q156 0 248 -98.5t92 -261.5t-92 -261.5t-248 -98.5zM380 134q77 0 122 57.5t45 158.5t-45 158.5t-122 57.5t-122.5 -57.5t-45.5 -158.5t45.5 -158.5t122.5 -57.5zM379 -211q-38 0 -65 24.5t-27 61.5q0 36 27 60.5t65 24.5
q39 0 65.5 -24.5t26.5 -60.5q0 -37 -26.5 -61.5t-65.5 -24.5z" />
    <glyph glyph-name="uni1ECD" unicode="&#x1ecd;" horiz-adv-x="601" 
d="M301 -10q-128 0 -197.5 74t-69.5 191t69.5 191t197.5 74q127 0 196.5 -74t69.5 -191t-69.5 -191t-196.5 -74zM301 127q44 0 70.5 34.5t26.5 93.5t-26.5 93.5t-70.5 34.5q-45 0 -71.5 -34.5t-26.5 -93.5t26.5 -93.5t71.5 -34.5zM300 -211q-38 0 -65 24.5t-27 61.5
q0 36 27 60.5t65 24.5q39 0 65.5 -24.5t26.5 -60.5q0 -37 -26.5 -61.5t-65.5 -24.5z" />
    <glyph glyph-name="uni1EE4" unicode="&#x1ee4;" horiz-adv-x="746" 
d="M373 -10q-135 0 -221 76.5t-86 221.5v412h173v-412q0 -71 36.5 -108.5t97.5 -37.5t97 37t36 109v412h173v-412q0 -146 -85 -222t-221 -76zM373 -211q-38 0 -65 24.5t-27 61.5q0 36 27 60.5t65 24.5q39 0 65.5 -24.5t26.5 -60.5q0 -37 -26.5 -61.5t-65.5 -24.5z" />
    <glyph glyph-name="uni1EE5" unicode="&#x1ee5;" horiz-adv-x="639" 
d="M231 -10q-84 0 -130.5 53t-46.5 153v314h169v-272q0 -51 22 -77.5t63 -26.5q47 0 75 34.5t28 88.5v253h169v-238q0 -181 5 -272h-162l-11 81h-9q-65 -91 -172 -91zM317 -211q-38 0 -65 24.5t-27 61.5q0 36 27 60.5t65 24.5q39 0 65.5 -24.5t26.5 -60.5q0 -37 -26.5 -61.5
t-65.5 -24.5z" />
    <glyph glyph-name="Ygrave" unicode="&#x1ef2;" horiz-adv-x="698" 
d="M414 762h-132l-132 161h194zM436 0h-173v254l-247 446h196l135 -274h8l134 274h193l-246 -445v-255z" />
    <glyph glyph-name="ygrave" unicode="&#x1ef3;" horiz-adv-x="584" 
d="M359 572h-132l-132 161h194zM319 -200h-180l66 174l-192 536h174l103 -356h9l103 356h169z" />
    <glyph glyph-name="uni1EF8" unicode="&#x1ef8;" horiz-adv-x="698" 
d="M261 757h-87v56q0 54 25.5 84.5t66.5 30.5q35 0 78 -29t59 -29q33 0 33 58h87v-58q0 -55 -24.5 -84t-66.5 -29q-36 0 -79 29t-59 29q-33 0 -33 -58zM436 0h-173v254l-247 446h196l135 -274h8l134 274h193l-246 -445v-255z" />
    <glyph glyph-name="uni1EF9" unicode="&#x1ef9;" horiz-adv-x="584" 
d="M206 567h-87v56q0 54 25.5 84.5t66.5 30.5q35 0 78 -29t59 -29q33 0 33 58h87v-58q0 -55 -24.5 -84t-66.5 -29q-36 0 -79 29t-59 29q-33 0 -33 -58zM319 -200h-180l66 174l-192 536h174l103 -356h9l103 356h169z" />
    <glyph glyph-name="endash" unicode="&#x2013;" horiz-adv-x="510" 
d="M481 217h-452v126h452v-126z" />
    <glyph glyph-name="emdash" unicode="&#x2014;" horiz-adv-x="738" 
d="M709 217h-680v126h680v-126z" />
    <glyph glyph-name="quoteleft" unicode="&#x2018;" horiz-adv-x="248" 
d="M160 710l37 -29q-56 -63 -64 -123q36 -3 59 -26.5t23 -57.5q0 -38 -25.5 -62.5t-64.5 -24.5q-41 0 -67 25t-26 70q0 55 32.5 115t95.5 113z" />
    <glyph glyph-name="quoteright" unicode="&#x2019;" horiz-adv-x="248" 
d="M87 387l-36 29q56 63 64 123q-36 3 -59.5 26.5t-23.5 57.5q0 37 26 62t65 25q40 0 66 -25t26 -70q0 -56 -32 -115.5t-96 -112.5z" />
    <glyph glyph-name="quotesinglbase" unicode="&#x201a;" horiz-adv-x="248" 
d="M87 -159l-36 29q56 63 64 123q-36 4 -59.5 27t-23.5 57q0 37 26 62t65 25q40 0 66 -25t26 -70q0 -55 -32.5 -115t-95.5 -113z" />
    <glyph glyph-name="quotedblleft" unicode="&#x201c;" horiz-adv-x="472" 
d="M160 710l37 -29q-56 -63 -64 -123q36 -3 59 -26.5t23 -57.5q0 -38 -25.5 -62.5t-64.5 -24.5q-41 0 -67 25t-26 70q0 55 32.5 115t95.5 113zM384 710l37 -29q-56 -63 -64 -123q36 -3 59 -26.5t23 -57.5q0 -38 -25.5 -62.5t-64.5 -24.5q-40 0 -66 25t-26 70q0 121 127 228z
" />
    <glyph glyph-name="quotedblright" unicode="&#x201d;" horiz-adv-x="472" 
d="M87 387l-36 29q56 63 64 123q-36 3 -59.5 26.5t-23.5 57.5q0 37 26 62t65 25q40 0 66 -25t26 -70q0 -56 -32 -115.5t-96 -112.5zM311 387l-36 29q56 63 64 123q-36 3 -59 26.5t-23 57.5q0 38 25.5 62.5t64.5 24.5q40 0 66 -25t26 -70q0 -56 -32 -115.5t-96 -112.5z" />
    <glyph glyph-name="quotedblbase" unicode="&#x201e;" horiz-adv-x="472" 
d="M87 -159l-36 29q56 63 64 123q-36 4 -59.5 27t-23.5 57q0 37 26 62t65 25q40 0 66 -25t26 -70q0 -55 -32.5 -115t-95.5 -113zM311 -159l-36 29q56 63 64 123q-36 4 -59 27t-23 57q0 38 25.5 62.5t64.5 24.5q40 0 66 -25t26 -70q0 -55 -32.5 -115t-95.5 -113z" />
    <glyph glyph-name="dagger" unicode="&#x2020;" horiz-adv-x="560" 
d="M363 -100h-166v467h-172v152h172v181h166v-181h172v-152h-172v-467z" />
    <glyph glyph-name="daggerdbl" unicode="&#x2021;" horiz-adv-x="560" 
d="M363 -100h-166v182h-172v137h172v162h-172v137h172v182h166v-182h172v-137h-172v-162h172v-137h-172v-182z" />
    <glyph glyph-name="bullet" unicode="&#x2022;" horiz-adv-x="288" 
d="M144 158q-47 0 -79.5 30.5t-32.5 76.5t32.5 76.5t79.5 30.5t79 -30t32 -77t-32 -77t-79 -30z" />
    <glyph glyph-name="ellipsis" unicode="&#x2026;" horiz-adv-x="740" 
d="M128 -10q-40 0 -68 26t-28 66q0 39 28 65t68 26t68 -26t28 -65q0 -40 -28 -66t-68 -26zM370 -10q-40 0 -68 26t-28 66q0 39 28 65t68 26t68 -26t28 -65q0 -40 -28 -66t-68 -26zM611 -10q-40 0 -67.5 26t-27.5 66q0 39 27.5 65t67.5 26t68 -26t28 -65q0 -40 -28 -66
t-68 -26z" />
    <glyph glyph-name="perthousand" unicode="&#x2030;" horiz-adv-x="1268" 
d="M205 346q-82 0 -133 52t-51 130t51 130t133 52q84 0 134.5 -52t50.5 -130t-50.5 -130t-134.5 -52zM729 650l-516 -660l-77 60l516 660zM205 448q34 0 54.5 23t20.5 57q0 35 -20.5 58t-54.5 23q-33 0 -53.5 -23t-20.5 -58q0 -34 20.5 -57t53.5 -23zM658 -11
q-82 0 -133 52.5t-51 130.5q0 77 51 129t133 52q83 0 134 -52t51 -129q0 -78 -51 -130.5t-134 -52.5zM1062 -11q-82 0 -133 52.5t-51 130.5q0 77 51 129t133 52q83 0 134 -52t51 -129q0 -78 -51 -130.5t-134 -52.5zM658 91q34 0 54.5 23t20.5 58q0 34 -20.5 57t-54.5 23
q-33 0 -53.5 -23t-20.5 -57q0 -35 20.5 -58t53.5 -23zM1062 91q34 0 54.5 23t20.5 58q0 34 -20.5 57t-54.5 23q-33 0 -53.5 -23t-20.5 -57q0 -35 20.5 -58t53.5 -23z" />
    <glyph glyph-name="guilsinglleft" unicode="&#x2039;" horiz-adv-x="388" 
d="M361 72h-172l-172 188l172 188h172l-177 -188z" />
    <glyph glyph-name="guilsinglright" unicode="&#x203a;" horiz-adv-x="388" 
d="M371 260l-172 -188h-172l177 188l-177 188h172z" />
    <glyph glyph-name="fraction" unicode="&#x2044;" horiz-adv-x="199" 
d="M-70 0h-108l445 700h109z" />
    <glyph glyph-name="uni2070" unicode="&#x2070;" horiz-adv-x="386" 
d="M193 445q-78 0 -122.5 49t-44.5 131t44.5 131t122.5 49q79 0 122.5 -49t43.5 -131t-43.5 -131t-122.5 -49zM193 537q29 0 45.5 23.5t16.5 64.5t-16.5 64.5t-45.5 23.5t-46 -23.5t-17 -64.5q0 -42 16.5 -65t46.5 -23z" />
    <glyph glyph-name="uni2074" unicode="&#x2074;" horiz-adv-x="344" 
d="M281 450h-104v57h-161v89l152 204h113v-210h41v-83h-41v-57zM177 683l-70 -93h70v93z" />
    <glyph glyph-name="uni2075" unicode="&#x2075;" horiz-adv-x="343" 
d="M176 445q-60 0 -102.5 24.5t-52.5 68.5l105 21q11 -32 50 -32q19 0 30.5 10t11.5 28q0 17 -11.5 27.5t-30.5 10.5q-25 0 -44 -17l-91 17l14 197h233v-86h-145l-4 -46h6q27 12 56 12q54 0 87.5 -31.5t33.5 -83.5q0 -58 -38 -89t-108 -31z" />
    <glyph glyph-name="uni2076" unicode="&#x2076;" horiz-adv-x="351" 
d="M282 794l-79 -100q58 -1 92.5 -33.5t34.5 -85.5q0 -58 -42 -94t-113 -36q-68 0 -111 36t-43 94q0 32 11.5 56.5t37.5 60.5l78 108h134v-6zM176 530q22 0 36 12.5t14 32.5q0 19 -14 32t-36 13t-36.5 -13t-14.5 -32q0 -20 14.5 -32.5t36.5 -12.5z" />
    <glyph glyph-name="uni2077" unicode="&#x2077;" horiz-adv-x="313" 
d="M166 450h-120l121 246v5h-146v99h271v-93z" />
    <glyph glyph-name="uni2078" unicode="&#x2078;" horiz-adv-x="343" 
d="M172 445q-66 0 -108 29.5t-42 77.5q0 27 15.5 49t40.5 33q-46 24 -46 72q0 46 38.5 72.5t101.5 26.5q62 0 100.5 -26.5t38.5 -72.5q0 -48 -46 -72q25 -11 40.5 -33.5t15.5 -48.5q0 -48 -42 -77.5t-107 -29.5zM172 663q17 0 27.5 9t10.5 23t-10.5 23.5t-27.5 9.5
q-18 0 -28.5 -9.5t-10.5 -23.5t10.5 -23t28.5 -9zM172 522q19 0 32 10t13 28t-12.5 28t-32.5 10t-32.5 -10t-12.5 -28t12.5 -28t32.5 -10z" />
    <glyph glyph-name="uni2079" unicode="&#x2079;" horiz-adv-x="351" 
d="M176 805q68 0 111 -36t43 -94q0 -32 -11.5 -56.5t-37.5 -60.5l-78 -108h-133v6l79 100q-59 2 -93.5 34t-34.5 85q0 58 42 94t113 36zM125 675q0 -19 14 -32t36 -13q23 0 37 13t14 32q0 20 -14 32.5t-37 12.5q-22 0 -36 -12.5t-14 -32.5z" />
    <glyph glyph-name="uni2080" unicode="&#x2080;" horiz-adv-x="386" 
d="M193 -105q-78 0 -122.5 49t-44.5 131t44.5 131t122.5 49q79 0 122.5 -49t43.5 -131t-43.5 -131t-122.5 -49zM193 -13q29 0 45.5 23.5t16.5 64.5t-16.5 64.5t-45.5 23.5t-46 -23.5t-17 -64.5q0 -42 16.5 -65t46.5 -23z" />
    <glyph glyph-name="uni2081" unicode="&#x2081;" horiz-adv-x="242" 
d="M199 -100h-104v235h-4l-70 -38v104l98 49h80v-350z" />
    <glyph glyph-name="uni2082" unicode="&#x2082;" horiz-adv-x="327" 
d="M304 -100h-274v82l101 79q69 54 69 84q0 14 -10 22.5t-26 8.5q-34 0 -47 -35l-100 21q10 44 49 68.5t97 24.5q65 0 103 -29t38 -80q0 -38 -23.5 -67.5t-73.5 -65.5l-22 -17v-6h119v-90z" />
    <glyph glyph-name="uni2083" unicode="&#x2083;" horiz-adv-x="344" 
d="M300 167l-76 -57q44 -6 69 -33.5t25 -69.5q0 -52 -38 -82t-107 -30q-62 0 -102.5 25t-49.5 72l103 21q8 -36 49 -36q19 0 30 9t11 25q0 35 -45 35h-59v54l70 54v6h-144v90h264v-83z" />
    <glyph glyph-name="uni2084" unicode="&#x2084;" horiz-adv-x="344" 
d="M281 -100h-104v57h-161v89l152 204h113v-210h41v-83h-41v-57zM177 133l-70 -93h70v93z" />
    <glyph glyph-name="uni2085" unicode="&#x2085;" horiz-adv-x="343" 
d="M176 -105q-60 0 -102.5 24.5t-52.5 68.5l105 21q11 -32 50 -32q19 0 30.5 10t11.5 28q0 17 -11.5 27.5t-30.5 10.5q-25 0 -44 -17l-91 17l14 197h233v-86h-145l-4 -46h6q27 12 56 12q54 0 87.5 -31.5t33.5 -83.5q0 -58 -38 -89t-108 -31z" />
    <glyph glyph-name="uni2086" unicode="&#x2086;" horiz-adv-x="351" 
d="M282 244l-79 -100q58 -1 92.5 -33.5t34.5 -85.5q0 -58 -42 -94t-113 -36q-68 0 -111 36t-43 94q0 32 11.5 56.5t37.5 60.5l78 108h134v-6zM176 -20q22 0 36 12.5t14 32.5q0 19 -14 32t-36 13t-36.5 -13t-14.5 -32q0 -20 14.5 -32.5t36.5 -12.5z" />
    <glyph glyph-name="uni2087" unicode="&#x2087;" horiz-adv-x="313" 
d="M166 -100h-120l121 246v5h-146v99h271v-93z" />
    <glyph glyph-name="uni2088" unicode="&#x2088;" horiz-adv-x="343" 
d="M172 -105q-66 0 -108 29.5t-42 77.5q0 27 15.5 49t40.5 33q-46 24 -46 72q0 46 38.5 72.5t101.5 26.5q62 0 100.5 -26.5t38.5 -72.5q0 -48 -46 -72q25 -11 40.5 -33.5t15.5 -48.5q0 -48 -42 -77.5t-107 -29.5zM172 113q17 0 27.5 9t10.5 23t-10.5 23.5t-27.5 9.5
q-18 0 -28.5 -9.5t-10.5 -23.5t10.5 -23t28.5 -9zM172 -28q19 0 32 10t13 28t-12.5 28t-32.5 10t-32.5 -10t-12.5 -28t12.5 -28t32.5 -10z" />
    <glyph glyph-name="uni2089" unicode="&#x2089;" horiz-adv-x="351" 
d="M176 255q68 0 111 -36t43 -94q0 -32 -11.5 -56.5t-37.5 -60.5l-78 -108h-133v6l79 100q-59 2 -93.5 34t-34.5 85q0 58 42 94t113 36zM125 125q0 -19 14 -32t36 -13q23 0 37 13t14 32q0 20 -14 32.5t-37 12.5q-22 0 -36 -12.5t-14 -32.5z" />
    <glyph glyph-name="Euro" unicode="&#x20ac;" horiz-adv-x="780" 
d="M427 -10q-127 0 -213 67t-114 183h-84v81h73q-2 20 -2 29t2 29h-73v81h84q28 116 114 183t213 67q125 0 206 -58.5t109 -171.5l-171 -37q-15 61 -53 92.5t-91 31.5q-109 0 -148 -107h158v-81h-175q-2 -20 -2 -29t2 -29h175v-81h-158q39 -107 148 -107q54 0 93 31.5
t56 92.5l171 -37q-28 -114 -110.5 -172t-209.5 -58z" />
    <glyph glyph-name="uni2116" unicode="&#x2116;" horiz-adv-x="1179" 
d="M965 356q-78 0 -130 50.5t-52 126.5t52 126.5t130 50.5q77 0 129 -50.5t52 -126.5t-52 -126.5t-129 -50.5zM236 0h-170v700h183l276 -446h9q-5 81 -5 181v265h169v-700h-183l-275 446h-9q5 -81 5 -181v-265zM965 460q31 0 50 20.5t19 52.5t-19 52.5t-50 20.5t-50.5 -20.5
t-19.5 -52.5t19.5 -52.5t50.5 -20.5zM1136 187h-343v109h343v-109z" />
    <glyph glyph-name="uni2117" unicode="&#x2117;" horiz-adv-x="742" 
d="M371 -10q-153 0 -251.5 104t-98.5 256q0 151 98.5 255.5t251.5 104.5t251.5 -104.5t98.5 -255.5q0 -152 -98.5 -256t-251.5 -104zM371 62q120 0 196 83t76 205q0 121 -76.5 204.5t-195.5 83.5q-120 0 -196 -83.5t-76 -204.5q0 -122 76 -205t196 -83zM340 175h-90v350h163
q58 0 91 -30t33 -85t-33 -83t-91 -28h-73v-124zM340 453v-87h58q21 0 34.5 11.5t13.5 32.5q0 20 -13.5 31.5t-34.5 11.5h-58z" />
    <glyph glyph-name="trademark" unicode="&#x2122;" horiz-adv-x="813" 
d="M220 350h-96v266h-105v84h306v-84h-105v-266zM452 350h-88v350h131l76 -252l77 252h132v-350h-93v234h-7l-71 -234h-79l-71 234h-7v-234z" />
    <glyph glyph-name="uni2150" unicode="&#x2150;" horiz-adv-x="764" 
d="M199 350h-104v235h-4l-70 -38v104l98 49h80v-350zM182 0h-108l445 700h109zM617 0h-120l121 246v5h-146v99h271v-93z" />
    <glyph glyph-name="uni2151" unicode="&#x2151;" horiz-adv-x="792" 
d="M95 350v235h-4l-70 -38v104l98 49h80v-350h-104zM74 0l445 700h109l-446 -700h-108zM617 355q68 0 111 -36t43 -94q0 -32 -11.5 -56.5t-37.5 -60.5l-78 -108h-133v6l79 100q-59 2 -93.5 34t-34.5 85q0 58 42 94t113 36zM566 225q0 -19 14 -32t36 -13q23 0 37 13t14 32
q0 20 -14 32.5t-37 12.5q-22 0 -36 -12.5t-14 -32.5z" />
    <glyph glyph-name="uni2152" unicode="&#x2152;" horiz-adv-x="1079" 
d="M199 350h-104v235h-4l-70 -38v104l98 49h80v-350zM182 0h-108l445 700h109zM886 -5q-78 0 -122.5 49t-44.5 131t44.5 131t122.5 49q79 0 122.5 -49t43.5 -131t-43.5 -131t-122.5 -49zM650 0h-104v235h-4l-70 -38v104l98 49h80v-350zM886 87q29 0 45.5 23.5t16.5 64.5
t-16.5 64.5t-45.5 23.5t-46 -23.5t-17 -64.5q0 -42 16.5 -65t46.5 -23z" />
    <glyph glyph-name="uni2153" unicode="&#x2153;" horiz-adv-x="795" 
d="M95 350v235h-4l-70 -38v104l98 49h80v-350h-104zM74 0l445 700h109l-446 -700h-108zM751 267l-76 -57q44 -6 69 -33.5t25 -69.5q0 -52 -38 -82t-107 -30q-62 0 -102.5 25t-49.5 72l103 21q8 -36 49 -36q19 0 30 9t11 25q0 35 -45 35h-59v54l70 54v6h-144v90h264v-83z" />
    <glyph glyph-name="uni2154" unicode="&#x2154;" horiz-adv-x="870" 
d="M30 432l101 79q69 54 69 84q0 14 -10 22.5t-26 8.5q-34 0 -47 -35l-100 21q10 44 49 68.5t97 24.5q65 0 103 -29t38 -80q0 -38 -23.5 -67.5t-73.5 -65.5l-22 -17v-6h119v-90h-274v82zM149 0l445 700h109l-446 -700h-108zM826 267l-76 -57q44 -6 69 -33.5t25 -69.5
q0 -52 -38 -82t-107 -30q-62 0 -102.5 25t-49.5 72l103 21q8 -36 49 -36q19 0 30 9t11 25q0 35 -45 35h-59v54l70 54v6h-144v90h264v-83z" />
    <glyph glyph-name="uni2155" unicode="&#x2155;" horiz-adv-x="789" 
d="M199 350h-104v235h-4l-70 -38v104l98 49h80v-350zM182 0h-108l445 700h109zM622 -5q-60 0 -102.5 24.5t-52.5 68.5l105 21q11 -32 50 -32q19 0 30.5 10t11.5 28q0 17 -11.5 27.5t-30.5 10.5q-25 0 -44 -17l-91 17l14 197h233v-86h-145l-4 -46h6q27 12 56 12
q54 0 87.5 -31.5t33.5 -83.5q0 -58 -38 -89t-108 -31z" />
    <glyph glyph-name="uni2156" unicode="&#x2156;" horiz-adv-x="864" 
d="M304 350h-274v82l101 79q69 54 69 84q0 14 -10 22.5t-26 8.5q-34 0 -47 -35l-100 21q10 44 49 68.5t97 24.5q65 0 103 -29t38 -80q0 -38 -23.5 -67.5t-73.5 -65.5l-22 -17v-6h119v-90zM257 0h-108l445 700h109zM697 -5q-60 0 -102.5 24.5t-52.5 68.5l105 21
q11 -32 50 -32q19 0 30.5 10t11.5 28q0 17 -11.5 27.5t-30.5 10.5q-25 0 -44 -17l-91 17l14 197h233v-86h-145l-4 -46h6q27 12 56 12q54 0 87.5 -31.5t33.5 -83.5q0 -58 -38 -89t-108 -31z" />
    <glyph glyph-name="uni2157" unicode="&#x2157;" horiz-adv-x="881" 
d="M318 457q0 -52 -38 -82t-107 -30q-62 0 -102.5 25t-49.5 72l103 21q8 -36 49 -36q19 0 30 9t11 25q0 35 -45 35h-59v54l70 54v6h-144v90h264v-83l-76 -57q44 -6 69 -33.5t25 -69.5zM166 0l445 700h109l-446 -700h-108zM739 230q54 0 87.5 -31.5t33.5 -83.5q0 -58 -38 -89
t-108 -31q-60 0 -102.5 24.5t-52.5 68.5l105 21q11 -32 50 -32q19 0 30.5 10t11.5 28q0 17 -11.5 27.5t-30.5 10.5q-25 0 -44 -17l-91 17l14 197h233v-86h-145l-4 -46h6q27 12 56 12z" />
    <glyph glyph-name="uni2158" unicode="&#x2158;" horiz-adv-x="881" 
d="M281 350h-104v57h-161v89l152 204h113v-210h41v-83h-41v-57zM274 0h-108l445 700h109zM177 583l-70 -93h70v93zM714 -5q-60 0 -102.5 24.5t-52.5 68.5l105 21q11 -32 50 -32q19 0 30.5 10t11.5 28q0 17 -11.5 27.5t-30.5 10.5q-25 0 -44 -17l-91 17l14 197h233v-86h-145
l-4 -46h6q27 12 56 12q54 0 87.5 -31.5t33.5 -83.5q0 -58 -38 -89t-108 -31z" />
    <glyph glyph-name="uni2159" unicode="&#x2159;" horiz-adv-x="767" 
d="M95 350v235h-4l-70 -38v104l98 49h80v-350h-104zM74 0l445 700h109l-446 -700h-108zM698 344l-79 -100q58 -1 92.5 -33.5t34.5 -85.5q0 -58 -42 -94t-113 -36q-68 0 -111 36t-43 94q0 32 11.5 56.5t37.5 60.5l78 108h134v-6zM592 80q22 0 36 12.5t14 32.5q0 19 -14 32
t-36 13t-36.5 -13t-14.5 -32q0 -20 14.5 -32.5t36.5 -12.5z" />
    <glyph glyph-name="uni215A" unicode="&#x215a;" horiz-adv-x="858" 
d="M322 465q0 -58 -38 -89t-108 -31q-60 0 -102.5 24.5t-52.5 68.5l105 21q11 -32 50 -32q19 0 30.5 10t11.5 28q0 17 -11.5 27.5t-30.5 10.5q-25 0 -44 -17l-91 17l14 197h233v-86h-145l-4 -46h6q27 12 56 12q54 0 87.5 -31.5t33.5 -83.5zM165 0l445 700h109l-446 -700
h-108zM789 344l-79 -100q58 -1 92.5 -33.5t34.5 -85.5q0 -58 -42 -94t-113 -36q-68 0 -111 36t-43 94q0 32 11.5 56.5t37.5 60.5l78 108h134v-6zM683 80q22 0 36 12.5t14 32.5q0 19 -14 32t-36 13t-36.5 -13t-14.5 -32q0 -20 14.5 -32.5t36.5 -12.5z" />
    <glyph glyph-name="oneeighth" unicode="&#x215b;" horiz-adv-x="784" 
d="M199 350h-104v235h-4l-70 -38v104l98 49h80v-350zM182 0h-108l445 700h109zM613 -5q-66 0 -108 29.5t-42 77.5q0 27 15.5 49t40.5 33q-46 24 -46 72q0 46 38.5 72.5t101.5 26.5q62 0 100.5 -26.5t38.5 -72.5q0 -48 -46 -72q25 -11 40.5 -33.5t15.5 -48.5q0 -48 -42 -77.5
t-107 -29.5zM613 213q17 0 27.5 9t10.5 23t-10.5 23.5t-27.5 9.5q-18 0 -28.5 -9.5t-10.5 -23.5t10.5 -23t28.5 -9zM613 72q19 0 32 10t13 28t-12.5 28t-32.5 10t-32.5 -10t-12.5 -28t12.5 -28t32.5 -10z" />
    <glyph glyph-name="threeeighths" unicode="&#x215c;" horiz-adv-x="876" 
d="M318 457q0 -52 -38 -82t-107 -30q-62 0 -102.5 25t-49.5 72l103 21q8 -36 49 -36q19 0 30 9t11 25q0 35 -45 35h-59v54l70 54v6h-144v90h264v-83l-76 -57q44 -6 69 -33.5t25 -69.5zM166 0l445 700h109l-446 -700h-108zM798 184q25 -11 40.5 -33.5t15.5 -48.5
q0 -48 -42 -77.5t-107 -29.5q-66 0 -108 29.5t-42 77.5q0 27 15.5 49t40.5 33q-46 24 -46 72q0 46 38.5 72.5t101.5 26.5q62 0 100.5 -26.5t38.5 -72.5q0 -48 -46 -72zM705 278q-18 0 -28.5 -9.5t-10.5 -23.5t10.5 -23t28.5 -9q17 0 27.5 9t10.5 23t-10.5 23.5t-27.5 9.5z
M705 72q19 0 32 10t13 28t-12.5 28t-32.5 10t-32.5 -10t-12.5 -28t12.5 -28t32.5 -10z" />
    <glyph glyph-name="fiveeighths" unicode="&#x215d;" horiz-adv-x="875" 
d="M176 345q-60 0 -102.5 24.5t-52.5 68.5l105 21q11 -32 50 -32q19 0 30.5 10t11.5 28q0 17 -11.5 27.5t-30.5 10.5q-25 0 -44 -17l-91 17l14 197h233v-86h-145l-4 -46h6q27 12 56 12q54 0 87.5 -31.5t33.5 -83.5q0 -58 -38 -89t-108 -31zM273 0h-108l445 700h109zM704 -5
q-66 0 -108 29.5t-42 77.5q0 27 15.5 49t40.5 33q-46 24 -46 72q0 46 38.5 72.5t101.5 26.5q62 0 100.5 -26.5t38.5 -72.5q0 -48 -46 -72q25 -11 40.5 -33.5t15.5 -48.5q0 -48 -42 -77.5t-107 -29.5zM704 213q17 0 27.5 9t10.5 23t-10.5 23.5t-27.5 9.5q-18 0 -28.5 -9.5
t-10.5 -23.5t10.5 -23t28.5 -9zM704 72q19 0 32 10t13 28t-12.5 28t-32.5 10t-32.5 -10t-12.5 -28t12.5 -28t32.5 -10z" />
    <glyph glyph-name="seveneighths" unicode="&#x215e;" horiz-adv-x="805" 
d="M166 350h-120l121 246v5h-146v99h271v-93zM203 0h-108l445 700h109zM634 -5q-66 0 -108 29.5t-42 77.5q0 27 15.5 49t40.5 33q-46 24 -46 72q0 46 38.5 72.5t101.5 26.5q62 0 100.5 -26.5t38.5 -72.5q0 -48 -46 -72q25 -11 40.5 -33.5t15.5 -48.5q0 -48 -42 -77.5
t-107 -29.5zM634 213q17 0 27.5 9t10.5 23t-10.5 23.5t-27.5 9.5q-18 0 -28.5 -9.5t-10.5 -23.5t10.5 -23t28.5 -9zM634 72q19 0 32 10t13 28t-12.5 28t-32.5 10t-32.5 -10t-12.5 -28t12.5 -28t32.5 -10z" />
    <glyph glyph-name="uni215F" unicode="&#x215f;" horiz-adv-x="642" 
d="M199 350h-104v235h-4l-70 -38v104l98 49h80v-350zM153 0h-108l445 700h109z" />
    <glyph glyph-name="partialdiff" unicode="&#x2202;" horiz-adv-x="569" 
d="M281 -10q-109 0 -178 64t-69 166q0 97 56 161.5t153 64.5q70 0 115 -39h9q-30 156 -200 156q-43 0 -90 -12v141q62 8 103 8q96 0 167 -35t110.5 -95.5t58.5 -130.5t19 -149q0 -139 -64.5 -219.5t-189.5 -80.5zM280 110q42 0 67.5 30.5t25.5 79.5q0 48 -25.5 78.5
t-67.5 30.5t-67 -30t-25 -79q0 -48 26 -79t66 -31z" />
    <glyph glyph-name="emptyset" unicode="&#x2205;" horiz-adv-x="607" 
d="M207 103l-41 -72l-72 35l45 77q-47 37 -73.5 91t-26.5 116q0 110 77.5 187.5t187.5 77.5q52 0 95 -18l41 72l73 -35l-44 -77q47 -37 73.5 -91t26.5 -116q0 -110 -77.5 -187.5t-187.5 -77.5q-50 0 -97 18zM181 219l175 303q-27 8 -52 8q-74 0 -127 -52.5t-53 -127.5
q0 -79 57 -131zM304 170q74 0 127 53t53 127q0 77 -58 132l-175 -304q26 -8 53 -8z" />
    <glyph glyph-name="uni2206" unicode="&#x2206;" horiz-adv-x="618" 
d="M604 0h-591l218 700h156zM304 493l-101 -364h210l-100 364h-9z" />
    <glyph glyph-name="product" unicode="&#x220f;" horiz-adv-x="753" 
d="M313 -200h-166v743h-92v157h643v-157h-92v-743h-166v743h-127v-743z" />
    <glyph glyph-name="summation" unicode="&#x2211;" horiz-adv-x="570" 
d="M523 0h-461v130l164 220l-164 220v130h461v-140h-271l156 -210l-156 -210h271v-140z" />
    <glyph glyph-name="minus" unicode="&#x2212;" 
d="M478 232h-447v137h447v-137z" />
    <glyph glyph-name="radical" unicode="&#x221a;" horiz-adv-x="643" 
d="M389 0h-182l-107 297h-98v118h195l102 -284l199 569h142z" />
    <glyph glyph-name="infinity" unicode="&#x221e;" horiz-adv-x="705" 
d="M185 137q-69 0 -113.5 46t-44.5 117t44.5 117t113.5 46q51 0 88 -22.5t79 -65.5q43 44 80 66t88 22q68 0 112.5 -46t44.5 -117q0 -72 -44 -117.5t-113 -45.5q-51 0 -87.5 22t-80.5 66q-42 -43 -79 -65.5t-88 -22.5zM198 236q45 0 104 64q-59 64 -104 64q-27 0 -45 -17.5
t-18 -46.5t18 -46.5t45 -17.5zM507 236q27 0 44.5 17.5t17.5 46.5q0 28 -17.5 46t-44.5 18q-45 0 -105 -64q61 -64 105 -64z" />
    <glyph glyph-name="integral" unicode="&#x222b;" horiz-adv-x="443" 
d="M100 -200h-73v135h40q62 0 62 69v492q0 204 201 204h75v-135h-42q-69 0 -69 -69v-492q0 -204 -194 -204z" />
    <glyph glyph-name="approxequal" unicode="&#x2248;" 
d="M149 311h-118v60q0 67 33 102.5t87 35.5q40 0 98.5 -30t76.5 -30q34 0 34 35v25h118v-60q0 -69 -31.5 -103.5t-88.5 -34.5q-44 0 -100 30t-75 30q-34 0 -34 -35v-25zM149 91h-118v60q0 67 33 102.5t87 35.5q40 0 98.5 -30t76.5 -30q34 0 34 35v25h118v-60
q0 -69 -31.5 -103.5t-88.5 -34.5q-44 0 -100 30t-75 30q-34 0 -34 -35v-25z" />
    <glyph glyph-name="notequal" unicode="&#x2260;" 
d="M192 17h-106l47 115h-102v123h152l37 90h-189v123h239l47 115h106l-47 -115h102v-123h-152l-37 -90h189v-123h-239z" />
    <glyph glyph-name="lessequal" unicode="&#x2264;" 
d="M478 312v-142l-447 128v159l447 128v-142l-302 -65zM478 5h-447v126h447v-126z" />
    <glyph glyph-name="greaterequal" unicode="&#x2265;" 
d="M478 298l-447 -128v142l302 66l-302 65v142l447 -128v-159zM478 5h-447v126h447v-126z" />
    <glyph glyph-name="lozenge" unicode="&#x25ca;" horiz-adv-x="595" 
d="M374 0h-153l-171 350l171 350h153l171 -350zM201 350l97 -198l97 198l-97 198z" />
    <glyph glyph-name="uniE132" unicode="&#xe132;" horiz-adv-x="599" 
d="M210 572h-131l69 161h195zM523 572h-131l69 161h195zM228 0h-169v510h169v-510zM358 -210q-82 0 -139 29l39 123q25 -14 55 -14q59 0 59 64v518h169v-527q0 -94 -46.5 -143.5t-136.5 -49.5z" />
    <glyph glyph-name="uniE133" unicode="&#xe133;" horiz-adv-x="800" 
d="M219 762h-131l69 161h195zM713 762h-131l69 161h195zM239 0h-173v700h173v-700zM466 0h-130v140h113q111 0 111 113v447h173v-451q0 -120 -69 -184.5t-198 -64.5z" />
    <glyph glyph-name="fi" unicode="&#xfb01;" horiz-adv-x="736" 
d="M593 565q-43 0 -72.5 27.5t-29.5 67.5t29.5 67.5t72.5 27.5t72 -27.5t29 -67.5t-29 -67.5t-72 -27.5zM288 0h-169v360h-97v131h97v31q0 94 49 141t140 47q77 0 140 -31l-35 -113q-31 16 -63 16q-62 0 -62 -64v-27h389v-491h-169v360h-220v-360z" />
    <glyph glyph-name="Iacute_J.loclNLD" horiz-adv-x="800" 
d="M219 762h-131l69 161h195zM713 762h-131l69 161h195zM239 0h-173v700h173v-700zM466 0h-130v140h113q111 0 111 113v447h173v-451q0 -120 -69 -184.5t-198 -64.5z" />
    <glyph glyph-name="J.ss01" horiz-adv-x="554" 
d="M220 0h-180v148h163q111 0 111 112v440h173v-451q0 -120 -69 -184.5t-198 -64.5z" />
    <glyph glyph-name="Jcircumflex.ss01" horiz-adv-x="554" 
d="M347 762h-146l129 161h143l128 -161h-150l-52 84zM220 0h-180v148h163q111 0 111 112v440h173v-451q0 -120 -69 -184.5t-198 -64.5z" />
    <glyph glyph-name="Eng.ss01" horiz-adv-x="765" 
d="M509 -200h-85v137h61q51 0 51 50v5l-296 463h-9q5 -81 5 -181v-274h-170v700h183l276 -429h9q-5 81 -5 182v247h169v-700q0 -102 -50.5 -151t-138.5 -49z" />
    <glyph glyph-name="uni019D.ss01" horiz-adv-x="765" 
d="M47 -200h-93v137h56q56 0 56 63v700h183l276 -446h9q-5 81 -5 181v265h169v-700h-183l-275 446h-9q5 -81 5 -181v-265q0 -102 -50.5 -151t-138.5 -49z" />
    <glyph glyph-name="uni1E9E.ss01" horiz-adv-x="750" 
d="M676 563l-162 -164q94 -8 147.5 -60t53.5 -136q0 -92 -66.5 -147.5t-184.5 -55.5h-158v137h143q45 0 69 20.5t24 53.5t-24.5 52t-71.5 19h-100v114l156 159v8h-130q-133 0 -133 -141v-422h-173v422q0 278 296 278h314v-137z" />
    <glyph glyph-name="J.ss05" horiz-adv-x="659" 
d="M315 -10q-99 0 -176.5 45.5t-101.5 140.5l164 36q23 -82 114 -82q49 0 77 29t28 83v310h-311v148h484v-465q0 -114 -72 -179.5t-206 -65.5z" />
    <glyph glyph-name="Jcircumflex.ss05" horiz-adv-x="659" 
d="M297 762h-146l129 161h143l128 -161h-150l-52 84zM315 -10q-99 0 -176.5 45.5t-101.5 140.5l164 36q23 -82 114 -82q49 0 77 29t28 83v310h-311v148h484v-465q0 -114 -72 -179.5t-206 -65.5z" />
    <glyph glyph-name="i.loclTRK" horiz-adv-x="287" 
d="M143 565q-43 0 -72 27.5t-29 67.5t29 67.5t72 27.5t72.5 -27.5t29.5 -67.5t-29.5 -67.5t-72.5 -27.5zM228 0h-169v510h169v-510z" />
    <glyph glyph-name="iacute_j.loclNLD" horiz-adv-x="599" 
d="M210 572h-131l69 161h195zM523 572h-131l69 161h195zM228 0h-169v510h169v-510zM358 -210q-82 0 -139 29l39 123q25 -14 55 -14q59 0 59 64v518h169v-527q0 -94 -46.5 -143.5t-136.5 -49.5z" />
    <glyph glyph-name="f.ss01" horiz-adv-x="452" 
d="M288 0h-169v360h-97v131h97v17q0 92 52.5 142t144.5 50h114v-125h-80q-29 0 -45.5 -17.5t-16.5 -50.5v-16h130v-131h-130v-360z" />
    <glyph glyph-name="iacute_j.loclNLD.ss01" horiz-adv-x="583" 
d="M210 572h-131l69 161h195zM506 572h-131l69 161h195zM228 0h-169v510h169v-510zM335 -200h-83v137h47q56 0 56 63v510h169v-510q0 -102 -50.5 -151t-138.5 -49z" />
    <glyph glyph-name="ij.ss01" horiz-adv-x="583" 
d="M143 565q-43 0 -72 27.5t-29 67.5t29 67.5t72 27.5t72.5 -27.5t29.5 -67.5t-29.5 -67.5t-72.5 -27.5zM440 565q-43 0 -72 27.5t-29 67.5t29 67.5t72 27.5t72.5 -27.5t29.5 -67.5t-29.5 -67.5t-72.5 -27.5zM228 0h-169v510h169v-510zM335 -200h-83v137h47q56 0 56 63v510
h169v-510q0 -102 -50.5 -151t-138.5 -49z" />
    <glyph glyph-name="j.ss01" horiz-adv-x="311" 
d="M168 565q-43 0 -72 27.5t-29 67.5t29 67.5t72 27.5t72.5 -27.5t29.5 -67.5t-29.5 -67.5t-72.5 -27.5zM63 -200h-83v137h47q56 0 56 63v510h169v-510q0 -102 -50.5 -151t-138.5 -49z" />
    <glyph glyph-name="uni0237.ss01" horiz-adv-x="311" 
d="M63 -200h-83v137h47q56 0 56 63v510h169v-510q0 -102 -50.5 -151t-138.5 -49z" />
    <glyph glyph-name="jcircumflex.ss01" horiz-adv-x="311" 
d="M114 572h-146l129 161h143l128 -161h-150l-52 84zM63 -200h-83v137h47q56 0 56 63v510h169v-510q0 -102 -50.5 -151t-138.5 -49z" />
    <glyph glyph-name="eng.ss01" horiz-adv-x="639" 
d="M396 -200h-92v137h56q56 0 56 63v272q0 51 -22 77.5t-63 26.5q-47 0 -75 -34.5t-28 -89.5v-252h-169v238q0 181 -5 272h162l11 -81h9q65 91 172 91q84 0 130.5 -53t46.5 -153v-314q0 -102 -50.5 -151t-138.5 -49z" />
    <glyph glyph-name="uni0272.ss01" horiz-adv-x="673" 
d="M73 -200h-93v137h56q56 0 56 63v238q0 181 -5 272h162l12 -81h9q65 91 171 91q84 0 131 -53t47 -153v-314h-169v272q0 51 -22 77.5t-63 26.5q-47 0 -75 -34.5t-28 -89.5v-252q0 -102 -50.5 -151t-138.5 -49z" />
    <glyph glyph-name="germandbls.ss01" horiz-adv-x="673" 
d="M228 0h-169v471q0 113 73 176t206 63q123 0 193 -53t70 -142q0 -107 -91 -145v-9q129 -39 129 -168q0 -83 -57 -138t-167 -55h-111v132h77q41 0 65 20.5t24 59.5t-27 60.5t-73 21.5h-56v126h37q41 0 63.5 20t22.5 59q0 38 -26.5 60t-72.5 22q-51 0 -80.5 -29.5
t-29.5 -84.5v-467z" />
    <glyph glyph-name="t.ss01" horiz-adv-x="462" 
d="M419 0h-95q-97 0 -151 49.5t-54 152.5v176h-97v132h104l23 148h139v-148h131v-132h-131v-171q0 -37 16.5 -53.5t51.5 -16.5h63v-137z" />
    <glyph glyph-name="tbar.ss01" horiz-adv-x="462" 
d="M419 510v-132h-131v-74h122v-77h-122v-20q0 -37 16.5 -53.5t51.5 -16.5h63v-137h-95q-97 0 -151 49.5t-54 152.5v25h-92v77h92v74h-97v132h104l23 148h139v-148h131z" />
    <glyph glyph-name="tcaron.ss01" horiz-adv-x="482" 
d="M428 549h-89l9 201h131zM419 0h-95q-97 0 -151 49.5t-54 152.5v176h-97v132h104l23 148h139v-148h131v-132h-131v-171q0 -37 16.5 -53.5t51.5 -16.5h63v-137z" />
    <glyph glyph-name="uni0163.ss01" horiz-adv-x="462" 
d="M340 -37q50 0 81 -26.5t31 -74.5q0 -49 -38 -80t-106 -31q-77 0 -137 43l45 71q41 -31 86 -31q46 0 46 30t-41 30q-22 0 -40 -7l-21 31l29 85q-156 24 -156 199v176h-97v132h104l23 148h139v-148h131v-132h-131v-171q0 -37 16.5 -53.5t51.5 -16.5h63v-137h-67z" />
    <glyph glyph-name="uni021B.ss01" horiz-adv-x="462" 
d="M419 0h-95q-97 0 -151 49.5t-54 152.5v176h-97v132h104l23 148h139v-148h131v-132h-131v-171q0 -37 16.5 -53.5t51.5 -16.5h63v-137zM319 -205h-121l32 159h158z" />
    <glyph glyph-name="a.ss02" horiz-adv-x="629" 
d="M235 -10q-94 0 -147.5 70t-53.5 195t53.5 195t147.5 70q104 0 157 -91h9l12 81h157v-238q0 -181 5 -272h-162l-12 81h-9q-53 -91 -157 -91zM302 127q45 0 72 34.5t27 93.5t-27 93.5t-72 34.5t-72 -34.5t-27 -93.5t27 -93.5t72 -34.5z" />
    <glyph glyph-name="aacute.ss02" horiz-adv-x="629" 
d="M368 572h-131l69 161h195zM235 -10q-94 0 -147.5 70t-53.5 195t53.5 195t147.5 70q104 0 157 -91h9l12 81h157v-238q0 -181 5 -272h-162l-12 81h-9q-53 -91 -157 -91zM302 127q45 0 72 34.5t27 93.5t-27 93.5t-72 34.5t-72 -34.5t-27 -93.5t27 -93.5t72 -34.5z" />
    <glyph glyph-name="abreve.ss02" horiz-adv-x="629" 
d="M302 567q-80 0 -125.5 43.5t-45.5 122.5h103q0 -33 17.5 -53t50.5 -20t50.5 20t17.5 53h102q0 -79 -45 -122.5t-125 -43.5zM235 -10q-94 0 -147.5 70t-53.5 195t53.5 195t147.5 70q104 0 157 -91h9l12 81h157v-238q0 -181 5 -272h-162l-12 81h-9q-53 -91 -157 -91z
M302 127q45 0 72 34.5t27 93.5t-27 93.5t-72 34.5t-72 -34.5t-27 -93.5t27 -93.5t72 -34.5z" />
    <glyph glyph-name="uni01CE.ss02" horiz-adv-x="629" 
d="M373 572h-143l-129 161h150l53 -84l52 84h145zM235 -10q-94 0 -147.5 70t-53.5 195t53.5 195t147.5 70q104 0 157 -91h9l12 81h157v-238q0 -181 5 -272h-162l-12 81h-9q-53 -91 -157 -91zM302 127q45 0 72 34.5t27 93.5t-27 93.5t-72 34.5t-72 -34.5t-27 -93.5t27 -93.5
t72 -34.5z" />
    <glyph glyph-name="acircumflex.ss02" horiz-adv-x="629" 
d="M247 572h-146l129 161h143l128 -161h-150l-52 84zM235 -10q-94 0 -147.5 70t-53.5 195t53.5 195t147.5 70q104 0 157 -91h9l12 81h157v-238q0 -181 5 -272h-162l-12 81h-9q-53 -91 -157 -91zM302 127q45 0 72 34.5t27 93.5t-27 93.5t-72 34.5t-72 -34.5t-27 -93.5
t27 -93.5t72 -34.5z" />
    <glyph glyph-name="adieresis.ss02" horiz-adv-x="629" 
d="M188 570q-38 0 -64.5 24.5t-26.5 61.5t26.5 62t64.5 25q39 0 65 -25t26 -62t-26 -61.5t-65 -24.5zM416 570q-38 0 -64.5 24.5t-26.5 61.5t26.5 62t64.5 25q39 0 65 -25t26 -62t-26 -61.5t-65 -24.5zM235 -10q-94 0 -147.5 70t-53.5 195t53.5 195t147.5 70q104 0 157 -91
h9l12 81h157v-238q0 -181 5 -272h-162l-12 81h-9q-53 -91 -157 -91zM302 127q45 0 72 34.5t27 93.5t-27 93.5t-72 34.5t-72 -34.5t-27 -93.5t27 -93.5t72 -34.5z" />
    <glyph glyph-name="uni1EA1.ss02" horiz-adv-x="629" 
d="M235 -10q-94 0 -147.5 70t-53.5 195t53.5 195t147.5 70q104 0 157 -91h9l12 81h157v-238q0 -181 5 -272h-162l-12 81h-9q-53 -91 -157 -91zM302 127q45 0 72 34.5t27 93.5t-27 93.5t-72 34.5t-72 -34.5t-27 -93.5t27 -93.5t72 -34.5zM301 -211q-38 0 -65 24.5t-27 61.5
q0 36 27 60.5t65 24.5q39 0 65.5 -24.5t26.5 -60.5q0 -37 -26.5 -61.5t-65.5 -24.5z" />
    <glyph glyph-name="agrave.ss02" horiz-adv-x="629" 
d="M367 572h-132l-132 161h194zM235 -10q-94 0 -147.5 70t-53.5 195t53.5 195t147.5 70q104 0 157 -91h9l12 81h157v-238q0 -181 5 -272h-162l-12 81h-9q-53 -91 -157 -91zM302 127q45 0 72 34.5t27 93.5t-27 93.5t-72 34.5t-72 -34.5t-27 -93.5t27 -93.5t72 -34.5z" />
    <glyph glyph-name="amacron.ss02" horiz-adv-x="629" 
d="M459 598h-315v114h315v-114zM235 -10q-94 0 -147.5 70t-53.5 195t53.5 195t147.5 70q104 0 157 -91h9l12 81h157v-238q0 -181 5 -272h-162l-12 81h-9q-53 -91 -157 -91zM302 127q45 0 72 34.5t27 93.5t-27 93.5t-72 34.5t-72 -34.5t-27 -93.5t27 -93.5t72 -34.5z" />
    <glyph glyph-name="aogonek.ss02" horiz-adv-x="629" 
d="M499 -107q0 -37 42 -37q19 0 34 5v-97q-31 -7 -65 -7q-55 0 -89 26t-34 78q0 83 101 139h-75l-12 81h-9q-53 -91 -157 -91q-94 0 -147.5 70t-53.5 195t53.5 195t147.5 70q104 0 157 -91h9l12 81h157v-238q0 -181 5 -272q-76 -61 -76 -107zM302 127q45 0 72 34.5t27 93.5
t-27 93.5t-72 34.5t-72 -34.5t-27 -93.5t27 -93.5t72 -34.5z" />
    <glyph glyph-name="aring.ss02" horiz-adv-x="629" 
d="M302 550q-58 0 -95.5 33.5t-37.5 85.5t37.5 85.5t95.5 33.5t95.5 -33.5t37.5 -85.5t-37.5 -85.5t-95.5 -33.5zM302 624q21 0 33 12.5t12 32.5t-12 32.5t-33 12.5t-33 -12.5t-12 -32.5t12 -32.5t33 -12.5zM235 -10q-94 0 -147.5 70t-53.5 195t53.5 195t147.5 70
q104 0 157 -91h9l12 81h157v-238q0 -181 5 -272h-162l-12 81h-9q-53 -91 -157 -91zM302 127q45 0 72 34.5t27 93.5t-27 93.5t-72 34.5t-72 -34.5t-27 -93.5t27 -93.5t72 -34.5z" />
    <glyph glyph-name="aringacute.ss02" horiz-adv-x="629" 
d="M302 545q-59 0 -96 24t-37 67q0 34 23 56.5t64 30.5l25 65h150l-61 -71q65 -23 65 -81q0 -43 -37 -67t-96 -24zM302 601q21 0 33.5 10t12.5 25q0 16 -12.5 25.5t-33.5 9.5q-22 0 -34.5 -9.5t-12.5 -25.5q0 -15 13 -25t34 -10zM235 -10q-94 0 -147.5 70t-53.5 195
t53.5 195t147.5 70q104 0 157 -91h9l12 81h157v-238q0 -181 5 -272h-162l-12 81h-9q-53 -91 -157 -91zM302 127q45 0 72 34.5t27 93.5t-27 93.5t-72 34.5t-72 -34.5t-27 -93.5t27 -93.5t72 -34.5z" />
    <glyph glyph-name="atilde.ss02" horiz-adv-x="629" 
d="M214 567h-87v56q0 54 25.5 84.5t66.5 30.5q35 0 78 -29t59 -29q33 0 33 58h87v-58q0 -55 -24.5 -84t-66.5 -29q-36 0 -79 29t-59 29q-33 0 -33 -58zM235 -10q-94 0 -147.5 70t-53.5 195t53.5 195t147.5 70q104 0 157 -91h9l12 81h157v-238q0 -181 5 -272h-162l-12 81h-9
q-53 -91 -157 -91zM302 127q45 0 72 34.5t27 93.5t-27 93.5t-72 34.5t-72 -34.5t-27 -93.5t27 -93.5t72 -34.5z" />
    <glyph glyph-name="u.ss03" horiz-adv-x="634" 
d="M317 -10q-129 0 -196 66.5t-67 183.5v270h169v-267q0 -113 94 -113q46 0 70 29.5t24 83.5v267h169v-270q0 -117 -67 -183.5t-196 -66.5z" />
    <glyph glyph-name="uacute.ss03" horiz-adv-x="634" 
d="M383 572h-131l69 161h195zM317 -10q-129 0 -196 66.5t-67 183.5v270h169v-267q0 -113 94 -113q46 0 70 29.5t24 83.5v267h169v-270q0 -117 -67 -183.5t-196 -66.5z" />
    <glyph glyph-name="ubreve.ss03" horiz-adv-x="634" 
d="M317 567q-80 0 -125.5 43.5t-45.5 122.5h103q0 -33 17.5 -53t50.5 -20t50.5 20t17.5 53h102q0 -79 -45 -122.5t-125 -43.5zM317 -10q-129 0 -196 66.5t-67 183.5v270h169v-267q0 -113 94 -113q46 0 70 29.5t24 83.5v267h169v-270q0 -117 -67 -183.5t-196 -66.5z" />
    <glyph glyph-name="uni01D4.ss03" horiz-adv-x="634" 
d="M389 572h-143l-129 161h150l53 -84l52 84h145zM317 -10q-129 0 -196 66.5t-67 183.5v270h169v-267q0 -113 94 -113q46 0 70 29.5t24 83.5v267h169v-270q0 -117 -67 -183.5t-196 -66.5z" />
    <glyph glyph-name="ucircumflex.ss03" horiz-adv-x="634" 
d="M263 572h-146l129 161h143l128 -161h-150l-52 84zM317 -10q-129 0 -196 66.5t-67 183.5v270h169v-267q0 -113 94 -113q46 0 70 29.5t24 83.5v267h169v-270q0 -117 -67 -183.5t-196 -66.5z" />
    <glyph glyph-name="udieresis.ss03" horiz-adv-x="634" 
d="M203 570q-38 0 -64.5 24.5t-26.5 61.5t26.5 62t64.5 25q39 0 65 -25t26 -62t-26 -61.5t-65 -24.5zM431 570q-38 0 -64.5 24.5t-26.5 61.5t26.5 62t64.5 25q39 0 65 -25t26 -62t-26 -61.5t-65 -24.5zM317 -10q-129 0 -196 66.5t-67 183.5v270h169v-267q0 -113 94 -113
q46 0 70 29.5t24 83.5v267h169v-270q0 -117 -67 -183.5t-196 -66.5z" />
    <glyph glyph-name="uni1EE5.ss03" horiz-adv-x="634" 
d="M317 -10q-129 0 -196 66.5t-67 183.5v270h169v-267q0 -113 94 -113q46 0 70 29.5t24 83.5v267h169v-270q0 -117 -67 -183.5t-196 -66.5zM317 -211q-38 0 -65 24.5t-27 61.5q0 36 27 60.5t65 24.5q39 0 65.5 -24.5t26.5 -60.5q0 -37 -26.5 -61.5t-65.5 -24.5z" />
    <glyph glyph-name="ugrave.ss03" horiz-adv-x="634" 
d="M383 572h-132l-132 161h194zM317 -10q-129 0 -196 66.5t-67 183.5v270h169v-267q0 -113 94 -113q46 0 70 29.5t24 83.5v267h169v-270q0 -117 -67 -183.5t-196 -66.5z" />
    <glyph glyph-name="uhungarumlaut.ss03" horiz-adv-x="634" 
d="M273 572h-114l68 161h167zM474 572h-114l67 161h168zM317 -10q-129 0 -196 66.5t-67 183.5v270h169v-267q0 -113 94 -113q46 0 70 29.5t24 83.5v267h169v-270q0 -117 -67 -183.5t-196 -66.5z" />
    <glyph glyph-name="umacron.ss03" horiz-adv-x="634" 
d="M475 598h-315v114h315v-114zM317 -10q-129 0 -196 66.5t-67 183.5v270h169v-267q0 -113 94 -113q46 0 70 29.5t24 83.5v267h169v-270q0 -117 -67 -183.5t-196 -66.5z" />
    <glyph glyph-name="uogonek.ss03" horiz-adv-x="634" 
d="M411 243v267h169v-270q0 -94 -43.5 -156.5t-128.5 -83.5h2q-76 -61 -76 -107q0 -37 42 -37q19 0 34 5v-97q-31 -7 -65 -7q-55 0 -89 26t-34 78q0 74 84 129q-124 3 -188 69t-64 181v270h169v-267q0 -113 94 -113q46 0 70 29.5t24 83.5z" />
    <glyph glyph-name="uring.ss03" horiz-adv-x="634" 
d="M317 550q-58 0 -95.5 33.5t-37.5 85.5t37.5 85.5t95.5 33.5t95.5 -33.5t37.5 -85.5t-37.5 -85.5t-95.5 -33.5zM317 624q21 0 33 12.5t12 32.5t-12 32.5t-33 12.5t-33 -12.5t-12 -32.5t12 -32.5t33 -12.5zM317 -10q-129 0 -196 66.5t-67 183.5v270h169v-267
q0 -113 94 -113q46 0 70 29.5t24 83.5v267h169v-270q0 -117 -67 -183.5t-196 -66.5z" />
    <glyph glyph-name="utilde.ss03" horiz-adv-x="634" 
d="M229 567h-87v56q0 54 25.5 84.5t66.5 30.5q35 0 78 -29t59 -29q33 0 33 58h87v-58q0 -55 -24.5 -84t-66.5 -29q-36 0 -79 29t-59 29q-33 0 -33 -58zM317 -10q-129 0 -196 66.5t-67 183.5v270h169v-267q0 -113 94 -113q46 0 70 29.5t24 83.5v267h169v-270
q0 -117 -67 -183.5t-196 -66.5z" />
    <glyph glyph-name="l.ss04" horiz-adv-x="353" 
d="M325 0h-73q-89 0 -141 50t-52 152v498h169v-494q0 -66 55 -66h42v-140z" />
    <glyph glyph-name="lacute.ss04" horiz-adv-x="353" 
d="M210 762h-131l69 161h195zM325 0h-73q-89 0 -141 50t-52 152v498h169v-494q0 -66 55 -66h42v-140z" />
    <glyph glyph-name="lcaron.ss04" horiz-adv-x="401" 
d="M325 0h-73q-89 0 -141 50t-52 152v498h169v-494q0 -66 55 -66h42v-140zM365 499h-89l9 201h132z" />
    <glyph glyph-name="uni013C.ss04" horiz-adv-x="353" 
d="M325 0h-73q-89 0 -141 50t-52 152v498h169v-494q0 -66 55 -66h42v-140zM231 -205h-121l32 159h158z" />
    <glyph glyph-name="ldot.ss04" horiz-adv-x="453" 
d="M325 0h-73q-89 0 -141 50t-52 152v498h169v-494q0 -66 55 -66h42v-140zM370 251q-40 0 -68 26t-28 66q0 39 28 65t68 26t68 -26t28 -65q0 -40 -28 -66t-68 -26z" />
    <glyph glyph-name="lslash.ss04" horiz-adv-x="413" 
d="M372 0h-74q-89 0 -141 48.5t-52 145.5v32l-88 -46v117l88 46v357h169v-265l98 51v-117l-98 -52v-111q0 -66 55 -66h43v-140z" />
    <glyph glyph-name="j_j.dlig" horiz-adv-x="636" 
d="M185 565q-43 0 -72 27.5t-29 67.5t29 67.5t72 27.5t72.5 -27.5t29.5 -67.5t-29.5 -67.5t-72.5 -27.5zM493 565q-43 0 -72 27.5t-29 67.5t29 67.5t72 27.5t72 -27.5t29 -67.5t-29 -67.5t-72 -27.5zM86 -210q-82 0 -139 29l39 123q25 -14 55 -14q59 0 59 64v518h169v-527
q0 -94 -46.5 -143.5t-136.5 -49.5zM407 -210q-73 0 -124 29l38 123q18 -14 41 -14q46 0 46 57v525h169v-531q0 -92 -44 -140.5t-126 -48.5z" />
    <glyph glyph-name="t_t.dlig" horiz-adv-x="882" 
d="M119 378h-97v132h104l23 148h139v-148h254l24 148h138v-148h128v-132h-128v-191q0 -62 56 -62q27 0 54 15l37 -117q-60 -33 -133 -33q-86 0 -134.5 46.5t-48.5 140.5v201h-247v-191q0 -62 56 -62q27 0 54 15l36 -117q-60 -33 -133 -33q-85 0 -133.5 46.5t-48.5 140.5v201
z" />
    <glyph glyph-name="t_t.dlig.ss01" horiz-adv-x="878" 
d="M419 0h-95q-97 0 -151 49.5t-54 152.5v176h-97v132h104l23 148h139v-148h254l24 148h138v-148h132v-132h-132v-171q0 -70 68 -70h64v-137h-95q-98 0 -152 49.5t-54 152.5v176h-247v-171q0 -37 16.5 -53.5t51.5 -16.5h63v-137z" />
    <glyph glyph-name="f_f.ss01" horiz-adv-x="841" 
d="M288 0h-169v360h-97v131h97v17q0 92 52.5 142t144.5 50h131v-125h-97q-29 0 -45.5 -17.5t-16.5 -50.5v-16h220v17q0 92 52.5 142t144.5 50h114v-125h-80q-29 0 -45.5 -17.5t-16.5 -50.5v-16h130v-131h-130v-360h-169v360h-220v-360z" />
    <glyph glyph-name="f_f_i.ss01" horiz-adv-x="1125" 
d="M982 565q-43 0 -72.5 27.5t-29.5 67.5t29.5 67.5t72.5 27.5t72 -27.5t29 -67.5t-29 -67.5t-72 -27.5zM288 0h-169v360h-97v131h97v17q0 92 52.5 142t144.5 50h131v-125h-97q-29 0 -45.5 -17.5t-16.5 -50.5v-16h220v17q0 92 52.5 142t144.5 50h114v-125h-80
q-29 0 -45.5 -17.5t-16.5 -50.5v-16h389v-491h-169v360h-220v-360h-169v360h-220v-360z" />
    <glyph glyph-name="f_i.ss01" horiz-adv-x="736" 
d="M593 565q-43 0 -72.5 27.5t-29.5 67.5t29.5 67.5t72.5 27.5t72 -27.5t29 -67.5t-29 -67.5t-72 -27.5zM288 0h-169v360h-97v131h97v17q0 92 52.5 142t144.5 50h114v-125h-80q-29 0 -45.5 -17.5t-16.5 -50.5v-16h389v-491h-169v360h-220v-360z" />
    <glyph glyph-name="fi.ss01" horiz-adv-x="736" 
d="M593 565q-43 0 -72.5 27.5t-29.5 67.5t29.5 67.5t72.5 27.5t72 -27.5t29 -67.5t-29 -67.5t-72 -27.5zM288 0h-169v360h-97v131h97v17q0 92 52.5 142t144.5 50h114v-125h-80q-29 0 -45.5 -17.5t-16.5 -50.5v-16h389v-491h-169v360h-220v-360z" />
    <glyph glyph-name="fl.ss01" horiz-adv-x="804" 
d="M288 0h-169v360h-97v131h97v17q0 92 52.5 142t144.5 50h114v-125h-80q-29 0 -45.5 -17.5t-16.5 -50.5v-16h130v-131h-130v-360zM777 0h-73q-89 0 -141 50t-52 152v498h169v-494q0 -66 55 -66h42v-140z" />
    <glyph glyph-name="zero.lf" horiz-adv-x="712" 
d="M356 -10q-147 0 -232 98.5t-85 261.5t85 261.5t232 98.5q148 0 232.5 -98.5t84.5 -261.5t-84.5 -261.5t-232.5 -98.5zM356 142q67 0 105.5 54.5t38.5 153.5t-38.5 153.5t-105.5 54.5t-105.5 -54.5t-38.5 -153.5t38.5 -153.5t105.5 -54.5z" />
    <glyph glyph-name="one.lf" horiz-adv-x="424" 
d="M353 0h-173v513h-9l-144 -80v166l191 101h135v-700z" />
    <glyph glyph-name="two.lf" horiz-adv-x="613" 
d="M574 0h-528v139l203 170q82 69 114.5 107t32.5 81q0 37 -26 58.5t-68 21.5q-87 0 -114 -86l-164 37q21 86 94.5 134t182.5 48q122 0 195 -57t73 -155q0 -78 -46 -137t-160 -148l-63 -51v-9h274v-153z" />
    <glyph glyph-name="three.lf" horiz-adv-x="624" 
d="M554 561l-158 -143q89 -11 140 -66t51 -140q0 -102 -72.5 -162t-203.5 -60q-115 0 -191.5 47.5t-97.5 135.5l167 36q12 -39 44 -60t78 -21q47 0 75 24.5t28 64.5t-30.5 64t-80.5 24h-110v102l148 136v9h-286v148h499v-139z" />
    <glyph glyph-name="four.lf" horiz-adv-x="637" 
d="M530 0h-173v119h-330v155l317 426h186v-436h89v-145h-89v-119zM357 490l-166 -226h166v226z" />
    <glyph glyph-name="five.lf" horiz-adv-x="639" 
d="M324 -10q-112 0 -191.5 47t-100.5 132l172 38q13 -36 46 -54.5t74 -18.5q48 0 78.5 26.5t30.5 69.5q0 44 -30 70t-77 26q-68 0 -113 -47l-149 27l27 394h452v-148h-305l-10 -126h10q60 33 130 33q107 0 172.5 -61.5t65.5 -167.5q0 -110 -76 -175t-206 -65z" />
    <glyph glyph-name="six.lf" horiz-adv-x="634" 
d="M345 481q113 0 187.5 -66t74.5 -172q0 -113 -79.5 -183t-210.5 -70q-127 0 -208.5 71.5t-81.5 181.5q0 60 21 108t69 113l172 236h209v-9l-163 -210h10zM317 134q51 0 84 30t33 79t-33 79t-84 30q-50 0 -83 -30.5t-33 -78.5q0 -50 32.5 -79.5t83.5 -29.5z" />
    <glyph glyph-name="seven.lf" horiz-adv-x="573" 
d="M282 0h-197l256 531v9h-314v160h518v-152z" />
    <glyph glyph-name="eight.lf" horiz-adv-x="635" 
d="M318 -10q-123 0 -202 58t-79 152q0 55 32.5 100t86.5 67q-45 21 -72 61.5t-27 87.5q0 88 72 141t189 53q116 0 188 -53t72 -141q0 -48 -27 -88t-73 -61q54 -21 87 -66.5t33 -100.5q0 -94 -78.5 -152t-201.5 -58zM318 424q37 0 63 20t26 54q0 35 -26 55t-63 20
q-38 0 -64 -20t-26 -55q0 -34 26 -54t64 -20zM318 127q45 0 76 23t31 63t-31 63.5t-76 23.5q-46 0 -76.5 -23.5t-30.5 -63.5t30.5 -63t76.5 -23z" />
    <glyph glyph-name="nine.lf" horiz-adv-x="634" 
d="M317 710q127 0 208.5 -71.5t81.5 -181.5q0 -60 -21 -108t-69 -113l-172 -236h-209v9l163 210h-10q-113 0 -187.5 66t-74.5 172q0 113 79.5 183t210.5 70zM201 457q0 -49 33 -79t83 -30t83.5 30.5t33.5 78.5q0 49 -33 79t-84 30q-50 0 -83 -30t-33 -79z" />
    <glyph glyph-name="zero.tf" horiz-adv-x="628" 
d="M314 -10q-132 0 -208.5 98t-76.5 262t76.5 262t208.5 98t208.5 -97.5t76.5 -262.5t-76 -262.5t-209 -97.5zM314 138q53 0 82.5 55t29.5 157t-29.5 157t-82.5 55q-54 0 -83 -55t-29 -157t29 -157t83 -55z" />
    <glyph glyph-name="one.tf" horiz-adv-x="628" 
d="M555 0h-483v148h159v365h-9l-150 -84v166l197 105h135v-552h151v-148z" />
    <glyph glyph-name="two.tf" horiz-adv-x="628" 
d="M579 0h-515v139l197 170q53 47 76.5 69.5t44 55.5t20.5 63q0 37 -24.5 58.5t-63.5 21.5q-81 0 -107 -85l-163 36q20 87 91 134.5t178 47.5q119 0 190.5 -57t71.5 -155q0 -78 -44 -137t-155 -149l-59 -50v-9h262v-153z" />
    <glyph glyph-name="three.tf" horiz-adv-x="628" 
d="M544 561l-141 -144q80 -11 126 -66t46 -139q0 -102 -69 -162t-191 -60q-108 0 -179.5 47.5t-89.5 135.5l164 36q10 -39 37.5 -60t66.5 -21t63.5 24.5t24.5 64.5t-26 64t-68 24h-103v102l129 136v9h-258v148h468v-139z" />
    <glyph glyph-name="four.tf" horiz-adv-x="628" 
d="M513 0h-173v119h-308v155l294 426h187v-436h82v-145h-82v-119zM340 490l-157 -226h157v226z" />
    <glyph glyph-name="five.tf" horiz-adv-x="628" 
d="M322 -10q-110 0 -187 47t-96 132l170 38q12 -36 43 -54.5t70 -18.5q45 0 72.5 26.5t27.5 69.5q0 44 -27.5 70t-71.5 26q-64 0 -106 -47l-148 27l26 394h438v-148h-292l-9 -125h9q58 32 126 32q101 0 164.5 -61.5t63.5 -167.5q0 -110 -73.5 -175t-199.5 -65z" />
    <glyph glyph-name="six.tf" horiz-adv-x="628" 
d="M347 481q106 0 176.5 -66t70.5 -172q0 -113 -76 -183t-201 -70q-121 0 -199 71.5t-78 181.5q0 60 20 108t65 113l162 236h207v-9l-155 -210h8zM317 134q45 0 74.5 30t29.5 79t-29.5 79t-74.5 30t-74.5 -30.5t-29.5 -78.5q0 -49 29.5 -79t74.5 -30z" />
    <glyph glyph-name="seven.tf" horiz-adv-x="628" 
d="M307 0h-197l256 531v9h-314v160h518v-152z" />
    <glyph glyph-name="eight.tf" horiz-adv-x="628" 
d="M314 -10q-123 0 -201.5 58t-78.5 152q0 55 32 100t86 67q-45 21 -71.5 61t-26.5 88q0 88 71.5 141t188.5 53q116 0 188 -53t72 -141q0 -48 -27 -88t-73 -61q54 -21 87 -66.5t33 -100.5q0 -94 -78.5 -152t-201.5 -58zM314 424q38 0 63.5 20t25.5 54q0 35 -25.5 55
t-63.5 20t-64 -20t-26 -55q0 -34 26 -54t64 -20zM314 127q45 0 76 23t31 63t-31 63.5t-76 23.5t-76 -23.5t-31 -63.5t31 -63t76 -23z" />
    <glyph glyph-name="nine.tf" horiz-adv-x="628" 
d="M310 710q122 0 200 -71.5t78 -181.5q0 -60 -20 -107.5t-66 -113.5l-162 -236h-207v9l155 210h-7q-107 0 -177 66t-70 172q0 113 76 183t200 70zM207 457q0 -49 29.5 -79t73.5 -30q45 0 75 30.5t30 78.5q0 49 -30 79t-75 30q-44 0 -73.5 -30t-29.5 -79z" />
    <glyph glyph-name="zero.dnom" horiz-adv-x="386" 
d="M193 -5q-78 0 -122.5 49t-44.5 131t44.5 131t122.5 49q79 0 122.5 -49t43.5 -131t-43.5 -131t-122.5 -49zM193 87q29 0 45.5 23.5t16.5 64.5t-16.5 64.5t-45.5 23.5t-46 -23.5t-17 -64.5q0 -42 16.5 -65t46.5 -23z" />
    <glyph glyph-name="one.dnom" horiz-adv-x="242" 
d="M199 0h-104v235h-4l-70 -38v104l98 49h80v-350z" />
    <glyph glyph-name="two.dnom" horiz-adv-x="327" 
d="M304 0h-274v82l101 79q69 54 69 84q0 14 -10 22.5t-26 8.5q-34 0 -47 -35l-100 21q10 44 49 68.5t97 24.5q65 0 103 -29t38 -80q0 -38 -23.5 -67.5t-73.5 -65.5l-22 -17v-6h119v-90z" />
    <glyph glyph-name="three.dnom" horiz-adv-x="344" 
d="M300 267l-76 -57q44 -6 69 -33.5t25 -69.5q0 -52 -38 -82t-107 -30q-62 0 -102.5 25t-49.5 72l103 21q8 -36 49 -36q19 0 30 9t11 25q0 35 -45 35h-59v54l70 54v6h-144v90h264v-83z" />
    <glyph glyph-name="four.dnom" horiz-adv-x="344" 
d="M281 0h-104v57h-161v89l152 204h113v-210h41v-83h-41v-57zM177 233l-70 -93h70v93z" />
    <glyph glyph-name="five.dnom" horiz-adv-x="343" 
d="M176 -5q-60 0 -102.5 24.5t-52.5 68.5l105 21q11 -32 50 -32q19 0 30.5 10t11.5 28q0 17 -11.5 27.5t-30.5 10.5q-25 0 -44 -17l-91 17l14 197h233v-86h-145l-4 -46h6q27 12 56 12q54 0 87.5 -31.5t33.5 -83.5q0 -58 -38 -89t-108 -31z" />
    <glyph glyph-name="six.dnom" horiz-adv-x="351" 
d="M282 344l-79 -100q58 -1 92.5 -33.5t34.5 -85.5q0 -58 -42 -94t-113 -36q-68 0 -111 36t-43 94q0 32 11.5 56.5t37.5 60.5l78 108h134v-6zM176 80q22 0 36 12.5t14 32.5q0 19 -14 32t-36 13t-36.5 -13t-14.5 -32q0 -20 14.5 -32.5t36.5 -12.5z" />
    <glyph glyph-name="seven.dnom" horiz-adv-x="313" 
d="M166 0h-120l121 246v5h-146v99h271v-93z" />
    <glyph glyph-name="eight.dnom" horiz-adv-x="343" 
d="M172 -5q-66 0 -108 29.5t-42 77.5q0 27 15.5 49t40.5 33q-46 24 -46 72q0 46 38.5 72.5t101.5 26.5q62 0 100.5 -26.5t38.5 -72.5q0 -48 -46 -72q25 -11 40.5 -33.5t15.5 -48.5q0 -48 -42 -77.5t-107 -29.5zM172 213q17 0 27.5 9t10.5 23t-10.5 23.5t-27.5 9.5
q-18 0 -28.5 -9.5t-10.5 -23.5t10.5 -23t28.5 -9zM172 72q19 0 32 10t13 28t-12.5 28t-32.5 10t-32.5 -10t-12.5 -28t12.5 -28t32.5 -10z" />
    <glyph glyph-name="nine.dnom" horiz-adv-x="351" 
d="M176 355q68 0 111 -36t43 -94q0 -32 -11.5 -56.5t-37.5 -60.5l-78 -108h-133v6l79 100q-59 2 -93.5 34t-34.5 85q0 58 42 94t113 36zM125 225q0 -19 14 -32t36 -13q23 0 37 13t14 32q0 20 -14 32.5t-37 12.5q-22 0 -36 -12.5t-14 -32.5z" />
    <glyph glyph-name="zero.numr" horiz-adv-x="386" 
d="M193 345q-78 0 -122.5 49t-44.5 131t44.5 131t122.5 49q79 0 122.5 -49t43.5 -131t-43.5 -131t-122.5 -49zM193 437q29 0 45.5 23.5t16.5 64.5t-16.5 64.5t-45.5 23.5t-46 -23.5t-17 -64.5q0 -42 16.5 -65t46.5 -23z" />
    <glyph glyph-name="one.numr" horiz-adv-x="242" 
d="M199 350h-104v235h-4l-70 -38v104l98 49h80v-350z" />
    <glyph glyph-name="two.numr" horiz-adv-x="327" 
d="M304 350h-274v82l101 79q69 54 69 84q0 14 -10 22.5t-26 8.5q-34 0 -47 -35l-100 21q10 44 49 68.5t97 24.5q65 0 103 -29t38 -80q0 -38 -23.5 -67.5t-73.5 -65.5l-22 -17v-6h119v-90z" />
    <glyph glyph-name="three.numr" horiz-adv-x="344" 
d="M300 617l-76 -57q44 -6 69 -33.5t25 -69.5q0 -52 -38 -82t-107 -30q-62 0 -102.5 25t-49.5 72l103 21q8 -36 49 -36q19 0 30 9t11 25q0 35 -45 35h-59v54l70 54v6h-144v90h264v-83z" />
    <glyph glyph-name="four.numr" horiz-adv-x="344" 
d="M281 350h-104v57h-161v89l152 204h113v-210h41v-83h-41v-57zM177 583l-70 -93h70v93z" />
    <glyph glyph-name="five.numr" horiz-adv-x="343" 
d="M176 345q-60 0 -102.5 24.5t-52.5 68.5l105 21q11 -32 50 -32q19 0 30.5 10t11.5 28q0 17 -11.5 27.5t-30.5 10.5q-25 0 -44 -17l-91 17l14 197h233v-86h-145l-4 -46h6q27 12 56 12q54 0 87.5 -31.5t33.5 -83.5q0 -58 -38 -89t-108 -31z" />
    <glyph glyph-name="six.numr" horiz-adv-x="351" 
d="M282 694l-79 -100q58 -1 92.5 -33.5t34.5 -85.5q0 -58 -42 -94t-113 -36q-68 0 -111 36t-43 94q0 32 11.5 56.5t37.5 60.5l78 108h134v-6zM176 430q22 0 36 12.5t14 32.5q0 19 -14 32t-36 13t-36.5 -13t-14.5 -32q0 -20 14.5 -32.5t36.5 -12.5z" />
    <glyph glyph-name="seven.numr" horiz-adv-x="313" 
d="M166 350h-120l121 246v5h-146v99h271v-93z" />
    <glyph glyph-name="eight.numr" horiz-adv-x="343" 
d="M172 345q-66 0 -108 29.5t-42 77.5q0 27 15.5 49t40.5 33q-46 24 -46 72q0 46 38.5 72.5t101.5 26.5q62 0 100.5 -26.5t38.5 -72.5q0 -48 -46 -72q25 -11 40.5 -33.5t15.5 -48.5q0 -48 -42 -77.5t-107 -29.5zM172 563q17 0 27.5 9t10.5 23t-10.5 23.5t-27.5 9.5
q-18 0 -28.5 -9.5t-10.5 -23.5t10.5 -23t28.5 -9zM172 422q19 0 32 10t13 28t-12.5 28t-32.5 10t-32.5 -10t-12.5 -28t12.5 -28t32.5 -10z" />
    <glyph glyph-name="nine.numr" horiz-adv-x="351" 
d="M176 705q68 0 111 -36t43 -94q0 -32 -11.5 -56.5t-37.5 -60.5l-78 -108h-133v6l79 100q-59 2 -93.5 34t-34.5 85q0 58 42 94t113 36zM125 575q0 -19 14 -32t36 -13q23 0 37 13t14 32q0 20 -14 32.5t-37 12.5q-22 0 -36 -12.5t-14 -32.5z" />
    <glyph glyph-name="exclamdown.case" horiz-adv-x="320" 
d="M161 710q40 0 68 -26t28 -66q0 -39 -28 -65t-68 -26t-68 26t-28 65q0 40 28 66t68 26zM68 0l20 457h144l20 -457h-184z" />
    <glyph glyph-name="questiondown.case" horiz-adv-x="588" 
d="M283 710q40 0 68 -26t28 -66q0 -39 -28 -65t-68 -26t-67.5 26t-27.5 65q0 40 27.5 66t67.5 26zM211 457h145v-10q0 -43 -16 -78t-38 -57t-44.5 -40.5t-38.5 -39.5t-16 -43q0 -34 24.5 -52.5t63.5 -18.5q44 0 77 23.5t46 66.5l153 -34q-19 -87 -93 -135.5t-182 -48.5
q-120 0 -191 50t-71 138q0 41 18.5 75.5t45 57.5t53.5 43.5t45.5 44t18.5 48.5v10z" />
    <glyph glyph-name="periodcentered.case" horiz-adv-x="257" 
d="M128 259q-40 0 -68 26t-28 66q0 39 28 64.5t68 25.5t68 -25.5t28 -64.5q0 -41 -27.5 -66.5t-68.5 -25.5z" />
    <glyph glyph-name="bullet.case" horiz-adv-x="288" 
d="M144 243q-47 0 -79.5 30.5t-32.5 76.5t32.5 76.5t79.5 30.5t79 -30t32 -77t-32 -77t-79 -30z" />
    <glyph glyph-name="period.tf" horiz-adv-x="628" 
d="M314 -10q-40 0 -68 26t-28 66q0 39 28 65t68 26t68 -26t28 -65q0 -40 -28 -66t-68 -26z" />
    <glyph glyph-name="comma.tf" horiz-adv-x="628" 
d="M431 112l-133 -251l-101 33l80 270z" />
    <glyph glyph-name="colon.tf" horiz-adv-x="628" 
d="M314 337q-40 0 -68 26t-28 66q0 39 28 65t68 26t68 -26t28 -65q0 -40 -28 -66t-68 -26zM314 -10q-40 0 -68 26t-28 66q0 39 28 65t68 26t68 -26t28 -65q0 -40 -28 -66t-68 -26z" />
    <glyph glyph-name="semicolon.tf" horiz-adv-x="628" 
d="M326 337q-40 0 -68 26t-28 66q0 39 28 65t68 26t67.5 -26t27.5 -65q0 -40 -27.5 -66t-67.5 -26zM431 112l-133 -251l-101 33l80 270z" />
    <glyph glyph-name="parenleft.case" horiz-adv-x="349" 
d="M330 -63l-114 -63q-192 201 -192 476q0 277 192 476l114 -63q-142 -195 -142 -413t142 -413z" />
    <glyph glyph-name="parenright.case" horiz-adv-x="349" 
d="M133 -126l-114 63q142 195 142 413t-142 413l114 63q192 -199 192 -476q0 -275 -192 -476z" />
    <glyph glyph-name="braceleft.case" horiz-adv-x="397" 
d="M368 -120h-79q-91 0 -136.5 49.5t-45.5 135.5v140q0 79 -72 79h-19v132h19q72 0 72 79v140q0 86 45.5 135.5t136.5 49.5h79v-132h-24q-72 0 -72 -82v-141q0 -89 -66 -111v-9q66 -21 66 -110v-141q0 -82 72 -82h24v-132z" />
    <glyph glyph-name="braceright.case" horiz-adv-x="397" 
d="M108 -120h-79v132h24q72 0 72 82v141q0 89 65 110v9q-65 22 -65 111v141q0 82 -72 82h-24v132h79q91 0 136 -49.5t45 -135.5v-140q0 -79 72 -79h19v-132h-19q-72 0 -72 -79v-140q0 -86 -45 -135.5t-136 -49.5z" />
    <glyph glyph-name="bracketleft.case" horiz-adv-x="355" 
d="M327 -120h-262v940h262v-132h-98v-676h98v-132z" />
    <glyph glyph-name="bracketright.case" horiz-adv-x="355" 
d="M290 820v-940h-261v132h97v676h-97v132h261z" />
    <glyph glyph-name="hyphen.case" horiz-adv-x="406" 
d="M378 287h-349v126h349v-126z" />
    <glyph glyph-name="endash.case" horiz-adv-x="510" 
d="M481 287h-452v126h452v-126z" />
    <glyph glyph-name="emdash.case" horiz-adv-x="738" 
d="M709 287h-680v126h680v-126z" />
    <glyph glyph-name="guillemotleft.case" horiz-adv-x="647" 
d="M361 162h-172l-172 188l172 188h172l-177 -188zM619 162h-171l-172 188l172 188h171l-176 -188z" />
    <glyph glyph-name="guillemotright.case" horiz-adv-x="647" 
d="M371 350l-172 -188h-172l177 188l-177 188h172zM630 350l-173 -188h-171l176 188l-176 188h171z" />
    <glyph glyph-name="guilsinglleft.case" horiz-adv-x="388" 
d="M361 162h-172l-172 188l172 188h172l-177 -188z" />
    <glyph glyph-name="guilsinglright.case" horiz-adv-x="388" 
d="M371 350l-172 -188h-172l177 188l-177 188h172z" />
    <glyph glyph-name="cent.tf" horiz-adv-x="628" 
d="M403 -109h-166v110q-87 23 -133.5 91t-46.5 163t46.5 163t133.5 91v110h166v-109q128 -31 163 -164l-161 -37q-19 76 -84 76q-43 0 -69 -35t-26 -95t26 -95t69 -35q67 0 88 76l162 -37q-39 -133 -168 -164v-109z" />
    <glyph glyph-name="currency.tf" horiz-adv-x="628" 
d="M202 156l-60 -61l-83 83l60 60q-29 53 -29 112t29 112l-60 60l83 83l60 -61q52 30 112 30t111 -30l61 61l82 -83l-60 -60q29 -50 29 -112t-29 -112l60 -60l-82 -83l-61 61q-51 -30 -111 -30t-112 30zM314 238q46 0 77.5 32.5t31.5 79.5t-31.5 79.5t-77.5 32.5t-78 -32.5
t-32 -79.5t32 -79.5t78 -32.5z" />
    <glyph glyph-name="dollar.tf" horiz-adv-x="628" 
d="M598 190q0 -76 -51.5 -128t-147.5 -67v-104h-165v108q-168 36 -205 175l163 36q32 -90 133 -90q47 0 73 20t26 53q0 30 -28 50t-70.5 28.5t-91.5 24.5t-91.5 37t-70.5 67t-28 113q0 72 50 123.5t140 67.5v105h165v-109q145 -32 182 -164l-164 -36q-24 80 -110 80
q-39 0 -63.5 -19t-24.5 -48q0 -26 21 -43.5t54.5 -28t73.5 -20t80.5 -25t74 -39t54.5 -66t21 -101.5z" />
    <glyph glyph-name="Euro.tf" horiz-adv-x="628" 
d="M347 -10q-95 0 -158 68t-83 186h-61v76h53v30v30h-53v76h61q20 118 83 186t158 68q192 0 232 -223l-135 -35q-10 65 -35.5 99t-61.5 34q-75 0 -100 -129h100v-76h-109v-30v-30h109v-76h-100q25 -129 100 -129q37 0 63.5 33.5t36.5 99.5l136 -35q-40 -223 -236 -223z" />
    <glyph glyph-name="florin.tf" horiz-adv-x="628" 
d="M167 -200h-103v143h46q30 0 50 15.5t24 44.5l55 350h-101v100h116l12 69q27 178 196 178h102v-143h-54q-63 0 -74 -60l-7 -44h115v-100h-130l-59 -376q-27 -177 -188 -177z" />
    <glyph glyph-name="sterling.tf" horiz-adv-x="628" 
d="M509 173l94 -92q-41 -50 -74.5 -70.5t-81.5 -20.5q-35 0 -92 17.5t-92 17.5q-62 0 -167 -40l-71 117q63 49 86 91t23 95v1h-105v90h79q-37 74 -37 126q0 96 67.5 150.5t188.5 54.5q217 0 259 -171l-156 -35q-20 78 -97 78q-41 0 -65 -23t-24 -62q0 -15 5 -32t10 -28
t15 -29.5t15 -28.5h141v-90h-124q-5 -58 -91 -135l6 -10q47 25 87 25q27 0 69 -17.5t65 -17.5q40 0 67 39z" />
    <glyph glyph-name="yen.tf" horiz-adv-x="628" 
d="M397 0h-168v92h-143v88h143v64h-143v89h107l-176 367h191l103 -274h9l103 274h187l-176 -367h107v-89h-144v-64h144v-88h-144v-92z" />
    <glyph glyph-name="plus.case" 
d="M321 128h-133v154h-157v137h157v153h133v-153h157v-137h-157v-154z" />
    <glyph glyph-name="minus.case" 
d="M478 282h-447v137h447v-137z" />
    <glyph glyph-name="multiply.case" 
d="M254 260l-143 -144l-91 92l142 142l-142 143l91 91l143 -143l143 143l92 -91l-144 -143l143 -142l-92 -92z" />
    <glyph glyph-name="divide.case" 
d="M255 458q-37 0 -62.5 24t-25.5 59t25.5 59t62.5 24q36 0 61.5 -24t25.5 -59t-25.5 -59t-61.5 -24zM478 289h-447v123h447v-123zM255 77q-37 0 -62.5 24t-25.5 59t25.5 59t62.5 24q36 0 61.5 -24t25.5 -59t-25.5 -59t-61.5 -24z" />
    <glyph glyph-name="equal.case" 
d="M478 395h-447v123h447v-123zM478 182h-447v123h447v-123z" />
    <glyph glyph-name="notequal.case" 
d="M192 67h-106l47 115h-102v123h152l37 90h-189v123h239l47 115h106l-47 -115h102v-123h-152l-37 -90h189v-123h-239z" />
    <glyph glyph-name="greater.case" 
d="M478 274l-447 -153v142l310 87l-310 87v142l447 -153v-152z" />
    <glyph glyph-name="less.case" 
d="M478 263v-142l-447 153v152l447 153v-142l-310 -87z" />
    <glyph glyph-name="greaterequal.case" 
d="M478 348l-447 -128v142l302 66l-302 65v142l447 -128v-159zM478 55h-447v126h447v-126z" />
    <glyph glyph-name="lessequal.case" 
d="M478 362v-142l-447 128v159l447 128v-142l-302 -65zM478 55h-447v126h447v-126z" />
    <glyph glyph-name="plusminus.case" 
d="M319 251h-130v121h-158v130h158v124h130v-124h159v-130h-159v-121zM478 74h-447v134h447v-134z" />
    <glyph glyph-name="approxequal.case" 
d="M149 361h-118v60q0 67 33 102.5t87 35.5q40 0 98.5 -30t76.5 -30q34 0 34 35v25h118v-60q0 -69 -31.5 -103.5t-88.5 -34.5q-44 0 -100 30t-75 30q-34 0 -34 -35v-25zM149 141h-118v60q0 67 33 102.5t87 35.5q40 0 98.5 -30t76.5 -30q34 0 34 35v25h118v-60
q0 -69 -31.5 -103.5t-88.5 -34.5q-44 0 -100 30t-75 30q-34 0 -34 -35v-25z" />
    <glyph glyph-name="logicalnot.case" 
d="M478 226h-140v118h-307v130h447v-248z" />
    <glyph glyph-name="at.case" horiz-adv-x="918" 
d="M563 -71h-108q-178 0 -297 119t-119 297t119.5 297t296.5 119q186 0 305.5 -111.5t119.5 -281.5q0 -99 -46 -158t-129 -59q-97 0 -131 73h-10q-46 -73 -135 -73q-74 0 -120.5 53t-46.5 141t46 141.5t121 53.5q74 0 117 -57h9l7 50h89v-203q0 -80 54 -80q67 0 67 118
q0 128 -88.5 211t-228.5 83q-131 0 -220 -90.5t-89 -226.5t88.5 -226.5t220.5 -90.5h108v-99zM457 250q36 0 56.5 25t20.5 70q0 44 -21 70t-56 26q-37 0 -57.5 -26t-20.5 -70q0 -45 20.5 -70t57.5 -25z" />
    <glyph glyph-name="uni030C.alt" horiz-adv-x="0" 
d="M-82 499h-89l9 201h132z" />
    <glyph glyph-name="uni0308.alt" horiz-adv-x="0" 
d="M-308 570q-35 0 -58 24t-23 62q0 39 23 63t58 24t58.5 -24.5t23.5 -62.5t-23.5 -62t-58.5 -24zM-112 570q-36 0 -59.5 24t-23.5 62q0 39 23.5 63t59.5 24q35 0 58.5 -24.5t23.5 -62.5t-23.5 -62t-58.5 -24z" />
    <glyph glyph-name="uni0338.alt" horiz-adv-x="0" 
d="M-329 20l-48 -84l-72 35l50 87l14 15l210 366l4 16l68 119l73 -35l-61 -106l-16 -17l-216 -377z" />
    </font>
</defs>
</svg>
