<svg width="356" height="234" viewBox="0 0 356 234" fill="none" xmlns="http://www.w3.org/2000/svg">
<path d="M3.2488 153.454L29.7064 231.029H59.1503L88.1668 153.454H62.5641L45.7084 206.019L29.7064 153.454H3.2488Z" fill="white"/>
<path d="M130.419 152.889C108.263 152.889 90.3065 171.046 90.3065 193.44C90.3065 215.835 108.265 233.992 130.419 233.992C152.573 233.992 170.531 215.835 170.531 193.44C170.531 171.046 152.566 152.889 130.419 152.889ZM130.419 214.214C120.52 214.214 112.497 204.914 112.497 193.443C112.497 181.971 120.514 172.672 130.419 172.672C140.325 172.672 148.341 181.971 148.341 193.443C148.341 204.914 140.311 214.214 130.419 214.214Z" fill="white"/>
<path d="M252.701 202.061C248.858 220.318 233.059 234 214.154 234C192.37 234 174.713 215.843 174.713 193.449C174.713 171.055 192.37 152.898 214.154 152.898C232.862 152.898 248.53 166.295 252.579 184.266H228.128C225.639 177.401 220.444 172.68 214.441 172.68C206.012 172.68 199.187 181.98 199.187 193.451C199.187 204.923 206.017 214.222 214.441 214.222C220.609 214.222 225.92 209.24 228.325 202.07L252.701 202.061Z" fill="white"/>
<path d="M335.937 198.67C336.153 196.936 336.261 195.19 336.26 193.443C336.26 171.046 318.603 152.892 296.82 152.892C275.037 152.892 257.38 171.049 257.38 193.443C257.38 215.837 275.039 233.994 296.82 233.994C314.737 233.994 329.864 221.71 334.667 204.886H310.871C307.921 210.508 302.86 214.216 297.11 214.216C289.436 214.216 282.986 207.613 281.148 198.673L335.937 198.67ZM281.444 186.947C283.611 178.658 289.804 172.676 297.11 172.676C304.416 172.676 310.608 178.657 312.775 186.947H281.444Z" fill="white"/>
<path d="M321.706 146.107H306.06L297.11 138.053L288.163 146.107H272.509L287.589 126.319C287.589 126.319 289.845 121.654 297.11 121.654C304.375 121.654 306.63 126.319 306.63 126.319L321.706 146.107Z" fill="white"/>
<path d="M7.96426 140.421C5.51752 139.136 3.49165 137.182 2.12533 134.791C0.709245 132.351 0.000802768 129.498 0 126.232C0 123.005 0.718076 120.161 2.15423 117.702C3.5372 115.295 5.58454 113.331 8.05457 112.043C10.548 110.729 13.3444 110.073 16.4439 110.073C19.5434 110.073 22.3394 110.729 24.832 112.043C27.2962 113.335 29.3375 115.301 30.7155 117.707C32.1524 120.166 32.8705 123.009 32.8697 126.237C32.8689 129.464 32.1416 132.308 30.6878 134.767C29.2849 137.176 27.2203 139.139 24.7357 140.426C22.2222 141.74 19.4165 142.397 16.3187 142.396C13.2208 142.395 10.436 141.737 7.96426 140.421ZM21.057 132.031C22.3583 130.681 23.0089 128.748 23.0089 126.232C23.0089 123.716 22.3759 121.783 21.11 120.433C19.8432 119.081 18.2846 118.405 16.4343 118.405C14.5437 118.405 12.9755 119.072 11.7296 120.404C10.4837 121.737 9.85999 123.679 9.85839 126.232C9.85839 128.748 10.4725 130.681 11.7007 132.031C12.929 133.381 14.4687 134.059 16.3199 134.065C18.1743 134.061 19.7533 133.383 21.057 132.031Z" fill="white"/>
<path d="M69.2628 110.53V141.942H59.5706V137.662C58.588 139.052 57.2558 140.168 55.574 141.011C53.8922 141.854 52.0314 142.276 49.9915 142.278C47.5728 142.278 45.4379 141.743 43.5867 140.674C41.7355 139.604 40.2997 138.056 39.2794 136.028C38.2583 134.001 37.7481 131.618 37.7489 128.877V110.53H47.3822V127.59C47.3822 129.693 47.93 131.327 49.0258 132.494C50.1216 133.661 51.5951 134.243 53.4463 134.239C55.336 134.239 56.8287 133.658 57.9245 132.494C59.0203 131.331 59.5682 129.696 59.5682 127.59V110.53H69.2628Z" fill="white"/>
<path d="M90.4607 132.933L97.3243 110.524H107.639L96.4164 141.942H84.4532L73.2305 110.53H83.603L90.4607 132.933Z" fill="white"/>
<path d="M121.407 110.53V141.942H111.715V110.53H121.407Z" fill="white"/>
<path d="M178.172 113.733C180.5 116.097 181.664 119.381 181.664 123.586V141.942H172.031V124.884C172.031 122.858 171.492 121.291 170.415 120.183C169.338 119.075 167.855 118.521 165.966 118.521C164.076 118.521 162.591 119.075 161.51 120.183C160.43 121.291 159.892 122.858 159.896 124.884V141.942H150.262V124.884C150.262 122.858 149.724 121.291 148.646 120.183C147.569 119.075 146.086 118.521 144.197 118.521C142.307 118.521 140.822 119.075 139.742 120.183C138.661 121.291 138.123 122.858 138.126 124.884V141.942H128.434V110.53H138.126V114.47C139.136 113.133 140.459 112.061 141.979 111.345C143.566 110.577 145.361 110.192 147.363 110.191C149.743 110.191 151.87 110.698 153.745 111.711C155.597 112.708 157.122 114.213 158.138 116.046C159.232 114.32 160.724 112.912 162.615 111.824C164.489 110.739 166.624 110.175 168.793 110.191C172.721 110.187 175.847 111.368 178.172 113.733Z" fill="white"/>
<path d="M194.496 140.421C192.049 139.136 190.024 137.182 188.658 134.791C187.241 132.351 186.532 129.498 186.531 126.232C186.531 123.005 187.25 120.161 188.686 117.702C190.067 115.296 192.112 113.332 194.58 112.043C197.074 110.729 199.871 110.073 202.969 110.073C206.068 110.073 208.864 110.729 211.357 112.043C213.827 113.332 215.874 115.295 217.258 117.702C218.693 120.161 219.411 123.005 219.411 126.232C219.411 129.459 218.684 132.303 217.229 134.762C215.826 137.172 213.762 139.134 211.278 140.421C208.764 141.736 205.958 142.392 202.861 142.391C199.764 142.391 196.975 141.734 194.496 140.421ZM207.588 132.031C208.893 130.681 209.545 128.748 209.544 126.232C209.543 123.716 208.91 121.783 207.645 120.433C206.378 119.081 204.82 118.405 202.969 118.405C201.079 118.405 199.511 119.072 198.265 120.404C197.019 121.737 196.395 123.679 196.395 126.232C196.395 128.748 197.008 130.681 198.236 132.031C199.463 133.381 201.003 134.059 202.856 134.065C204.707 134.061 206.285 133.383 207.588 132.031Z" fill="white"/>
<path d="M230.062 140.985C227.907 140.047 226.207 138.761 224.961 137.127C223.732 135.543 223.002 133.633 222.863 131.638H232.442C232.49 132.162 232.652 132.67 232.916 133.127C233.181 133.583 233.541 133.978 233.973 134.284C234.879 134.96 235.994 135.298 237.317 135.298C238.526 135.298 239.461 135.063 240.122 134.593C240.784 134.124 241.114 133.514 241.114 132.763C241.114 131.862 240.642 131.196 239.697 130.764C238.752 130.333 237.222 129.855 235.106 129.329C232.84 128.803 230.95 128.25 229.438 127.667C227.924 127.085 226.58 126.137 225.528 124.909C224.431 123.652 223.883 121.954 223.883 119.813C223.869 118.058 224.393 116.34 225.386 114.887C226.386 113.404 227.86 112.231 229.806 111.368C231.753 110.505 234.066 110.073 236.746 110.073C240.713 110.073 243.84 111.049 246.127 113.001C248.414 114.953 249.727 117.545 250.066 120.776H241.111C240.959 119.688 240.477 118.825 239.666 118.186C238.854 117.548 237.787 117.229 236.463 117.229C235.329 117.229 234.46 117.445 233.856 117.877C233.567 118.073 233.332 118.338 233.174 118.648C233.015 118.958 232.938 119.303 232.949 119.651C232.949 120.551 233.431 121.226 234.394 121.677C235.357 122.127 236.859 122.578 238.9 123.029C241.242 123.629 243.15 124.22 244.625 124.803C246.132 125.409 247.466 126.376 248.508 127.617C249.622 128.913 250.198 130.649 250.236 132.825C250.259 134.591 249.713 136.317 248.678 137.753C247.634 139.198 246.141 140.333 244.199 141.159C242.258 141.986 240 142.398 237.426 142.397C234.67 142.393 232.215 141.923 230.062 140.985Z" fill="white"/>
<path d="M116.561 106.869C119.237 106.869 121.407 104.714 121.407 102.054C121.407 99.3953 119.237 97.2397 116.561 97.2397C113.884 97.2397 111.714 99.3953 111.714 102.054C111.714 104.714 113.884 106.869 116.561 106.869Z" fill="white"/>
<path d="M294.802 108.093C290.11 107.925 285.456 107.203 280.937 105.94C270.675 103.064 261.372 97.5216 253.986 89.8831C247.052 82.6489 242.041 73.8135 239.405 64.1744C238.881 62.2561 238.457 60.3126 238.134 58.3513C237.907 56.9709 236.9 53.9253 238.173 52.9253C238.356 52.7671 238.594 52.6857 238.836 52.698C238.963 52.7064 239.091 52.698 239.219 52.698C247.947 52.698 256.674 52.6956 265.401 52.6909C265.872 52.6866 266.329 52.8468 266.693 53.1435C267.057 53.4402 267.305 53.8545 267.393 54.3141C268.208 58.6192 269.968 62.6928 272.549 66.245C273.633 67.7534 274.88 69.1027 276.203 70.3946C283.169 77.1998 293.582 80.0384 303.095 77.9797C309.944 76.4988 316.178 72.3408 320.35 66.7677C322.91 63.3332 324.703 59.3965 325.612 55.2196C326.598 50.704 326.289 46.028 326.292 41.4394C326.292 40.864 326.335 40.2815 326.661 39.7946C326.895 39.4368 327.186 39.1199 327.524 38.8568C331.85 35.6103 336.329 32.3686 340.724 29.1377C345.078 25.9367 349.261 22.4557 353.677 19.3468C354.329 18.8875 355.596 19.2679 355.767 20.0753C355.798 20.1627 355.843 20.2453 355.898 20.3205C356.128 20.6638 355.898 21.9677 355.898 22.3995V39.0267C355.898 44.7457 356.131 50.4982 355.38 56.1814C354.017 66.3287 350.112 75.974 344.024 84.2334C337.876 92.5484 329.637 99.1139 320.133 103.273C318.368 104.041 316.557 104.709 314.73 105.314C308.36 107.43 301.554 108.334 294.802 108.093Z" fill="#FF9200"/>
<path d="M275.246 0.887054L280.562 11.5871C280.677 11.8182 280.846 12.0181 281.056 12.1694C281.266 12.3207 281.51 12.4189 281.767 12.4555L293.653 14.172C293.948 14.2148 294.226 14.3387 294.454 14.5298C294.682 14.7209 294.852 14.9716 294.944 15.2535C295.036 15.5354 295.047 15.8374 294.976 16.1253C294.905 16.4132 294.754 16.6755 294.54 16.8826L285.939 25.2118C285.753 25.3916 285.614 25.6136 285.534 25.8587C285.454 26.1038 285.435 26.3645 285.479 26.6185L287.509 38.3783C287.559 38.6706 287.526 38.9709 287.414 39.2454C287.301 39.52 287.113 39.7577 286.872 39.9319C286.63 40.1061 286.345 40.2098 286.047 40.2311C285.75 40.2525 285.452 40.1908 285.188 40.053L274.556 34.5015C274.327 34.3813 274.071 34.3185 273.811 34.3185C273.552 34.3185 273.296 34.3813 273.067 34.5015L262.435 40.0542C262.171 40.192 261.873 40.2537 261.576 40.2323C261.278 40.2109 260.992 40.1073 260.751 39.9331C260.509 39.7589 260.322 39.5212 260.209 39.2466C260.097 38.9721 260.063 38.6718 260.114 38.3795L262.145 26.6197C262.189 26.3657 262.17 26.105 262.09 25.8599C262.01 25.6148 261.871 25.3928 261.685 25.213L253.083 16.8838C252.869 16.6767 252.718 16.4144 252.647 16.1265C252.575 15.8386 252.586 15.5366 252.679 15.2547C252.771 14.9728 252.941 14.7221 253.169 14.531C253.397 14.3399 253.675 14.216 253.97 14.1732L265.856 12.4567C266.113 12.4198 266.356 12.3215 266.566 12.1702C266.776 12.0189 266.946 11.8192 267.06 11.5883L272.377 0.887054C272.509 0.620845 272.713 0.396652 272.966 0.239874C273.22 0.0830961 273.513 0 273.811 0C274.11 0 274.403 0.0830961 274.656 0.239874C274.91 0.396652 275.114 0.620845 275.246 0.887054Z" fill="white"/>
</svg>
