<svg width="169" height="111" viewBox="0 0 169 111" fill="none" xmlns="http://www.w3.org/2000/svg">
<path d="M1.54229 72.7983L14.1023 109.591H28.08L41.8547 72.7983H29.7006L21.6988 97.7292L14.1023 72.7983H1.54229Z" fill="#00B6AC"/>
<path d="M61.9101 72.5299C51.3919 72.5299 42.8677 81.1417 42.8677 91.763C42.8677 102.384 51.3931 110.996 61.9101 110.996C72.4271 110.996 80.9519 102.384 80.9519 91.763C80.9519 81.1417 72.4265 72.5299 61.9101 72.5299ZM61.9101 101.616C57.2112 101.616 53.4018 97.205 53.4018 91.7647C53.4018 86.3244 57.2112 81.9127 61.9101 81.9127C66.6089 81.9127 70.4183 86.3232 70.4183 91.7647C70.4183 97.2061 66.6089 101.613 61.9101 101.613V101.616Z" fill="#00B6AC"/>
<path d="M119.963 95.8518C118.139 104.511 110.638 111 101.663 111C91.3225 111 82.94 102.388 82.94 91.7669C82.94 81.1456 91.3225 72.5339 101.663 72.5339C110.545 72.5339 117.983 78.8882 119.905 87.412H108.296C107.115 84.1554 104.649 81.9167 101.799 81.9167C97.798 81.9167 94.5575 86.3272 94.5575 91.7687C94.5575 97.2101 97.8009 101.613 101.801 101.613C104.728 101.613 107.25 99.2503 108.391 95.8496L119.963 95.8518Z" fill="#00B6AC"/>
<path d="M159.477 94.2434C159.58 93.4211 159.631 92.5933 159.631 91.7647C159.631 81.1417 151.248 72.5316 140.908 72.5316C130.567 72.5316 122.184 81.1434 122.184 91.7647C122.184 102.386 130.567 110.998 140.908 110.998C149.413 110.998 156.594 105.172 158.874 97.1919H147.577C146.177 99.8585 143.774 101.617 141.045 101.617C137.402 101.617 134.34 98.486 133.467 94.2451L159.477 94.2434ZM133.608 88.6834C134.637 84.7517 137.577 81.9144 141.045 81.9144C144.512 81.9144 147.453 84.7512 148.481 88.6834H133.608Z" fill="#00B6AC"/>
<path d="M152.722 69.3131H145.294L141.045 65.4931L136.796 69.3131H129.368L136.525 59.9309C136.525 59.9309 137.596 57.7182 141.045 57.7182C144.493 57.7182 145.564 59.9309 145.564 59.9309L152.722 69.3131Z" fill="#00B6AC"/>
<path d="M3.78085 66.6165C2.61937 66.0068 1.65776 65.0802 1.00952 63.946C0.336513 62.789 0 61.4358 0 59.8866C0 58.3559 0.340922 57.0073 1.0227 55.8408C1.67908 54.6993 2.65105 53.7681 3.82372 53.1573C5.00815 52.5343 6.33568 52.2227 7.80631 52.2223C9.27695 52.2219 10.6043 52.5336 11.7884 53.1573C12.9608 53.7683 13.9328 54.6994 14.5894 55.8408C15.2708 57.0073 15.6115 58.3559 15.6115 59.8866C15.6115 61.4173 15.2662 62.7661 14.5756 63.9329C13.9097 65.0754 12.9298 66.0062 11.7506 66.6165C10.557 67.2398 9.2251 67.5514 7.75484 67.5514C6.28459 67.5514 4.95994 67.2398 3.78085 66.6165ZM9.99623 62.6377C10.6155 61.9947 10.925 61.0776 10.9246 59.8866C10.9242 58.6955 10.6237 57.7787 10.0231 57.1361C9.42172 56.4931 8.68183 56.1728 7.80341 56.175C6.90594 56.175 6.16152 56.491 5.57006 57.1231C4.97861 57.7551 4.68267 58.6763 4.68229 59.8866C4.68229 61.0795 4.97382 61.9966 5.55689 62.6377C6.13996 63.2788 6.87091 63.5991 7.74971 63.5987C8.62851 63.6003 9.37734 63.2795 9.99623 62.6365V62.6377Z" fill="#00B6AC"/>
<path d="M32.8806 52.4362V67.3376H28.2795V65.3082C27.813 65.9667 27.1808 66.4962 26.3828 66.8967C25.5848 67.2973 24.7012 67.4976 23.7321 67.4976C22.5843 67.4976 21.5708 67.2439 20.6916 66.7367C19.8124 66.2295 19.1308 65.4952 18.6468 64.5337C18.1628 63.5719 17.9207 62.4414 17.9203 61.1421V52.4362H22.4934V60.5277C22.4934 61.5251 22.7535 62.3005 23.2737 62.8538C23.7939 63.4072 24.4935 63.6831 25.3727 63.6816C26.2691 63.6816 26.9775 63.4057 27.4981 62.8538C28.0186 62.302 28.2787 61.5266 28.2784 60.5277V52.4362H32.8806Z" fill="#00B6AC"/>
<path d="M42.9437 63.0649L46.202 52.4362H51.0993L45.7716 67.3376H40.0941L34.7665 52.4362H39.6905L42.9437 63.0649Z" fill="#00B6AC"/>
<path d="M57.6348 52.4362V67.3376H53.0337V52.4362H57.6348Z" fill="#00B6AC"/>
<path d="M84.5824 53.9561C85.6856 55.0776 86.2382 56.6353 86.2401 58.6294V67.3353H81.667V59.2438C81.667 58.2823 81.4115 57.5389 80.9005 57.0135C80.3894 56.4882 79.6844 56.2257 78.7854 56.2261C77.8879 56.2261 77.1838 56.4886 76.6732 57.0135C76.1625 57.5385 75.9068 58.2819 75.9061 59.2438V67.3353H71.3329V59.2438C71.3329 58.2823 71.0774 57.5389 70.5664 57.0135C70.0553 56.4882 69.3503 56.2257 68.4513 56.2261C67.5538 56.2261 66.8498 56.4886 66.3391 57.0135C65.8284 57.5385 65.5727 58.2819 65.572 59.2438V67.3353H60.9709V52.4339H65.572V54.3033C66.0518 53.6695 66.6795 53.1607 67.4012 52.8209C68.1546 52.4559 69.0068 52.2734 69.9576 52.2734C71.0872 52.2734 72.0971 52.5137 72.9873 52.9945C73.8668 53.4673 74.5906 54.1813 75.0726 55.0511C75.6055 54.2207 76.3357 53.533 77.1991 53.0484C78.0892 52.5341 79.1022 52.2667 80.1321 52.2739C81.9953 52.2751 83.4787 52.8358 84.5824 53.9561Z" fill="#00B6AC"/>
<path d="M92.3315 66.6165C91.1701 66.0067 90.2086 65.0801 89.5602 63.946C88.8872 62.789 88.5509 61.4358 88.5512 59.8866C88.5512 58.3559 88.8919 57.0073 89.5733 55.8408C90.2299 54.6994 91.2019 53.7683 92.3744 53.1573C93.558 52.5343 94.8854 52.2227 96.3564 52.2223C97.8274 52.2219 99.1549 52.5336 100.339 53.1573C101.51 53.7686 102.481 54.6998 103.137 55.8408C103.819 57.0073 104.159 58.3559 104.16 59.8866C104.16 61.4173 103.815 62.7661 103.123 63.9329C102.457 65.0754 101.478 66.0062 100.298 66.6165C99.1056 67.2398 97.7737 67.5514 96.3027 67.5514C94.8317 67.5514 93.5079 67.2398 92.3315 66.6165ZM98.5469 62.6377C99.1658 61.9947 99.4753 61.0776 99.4753 59.8866C99.4753 58.6955 99.1748 57.7787 98.5738 57.1361C97.9728 56.4931 97.2329 56.1728 96.3541 56.175C95.4574 56.175 94.7129 56.491 94.1207 57.1231C93.5285 57.7551 93.2326 58.6763 93.233 59.8866C93.233 61.0795 93.5245 61.9966 94.1076 62.6377C94.6906 63.2788 95.4216 63.5991 96.3004 63.5987C97.1792 63.6003 97.928 63.2795 98.5469 62.6365V62.6377Z" fill="#00B6AC"/>
<path d="M109.215 66.8837C108.193 66.4389 107.386 65.829 106.794 65.054C106.211 64.3024 105.864 63.3967 105.798 62.4504H110.345C110.368 62.6992 110.445 62.9401 110.571 63.1567C110.696 63.3733 110.867 63.5605 111.072 63.7054C111.503 64.0258 112.032 64.1861 112.66 64.1865C113.233 64.1865 113.677 64.0751 113.991 63.8524C114.305 63.6296 114.462 63.3404 114.462 62.9849C114.462 62.5571 114.238 62.2411 113.79 62.0368C113.341 61.8326 112.615 61.6057 111.611 61.356C110.534 61.1068 109.637 60.8443 108.92 60.5686C108.201 60.2921 107.563 59.8423 107.063 59.2597C106.542 58.6636 106.282 57.8579 106.283 56.8428C106.276 56.0102 106.525 55.1954 106.996 54.5064C107.471 53.8029 108.171 53.2466 109.095 52.8373C110.019 52.4281 111.118 52.2233 112.391 52.2229C114.275 52.2229 115.759 52.6858 116.844 53.6117C117.929 54.5377 118.552 55.7669 118.714 57.2995H114.462C114.39 56.7832 114.162 56.3736 113.776 56.0706C113.391 55.7677 112.884 55.6164 112.256 55.6167C111.718 55.6167 111.306 55.7191 111.018 55.9237C110.881 56.0168 110.77 56.1427 110.695 56.2897C110.619 56.4367 110.583 56.6002 110.588 56.7651C110.588 57.1921 110.817 57.5126 111.274 57.7267C111.731 57.9408 112.444 58.1543 113.413 58.3672C114.525 58.6528 115.431 58.9333 116.13 59.2086C116.846 59.4964 117.48 59.9551 117.974 60.5442C118.503 61.158 118.777 61.9814 118.795 63.0144C118.805 63.852 118.545 64.6708 118.052 65.3507C117.559 66.0368 116.85 66.5754 115.926 66.9665C115.003 67.3576 113.931 67.5535 112.711 67.5543C111.403 67.5524 110.238 67.3289 109.215 66.8837Z" fill="#00B6AC"/>
<path d="M55.334 50.7035C56.6047 50.7035 57.6348 49.6811 57.6348 48.42C57.6348 47.1588 56.6047 46.1364 55.334 46.1364C54.0632 46.1364 53.0331 47.1588 53.0331 48.42C53.0331 49.6811 54.0632 50.7035 55.334 50.7035Z" fill="#00B6AC"/>
<path d="M139.949 51.2675C137.722 51.1878 135.512 50.845 133.367 50.2463C128.495 48.8815 124.079 46.2517 120.573 42.6279C117.281 39.1971 114.902 35.0067 113.651 30.4351C113.402 29.5253 113.201 28.6034 113.048 27.6732C112.94 27.0185 112.462 25.574 113.066 25.0997C113.153 25.0248 113.266 24.986 113.381 24.9914C113.441 24.9959 113.502 24.9914 113.563 24.9914C117.706 24.9914 121.849 24.99 125.992 24.9874C126.216 24.9854 126.433 25.0617 126.606 25.2027C126.779 25.3438 126.896 25.5407 126.937 25.759C127.099 26.605 127.337 27.4349 127.648 28.2389C128.091 29.366 128.675 30.4334 129.386 31.416C129.897 32.1314 130.492 32.7708 131.12 33.3841C134.427 36.6118 139.367 37.9575 143.885 36.9817C147.137 36.2793 150.096 34.3072 152.077 31.6639C153.291 30.0348 154.143 28.1677 154.574 26.1868C155.042 24.045 154.895 21.8273 154.897 19.6509C154.897 19.378 154.917 19.1017 155.072 18.8708C155.182 18.701 155.321 18.5507 155.481 18.426C157.535 16.8863 159.661 15.3488 161.748 13.8163C163.815 12.2981 165.801 10.6471 167.897 9.17261C168.206 8.95475 168.808 9.13462 168.889 9.51814C168.904 9.55975 168.925 9.59892 168.951 9.63444C169.061 9.79727 168.951 10.4157 168.951 10.6199V18.506C168.951 21.2185 169.062 23.9463 168.705 26.6424C168.058 31.4552 166.204 36.0298 163.314 39.9472C160.395 43.8908 156.485 47.0047 151.973 48.9777C151.135 49.3419 150.275 49.6585 149.408 49.9456C146.386 50.9526 143.155 51.3815 139.949 51.2675Z" fill="#FF9200"/>
<path d="M130.666 0.420136L133.189 5.49506C133.244 5.6047 133.324 5.69953 133.424 5.7714C133.523 5.84326 133.639 5.88999 133.761 5.90753L139.404 6.72167C139.544 6.74182 139.676 6.80054 139.785 6.89119C139.893 6.98184 139.974 7.10079 140.017 7.23459C140.061 7.36838 140.066 7.51165 140.032 7.64821C139.998 7.78477 139.926 7.90915 139.825 8.00726L135.742 11.9577C135.654 12.0429 135.588 12.1481 135.55 12.2642C135.511 12.3804 135.502 12.504 135.523 12.6244L136.487 18.2025C136.511 18.341 136.495 18.4834 136.442 18.6135C136.388 18.7436 136.299 18.8563 136.185 18.9389C136.07 19.0215 135.935 19.0707 135.793 19.0809C135.652 19.0911 135.511 19.062 135.385 18.9968L130.338 16.3632C130.229 16.3062 130.108 16.2764 129.985 16.2764C129.862 16.2764 129.74 16.3062 129.631 16.3632L124.584 18.9968C124.458 19.062 124.317 19.0911 124.176 19.0809C124.035 19.0707 123.899 19.0215 123.785 18.9389C123.67 18.8563 123.581 18.7436 123.528 18.6135C123.474 18.4834 123.459 18.341 123.482 18.2025L124.446 12.6244C124.467 12.504 124.458 12.3804 124.42 12.2642C124.382 12.1481 124.316 12.0429 124.228 11.9577L120.144 8.00726C120.043 7.90915 119.971 7.78477 119.937 7.64821C119.903 7.51165 119.908 7.36838 119.952 7.23459C119.996 7.10079 120.076 6.98184 120.185 6.89119C120.293 6.80054 120.425 6.74182 120.565 6.72167L126.208 5.90753C126.33 5.88989 126.446 5.84314 126.546 5.77129C126.645 5.69943 126.726 5.60464 126.78 5.49506L129.304 0.420136C129.367 0.294026 129.464 0.187858 129.584 0.113608C129.704 0.0393579 129.843 0 129.985 0C130.126 0 130.265 0.0393579 130.386 0.113608C130.506 0.187858 130.603 0.294026 130.666 0.420136Z" fill="#00B6AC"/>
</svg>
