<svg width="261" height="65" viewBox="0 0 261 65" fill="none" xmlns="http://www.w3.org/2000/svg">
<path fill-rule="evenodd" clip-rule="evenodd" d="M3.73042 41.5487C3.75416 40.4959 3.48023 39.4576 2.93976 38.5518C2.7829 38.3563 2.58456 38.1977 2.35889 38.0871C2.13323 37.9766 1.8858 37.9169 1.63425 37.9123C-0.719339 37.9123 0.0529336 41.5669 0.420682 42.9192C0.534967 43.4902 0.831604 44.0093 1.2665 44.3993C1.71983 44.7402 2.25001 44.966 2.81105 45.0572C2.95873 45.1102 3.1178 45.1239 3.27247 45.097C3.42713 45.07 3.57204 45.0034 3.69282 44.9037C3.8136 44.804 3.90606 44.6746 3.96103 44.5285C4.01601 44.3823 4.03159 44.2244 4.00623 44.0704C3.84478 43.2388 3.75253 42.3953 3.73042 41.5487ZM68.0864 25.7605C68.0864 25.7605 65.8432 7.0485 49.699 2.00504C43.6512 -0.148592 37.1055 -0.51669 30.8519 0.945184H30.6496C23.3946 2.07736 16.5553 5.04782 10.7912 9.57023C6.29542 13.2659 3.07981 18.2703 1.59748 23.8783C0.807538 27.1735 0.713625 30.5956 1.32167 33.9287C1.54232 35.1895 3.36267 36.3773 3.36267 34.3124C3.58332 11.3062 22.6511 7.01195 23.313 6.90231H24.0301C24.3241 6.82668 24.6279 6.79587 24.9311 6.81095C24.9834 6.81512 25.0324 6.83763 25.0695 6.87446C25.1065 6.91129 25.1292 6.96004 25.1334 7.01196C25.1428 7.0627 25.1353 7.11512 25.1121 7.16128C25.0889 7.20743 25.0512 7.24482 25.0047 7.26778L23.4969 7.88908C20.2008 9.05818 17.1012 10.7154 14.3032 12.8046C9.58057 16.7183 6.42364 22.1827 5.40368 28.2091C5.03574 32.6459 5.10965 37.108 5.62433 41.5304C6.22539 44.5408 7.48043 47.3845 9.30181 49.8631C12.7667 53.9802 17.1828 57.2028 22.173 59.2556C24.1299 59.8013 26.1198 60.2224 28.1305 60.5164C28.2216 60.5342 28.3025 60.5855 28.357 60.6601C28.4116 60.7346 28.4358 60.8269 28.4247 60.9184C28.4156 61.0089 28.3728 61.0927 28.3048 61.1536C28.2368 61.2144 28.1485 61.2478 28.057 61.2474C25.9608 61.5763 20.9227 60.4251 16.7487 58.3967C13.9395 56.9153 11.4426 54.9116 9.39375 52.4944C8.5443 51.562 7.7522 50.5796 7.02177 49.5524C6.1024 48.3281 5.47723 47.4692 4.96238 47.5606C3.54654 47.8713 4.76011 50.8681 5.40368 52.0193C7.43642 55.4723 10.2901 58.3773 13.7148 60.4799C18.7895 63.1683 24.5292 64.3662 30.2635 63.9336C43.3921 62.8554 51.4642 56.6242 55.0681 51.6356L55.3072 51.3249C59.3679 46.3795 61.6349 40.2194 61.7428 33.8373V33.417C61.7428 31.0597 61.6324 22.252 58.5985 17.4826L58.3779 17.0989C57.4401 15.4908 54.9026 11.1966 47.3454 7.46879C45.5352 6.50131 43.5578 5.88138 41.5166 5.64145C40.5421 5.64145 38.5562 5.53181 38.7585 4.38058C38.8688 3.55828 43.7415 4.65468 44.2747 4.76432C48.2626 6.13714 51.9915 8.16297 55.3072 10.758C64.9606 18.0674 63.986 33.6363 63.986 33.6363C63.5631 50.0823 53.8729 57.1359 46.8673 61.2839C46.7386 61.2839 46.2238 61.9966 46.3709 62.2524C46.4313 62.328 46.5107 62.3864 46.6011 62.4217C46.6915 62.457 46.7897 62.4679 46.8857 62.4534H47.1983C50.0212 61.8145 52.6189 60.4322 54.7188 58.4515C65.1996 50.3016 66.6338 43.7415 67.3142 40.635C67.3607 40.3638 67.4221 40.0954 67.498 39.831C68.362 35.1918 68.554 30.4536 68.068 25.7605H68.0864ZM40.6892 23.2204C41.2224 23.2204 41.4247 23.458 41.5718 24.0062C41.6747 24.3243 41.7606 24.6476 41.8292 24.9747C42.034 25.9838 42.3042 26.9788 42.6382 27.9533L44.8079 28.5197C46.6467 28.9766 48.7061 29.5248 49.5887 29.8902L50.4713 30.2192C53.3949 31.3521 54.7739 32.0465 54.8291 32.6495C54.8343 32.973 54.7161 33.2864 54.4981 33.5266C54.3643 33.6728 54.1987 33.7866 54.0138 33.8594C53.829 33.9323 53.6299 33.9622 53.4316 33.9469C53.0455 33.9469 46.3893 34.2759 39.7882 34.9702C37.1036 35.2809 34.8236 35.555 33.0216 35.8474C25.8321 37.0351 13.2367 39.502 12.7954 39.63C12.7106 39.6483 12.6228 39.6483 12.538 39.63C12.3821 39.653 12.2229 39.6366 12.0751 39.5823C11.9272 39.528 11.7955 39.4375 11.6922 39.3193C11.631 39.2374 11.5979 39.1381 11.5979 39.0361C11.5979 38.934 11.631 38.8347 11.6922 38.7528C13.6653 37.1411 15.7896 35.7214 18.0358 34.5134C19.8746 33.4535 22.0811 32.4485 23.2395 31.9003L24.1221 31.48L25.5195 29.4151C27.3583 26.5462 27.5054 26.4183 27.7444 26.3817C27.9834 26.3452 30.8519 25.6325 33.6836 24.9016C37.8943 23.9331 40.4869 23.257 40.6708 23.2204H40.6892Z" fill="white"/>
<path fill-rule="evenodd" clip-rule="evenodd" d="M247.713 43.1567L247.015 45.112L246.316 43.1567H245.58V45.715H246.077V43.577L246.831 45.715H247.235L247.989 43.577V45.715H248.486V43.1567H247.713ZM243.153 43.1567V43.577H243.944V45.715H244.422V43.577H245.194V43.1567H243.153Z" fill="white"/>
<path fill-rule="evenodd" clip-rule="evenodd" d="M233.04 32.4302C231.459 32.0648 230.631 33.1429 229.933 34.0748L229.583 34.5499C227.109 37.7759 223.741 40.2145 219.893 41.5669C220.739 39.0635 221.842 33.2525 218.275 32.4302C217.621 32.2933 216.945 32.2958 216.292 32.4376C215.639 32.5793 215.024 32.8571 214.487 33.2525C214.489 33.5006 214.561 33.7432 214.694 33.953C214.827 34.1628 215.017 34.3316 215.241 34.4403C215.458 34.5517 215.641 34.7191 215.77 34.9249C215.9 35.1306 215.971 35.3672 215.977 35.6098C215.705 36.3394 215.392 37.0532 215.039 37.7478C213.697 40.4705 211.968 43.979 214.524 46.2997C217.484 48.9859 222.302 45.7515 223.718 44.6551C224.049 44.4176 224.38 44.1252 224.692 43.8694C225.257 43.2579 225.974 42.8043 226.77 42.5537C227.101 46.0074 228.443 48.3646 231.551 48.7849C231.788 48.4765 231.939 48.1119 231.991 47.7273C232.042 47.3428 231.992 46.9515 231.845 46.5921C231.758 46.1895 231.708 45.7796 231.698 45.3678C231.884 43.1901 232.285 41.0358 232.893 38.9356C232.985 38.5153 233.114 38.095 233.224 37.6747C233.794 35.8291 234.364 34.0018 233.04 32.4302ZM145.81 46.0987C145.408 46.2207 144.996 46.3063 144.578 46.3546C141.226 46.5162 137.87 46.1209 134.649 45.1851C131.202 44.2019 127.624 43.752 124.039 43.8511C125.198 42.6451 126.577 41.439 127.974 40.1964C128.93 39.3741 129.813 38.5335 130.806 37.6747L131.21 37.3092C132.865 35.7925 134.888 33.8921 134.888 31.3338C134.895 30.7125 134.795 30.0946 134.594 29.5065C132.519 29.0086 130.378 28.8421 128.25 29.0131H126.264C125.602 29.0131 124.94 29.0131 124.297 29.0131C123.653 29.0131 122.918 28.9035 122.219 28.8121C119.443 28.5197 116.703 28.2091 116.923 30.4567C117.162 33.7825 123.892 33.4353 127.404 33.1063C125.694 34.6596 123.727 36.1946 121.888 37.7478C121.005 38.4605 120.049 39.1548 119.259 39.8858C118.891 40.1964 118.468 40.5071 118.027 40.836C115.931 42.4258 113.393 44.3628 113.393 47.3413C113.391 47.8477 113.459 48.3519 113.595 48.8397C115.564 49.6477 117.755 49.7511 119.792 49.1321C120.927 48.9084 122.075 48.7619 123.23 48.6936C126.308 48.6557 129.384 48.8758 132.424 49.3514C134.914 49.7352 137.426 49.955 139.945 50.0092C140.754 50.0092 141.563 50.0092 142.39 49.8996C144.928 49.6986 148.918 48.8397 148.697 46.0805C148.246 45.8653 147.752 45.7551 147.251 45.7583C146.751 45.7614 146.258 45.8779 145.81 46.0987ZM114.368 27.9898C114.221 27.8832 114.054 27.8085 113.876 27.7707C113.699 27.7329 113.515 27.7329 113.338 27.7705C113.159 27.81 112.99 27.8876 112.844 27.998C112.698 28.1085 112.578 28.249 112.492 28.4101C111.885 29.1228 111.15 29.9085 110.341 30.7674C107.049 34.2576 102.765 38.8077 103.243 43.5587C103.464 45.6784 104.677 48.3464 107.436 47.451C107.833 47.0294 108.056 46.4751 108.061 45.8977C108.079 45.5471 108.154 45.2017 108.281 44.8744C109.051 43.1943 110.021 41.6116 111.168 40.1599C113.577 36.7245 116.059 33.3622 114.368 27.9898ZM175.524 36.7245C174.458 36.4869 173.428 36.2494 173.097 35.0982C173.017 34.0157 173.281 32.9357 173.851 32.0099C174.605 30.3653 175.395 28.6476 173.961 27.204C173.714 27.0871 173.444 27.0265 173.171 27.0265C172.897 27.0265 172.627 27.0871 172.38 27.204C171.994 27.3137 171.644 27.4233 171.405 27.204C164.05 26.2904 156.401 30.274 154.544 35.6646C154.197 37.1501 154.248 38.6999 154.691 40.1599C152.43 41.0736 149.671 40.4888 147.024 39.9406C146.049 39.7396 145.075 39.5386 144.155 39.4107C145.185 38.4787 146.123 37.5833 147.097 36.6148C148.072 35.6464 148.936 34.8789 149.911 33.9104C150.186 33.6545 150.517 33.3805 150.903 33.0698C152.742 31.6445 155.224 29.5613 154.268 27.0944C153.625 25.4498 150.793 25.1209 148.752 25.1209C147.268 25.1567 145.788 25.2849 144.321 25.5046C142.623 25.7676 140.908 25.902 139.191 25.9066C138.812 25.8785 138.44 25.7922 138.087 25.6508C137.481 25.4498 136.911 25.2671 136.377 25.6508C133.674 31.2425 142.206 30.8953 146.417 30.4384C144.891 31.9162 143.201 33.216 141.379 34.3124C139.097 35.6209 137.067 37.3225 135.384 39.3376C134.898 39.8811 134.555 40.5368 134.388 41.2453C134.221 41.9538 134.235 42.6925 134.428 43.3943C134.803 43.6487 135.232 43.814 135.682 43.8774C136.131 43.9407 136.59 43.9005 137.021 43.7597C137.389 43.7597 137.738 43.6501 138.087 43.6318C140.12 43.6187 142.153 43.7224 144.174 43.9425C147.943 44.2714 151.529 44.6003 154.324 43.3394C155.099 42.8185 155.842 42.251 156.548 41.64C160.943 43.0471 164.253 41.0918 166.974 39.4838C167.434 39.2097 167.875 38.9538 168.298 38.7346C170.137 41.1466 177.492 41.2928 178.08 38.1498C177.775 37.7508 177.391 37.4184 176.951 37.1732C176.512 36.928 176.026 36.7753 175.524 36.7245ZM168.169 31.9186C167.985 32.1927 167.783 32.4668 167.82 32.6861C167.534 33.2554 167.371 33.8779 167.342 34.5134C166.698 34.7327 166.11 34.9885 165.503 35.2443C164.137 35.9699 162.62 36.3702 161.072 36.4138C161.862 33.216 164.749 31.9734 168.114 31.1328C168.629 31.2425 168.39 31.5166 168.169 31.882V31.9186ZM257.22 27.0579H256.429C254.682 27.0579 252.862 27.0579 251.225 27.0579C249.589 27.0579 248.486 27.0579 247.548 27.0579C247.748 26.6532 247.975 26.2625 248.228 25.8884C249.111 24.5179 250.159 22.8915 248.927 20.918C246.647 20.315 245.525 21.7403 244.256 23.3301L243.631 24.0976C243.19 24.6275 242.804 25.1574 242.473 25.6325C241.848 26.4914 241.37 27.1675 240.892 27.2771C239.788 27.4317 238.664 27.3124 237.619 26.9299C236.742 26.5912 235.795 26.472 234.86 26.5828C234.493 26.7078 234.168 26.9337 233.924 27.2345C233.68 27.5352 233.526 27.8984 233.481 28.2822C233.481 30.1095 235.32 30.7125 237.159 31.2973C237.582 31.4252 238.023 31.5531 238.446 31.7176C237.179 34.1685 236.18 36.7477 235.467 39.4107C234.824 42.0603 234.088 46.0074 235.614 48.8215C237.104 48.5656 237.692 46.9941 238.189 45.7881C238.299 45.4957 238.391 45.2216 238.501 44.9841C240.412 40.2608 242.686 35.6911 245.305 31.3156C249.293 30.91 253.238 30.1517 257.091 29.0497C257.387 28.9756 257.688 28.9207 257.992 28.8852C259.003 28.7207 260.051 28.5563 260.382 27.5695C259.555 26.9117 258.268 26.9665 257.183 27.0213L257.22 27.0579ZM113.338 20.4612C112.216 22.0692 111.849 25.2488 113.981 25.8335C114.251 25.9058 114.529 25.9427 114.809 25.9432C116.648 25.9432 118.266 24.1158 119.314 22.8915C119.534 22.6357 119.718 22.4164 119.902 22.2337C120.086 22.0509 120.325 21.7586 120.546 21.5393C122.082 20.2012 123.183 18.4392 123.708 16.4776C120.362 15.4177 115.085 17.9577 113.338 20.4612ZM214.708 28.6842C214.234 28.8125 213.746 28.88 213.255 28.8852C213.768 27.0262 214.382 25.1962 215.094 23.4032L215.407 22.5261C216.013 20.8815 216.694 19.0176 215.407 17.4095C212.74 17.8663 211.435 20.0592 210.276 22.0144C210.129 22.252 210.001 22.4895 209.854 22.7088C209.192 23.8235 208.585 24.9747 208.015 26.1076C207.445 27.2406 206.709 28.5745 205.992 29.7623L203.363 29.872C201.611 29.9736 199.855 29.9736 198.104 29.872C198.821 28.5015 199.373 27.1858 199.943 25.7422C200.292 24.9016 200.678 24.0062 201.12 23.0377C201.12 22.8915 201.267 22.7088 201.377 22.4895C202.241 20.6622 204.319 16.3496 201.8 15.7649C201.746 15.7468 201.688 15.7468 201.634 15.7649C198.306 16.6786 195.658 21.2469 193.36 25.3402C192.49 26.9658 191.507 28.529 190.418 30.0182H189.83C186.299 29.9268 182.291 29.8171 182.475 32.3389C182.585 33.9104 184.313 34.5682 185.895 35.2078C186.527 35.4305 187.141 35.6992 187.733 36.0118C187.623 36.3407 187.439 36.8341 187.2 37.4189C185.95 40.6533 183.523 47.0124 186.446 48.8397C190.124 51.1239 191.963 45.916 192.827 43.6318C193.655 41.0735 194.663 38.5761 195.842 36.158C197.251 36.0315 198.65 35.8241 200.035 35.5367C201.432 35.2283 202.853 35.0328 204.282 34.952C204.19 35.2992 204.098 35.6646 203.988 36.0484C202.973 38.6059 202.921 41.4412 203.841 44.0338C206.525 45.7515 208.548 43.8876 209.357 42.2065C210.168 40.4156 210.725 38.5214 211.012 36.5783C211.236 35.1382 211.625 33.7282 212.17 32.3754C212.718 32.0725 213.29 31.8158 213.88 31.6079C215.296 31.078 216.712 30.5481 217.006 28.9766C216.455 28.3004 215.59 28.4832 214.708 28.6842ZM94.0495 14.9609C90.8501 15.1802 86.2164 16.1121 87.191 20.4429C88.0925 20.9374 89.1368 21.1115 90.1514 20.9363H90.8685C87.085 25.1074 83.9435 29.812 81.546 34.8971C79.5269 38.8929 78.0137 43.1219 77.0411 47.4875V47.8164C76.742 48.5925 76.6661 49.436 76.8219 50.2526C76.9778 51.0691 77.3593 51.8263 77.9237 52.4396C80.8289 52.202 82.1896 49.5159 83.3296 47.25C83.4951 46.9028 83.6606 46.5738 83.8445 46.2449L84.4329 45.1668C88.8663 37.5806 92.4664 29.5429 95.1711 21.1921C98.9589 21.7768 102.177 23.7138 102.305 27.0396C102.434 30.8222 97.7638 32.9967 94.7482 33.819C94.2038 33.9534 93.651 34.051 93.0933 34.1114C91.9426 34.1084 90.8306 34.5244 89.9675 35.2809C90.4214 35.8625 91.0188 36.3178 91.7017 36.6027C92.3846 36.8876 93.13 36.9925 93.8656 36.9072C94.48 36.9027 95.0938 36.8661 95.7044 36.7976C101.938 36.3042 108.576 32.3206 108.704 26.199C108.851 18.6886 101.423 14.504 94.0495 14.9609Z" fill="white"/>
</svg>
